<?xml version="1.0" encoding="UTF-8"?>
<svg width="375px" height="812px" viewBox="0 0 375 812" version="1.1" xmlns="http://www.w3.org/2000/svg" xmlns:xlink="http://www.w3.org/1999/xlink">
    <title>splash_testd</title>
    <defs>
        <linearGradient x1="50%" y1="3.41837969e-15%" x2="50%" y2="100%" id="linearGradient-1">
            <stop stop-color="#0F84A9" offset="0%"></stop>
            <stop stop-color="#FFFFFF" offset="43.65%"></stop>
            <stop stop-color="#FFFFFF" offset="100%"></stop>
        </linearGradient>
    </defs>
    <g id="logon" stroke="none" stroke-width="1" fill="none" fill-rule="evenodd">
        <g id="splash_testd">
            <g id="Group" transform="translate(125.000000, 390.000000)" fill-rule="nonzero">
                <path d="M108.7,37.195122 C108.4,37.195122 108,37.0731707 107.8,36.7073171 L104,32.0731707 C103.5,31.4634146 103.5,30.3658537 104,29.7560976 C104.5,29.1463415 105.4,29.1463415 105.9,29.7560976 L108.7,33.1707317 L115.3,25.1219512 C115.8,24.5121951 116.7,24.5121951 117.2,25.1219512 C117.7,25.7317073 117.7,26.8292683 117.2,27.4390244 L109.7,36.5853659 C109.3,37.0731707 109,37.195122 108.7,37.195122 Z" id="Path" fill="#1283A8"></path>
                <path d="M33.2,49.0243902 C24.7,49.0243902 17.9,40.6097561 17.9,30.3658537 C17.9,20 24.8,11.7073171 33.2,11.7073171 C41.6,11.7073171 48.5,20.1219512 48.5,30.3658537 L48.5,34.1463415 L24.5,34.1463415 C25.8,38.5365854 29.3,41.5853659 33.1,41.5853659 C36.3,41.5853659 39.1,39.6341463 40.8,36.3414634 L41,35.8536585 L46.2,39.8780488 L46,40.3658537 C43.3,45.8536585 38.4,49.0243902 33.2,49.0243902 Z M41.8,26.5853659 C40.5,22.195122 37,19.1463415 33.2,19.1463415 C29.3,19.1463415 25.9,22.195122 24.6,26.5853659 L41.8,26.5853659 Z" id="Shape" fill="#15BCC5"></path>
                <path d="M50.6,48.7804878 L50.6,41.2195122 L66.1,41.2195122 C67.8,41.2195122 69.1,39.5121951 69.1,37.5609756 C69.1,35.4878049 67.7,33.902439 66.1,33.902439 L59.5,33.902439 C54.5,33.7804878 50.4,28.7804878 50.4,22.6829268 C50.4,16.4634146 54.5,11.4634146 59.6,11.4634146 L69.3,11.4634146 L69.3,19.0243902 L59.7,19.0243902 C58,19.0243902 56.7,20.7317073 56.7,22.6829268 C56.7,24.7560976 58.1,26.3414634 59.7,26.3414634 L66.2,26.3414634 C71.3,26.3414634 75.4,31.3414634 75.4,37.5609756 C75.4,43.7804878 71.3,48.7804878 66.2,48.7804878 L50.6,48.7804878 Z" id="Path" fill="#15BCC5"></path>
                <path d="M110.6,49.0243902 C102.1,49.0243902 95.3,40.6097561 95.3,30.3658537 C95.3,20 102.2,11.7073171 110.6,11.7073171 C113.9,11.7073171 117.1,13.0487805 119.8,15.4878049 L119.8,1.58536585 L126,1.58536585 L126,30.3658537 C126,40.7317073 119.1,49.0243902 110.6,49.0243902 Z M110.6,19.2682927 C105.5,19.2682927 101.4,24.2682927 101.4,30.4878049 C101.4,36.7073171 105.5,41.7073171 110.6,41.7073171 C115.7,41.7073171 119.8,36.7073171 119.8,30.4878049 C119.8,24.2682927 115.7,19.2682927 110.6,19.2682927 Z" id="Shape" fill="#15BCC5"></path>
                <path d="M13.8,39.6341463 L18.3,47.6829268 L12.4,47.6829268 C5.5,47.6829268 0.6,43.5365854 0.6,32.804878 L0.6,0.365853659 L7.4,0.731707317 L7.4,10.6097561 L13.2,10.6097561 L18.6,18.6585366 L7.4,18.6585366 L7.4,32.804878 C7.4,37.4390244 9,39.6341463 12.4,39.6341463 L13.8,39.6341463 L13.8,39.6341463 Z" id="Path" fill="#15BCC5"></path>
                <path d="M91.1,39.6341463 L95.6,47.6829268 L89.7,47.6829268 C82.8,47.6829268 77.9,43.5365854 77.9,32.804878 L77.9,0.975609756 L84.7,0.731707317 L84.7,10.6097561 L90.5,10.6097561 L95.9,18.6585366 L84.7,18.6585366 L84.7,32.804878 C84.7,37.4390244 86.3,39.6341463 89.7,39.6341463 L91.1,39.6341463 L91.1,39.6341463 Z" id="Path" fill="#15BCC5"></path>
            </g>
            <rect id="Rectangle" fill="url(#linearGradient-1)" x="0" y="0" width="375" height="812"></rect>
            <path d="M364.865258,218.236189 C364.765042,218.599722 364.664826,219.084434 364.56461,219.447967 C364.364178,220.053857 364.06353,220.659746 363.762882,221.144457 C363.662666,221.265635 363.662666,221.386813 363.56245,221.386813 C363.56245,221.386813 363.56245,221.507991 363.462234,221.507991 C363.362018,221.629169 363.261802,221.750347 363.161586,221.871524 C362.760722,222.235058 362.460074,222.598592 361.958994,222.962125 C361.758562,223.083303 361.658346,223.204481 361.457914,223.325659 C361.257482,223.446837 361.157266,223.568014 360.956834,223.568014 C360.656186,223.689192 360.355538,223.81037 360.155106,223.931548 C360.05489,223.931548 359.854458,224.052726 359.754242,224.052726 C359.55381,224.052726 359.453594,224.173904 359.253162,224.173904 C359.05273,224.295082 358.852298,224.295082 358.752082,224.295082 C358.55165,224.416259 358.251002,224.416259 358.05057,224.416259 C353.54085,225.385682 348.429834,224.173904 348.429834,224.173904 C330.290739,233.504599 314.556827,225.991572 314.556827,225.991572 C306.038468,229.021018 300.125724,224.900971 300.125724,224.900971 C299.424212,225.385682 298.7227,225.870394 298.021188,226.233927 C295.816436,227.566884 293.611684,228.657484 291.406932,229.505729 C268.958549,238.594068 246.510165,227.082172 246.510165,227.082172 C227.569342,236.776401 213.639318,226.112749 213.639318,226.112749 C208.428086,230.959864 199.208215,228.172773 199.208215,228.172773 C180.167175,236.776401 168.041039,224.537437 167.539959,224.052726 L167.539959,224.052726 C154.712312,229.384551 149.100216,222.840947 149,217.145588 C149,216.297343 149.100216,215.32792 149.400864,214.600853 C149.50108,214.23732 149.601296,213.994964 149.701512,213.752608 C152.00648,208.54196 158.821168,206.360759 165.234992,208.663138 C177.260911,201.392467 190.088559,208.299605 190.088559,208.299605 C193.395687,194.000618 206.022902,197.393598 206.022902,197.393598 C206.32355,188.668792 213.038022,188.062903 213.038022,188.062903 C205.421606,170.12858 218.249254,163.584976 218.249254,163.584976 C221.85703,149.164812 235.486406,147.104788 242.200877,153.284859 C270.662221,147.589499 276.073884,174.12745 276.073884,174.12745 C293.511468,159.707285 301.829396,176.91454 301.829396,176.91454 C311.149484,177.52043 314.256179,185.518168 314.256179,185.518168 C331.994411,182.246366 336.504131,202.846601 336.504131,202.846601 C343.819899,198.96891 350.03329,206.360759 350.03329,206.360759 C355.04409,202.967779 360.856618,205.512514 363.462234,210.480806 C364.765042,212.662008 365.266122,215.32792 364.865258,218.236189 Z" id="Path" fill="#FFFFFF" fill-rule="nonzero" opacity="0.7"></path>
            <path d="M154.323562,161.427604 C154.024131,162.654769 153.7247,163.881935 153.225649,164.986384 L153.225649,164.986384 C145.939504,182.412137 116.49549,170.14048 116.49549,170.14048 C116.49549,170.14048 96.7330681,184.252886 58.5057562,171.613079 C58.5057562,171.613079 43.7338445,176.153592 34.4514946,176.889892 C25.1691447,177.626191 7.00368578,174.926426 6.00558364,160.936737 C6.00558364,160.691304 6.00558364,160.323154 6.00558364,160.077721 C5.80596321,152.714727 10.9960943,150.014963 15.5873642,149.03323 L15.5873642,149.03323 C19.1805319,148.296931 22.3744587,148.66508 22.3744587,148.66508 C22.3744587,148.66508 25.0693345,128.907712 44.3327058,126.330664 C44.3327058,126.330664 51.2196106,104.487115 67.6882959,113.445424 C67.6882959,113.445424 79.6655215,85.9569126 104.518265,106.81873 C104.518265,106.81873 118.890936,102.400933 121.08676,120.562986 C121.08676,120.562986 135.858672,116.758772 137.854876,137.988739 C137.854876,137.988739 149.03362,138.602321 153.325459,147.437915 C154.922423,150.751262 155.621094,155.291775 154.323562,161.427604 Z" id="Path" fill="#FFFFFF" fill-rule="nonzero" opacity="0.9"></path>
            <path d="M350,86.6211103 C350.098888,90.3307395 339.839195,88.6554231 339.839195,88.6554231 C339.839195,88.6554231 336.153674,91.8863905 326.093198,90.8094014 C326.093198,90.8094014 314.538592,96.194347 296.907858,92.1257214 C296.907858,92.1257214 292.126641,94.3993651 284.556382,93.6813724 C284.556382,93.6813724 272.404124,97.2713361 260.052649,92.6043832 C259.554606,92.3650523 248,92.6043832 248,88.6554231 C248,88.2964267 248.099609,88.0570958 248.199217,87.6980994 L248.199217,87.6980994 C248.896478,85.5441212 252.183564,83.7491393 256.566346,83.150812 L256.566346,83.150812 C259.25578,82.6721502 262.24404,82.6721502 265.331909,83.2704775 C265.331909,83.2704775 267.423691,79.9198446 272.304516,81.1164992 C272.304516,81.1164992 282.066166,73.2185789 300.892204,77.0478736 C300.892204,77.0478736 311.251506,76.4495463 314.73781,83.150812 C314.73781,83.150812 325.794372,77.1675391 339.938804,82.3131538 C339.938804,82.3131538 346.014933,81.1164992 348.803975,84.1081357 C349.20241,84.467132 349.501236,85.0654593 349.700453,85.5441212 C349.899671,86.022783 350,86.3817794 350,86.6211103 Z" id="Path" fill="#FFFFFF" fill-rule="nonzero" opacity="0.9"></path>
            <path d="M209.94576,45.4081119 C209.94576,45.5294429 209.94576,45.6507739 209.94576,45.8934358 C209.94576,46.1360977 209.845918,46.2574287 209.845918,46.5000906 L209.845918,46.6214216 C209.845918,46.7427525 209.746075,46.8640835 209.746075,47.1067454 C209.746075,47.1067454 209.746075,47.1067454 209.746075,47.2280764 C209.646233,47.3494074 209.646233,47.4707383 209.54639,47.5920693 C209.446547,47.8347312 209.346705,47.9560622 209.14702,48.1987241 C209.047177,48.3200551 208.947335,48.441386 208.847492,48.562717 L208.74765,48.684048 C208.647807,48.8053789 208.547964,48.9267099 208.448122,49.0480409 C208.348279,49.1693718 208.148594,49.2907028 208.048752,49.4120338 C207.549539,49.8973576 206.950484,50.2613505 206.351428,50.5040124 C206.051901,50.6253434 205.852216,50.7466744 205.552688,50.8680053 L205.552688,50.8680053 C204.753948,51.2319982 203.955207,51.4746602 203.156467,51.7173221 C202.856939,51.838653 202.557411,51.838653 202.357726,51.959984 C202.257884,51.959984 202.257884,51.959984 202.158041,51.959984 C201.958356,51.959984 201.758671,52.081315 201.459143,52.081315 C200.16119,52.3239769 198.763395,52.5666388 197.565284,52.6879698 C197.365599,52.6879698 197.165914,52.6879698 196.966229,52.6879698 C196.566858,52.6879698 196.167488,52.6879698 195.867961,52.6879698 C195.768118,52.6879698 195.568433,52.6879698 195.46859,52.6879698 C195.368748,52.6879698 195.169063,52.6879698 195.06922,52.6879698 C193.671424,52.6879698 192.872684,52.6879698 192.872684,52.6879698 C192.872684,52.6879698 181.790161,62.151785 161.621966,55.478582 C161.621966,55.478582 154.73283,57.6625393 149.041805,53.0519627 L149.041805,53.0519627 C148.542592,53.5372865 137.460069,64.0930804 119.688095,52.8093008 C119.688095,52.8093008 109.004942,54.6292652 107.307619,48.562717 C107.307619,48.441386 107.307619,48.441386 107.207776,48.3200551 C106.808406,46.6214216 107.008091,44.9227881 107.607146,43.2241546 C109.30447,38.370916 114.596125,34.2456632 121.285576,35.5803038 C123.282427,33.1536845 126.577231,31.3337201 129.971877,33.8816703 C129.971877,33.8816703 134.964005,5.97554853 161.122753,11.7994348 C161.122753,11.7994348 180.791736,8.64482975 181.490633,25.9951576 C181.490633,25.9951576 192.972527,27.0871363 199.162765,34.973649 C204.45442,35.2163109 210.644658,38.249585 209.94576,45.4081119 Z" id="Path" fill="#FFFFFF" fill-rule="nonzero" opacity="0.76"></path>
        </g>
    </g>
</svg>