<?xml version="1.0" encoding="UTF-8"?>
<svg width="177px" height="34px" viewBox="0 0 177 34" version="1.1" xmlns="http://www.w3.org/2000/svg" xmlns:xlink="http://www.w3.org/1999/xlink">
    <title>Testd|AC_logo</title>
    <g id="Symbols" stroke="none" stroke-width="1" fill="none" fill-rule="evenodd">
        <g id="375_header" transform="translate(-99.000000, -29.000000)" fill-rule="nonzero">
            <g id="Testd|AC_logo" transform="translate(99.000000, 29.000000)">
                <text id="™" fill="#043B5D" font-family="Helvetica" font-size="6.5" font-weight="normal">
                    <tspan x="170.37943" y="11.041075">™</tspan>
                </text>
                <path d="M142.025,33.41 L142.025,31.33 C141.83,31.525 141.505,31.72 141.115,31.98 C140.4,32.5 137.41,33.67 134.485,33.67 C130.715,33.67 127.53,32.37 124.93,29.835 C122.33,27.235 121.095,24.05 121.095,20.345 C121.095,16.64 122.395,13.52 124.93,10.92 C127.595,8.255 130.715,7.02 134.485,7.02 C138.125,7.02 141.31,8.255 143.91,10.66 C146.575,13.065 147.875,16.38 147.875,20.605 L147.875,33.475 L142.025,33.475 L142.025,33.41 Z M134.485,28.08 C138.71,28.08 142.025,24.83 142.025,20.345 C142.025,15.925 138.84,12.61 134.485,12.61 C130.26,12.61 126.945,15.925 126.945,20.345 C126.945,24.83 130.26,28.08 134.485,28.08 Z" id="Shape" fill="#043B5D"></path>
                <path d="M168.415,7.345 L168.415,13 L165.425,13 C159.64,13 156.26,15.73 156.26,20.41 C156.26,25.09 159.64,27.82 165.425,27.82 L168.415,27.82 L168.415,33.475 L165.425,33.475 C160.68,33.475 156.91,32.24 154.31,29.77 C151.645,27.235 150.41,24.115 150.41,20.41 C150.41,16.705 151.71,13.585 154.31,11.115 C156.975,8.58 160.68,7.41 165.425,7.41 L168.415,7.41 L168.415,7.345 Z" id="Path" fill="#043B5D"></path>
                <g id="Group">
                    <path d="M92.69,25.35 C92.43,25.35 92.105,25.22 91.91,25.025 L88.66,21.775 C88.205,21.32 88.205,20.605 88.66,20.15 C89.115,19.695 89.83,19.695 90.285,20.15 L92.69,22.555 L98.345,16.9 C98.8,16.445 99.515,16.445 99.97,16.9 C100.425,17.355 100.425,18.07 99.97,18.525 L93.535,24.96 C93.275,25.285 93.015,25.35 92.69,25.35 Z" id="Path" fill="#0F84A9"></path>
                    <path d="M27.885,33.67 C20.605,33.67 14.755,27.755 14.755,20.54 C14.755,13.325 20.67,7.41 27.885,7.41 C35.1,7.41 41.015,13.325 41.015,20.54 L41.015,23.205 L20.475,23.205 C21.58,26.325 24.57,28.405 27.885,28.405 C30.615,28.405 33.085,27.04 34.515,24.765 L34.71,24.44 L39.195,27.3 L39,27.625 C36.595,31.33 32.435,33.67 27.885,33.67 Z M35.36,17.875 C34.255,14.755 31.265,12.675 27.95,12.675 C24.635,12.675 21.645,14.82 20.54,17.875 L35.36,17.875 Z" id="Shape" fill="#FFFFFF"></path>
                    <path d="M42.9,33.67 L42.9,28.405 L56.225,28.405 C57.655,28.405 58.825,27.235 58.825,25.805 C58.825,24.375 57.655,23.205 56.225,23.205 L50.505,23.205 C46.215,23.14 42.705,19.63 42.705,15.275 C42.705,10.92 46.28,7.345 50.635,7.345 L58.89,7.345 L58.89,12.61 L50.635,12.61 C49.205,12.61 48.035,13.78 48.035,15.21 C48.035,16.64 49.205,17.81 50.635,17.81 L56.225,17.81 C60.58,17.81 64.155,21.385 64.155,25.74 C64.155,30.095 60.58,33.67 56.225,33.67 L42.9,33.67 Z" id="Path" fill="#FFFFFF"></path>
                    <path d="M94.445,33.735 C87.165,33.735 81.315,27.82 81.315,20.605 C81.315,13.39 87.23,7.475 94.445,7.475 C97.305,7.475 100.035,8.385 102.31,10.075 L102.31,0.325 L107.575,0.325 L107.575,20.605 C107.575,27.82 101.66,33.735 94.445,33.735 Z M94.445,12.675 C90.09,12.675 86.58,16.185 86.58,20.54 C86.58,24.895 90.09,28.405 94.445,28.405 C98.8,28.405 102.31,24.895 102.31,20.54 C102.31,16.25 98.735,12.675 94.445,12.675 Z" id="Shape" fill="#FFFFFF"></path>
                    <path d="M11.31,28.015 L15.145,33.67 L10.075,33.67 C4.16,33.67 0,30.745 0,23.205 L0,0.39 L5.785,0.325 L5.785,7.605 L10.79,7.605 L15.405,13.26 L5.85,13.26 L5.85,23.205 C5.85,26.455 7.28,28.015 10.14,28.015 L11.31,28.015 L11.31,28.015 Z" id="Path" fill="#FFFFFF"></path>
                    <path d="M77.675,27.885 L81.51,33.54 L76.44,33.54 C70.525,33.54 66.365,30.615 66.365,23.075 L66.365,0.325 L72.15,0.52 L72.15,7.475 L77.155,7.475 L81.77,13.13 L72.15,13.13 L72.15,23.075 C72.15,26.325 73.58,27.885 76.44,27.885 L77.675,27.885 Z" id="Path" fill="#FFFFFF"></path>
                </g>
                <rect id="Rectangle" fill="#043B5D" x="113.36" y="0.39" width="1.95" height="33.28"></rect>
            </g>
        </g>
    </g>
</svg>