<svg width="70" height="71" viewBox="0 0 70 71" fill="none" xmlns="http://www.w3.org/2000/svg">
<path d="M61.4424 19.1825H46.7324V16.52H61.4424V19.1825Z" fill="#0F84A9"/>
<path d="M61.4424 23.8416H46.7324V20.9573H61.4424V23.8416Z" fill="#0F84A9"/>
<path d="M61.4424 28.1683H46.7324V25.5059H61.4424V28.1683Z" fill="#0F84A9"/>
<path d="M61.4424 32.8275H51.4849V30.165H61.4424V32.8275Z" fill="#0F84A9"/>
<path d="M61.4424 37.3758H51.4849V34.4915H61.4424V37.3758Z" fill="#0F84A9"/>
<path d="M61.4424 42.0352H51.4849V39.1509H61.4424V42.0352Z" fill="#0F84A9"/>
<path d="M61.4424 46.3616H51.4849V43.8101H61.4424V46.3616Z" fill="#0F84A9"/>
<path d="M61.4424 51.021H51.4849V48.4695H61.4424V51.021Z" fill="#0F84A9"/>
<path d="M61.4424 55.6802H51.4849V52.7959H61.4424V55.6802Z" fill="#0F84A9"/>
<path d="M61.4424 60.0066H51.4849V57.4551H61.4424V60.0066Z" fill="#0F84A9"/>
<path fill-rule="evenodd" clip-rule="evenodd" d="M66.5344 10.8624V68.2158H69.4764V70.7673H0V68.2158H2.82884V20.7356H9.27861V7.97811H13.1258V0.767334H21.3861V7.97811H24.3281V20.6247H31.683V29.9432H41.4143V10.8624H66.5344ZM15.7282 3.65171H18.6702V7.97818H15.7282V3.65171ZM21.2731 10.8625H12.1077V20.7357H21.2731V10.8625ZM63.8189 68.2159H48.8826V30.0542H44.3565V13.5249H63.8189V68.2159ZM46.2797 68.2158H37.9063V54.3489H22.97V32.6056H46.2797V68.2158ZM10.0706 68.2158H34.8513V57.2333H10.0706V68.2158ZM7.12864 68.2158H5.65764V23.6199H28.741V29.9432H20.3676V54.238H7.12864V68.2158Z" fill="#0F84A9"/>
<path d="M17.7653 35.7117H7.46826V32.8274H17.7653V35.7117Z" fill="#0F84A9"/>
<path d="M26.9307 29.2776H7.46826V26.3933H26.9307V29.2776Z" fill="#0F84A9"/>
<path d="M17.7653 42.0352H7.46826V39.1509H17.7653V42.0352Z" fill="#0F84A9"/>
<path d="M17.7653 49.2459H7.46826V46.3616H17.7653V49.2459Z" fill="#0F84A9"/>
<path d="M32.8149 53.6834H30.2124V35.7119H32.8149V53.6834Z" fill="#0F84A9"/>
<path d="M38.1329 53.6834H35.1909V35.7119H38.1329V53.6834Z" fill="#0F84A9"/>
<path d="M27.8358 53.6834H25.1201V35.7119H27.8358V53.6834Z" fill="#0F84A9"/>
<path d="M43.7906 65.5534H40.8486V35.7119H43.7906V65.5534Z" fill="#0F84A9"/>
<path d="M24.2149 62.0034H20.3677V59.1191H24.2149V62.0034Z" fill="#0F84A9"/>
<path d="M24.2149 66.3298H20.3677V63.7783H24.2149V66.3298Z" fill="#0F84A9"/>
<path d="M16.5206 62.0034H12.6733V59.1191H16.5206V62.0034Z" fill="#0F84A9"/>
<path d="M32.2491 62.0034H28.4019V59.1191H32.2491V62.0034Z" fill="#0F84A9"/>
<path d="M16.5206 66.3298H12.6733V63.7783H16.5206V66.3298Z" fill="#0F84A9"/>
<path d="M32.2491 66.3298H28.4019V63.7783H32.2491V66.3298Z" fill="#0F84A9"/>
</svg>
