<svg width="70" height="70" viewBox="0 0 70 70" fill="none" xmlns="http://www.w3.org/2000/svg">
<path d="M60.0001 24.9999C59.8001 24.8999 59.6001 24.8999 59.4001 24.8999C58.7001 24.8999 57.6001 25.3999 56.1001 26.0999C55.5001 26.3999 54.9001 26.6999 54.3001 26.8999C54.1001 28.7999 53.6001 30.9999 52.8001 33.2999C53.8001 33.7999 54.7001 34.2999 55.4001 34.9999C53.9001 35.5999 52.3001 35.2999 52.0001 35.2999C51.2001 37.2999 50.2001 39.2999 49.1001 41.1999H53.8001C53.8001 41.1999 58.2001 34.4999 59.4001 31.9999C60.0001 30.6999 60.5001 29.5999 60.7001 28.5999C60.9001 27.5999 61.0001 26.7999 60.8001 26.1999C60.8001 25.5999 60.5001 25.2999 60.0001 24.9999ZM56.5001 32.8999C56.2001 32.6999 55.9001 32.3999 55.5001 32.1999C55.9001 30.7999 56.2001 29.4999 56.4001 28.2999C56.6001 28.1999 58.3001 27.3999 58.8001 27.1999C58.8001 27.3999 56.9001 32.2999 56.5001 32.8999Z" fill="#0F84A9"/>
<path d="M14.5998 34.9999C15.2998 34.3999 16.0998 33.7999 17.0998 33.3999C16.1998 30.9999 15.6998 28.8999 15.5998 26.8999C14.9998 26.5999 14.3998 26.3999 13.7998 26.0999C12.2998 25.3999 11.2998 24.8999 10.4998 24.8999C10.2998 24.8999 10.0998 24.8999 9.89977 24.9999C9.39977 25.2999 9.09977 25.6999 8.99977 26.1999C8.89977 26.7999 8.89977 27.5999 9.09977 28.5999C9.29977 29.5999 9.79977 30.6999 10.3998 31.9999C11.5998 34.4999 15.9998 41.1999 15.9998 41.1999H20.6998C19.5998 39.2999 18.5998 37.2999 17.7998 35.2999C17.5998 35.2999 15.6998 35.4999 14.5998 34.9999ZM13.5998 32.9999C13.1998 32.2999 11.1998 27.3999 11.1998 27.1999C11.6998 27.3999 13.3998 28.1999 13.5998 28.2999C13.7998 29.5999 14.0998 30.8999 14.4998 32.2999C14.1998 32.5999 13.7998 32.7999 13.5998 32.9999Z" fill="#0F84A9"/>
<path d="M5.3 34.5C3.3 30.5 2.8 27.3 3.4 24.8C3.7 23.7 4.4 21.6 6.1 20.2C7.6 18.9 10.2 18.1 14.6 20L15.5 20.3L15.9 19.6V19.5C16.1 19.1 16.8 17.8 18.2 16.8C19.8 15.7 22.2 14.8 26.1 15.9L27.4 16.3V14.9V14.8C27.4 14.7 27.4 14.6 27.4 14.5C27.4 14.3 27.4 14 27.4 13.7V13.5H29.8H30.3L30.6 13.1L32.1 11H37.7L39.3 13.1L39.6 13.5H40.1H42.6V13.7C42.6 14 42.6 14.3 42.6 14.5C42.6 14.6 42.6 14.7 42.6 14.8C42.6 14.9 42.6 14.9 42.6 14.9V16.3L43.9 15.9C47.4 14.8 49.8 15.6 51.4 16.6C53.1 17.6 53.9 19.1 54.2 19.6L54.6 20.4L55.4 20M5.3 34.5C5.7 35.2 7.2 37.6 8.6 40M5.3 34.5L8.6 40M55.4 20C57.4 19.1 59 18.9 60.3 19M55.4 20L60.3 19M60.3 19C61.6 19.1 62.7 19.6 63.6 20.3M60.3 19L63.6 20.3M66.6 24.9C67.2 27.5 66.7 30.6 64.7 34.6C64.4 35.3 62.9 37.7 61.5 40.1C60.6 41.6 59.7 43 59.1 44C58.7 44.5 58.5 44.9 58.4 45.1L58 45.7L58.5 46.2C58.6 46.4 58.7 46.6 58.8 46.8C58.9 47 58.9 47.3 58.9 47.5C58.9 47.8 58.8 48 58.7 48.2C58.5 48.4 58.4 48.6 58.2 48.7L57.8 49V49.6V55.5V56L58 56.3C58.4 56.6 58.7 57.1 58.7 57.7C58.7 58.1 58.5 58.6 58.2 58.9C57.9 59.2 57.5 59.4 57 59.4H13H12.8C12.4 59.4 11.9 59.2 11.6 58.9C11.3 58.6 11.1 58.2 11.1 57.7C11.1 57.4 11.2 57.1 11.3 56.9C11.4 56.7 11.6 56.5 11.8 56.3L12.2 56V55.5V49.5V49L11.8 48.7C11.6 48.6 11.4 48.4 11.3 48.2C11.2 48 11.1 47.7 11.1 47.5C11.1 47.3 11.1 47 11.2 46.8C11.2 46.6 11.3 46.4 11.5 46.2L12 45.7L11.6 45.1M11.6 45.1C11.5 44.9 11.2 44.5 10.8 43.8L11.6 45.1ZM12.5 58L11.8 58.7M12.5 58L57.1 59.1C57.5 59.1 57.9 59 58.2 58.7M12.5 58L12.9 58.2V59.2H57.1V58.2M12.5 58L12.9 59.1C12.5 59.1 12.1 59 11.8 58.7M11.8 58.7C11.5 58.4 11.3 58 11.3 57.6C11.3 56.7 12 56 12.9 56H57.1C57.9 56 58.7 56.7 58.7 57.6C58.7 58 58.5 58.4 58.2 58.7M58.2 58.7L57.5 58M11.3 47.3C11.3 46.4 12 45.7 12.9 45.7H57.1C57.9 45.7 58.7 46.4 58.7 47.3C58.7 47.7 58.5 48.1 58.2 48.4M11.3 47.3L57.1 48.8C57.5 48.8 57.9 48.7 58.2 48.4M11.3 47.3L12.9 47.9V48.9H57.1V47.9M11.3 47.3C11.3 47.7 11.5 48.1 11.8 48.4C12.1 48.7 12.5 48.8 12.9 48.8L11.3 47.3ZM58.2 48.4L57.5 47.7M63.6 20.3C65.4 21.7 66.3 23.8 66.6 24.8L63.6 20.3ZM8.6 40C9.5 41.4 10.3 42.8 10.9 43.8L8.6 40ZM57.2 45.6H57.8L58.1 45.1C58.6 44.3 59.3 43.2 60 41.9C60.5 41.2 60.9 40.4 61.4 39.6C62.7 37.5 63.9 35.5 64.5 34.3C66.3 30.6 67 27.4 66.4 24.8C66.2 23.8 65.4 21.6 63.3 20.2C61.3 18.9 58.4 18.6 54.3 20.6C53 18.2 51.1 16.5 48.7 15.9C46.7 15.4 44.4 15.7 42 16.7C42.2 16 42.4 15.3 42.4 14.7V13.7H41.4H28.6H27.6V14.7C27.6 15.3 27.8 16 28 16.7C25.5 15.7 23.1 15.4 21 16C18.6 16.6 16.7 18.3 15.6 20.6C11.8 18.7 8.9 19 6.9 20.3C4.8 21.6 3.9 23.8 3.6 24.9C3 27.6 3.7 30.7 5.5 34.4C6.1 35.6 7.3 37.6 8.6 39.7C9 40.5 9.5 41.2 9.9 42C10.7 43.2 11.4 44.4 11.9 45.2L12.2 45.7H12.8H57.2V45.6Z" stroke="#0F84A9" stroke-width="2"/>
<path d="M39.5001 17.6001C38.3001 18.7001 36.7001 19.4001 35.0001 19.4001C33.4001 19.4001 31.8001 18.8001 30.6001 17.7001C30.7001 18.8001 31.3001 19.8001 32.1001 20.5001C32.9001 21.2001 34.0001 21.6001 35.1001 21.6001C36.2001 21.6001 37.3001 21.2001 38.1001 20.5001C38.8001 19.7001 39.3001 18.6001 39.5001 17.6001Z" fill="#0F84A9"/>
<path d="M48.4002 32.1002C48.4002 32.1002 50.6002 27.7002 49.6002 23.7002C48.7002 20.0002 45.9002 21.1002 43.1002 22.5002C41.4002 23.4002 39.4002 24.3002 37.2002 24.6002V31.3002C38.4002 31.5002 39.5002 31.8002 40.4002 32.3002C39.5002 32.8002 38.4002 33.1002 37.2002 33.3002V41.1002H40.4002C39.6002 39.8002 38.6002 38.0002 38.6002 37.1002C38.6002 35.6002 39.8002 34.4002 41.3002 34.4002C42.8002 34.4002 44.0002 35.6002 44.0002 37.1002C44.0002 38.0002 43.0002 39.8002 42.2002 41.1002H43.8002C44.0002 40.7002 46.7002 36.1002 47.6002 34.1002C46.6002 33.6002 45.6002 33.1002 44.9002 32.4002C46.0002 31.8002 48.4002 32.1002 48.4002 32.1002ZM39.5002 27.1002V26.4002C41.3002 25.9002 46.9002 23.4002 46.9002 23.3002C48.0002 25.2002 47.4002 28.3002 46.9002 29.9002C46.9002 29.9002 43.0002 27.9002 39.5002 27.1002Z" fill="#0F84A9"/>
<path d="M20.2999 23.7001C19.3999 27.1001 21.4999 32.1001 21.4999 32.1001C21.4999 32.1001 23.5999 31.8001 25.1999 32.3001C24.3999 33.0001 23.3999 33.6001 22.2999 34.1001C23.1999 36.1001 25.8999 40.7001 26.0999 41.1001H27.6999C26.8999 39.8001 25.8999 38.0001 25.8999 37.1001C25.8999 35.6001 27.0999 34.4001 28.5999 34.4001C30.0999 34.4001 31.2999 35.6001 31.2999 37.1001C31.2999 38.0001 30.2999 39.8001 29.4999 41.1001H32.6999V33.3001C31.4999 33.1001 30.3999 32.8001 29.4999 32.3001C30.3999 31.8001 31.4999 31.5001 32.6999 31.3001V24.6001C30.4999 24.3001 28.4999 23.4001 26.7999 22.5001C24.2999 21.2001 21.2999 20.0001 20.2999 23.7001ZM30.4999 27.1001C26.8999 27.9001 23.0999 29.9001 23.0999 29.9001C22.5999 28.3001 21.6999 24.8001 23.0999 23.3001C23.0999 23.3001 28.7999 25.9001 30.4999 26.4001V27.1001Z" fill="#0F84A9"/>
</svg>
