<svg width="70" height="70" viewBox="0 0 70 70" fill="none" xmlns="http://www.w3.org/2000/svg">
<path fill-rule="evenodd" clip-rule="evenodd" d="M14.3274 66.2926L66.6619 43.7055C67.2359 43.5065 67.4273 42.81 67.2359 42.412C67.2359 42.3125 67.1403 42.213 67.1403 42.213L65.9921 39.3274C65.8008 38.8299 65.2267 38.5314 64.6527 38.7304C63.6959 39.0289 62.5478 38.5314 62.1651 37.5364C61.7824 36.4418 62.1651 35.3473 63.1219 34.8498C63.6003 34.6508 63.7916 33.9543 63.6003 33.4568L61.9738 29.3772C61.7824 28.8796 61.2084 28.5811 60.6343 28.7801C59.6776 29.0787 58.5295 28.5811 58.1468 27.5861C57.7641 26.4916 58.1468 25.3971 59.1035 24.8995C59.5819 24.7005 59.7732 24.004 59.5819 23.5065L57.9554 19.4269C57.7641 18.9294 57.19 18.6309 56.616 18.8299C55.6592 19.1284 54.5111 18.6309 54.1284 17.6359C53.7457 16.5413 54.1284 15.4468 55.0851 14.9493C55.5635 14.7503 55.7549 14.0538 55.5635 13.5563L54.3197 10.4717C54.1284 9.87468 53.5543 9.67567 52.9803 9.87468L0.645809 32.4617C0.0717566 32.6607 -0.119594 33.2578 0.0717566 33.8548L1.31554 36.8398C1.50689 37.3374 2.08094 37.6359 2.65499 37.4369C3.61175 37.1384 4.75985 37.6359 5.14256 38.6309C5.52526 39.7254 5.14256 40.8199 4.1858 41.3175C3.70742 41.5165 3.51607 42.213 3.70742 42.7105L5.33391 46.7901C5.52526 47.2876 6.09931 47.5861 6.67336 47.3871C7.63012 47.0886 8.77822 47.5861 9.16092 48.5811C9.54363 49.6757 9.16092 50.7702 8.20417 51.2677C7.72579 51.4667 7.53444 52.1632 7.72579 52.6607L9.35228 56.7403C9.54363 57.2379 10.1177 57.5364 10.6917 57.3374C11.6485 57.0388 12.7966 57.5364 13.1793 58.5314C13.562 59.6259 13.1793 60.7204 12.2225 61.218C11.7442 61.417 11.5528 62.1135 11.7442 62.611L12.9879 65.6956C13.0836 65.9941 13.275 66.1931 13.562 66.2926C13.7533 66.3921 14.0404 66.3921 14.3274 66.2926ZM59.5821 44.402L47.7183 14.6508L53.0761 12.5612L53.5545 13.7552C52.2151 14.9493 51.7367 16.8398 52.4064 18.6309C53.0761 20.3224 54.7983 21.4169 56.5205 21.2179L57.4772 23.606C56.1377 24.8 55.6594 26.6906 56.3291 28.4816C56.9988 30.1731 58.721 31.2677 60.4431 31.0687L61.3999 33.4567C60.0604 34.6508 59.5821 36.5413 60.2518 38.3323C60.9215 40.0239 62.6437 41.1184 64.3658 40.9194L64.8442 42.1134L59.5821 44.402ZM9.83081 30.9692L21.6946 60.7205L57.6685 45.1981L45.8048 15.4468L9.83081 30.9692ZM7.91695 31.7651L19.685 61.5164L14.4229 63.6059L13.9445 62.4119C15.284 61.2179 15.7623 59.3273 15.0926 57.5363C14.4229 55.8447 12.7007 54.7502 10.9786 54.9492L10.0218 52.5612C11.3613 51.3671 11.8396 49.4766 11.1699 47.6855C10.5002 45.994 8.77803 44.8995 7.05587 45.0985L6.09912 42.7104C7.43857 41.5164 7.91695 39.6258 7.24722 37.8348C6.57749 36.1432 4.85533 35.0487 3.13318 35.2477L2.6548 34.0537L7.91695 31.7651ZM35.6631 42.9095C35.8544 42.81 36.0458 42.81 36.3328 42.81L42.169 44.3026L38.2463 39.5264C37.9593 39.1284 37.8636 38.6309 38.1506 38.2329L41.3079 32.9593L35.7587 35.3473C35.376 35.5463 34.802 35.4468 34.515 35.0488L30.5923 30.2727L31.0706 36.4419C31.0706 36.9394 30.8793 37.3374 30.4009 37.5364L24.9474 40.024L30.7836 41.5165C31.262 41.616 31.549 42.014 31.549 42.5115L32.0274 48.6807L35.1847 43.407C35.2804 43.208 35.4717 43.009 35.6631 42.9095ZM44.8476 47.2877C45.1346 47.2877 45.326 47.2877 45.5173 47.1882C45.6356 47.1267 45.7173 47.0652 45.8302 46.9802C45.9 46.9277 45.9817 46.8662 46.0914 46.7902C46.3784 46.3921 46.2827 45.8946 45.9957 45.4966L40.4465 38.83L44.8476 31.2678C45.1346 30.8698 45.0389 30.3722 44.7519 29.9742C44.4649 29.5762 43.8908 29.4767 43.5081 29.6757L35.6627 33.0588L30.2092 26.2926C29.9222 25.8946 29.3482 25.7951 28.9655 25.9941C28.4871 26.1931 28.2957 26.5912 28.2957 27.0887L29.0611 35.9444L21.2157 39.3275C20.7374 39.5265 20.546 39.9245 20.546 40.422C20.546 40.9195 20.833 41.3175 21.3114 41.417L29.6352 43.5066L30.3049 52.2628C30.3049 52.7603 30.5919 53.1583 31.0703 53.2578C31.5487 53.3573 32.0271 53.1583 32.2184 52.7603L36.6195 45.1981L44.8476 47.2877Z" fill="white"/>
</svg>
