<svg width="70" height="70" viewBox="0 0 70 70" fill="none" xmlns="http://www.w3.org/2000/svg">
<g clip-path="url(#clip0)">
<path d="M56.2508 31.2273C57.7107 30.3662 59.12 29.5001 60.5607 28.6997C61.4114 28.2352 62.2886 27.8177 63.188 27.4493C65.1507 26.6253 66.7793 27.1359 67.999 28.9305C68.869 30.2213 69.3318 31.6907 69.6172 33.2207C70.3584 37.179 70.0678 41.0345 68.4514 44.7366C68.0321 45.7005 67.4527 46.5632 66.5844 47.1665C65.6535 47.8136 64.6705 47.9484 63.6717 47.3569C62.4886 46.6526 61.3489 45.8673 60.1623 45.1663C58.9339 44.4417 57.6689 43.7812 56.4266 43.0819C56.1882 42.9471 56.0403 42.9892 55.9046 43.2133C55.8439 43.3109 55.7765 43.4043 55.7028 43.493C55.4696 43.7845 55.0816 44.0525 55.0416 44.3676C55.0016 44.6827 55.3478 44.9944 55.5183 45.3129C56.0577 46.324 56.4701 47.3839 56.5623 48.5516C56.7363 50.7119 55.9429 52.4273 54.2638 53.681C52.0106 55.3661 49.5051 55.5346 46.8934 54.8606C44.6558 54.2792 42.6114 53.2396 40.6818 51.9521C40.5646 51.8614 40.4232 51.8047 40.2741 51.7889C40.125 51.7731 39.9743 51.7987 39.8396 51.8628C38.8913 52.2302 37.9257 52.5655 36.9687 52.884C36.8412 52.9113 36.7283 52.9822 36.6506 53.0838C36.5729 53.1853 36.5357 53.3107 36.5459 53.4367C36.4519 54.8218 36.1979 56.1733 35.6342 57.4438C34.6093 59.7254 32.6101 60.8443 30.1985 60.4298C27.225 59.9243 24.7316 58.4448 22.6315 56.2407C21.9355 55.5178 21.3091 54.741 20.6288 54.0096C20.463 53.8224 20.2439 53.6864 19.9989 53.6187C17.5923 53.1167 15.2501 52.3595 13.0148 51.3607C11.5776 50.722 10.3631 49.7093 9.24257 48.6157C6.5787 46.0122 3.93049 43.3919 1.35537 40.6958C-0.384587 38.8675 -0.466365 35.7804 1.22313 33.9133C4.26978 30.5431 7.47304 27.3297 11.2418 24.8139C12.378 24.0556 13.6777 23.5484 14.9113 22.9518C15.0431 22.8934 15.1616 22.8103 15.2602 22.7073C15.3587 22.6044 15.4353 22.4836 15.4855 22.352C16.1815 20.7798 16.8462 19.1941 17.6326 17.6742C18.8001 15.4195 20.6775 13.8726 22.755 12.5818C25.3945 10.9422 28.2237 9.90423 31.3469 10.0138C34.3327 10.1182 36.7408 11.3736 38.4181 13.999C39.4429 15.6099 39.5056 17.4096 39.2985 19.2413C39.2131 19.9166 39.083 20.5858 38.9087 21.2449C38.813 21.6274 38.9087 21.7807 39.2567 21.8869C39.7944 22.0554 40.3372 22.448 40.8436 22.3924C41.3499 22.3368 41.771 21.8431 42.2355 21.5499C44.2643 20.286 46.3888 19.2784 48.7812 19.0357C49.8588 18.9077 50.9523 19.0139 51.9823 19.3465C53.0122 19.679 53.9527 20.2297 54.7353 20.9584C56.5397 22.5744 56.912 24.6656 56.2856 26.9522C56.0438 27.8386 55.6297 28.6794 55.2556 29.5237C55.1338 29.8017 55.0973 29.9753 55.3374 30.2061C55.6749 30.528 55.9533 30.8903 56.2508 31.2273ZM22.4418 23.0597C24.2479 27.7914 25.4172 32.4658 25.2762 37.4048C25.1335 42.3724 23.5171 46.9239 21.4918 51.3742C21.6206 51.4095 21.6797 51.4331 21.7424 51.4432C26.2123 52.1392 30.6544 52.065 35.053 50.9108C35.1556 50.8716 35.2488 50.8123 35.3267 50.7366C35.4045 50.6609 35.4654 50.5705 35.5054 50.471C37.3358 45.5842 38.3937 40.5475 38.1153 35.2833C37.8944 31.1498 36.779 27.2387 35.0756 23.5012C35.0281 23.3756 34.9461 23.2651 34.8385 23.1813C34.7309 23.0976 34.6017 23.0439 34.4649 23.026C32.3031 22.5965 30.0934 22.4362 27.8896 22.5491C26.1044 22.6452 24.3349 22.876 22.4418 23.0597ZM14.3371 25.7558C13.629 26.1754 12.9452 26.5192 12.3292 26.9522C8.8998 29.3552 5.9558 32.3445 3.08488 35.3928C2.61259 35.9148 2.35907 36.589 2.37421 37.2829C2.38934 37.9767 2.67203 38.64 3.16666 39.1421C5.40771 41.4574 7.65573 43.7677 9.95247 46.019C10.9286 46.9761 12.0404 47.7799 13.0983 48.6561C13.4011 48.9089 13.6081 48.8954 13.7943 48.496C14.2136 47.6181 14.6921 46.7688 15.1045 45.8858C17.1263 41.5585 17.9058 37.0661 16.7766 32.3192C16.2355 30.0448 15.4166 27.8409 14.3371 25.7541V25.7558ZM45.3083 27.082L45.1726 27.1629C46.8394 33.7145 46.7263 40.2779 45.3013 46.8784C45.3966 46.8742 45.4911 46.8601 45.5832 46.8362C47.8451 45.8454 50.1071 44.836 52.1846 43.456C53.0091 42.9294 53.7066 42.2368 54.2297 41.4255C54.7528 40.6142 55.089 39.7032 55.2156 38.7546C55.3608 37.9038 55.4231 37.0418 55.4017 36.1798C55.3182 34.1492 54.5318 32.4641 52.9154 31.2256C51.2989 29.9871 49.4668 29.035 47.6294 28.1537C46.8551 27.7847 46.0843 27.4375 45.31 27.0803L45.3083 27.082ZM67.6649 36.9616C67.6127 36.3516 67.5797 35.4855 67.4613 34.6328C67.2595 33.1635 66.9394 31.721 66.1442 30.4488C65.5335 29.4681 65.0254 29.2996 63.9849 29.741C61.7473 30.7069 59.6214 31.8993 57.6428 33.2983C57.5349 33.3583 57.4534 33.4545 57.4136 33.5687C57.3739 33.683 57.3787 33.8073 57.4271 33.9184C57.9978 36.0112 57.8951 38.0974 57.3105 40.1633C57.1869 40.598 57.2635 40.7885 57.6498 41.0058C59.769 42.2247 61.8761 43.4661 63.971 44.7299C65.1194 45.4241 65.4013 45.3753 66.0816 44.1805C66.139 44.0794 66.1912 43.9766 66.2417 43.8722C67.2508 41.7793 67.5866 39.5263 67.6667 36.96L67.6649 36.9616ZM18.2503 21.7217C24.3714 19.8816 30.4021 19.5109 36.5633 20.9955C36.6938 20.3298 36.8399 19.7047 36.9409 19.0711C37.442 15.9149 36.097 13.9451 33.461 12.8666C32.3143 12.3982 31.0998 12.3611 29.8923 12.5178C26.4716 12.9795 23.5467 14.5399 21.0742 16.9816C19.7797 18.2555 19.0594 19.9254 18.2433 21.72L18.2503 21.7217ZM15.6873 49.8913C16.747 50.2098 17.6744 50.4743 18.5913 50.7743C18.9532 50.8922 19.1464 50.8147 19.2873 50.4373C20.0129 48.6089 20.8272 46.8143 21.4796 44.959C22.3757 42.4163 22.9342 39.7724 22.9482 37.0577C22.9725 32.6916 21.9982 28.5194 20.4339 24.4853C20.1329 23.7101 20.1225 23.6966 19.3482 23.9393C18.433 24.2274 17.5265 24.5426 16.5277 24.8745C20.9751 33.3926 20.6149 41.6765 15.6873 49.8913ZM38.3276 49.7228L38.432 49.8188C39.5804 49.3521 40.7166 48.855 41.8788 48.432C42.4165 48.2365 42.6496 47.9079 42.7784 47.3519C43.624 43.7003 44.1216 40.0049 44.0433 36.2472C43.9701 32.8242 43.4349 29.4252 42.4513 26.1367C42.3702 25.9037 42.1994 25.7099 41.9745 25.5957C40.7879 25.0902 39.5856 24.6133 38.3868 24.1348C38.2075 24.0805 38.0251 24.0366 37.8404 24.0033C41.4508 32.5956 41.1272 41.144 38.3293 49.7261L38.3276 49.7228ZM43.0968 50.5569C43.1737 50.6263 43.2544 50.6915 43.3387 50.7524C44.8107 51.5848 46.3383 52.2689 47.9913 52.6296C49.6442 52.9902 51.2554 52.8115 52.7153 51.8291C53.667 51.1871 54.2447 50.2991 54.229 49.0993C54.2134 47.8995 53.707 46.8278 53.0267 45.7999C49.8913 47.7748 46.4758 49.0521 43.0968 50.5603V50.5569ZM53.159 28.4199C53.6542 27.5783 53.9906 26.6579 54.1525 25.7019C54.316 24.7161 54.1525 23.7927 53.4565 23.0631C52.9639 22.5233 52.3521 22.0979 51.6665 21.8184C50.981 21.539 50.2392 21.4126 49.4963 21.4487C47.3771 21.5212 45.5136 22.4025 43.7249 23.4928C43.6901 23.5147 43.6745 23.572 43.6292 23.6461C46.8394 25.1576 50.1314 26.4518 53.159 28.4233V28.4199ZM34.1413 53.6608C30.856 54.2841 27.4983 54.4712 24.1609 54.2169C24.1835 54.3332 24.1801 54.3736 24.1975 54.3938C25.8922 56.2474 27.9314 57.4893 30.3517 57.9898C31.7175 58.2729 32.7319 57.8264 33.2835 56.8153C33.8055 55.8801 34.0195 54.8471 34.1413 53.6608Z" fill="white"/>
<path d="M37.4596 35.7517C37.4335 37.4081 36.8141 38.7073 35.5822 39.6729C34.8514 40.2458 34.1015 40.7935 33.3446 41.3293C31.6377 42.5392 29.4889 42.3741 27.9699 40.9283C27.474 40.4548 26.9764 39.9813 26.4944 39.4909C25.9203 38.9062 25.9046 38.1631 26.437 37.6474C26.9312 37.1672 27.655 37.2464 28.1944 37.8058C28.6589 38.2861 29.1392 38.7528 29.635 39.1994C29.9352 39.4834 30.329 39.656 30.7474 39.6868C31.1658 39.7176 31.5821 39.6047 31.9231 39.3679C32.7269 38.8219 33.5273 38.2642 34.2772 37.6407C34.5616 37.3945 34.7835 37.0881 34.9259 36.7454C35.0682 36.4027 35.1271 36.0329 35.098 35.6645C35.0689 35.2962 34.9526 34.9394 34.758 34.6216C34.5635 34.3039 34.296 34.0338 33.9762 33.8324C33.1863 33.3538 32.3755 32.9073 31.5577 32.4843C30.6877 32.0277 29.8073 32.2383 29.174 33.0151C28.826 33.4364 28.5041 33.8678 28.1596 34.284C27.7159 34.835 27.0199 34.9092 26.4979 34.4727C26.2521 34.2662 26.0979 33.976 26.0671 33.6622C26.0363 33.3485 26.1314 33.0353 26.3326 32.7876C26.7224 32.2602 27.1226 31.7362 27.5506 31.2475C28.1574 30.5357 29.0032 30.0531 29.9402 29.884C30.8771 29.7149 31.8457 29.8701 32.6765 30.3224C33.4885 30.7605 34.2929 31.2138 35.0898 31.6822C36.6262 32.5905 37.3883 33.9891 37.4596 35.7517Z" fill="white"/>
<path d="M11.2382 37.9907C9.37989 37.9773 7.82959 36.3663 7.82959 34.4521C7.82959 32.5075 9.39555 30.8864 11.2764 30.8965C13.1573 30.9066 14.7111 32.5176 14.7041 34.4655C14.6972 36.4135 13.1243 38.0042 11.2382 37.9907ZM12.3343 34.4419C12.3416 34.3029 12.3198 34.1639 12.2703 34.0332C12.2208 33.9025 12.1446 33.7828 12.0462 33.6813C11.9478 33.5798 11.8292 33.4986 11.6977 33.4425C11.5661 33.3864 11.4242 33.3567 11.2804 33.355C11.1367 33.3533 10.9941 33.3797 10.8611 33.4326C10.7282 33.4856 10.6076 33.5639 10.5067 33.6631C10.4057 33.7622 10.3265 33.88 10.2737 34.0095C10.2209 34.139 10.1956 34.2775 10.1994 34.4167C10.1906 34.7012 10.2958 34.978 10.493 35.1891C10.6902 35.4002 10.9641 35.5292 11.2573 35.549C11.5513 35.5394 11.8294 35.4176 12.0311 35.2102C12.2329 35.0029 12.3418 34.7267 12.3343 34.4419Z" fill="white"/>
</g>
<defs>
<clipPath id="clip0">
<rect width="70" height="50.5155" fill="white" transform="translate(0 10)"/>
</clipPath>
</defs>
</svg>
