<svg width="70" height="70" viewBox="0 0 70 70" fill="none" xmlns="http://www.w3.org/2000/svg">
<g clip-path="url(#clip0)">
<path d="M33.8001 1V2M33.8001 2C15.7001 2.6 1.40015 17.9 2.00015 36.1C2.60015 54.3 17.9001 68.6 36.1001 68C54.3001 67.3 68.6001 52.1 68.0001 33.9C67.3001 15.6 52.1001 1.4 33.8001 2ZM36.2001 64.1C49.7001 63.6 60.6001 53.9 63.4001 41.3L63.6001 40.4L62.8001 40.1L43.9001 33.4L63.0001 34.7L64.1001 34.8L64.0001 33.7C63.9001 31.9 63.7001 30.2 63.3001 28.6L63.1001 27.8H62.3001L42.7001 28.5L60.0001 22.8L61.1001 22.4L60.5001 21.4C59.5001 19.5 58.3001 17.8 56.9001 16.1L56.4001 15.5L55.7001 15.8L39.1001 23.9L50.2001 11.7L51.0001 10.8L50.0001 10.2C45.3001 7.3 39.7001 5.8 34.0001 6C17.9001 6.6 5.40015 20.1 6.10015 36.2C6.30015 40.9 7.60015 45.5 9.90015 49.6C12.2001 53.7 15.5001 57.1 19.5001 59.6L20.9001 60.5L21.0001 58.8L21.2001 55.1L32.6001 59.5L32.7001 63V63.9L33.6001 64C34.5001 64.1 35.4001 64.1 36.2001 64.1ZM21.3001 35.3H21.1001V34.8H21.8001V33.8V26.6V26.1L22.1001 25.8V26.7V33.9V34.9H23.1001H25.7001H26.7001V33.9V30.3H27.3001V33.9V34.9H28.3001H30.9001H31.9001V33.9V26.7V25.8L32.2001 26.1V26.7V33.9V34.9H32.9001V35.4H32.7001H31.7001V36.4L32.0001 42.9L22.2001 39.4L22.4001 36.4L22.5001 35.3H21.3001ZM22.2001 25.6L27.1001 20.1L31.8001 25.6H30.9001H23.1001H22.2001ZM32.8001 47.5L21.9001 43.6V43.4L32.8001 47.5ZM21.7001 47.1L32.8001 50.9L21.7001 47.3V47.1ZM32.4001 55L21.5001 51.1V50.9L32.4001 55Z" stroke="white" stroke-width="2"/>
</g>
<defs>
<clipPath id="clip0">
<rect width="68" height="68" fill="white" transform="translate(1 1)"/>
</clipPath>
</defs>
</svg>
