<svg width="70" height="70" viewBox="0 0 70 70" fill="none" xmlns="http://www.w3.org/2000/svg">
<path d="M23.7948 60.3628L23.3353 60.1239L22.875 60.3614C19.3317 62.1893 15.4921 63.1667 11.6668 63.1667H6.8335V59.3334H11.6668C15.729 59.3334 19.7651 58.0305 23.3358 55.6639C30.5147 60.3718 39.4856 60.3718 46.6645 55.6639C50.2352 58.0305 54.2713 59.3334 58.3335 59.3334H63.1668V63.1667H58.3335C54.4796 63.1667 50.6692 62.1896 47.1253 60.3614L46.665 60.1239L46.2055 60.3628C39.203 64.0041 30.7973 64.0041 23.7948 60.3628ZM10.9168 54.4167C11.8107 52.6707 13.4063 50.6082 16.2785 48.8378C19.9455 46.5775 25.7641 44.7501 35.0002 44.7501C37.8767 44.7501 40.0244 44.9226 41.4435 45.0929C42.1531 45.1781 42.6806 45.2627 43.0261 45.3249C43.1989 45.356 43.3262 45.3815 43.4079 45.3986C43.4488 45.4072 43.4783 45.4137 43.4965 45.4178L43.5152 45.4221L43.5168 45.4224L43.5172 45.4225L43.5175 45.4226L43.518 45.4227L43.5181 45.4228L44.2916 45.6084L44.6459 44.8947C46.5525 41.0534 49.6718 32.724 48.0681 22.0339L48.8726 22.5728C49.8318 26.7756 51.3643 34.5622 48.0444 45.3518L47.7544 46.2942L48.6926 46.5974C54.9056 48.6054 57.7696 51.866 59.0833 54.4167H58.3335C55.122 54.4167 51.8789 53.3284 48.9361 51.2462L48.9361 51.2462L48.9262 51.2394L47.2346 50.0727L46.6668 49.6811L46.0991 50.0727L44.4074 51.2393L44.4022 51.243C41.5588 53.2306 38.3157 54.2709 35.0002 54.2709C31.6261 54.2709 28.3847 53.2305 25.5437 51.2457C25.5424 51.2448 25.5411 51.2439 25.5398 51.243L23.9147 50.0822L23.3386 49.6706L22.7591 50.0773L21.097 51.2437C21.0969 51.2438 21.0967 51.2439 21.0966 51.244C18.122 53.3288 14.8776 54.4167 11.6668 54.4167H10.9168ZM47.4702 15.731C41.6987 17.5791 37.3758 22.6729 36.6686 28.8389C36.5356 28.0675 36.4668 27.2714 36.4668 26.4542C36.4668 21.9445 38.6376 17.9781 42.0127 15.474L44.1623 13.8791L41.4935 13.6738C38.8674 13.4718 36.1725 13.9058 33.6644 15.0792C34.2338 14.5751 34.8566 14.1068 35.5342 13.6789L35.5342 13.6789L35.5411 13.6744C38.2627 11.9239 41.5344 11.2387 44.7297 11.75L47.1068 12.1304L45.6988 10.1777C45.1319 9.39147 44.4961 8.65885 43.7997 7.9882C44.495 8.33969 45.1674 8.75336 45.8056 9.23018C46.9804 10.1116 47.9306 11.1911 48.7634 12.3847L49.0618 12.8126H49.5835C49.7093 12.8126 49.8306 12.8028 49.9118 12.7962L49.9294 12.7948C50.0217 12.7874 50.0802 12.7834 50.1377 12.7834H50.1382C53.0627 12.7818 55.9105 13.7182 58.2635 15.4548C58.9487 15.9605 59.5814 16.5263 60.1554 17.1433C58.4101 16.1111 56.4407 15.4063 54.3176 15.1372L51.7449 14.8111L53.4326 16.78C53.7366 17.1347 54.0271 17.5539 54.3399 18.037C55.8858 20.5088 56.6012 23.4101 56.3813 26.3174C56.3198 27.1304 56.1861 27.9319 55.9838 28.7132C55.905 26.0441 55.1389 23.3573 53.5745 20.9257L53.5164 20.8355L53.4406 20.7596C53.3498 20.6689 53.3129 20.6099 53.2305 20.4781C53.1859 20.4066 53.1278 20.3138 53.0405 20.1829L53.0362 20.1763L53.0317 20.1698C51.7714 18.3424 50.0814 16.8762 48.2809 15.8207L47.8956 15.5948L47.4702 15.731Z" stroke="#0F84A9" stroke-width="2"/>
</svg>
