<svg width="190" height="42" viewBox="0 0 190 42" fill="none" xmlns="http://www.w3.org/2000/svg">
<path d="M99.8198 27.02C99.5398 27.02 99.1898 26.88 98.9798 26.67L95.4798 23.17C94.9898 22.68 94.9898 21.91 95.4798 21.42C95.9698 20.93 96.7398 20.93 97.2298 21.42L99.8198 24.01L105.91 17.92C106.4 17.43 107.17 17.43 107.66 17.92C108.15 18.41 108.15 19.18 107.66 19.67L100.73 26.6C100.45 26.88 100.17 27.02 99.8198 27.02Z" fill="#043B5D"/>
<path fill-rule="evenodd" clip-rule="evenodd" d="M15.8901 21.91C15.8901 29.68 22.1901 36.05 30.0301 36.05C34.9301 36.05 39.4101 33.53 42.0001 29.54L42.2101 29.19L37.3801 26.11L37.1701 26.46C35.6301 28.91 32.9701 30.38 30.0301 30.38C26.4601 30.38 23.2401 28.14 22.0501 24.78H44.1701V21.91C44.1701 14.14 37.8001 7.77002 30.0301 7.77002C22.2601 7.77002 15.8901 14.14 15.8901 21.91ZM30.0301 13.37C33.6001 13.37 36.8201 15.61 38.0101 18.97H22.0501C23.2401 15.68 26.4601 13.37 30.0301 13.37Z" fill="white"/>
<path d="M46.2002 35.84V30.17H60.5502C62.0902 30.17 63.3502 28.91 63.3502 27.37C63.3502 25.83 62.0902 24.57 60.5502 24.57H54.3902C49.7702 24.5 45.9902 20.72 45.9902 16.03C45.9902 11.34 49.8402 7.48999 54.5302 7.48999H63.4202V13.16H54.5302C52.9902 13.16 51.7302 14.42 51.7302 15.96C51.7302 17.5 52.9902 18.76 54.5302 18.76H60.5502C65.2402 18.76 69.0902 22.61 69.0902 27.3C69.0902 31.99 65.2402 35.84 60.5502 35.84H46.2002V35.84Z" fill="white"/>
<path fill-rule="evenodd" clip-rule="evenodd" d="M87.5698 21.9099C87.5698 29.6799 93.8698 36.0499 101.71 36.0499C109.48 36.0499 115.85 29.6799 115.85 21.9099V0.0699463H110.18V10.5699C107.73 8.74995 104.79 7.76995 101.71 7.76995C93.9398 7.76995 87.5698 14.1399 87.5698 21.9099ZM93.2398 21.8399C93.2398 17.1499 97.0198 13.3699 101.71 13.3699C106.33 13.3699 110.18 17.1499 110.18 21.8399C110.18 26.5299 106.4 30.3099 101.71 30.3099C97.0198 30.3099 93.2398 26.5299 93.2398 21.8399Z" fill="white"/>
<path d="M12.18 29.8899L16.31 35.9799H10.85C4.48 35.9799 0 32.8299 0 24.7099V0.0699463L6.23 0.349946V7.83995H11.62L16.59 13.9299H6.23V24.6399C6.23 28.1399 7.77 29.8199 10.85 29.8199H12.18V29.8899Z" fill="white"/>
<path d="M83.6502 29.89L87.7802 35.98H82.3202C75.9502 35.98 71.4702 32.83 71.4702 24.71V0.559976L77.7002 0.349976V7.83998H83.0902L88.0602 13.93H77.6302V24.64C77.6302 28.14 79.1702 29.82 82.2502 29.82H83.6502V29.89Z" fill="white"/>
<path d="M123.13 0V35.98" stroke="#043B5D" stroke-width="2.1"/>
<path fill-rule="evenodd" clip-rule="evenodd" d="M153.79 28.0701V7.98006V7.91006H147.28V10.9901C145.46 8.68006 142.8 7.56006 139.3 7.56006C137.06 7.56006 135.03 8.05006 133.21 9.03006C131.39 10.0101 129.92 11.4101 128.87 13.1601C127.82 14.9101 127.26 16.9401 127.26 19.2501C127.26 21.5601 127.82 23.5901 128.87 25.3401C129.92 27.1601 131.39 28.4901 133.21 29.4701C135.03 30.4501 137.06 30.9401 139.3 30.9401C142.59 30.9401 145.11 29.9601 146.93 27.9301V29.0501C146.93 31.2901 146.3 32.9001 145.18 34.0201C143.99 35.0701 142.24 35.6301 139.79 35.6301C138.18 35.6301 136.64 35.3501 135.1 34.8601C133.56 34.3001 132.3 33.6701 131.25 32.8301L128.45 37.8701C129.78 38.9201 131.53 39.7601 133.63 40.3201C135.73 40.8801 137.97 41.1601 140.28 41.1601C144.69 41.1601 148.05 40.1101 150.36 37.9401C152.67 35.7701 153.79 32.4801 153.79 28.0701ZM146.86 19.3201C146.86 21.0701 146.3 22.4701 145.11 23.5901C143.92 24.6401 142.45 25.2001 140.56 25.2001C138.74 25.2001 137.2 24.7101 136.01 23.5901C134.82 22.5401 134.19 21.0701 134.19 19.3201C134.19 17.5701 134.82 16.1701 136.01 15.0501C137.2 14.0001 138.67 13.4401 140.56 13.4401C142.38 13.4401 143.92 13.9301 145.11 15.0501C146.3 16.1001 146.86 17.5701 146.86 19.3201Z" fill="#043B5D"/>
<path fill-rule="evenodd" clip-rule="evenodd" d="M158.69 28.84C159.95 30.94 161.7 32.48 163.87 33.67C166.11 34.86 168.63 35.42 171.36 35.42C174.09 35.42 176.61 34.86 178.78 33.67C180.95 32.48 182.63 30.87 183.89 28.84C185.15 26.81 185.78 24.43 185.78 21.84C185.78 19.25 185.15 16.87 183.89 14.84C182.7 12.74 180.95 11.2 178.78 10.01C176.61 8.82001 174.16 8.26001 171.36 8.26001C168.56 8.26001 166.04 8.82001 163.87 10.01C161.63 11.2 159.95 12.81 158.69 14.84C157.43 16.87 156.8 19.25 156.8 21.84C156.8 24.43 157.43 26.81 158.69 28.84ZM178.08 21.84C178.08 24.08 177.45 25.83 176.19 27.16C174.93 28.49 173.32 29.12 171.36 29.12C169.4 29.12 167.79 28.49 166.53 27.16C165.27 25.83 164.64 24.08 164.64 21.84C164.64 19.6 165.27 17.85 166.53 16.52C167.79 15.19 169.4 14.56 171.36 14.56C173.32 14.56 174.93 15.19 176.19 16.52C177.45 17.85 178.08 19.6 178.08 21.84Z" fill="#043B5D"/>
<path d="M185.786 3.75708L186.689 6.29126L187.603 3.75708H188.608V7.29712H187.959V4.44067L186.978 7.29712H186.411L185.425 4.44067V7.29712H184.775V3.75708H185.786ZM181.157 4.3479V3.75708H184.175V4.3479H183.018V7.29712H182.314V4.3479H181.157Z" fill="#043B5D"/>
</svg>
