<svg width="71" height="70" viewBox="0 0 71 70" fill="none" xmlns="http://www.w3.org/2000/svg">
<g clip-path="url(#clip0)">
<path d="M1.20694 70V67.9722H6.03494V28.0929C4.31609 27.8712 2.74554 27.0051 1.6409 25.6696C0.536253 24.3342 -0.0200622 22.6291 0.0844266 20.8992C0.0964914 20.7304 0.0964914 20.561 0.0844266 20.3923C-0.259569 17.4773 0.543087 14.8883 1.89493 12.3174C3.92872 8.51536 5.73319 4.58055 7.598 0.687969C7.68224 0.457836 7.84222 0.263176 8.05168 0.135964C8.26114 0.00875155 8.50764 -0.0434548 8.75069 -0.0120933C13.5787 -0.0120933 18.4067 -0.0120933 23.2347 -0.0120933C27.6704 -0.0120933 32.1062 0.0301561 36.5117 0.0301561C44.5584 0.0301561 52.5889 0.0100358 60.6034 -0.0301976C60.8702 -0.0584411 61.1389 0.000351939 61.3695 0.1374C61.6001 0.274449 61.7802 0.482389 61.8828 0.7302C64.5201 5.64269 67.1997 10.525 69.837 15.4375C70.0782 15.9282 70.208 16.466 70.2172 17.0126C70.2715 18.4128 70.2172 19.8129 70.2172 21.2371C70.2465 22.7804 69.7453 24.287 68.7974 25.5051C67.8494 26.7233 66.5122 27.5792 65.009 27.93C64.5383 28.0446 64.4658 28.28 64.4658 28.6904C64.4658 31.4544 64.4658 34.2245 64.4658 36.9885V67.9239H69.1007V69.9939L1.20694 70ZM54.1882 33.2709H21.7139C19.8249 33.2709 17.936 33.2709 16.047 33.2166C15.6065 33.2166 15.5944 33.4158 15.5944 33.7417C15.5944 42.1183 15.5944 50.4949 15.5944 58.8714C15.5944 59.3301 15.709 59.5172 16.1979 59.5111C18.4429 59.5111 20.6879 59.5111 22.9329 59.5111C23.4701 59.5111 23.5787 59.2999 23.5727 58.8292C23.5485 57.3808 23.5485 55.9324 23.5727 54.484C23.5445 53.6176 23.8162 52.768 24.3417 52.0787C24.8672 51.3893 25.6145 50.9024 26.4574 50.7L31.1104 49.3482C31.2797 49.3192 31.4379 49.2443 31.5678 49.1318C31.6977 49.0192 31.7943 48.8733 31.8471 48.7098C31.9 48.5463 31.907 48.3714 31.8676 48.2042C31.8282 48.0369 31.7437 47.8837 31.6234 47.761C30.5431 46.5902 30.2655 45.0513 29.7646 43.6512C29.0947 41.7743 29.8973 39.9336 30.7905 38.3102C31.7863 36.4997 33.5847 36.0169 35.5763 36.0833C36.7732 36.085 37.9274 36.528 38.8181 37.3274C39.7089 38.1269 40.2736 39.2267 40.4043 40.4164C40.4344 40.6518 40.531 40.8811 40.5612 41.1104C40.6457 41.7622 40.9655 42.5166 40.7422 43.0477C40.0784 44.6228 39.9999 46.4453 38.7567 47.8032C38.6469 47.9259 38.5717 48.0755 38.5387 48.2368C38.5057 48.3981 38.5161 48.5652 38.5689 48.7211C38.6217 48.877 38.715 49.0162 38.8392 49.1242C38.9634 49.2323 39.114 49.3054 39.2757 49.3361C40.8267 49.7948 42.3838 50.2414 43.9348 50.694C44.7899 50.8946 45.5478 51.3884 46.077 52.0895C46.6061 52.7906 46.8731 53.6549 46.8316 54.5323C46.8316 55.9565 46.8316 57.3808 46.8316 58.805C46.8316 59.3361 46.9824 59.5232 47.5316 59.5172C49.4628 59.487 51.394 59.4749 53.3192 59.5172C54.0011 59.5172 54.2244 59.3603 54.2184 58.6421C54.2184 50.4888 54.2184 42.3476 54.2184 34.1702L54.1882 33.2709ZM46.5117 25.1237C45.8919 26.0533 45.0518 26.8153 44.0662 27.3417C43.0807 27.8682 41.9803 28.1428 40.8629 28.1412C38.4489 28.1412 36.6384 27.0428 35.184 25.0935C33.7356 27.0609 31.8889 28.1472 29.487 28.1412C27.085 28.1352 25.2625 27.0187 23.8141 25.0814C23.1953 26.0234 22.3487 26.7938 21.3528 27.3213C20.3569 27.8488 19.2439 28.1163 18.117 28.0989C15.703 28.1714 13.9649 26.892 12.4502 25.1297C11.5085 26.417 10.1775 27.3671 8.65413 27.8394C8.48089 27.8813 8.33012 27.9876 8.23256 28.1367C8.13499 28.2859 8.09799 28.4666 8.12909 28.6421C8.12909 30.7906 8.12909 32.933 8.12909 35.0814V67.936H13.5364V67.067C13.5364 65.4254 13.5364 63.7839 13.5364 62.1424C13.5364 52.0277 13.5364 41.9131 13.5364 31.7984C13.5364 31.0923 13.9166 31.1949 14.3632 31.1949H55.4978C55.7513 31.1949 56.0108 31.1949 56.3367 31.2372V67.93H62.4984V34.6771C62.4984 32.6493 62.4984 30.6216 62.4984 28.5999C62.4984 28.1653 62.3596 27.9963 61.9432 27.8334C61.1164 27.5231 60.3237 27.1288 59.5775 26.6566C58.9779 26.2025 58.413 25.7042 57.8877 25.1659C55.178 28.6843 49.9758 29.493 46.5117 25.1237ZM13.4761 21.4725C13.5244 21.7682 13.5546 22.0096 13.5968 22.245C13.7964 23.3894 14.4179 24.4174 15.3387 25.1258C16.2594 25.8342 17.4123 26.1716 18.5696 26.0712C20.8569 25.8419 22.3596 24.2607 22.7941 21.9191C22.8243 21.7441 23.0355 21.4785 23.1804 21.4665C23.7211 21.4364 24.2631 21.4364 24.8038 21.4665C25.5823 24.6107 27.079 26.0591 29.499 26.0893C31.9191 26.1195 33.3735 24.7012 34.2606 21.5027H36.1677C36.9221 24.5926 38.455 26.0833 40.8629 26.0833C41.8864 26.0901 42.8827 25.7545 43.6934 25.1297C44.2526 24.6917 44.7097 24.1371 45.0328 23.5045C45.3559 22.8718 45.5373 22.1763 45.5642 21.4665C46.0712 21.4665 46.5238 21.4665 46.9764 21.4665C47.429 21.4665 47.6101 21.5691 47.6644 22.07C47.7842 23.1177 48.2623 24.0919 49.0178 24.8276C49.7734 25.5633 50.7599 26.0154 51.8104 26.1074C52.9886 26.1995 54.1583 25.8445 55.0865 25.1131C56.0147 24.3817 56.6335 23.3275 56.8195 22.1605C56.8195 21.9553 56.8859 21.7501 56.9221 21.557H58.9016C58.968 21.895 59.0162 22.1605 59.0766 22.4562C59.2938 23.4685 59.8428 24.3793 60.6365 25.044C61.4303 25.7088 62.4233 26.0894 63.458 26.1255C64.4694 26.1715 65.4666 25.8739 66.2873 25.2811C67.108 24.6883 67.704 23.8352 67.9782 22.8606C68.2009 21.4853 68.3219 20.0955 68.3403 18.7024H2.1665C2.1665 19.7043 2.1665 20.6638 2.1665 21.6234C2.1889 22.6721 2.56547 23.6824 3.23496 24.49C3.90445 25.2975 4.82746 25.8548 5.85388 26.0712C6.68638 26.2216 7.54403 26.1445 8.33639 25.8482C9.12876 25.5518 9.82649 25.0472 10.356 24.3874C10.8916 23.4788 11.3479 22.5258 11.7199 21.5389L13.4761 21.4725ZM15.6427 67.9722H17.1152C29.1852 67.9722 41.2552 67.9722 53.3252 67.9722C54.0132 67.9722 54.2365 67.8032 54.2124 67.0971C54.1641 65.4858 54.1762 63.8624 54.2124 62.2691C54.2124 61.726 54.0615 61.5691 53.5183 61.5691C47.254 61.5691 40.9897 61.5691 34.7314 61.5691C28.6602 61.5691 22.589 61.5691 16.5177 61.6053H15.6608L15.6427 67.9722ZM40.1568 56.7833H41.1888C42.2027 56.7833 42.2027 56.7833 42.2027 57.8213C42.2027 59.5654 42.2027 59.5232 44.0132 59.5232C44.6952 59.5232 44.84 59.2396 44.8279 58.6783C44.8279 57.3566 44.7917 56.0289 44.7796 54.7073C44.7796 53.5003 44.3813 52.9933 43.2407 52.6614C41.4604 52.1364 39.6801 51.6294 37.8937 51.1165C36.6143 50.7483 36.6143 50.7483 36.5057 49.3965C36.4909 49.341 36.4641 49.2895 36.4272 49.2456H33.9408C33.9234 49.4222 33.9234 49.6001 33.9408 49.7767C34.0796 50.525 33.7416 50.8147 33.0295 50.9837C31.05 51.4967 29.0887 52.0881 27.1212 52.6675C26.687 52.7431 26.2977 52.9808 26.0321 53.3327C25.7666 53.6845 25.6446 54.1241 25.691 54.5624C25.691 55.9626 25.6608 57.3627 25.6366 58.7568C25.6366 59.2396 25.7634 59.5353 26.3307 59.493C26.7159 59.477 27.1018 59.4972 27.4833 59.5534C28.1955 59.6499 28.3463 59.2939 28.3041 58.6662C28.2619 58.0386 28.3041 57.4592 28.3041 56.7833H30.3198V59.5474H32.7338C34.9969 59.5474 37.254 59.5051 39.5171 59.5474C40.1206 59.5474 40.2232 59.3603 40.1931 58.8412C40.1327 58.1774 40.1568 57.5075 40.1568 56.7773V56.7833ZM35.8297 16.4152H45.1538C45.1056 16.1134 45.0754 15.8539 45.0331 15.6005C44.2687 11.3116 43.5023 7.0207 42.7338 2.7278C42.6614 2.31139 42.4924 2.1243 42.0277 2.1243C40.362 2.1243 38.7024 2.1243 37.0367 2.1243H35.8297V16.4152ZM53.7235 2.13033C53.7331 2.26448 53.7533 2.39766 53.7839 2.52864C55.3107 7.04885 56.8497 11.5811 58.3644 16.0953C58.5093 16.5299 58.7929 16.5359 59.143 16.5359H67.4592C67.6333 16.5206 67.8066 16.4965 67.9782 16.4635C67.9703 16.39 67.9562 16.3173 67.936 16.2462C65.4536 11.6677 62.9671 7.09311 60.4767 2.5226C60.4312 2.43073 60.366 2.35008 60.2856 2.28643C60.2053 2.22278 60.1118 2.17771 60.012 2.15447C57.942 2.11826 55.872 2.1243 53.7235 2.1243V2.13033ZM24.5141 16.4695H25.3952C27.8756 16.4695 30.362 16.4695 32.8424 16.4695C33.5244 16.4695 33.7416 16.3126 33.7416 15.6005C33.7416 11.3337 33.7416 7.06697 33.7779 2.80022C33.7779 2.19672 33.5002 2.06997 32.9933 2.06997C31.219 2.06997 29.4387 2.11825 27.6583 2.06997C27.0911 2.06997 26.8557 2.23895 26.7652 2.80624C26.2582 6.01686 25.7151 9.22145 25.184 12.426L24.5141 16.4695ZM13.2649 16.4212C13.6028 16.4212 13.8382 16.4695 14.0675 16.4695C16.6022 16.4695 19.1309 16.4695 21.6596 16.4695C22.2631 16.4695 22.4381 16.2884 22.5286 15.7272C23.1924 11.6898 23.8925 7.65235 24.5745 3.61493C24.6529 3.15024 24.7133 2.67952 24.7797 2.19672C24.6493 2.14706 24.5136 2.11262 24.3753 2.09412C22.4019 2.09412 20.4224 2.09412 18.4489 2.13637C18.2619 2.13637 17.9963 2.44415 17.9179 2.66141C17.4833 3.83823 17.0971 5.03317 16.7109 6.21603C15.5642 9.57753 14.4357 12.933 13.2649 16.4152V16.4212ZM44.7555 2.1243C44.7555 2.4864 44.7555 2.72779 44.8219 2.92091C45.6064 7.18766 46.4031 11.4544 47.1635 15.7332C47.2661 16.3005 47.4532 16.4876 48.0265 16.4816C50.5129 16.4514 52.9993 16.4816 55.4858 16.4816C55.7151 16.4816 55.9504 16.4454 56.2099 16.4272C56.2069 16.3115 56.1928 16.1963 56.1677 16.0833C54.6409 11.5811 53.12 7.08507 51.563 2.58899C51.4931 2.46925 51.396 2.36756 51.2797 2.2921C51.1634 2.21664 51.031 2.16951 50.8931 2.15447C49.4688 2.11826 48.0446 2.15447 46.6203 2.15447L44.7555 2.1243ZM15.8659 2.1243C13.6692 2.1243 11.6415 2.1243 9.57748 2.1243C9.37833 2.1243 9.11882 2.43208 9.00415 2.66141C6.85569 7.03075 4.7193 11.4061 2.59498 15.7875C2.50446 15.9686 2.45014 16.1617 2.35962 16.391C2.6493 16.391 2.84242 16.4272 3.0295 16.4272C5.4435 16.4272 7.90579 16.4272 10.3379 16.4272C10.5602 16.4583 10.7858 16.4003 10.9656 16.2658C11.1453 16.1313 11.2646 15.9312 11.2975 15.7091C12.3234 12.595 13.3856 9.49304 14.4296 6.38501L15.8659 2.1243ZM35.178 38.0869C34.6132 38.1738 34.059 38.3195 33.5244 38.5214C33.0541 38.7526 32.6628 39.1179 32.3997 39.571C32.1366 40.0242 32.0135 40.5451 32.0458 41.0682C32.0458 41.4665 32.1424 42.0217 31.9251 42.245C31.4302 42.7519 31.7501 43.102 31.9251 43.5244C32.1389 43.8714 32.2958 44.2504 32.3898 44.6469C32.4535 45.3078 32.7494 45.9247 33.225 46.388C33.7006 46.8513 34.325 47.1309 34.9873 47.1773C35.6497 47.2236 36.307 47.0336 36.8424 46.641C37.3779 46.2484 37.7568 45.6787 37.9118 45.0332C38.0808 44.3693 38.3403 43.7296 38.5153 43.0778C38.5889 42.8857 38.6177 42.6793 38.5998 42.4743C38.4766 42.1116 38.3798 41.7405 38.3101 41.3639C38.3282 39.2577 37.2782 38.1834 35.1719 38.0869H35.178Z" fill="white"/>
</g>
<defs>
<clipPath id="clip0">
<rect width="70.2897" height="70" fill="white"/>
</clipPath>
</defs>
</svg>
