<svg width="71" height="70" viewBox="0 0 71 70" fill="none" xmlns="http://www.w3.org/2000/svg">
<g clip-path="url(#clip0)">
<path d="M1.20694 70V67.9722H6.03494V28.0929C4.31609 27.8712 2.74554 27.0051 1.6409 25.6696C0.536253 24.3342 -0.0200622 22.6291 0.0844266 20.8992C0.0964914 20.7304 0.0964914 20.561 0.0844266 20.3923C-0.259569 17.4773 0.543087 14.8883 1.89493 12.3174C3.92872 8.51536 5.73319 4.58055 7.598 0.687969C7.68224 0.457836 7.84222 0.263176 8.05168 0.135964C8.26114 0.00875155 8.50764 -0.0434548 8.75069 -0.0120933C13.5787 -0.0120933 18.4067 -0.0120933 23.2347 -0.0120933C27.6704 -0.0120933 32.1062 0.0301561 36.5117 0.0301561C44.5584 0.0301561 52.5889 0.0100358 60.6034 -0.0301976C60.8702 -0.0584411 61.1389 0.000351939 61.3695 0.1374C61.6001 0.274449 61.7802 0.482389 61.8828 0.7302C64.5201 5.64269 67.1997 10.525 69.837 15.4375C70.0782 15.9282 70.208 16.466 70.2172 17.0126C70.2715 18.4128 70.2172 19.8129 70.2172 21.2371C70.2465 22.7804 69.7453 24.287 68.7974 25.5051C67.8494 26.7233 66.5122 27.5792 65.009 27.93C64.5383 28.0446 64.4658 28.28 64.4658 28.6904C64.4658 31.4544 64.4658 34.2245 64.4658 36.9885V67.9239H69.1007V69.9939L1.20694 70ZM54.1882 33.2709H21.7139C19.8249 33.2709 17.936 33.2709 16.047 33.2166C15.6065 33.2166 15.5944 33.4158 15.5944 33.7417C15.5944 42.1183 15.5944 50.4949 15.5944 58.8714C15.5944 59.3301 15.709 59.5172 16.1979 59.5111C18.4429 59.5111 20.6879 59.5111 22.9329 59.5111C23.4701 59.5111 23.5787 59.2999 23.5727 58.8292C23.5485 57.3808 23.5485 55.9324 23.5727 54.484C23.5445 53.6176 23.8162 52.768 24.3417 52.0787C24.8672 51.3893 25.6145 50.9024 26.4574 50.7L31.1104 49.3482C31.2797 49.3192 31.4379 49.2443 31.5678 49.1318C31.6977 49.0192 31.7943 48.8733 31.8471 48.7098C31.9 48.5463 31.907 48.3714 31.8676 48.2042C31.8282 48.0369 31.7437 47.8837 31.6234 47.761C30.5431 46.5902 30.2655 45.0513 29.7646 43.6512C29.0947 41.7743 29.8973 39.9336 30.7905 38.3102C31.7863 36.4997 33.5847 36.0169 35.5763 36.0833C36.7732 36.085 37.9274 36.528 38.8181 37.3274C39.7089 38.1269 40.2736 39.2267 40.4043 40.4164C40.4344 40.6518 40.531 40.8811 40.5612 41.1104C40.6457 41.7622 40.9655 42.5166 40.7422 43.0477C40.0784 44.6228 39.9999 46.4453 38.7567 47.8032C38.6469 47.9259 38.5717 48.0755 38.5387 48.2368C38.5057 48.3981 38.5161 48.5652 38.5689 48.7211C38.6217 48.877 38.715 49.0162 38.8392 49.1242C38.9634 49.2323 39.114 49.3054 39.2757 49.3361C40.8267 49.7948 42.3838 50.2414 43.9348 50.694C44.7899 50.8946 45.5478 51.3884 46.077 52.0895C46.6061 52.7906 46.8731 53.6549 46.8316 54.5323C46.8316 55.9565 46.8316 57.3808 46.8316 58.805C46.8316 59.3361 46.9824 59.5232 47.5316 59.5172C49.4628 59.487 51.394 59.4749 53.3192 59.5172C54.0011 59.5172 54.2244 59.3603 54.2184 58.6421C54.2184 50.4888 54.2184 42.3476 54.2184 34.1702L54.1882 33.2709ZM46.5117 25.1237C45.8919 26.0533 45.0518 26.8153 44.0662 27.3417C43.0807 27.8682 41.9803 28.1428 40.8629 28.1412C38.4489 28.1412 36.6384 27.0428 35.184 25.0935C33.7356 27.0609 31.8889 28.1472 29.487 28.1412C27.085 28.1352 25.2625 27.0187 23.8141 25.0814C23.1953 26.0234 22.3487 26.7938 21.3528 27.3213C20.3569 27.8488 19.2439 28.1163 18.117 28.0989C15.703 28.1714 13.9649 26.892 12.4502 25.1297C11.5085 26.417 10.1775 27.3671 8.65413 27.8394C8.48089 27.8813 8.33012 27.9876 8.23256 28.1367C8.13499 28.2859 8.09799 28.4666 8.12909 28.6421C8.12909 30.7906 8.12909 32.933 8.12909 35.0814V67.936H13.5364V67.067C13.5364 65.4254 13.5364 63.7839 13.5364 62.1424C13.5364 52.0277 13.5364 41.9131 13.5364 31.7984C13.5364 31.0923 13.9166 31.1949 14.3632 31.1949H55.4978C55.7513 31.1949 56.0108 31.1949 56.3367 31.2372V67.93H62.4984V34.6771C62.4984 32.6493 62.4984 30.6216 62.4984 28.5999C62.4984 28.1653 62.3596 27.9963 61.9432 27.8334C61.1164 27.5231 60.3237 27.1288 59.5775 26.6566C58.9779 26.2025 58.413 25.7042 57.8877 25.1659C55.178 28.6843 49.9758 29.493 46.5117 25.1237ZM13.4761 21.4725C13.5244 21.7682 13.5546 22.0096 13.5968 22.245C13.7964 23.3894 14.4179 24.4174 15.3387 25.1258C16.2594 25.8342 17.4123 26.1716 18.5696 26.0712C20.8569 25.8419 22.3596 24.2607 22.7941 21.9191C22.8243 21.7441 23.0355 21.4785 23.1804 21.4665C23.7211 21.4364 24.2631 21.4364 24.8038 21.4665C25.5823 24.6107 27.079 26.0591 29.499 26.0893C31.9191 26.1195 33.3735 24.7012 34.2606 21.5027H36.1677C36.9221 24.5926 38.455 26.0833 40.8629 26.0833C41.8864 26.0901 42.8827 25.7545 43.6934 25.1297C44.2526 24.6917 44.7097 24.1371 45.0328 23.5045C45.3559 22.8718 45.5373 22.1763 45.5642 21.4665C46.0712 21.4665 46.5238 21.4665 46.9764 21.4665C47.429 21.4665 47.6101 21.5691 47.6644 22.07C47.7842 23.1177 48.2623 24.0919 49.0178 24.8276C49.7734 25.5633 50.7599 26.0154 51.8104 26.1074C52.9886 26.1995 54.1583 25.8445 55.0865 25.1131C56.0147 24.3817 56.6335 23.3275 56.8195 22.1605C56.8195 21.9553 56.8859 21.7501 56.9221 21.557H58.9016C58.968 21.895 59.0162 22.1605 59.0766 22.4562C59.2938 23.4685 59.8428 24.3793 60.6365 25.044C61.4303 25.7088 62.4233 26.0894 63.458 26.1255C64.4694 26.1715 65.4666 25.8739 66.2873 25.2811C67.108 24.6883 67.704 23.8352 67.9782 22.8606C68.2009 21.4853 68.3219 20.0955 68.3403 18.7024H2.1665C2.1665 19.7043 2.1665 20.6638 2.1665 21.6234C2.1889 22.6721 2.56547 23.6824 3.23496 24.49C3.90445 25.2975 4.82746 25.8548 5.85388 26.0712C6.68638 26.2216 7.54403 26.1445 8.33639 25.8482C9.12876 25.5518 9.82649 25.0472 10.356 24.3874C10.8916 23.4788 11.3479 22.5258 11.7199 21.5389L13.4761 21.4725ZM15.6427 67.9722H17.1152C29.1852 67.9722 41.2552 67.9722 53.3252 67.9722C54.0132 67.9722 54.2365 67.8032 54.2124 67.0971C54.1641 65.4858 54.1762 63.8624 54.2124 62.2691C54.2124 61.726 54.0615 61.5691 53.5183 61.5691C47.254 61.5691 40.9897 61.5691 34.7314 61.5691C28.6602 61.5691 22.589 61.5691 16.5177 61.6053H15.6608L15.6427 67.9722ZM40.1568 56.7833H41.1888C42.2027 56.7833 42.2027 56.7833 42.2027 57.8213C42.2027 59.5654 42.2027 59.5232 44.0132 59.5232C44.6952 59.5232 44.84 59.2396 44.8279 58.6783C44.8279 57.3566 44.7917 56.0289 44.7796 54.7073C44.7796 53.5003 44.3813 52.9933 43.2407 52.6614C41.4604 52.1364 39.6801 51.6294 37.8937 51.1165C36.6143 50.7483 36.6143 50.7483 36.5057 49.3965C36.4909 49.341 36.4641 49.2895 36.4272 49.2456H33.9408C33.9234 49.4222 33.9234 49.6001 33.9408 49.7767C34.0796 50.525 33.7416 50.8147 33.0295 50.9837C31.05 51.4967 29.0887 52.0881 27.1212 52.6675C26.687 52.7431 26.2977 52.9808 26.0321 53.3327C25.7666 53.6845 25.6446 54.1241 25.691 54.5624C25.691 55.9626 25.6608 57.3627 25.6366 58.7568C25.6366 59.2396 25.7634 59.5353 26.3307 59.493C26.7159 59.477 27.1018 59.4972 27.4833 59.5534C28.1955 59.6499 28.3463 59.2939 28.3041 58.6662C28.2619 58.0386 28.3041 57.4592 28.3041 56.7833H30.3198V59.5474H32.7338C34.9969 59.5474 37.254 59.5051 39.5171 59.5474C40.1206 59.5474 40.2232 59.3603 40.1931 58.8412C40.1327 58.1774 40.1568 57.5075 40.1568 56.7773V56.7833ZM35.8297 16.4152H45.1538C45.1056 16.1134 45.0754 15.8539 45.0331 15.6005C44.2687 11.3116 43.5023 7.0207 42.7338 2.7278C42.6614 2.31139 42.4924 2.1243 42.0277 2.1243C40.362 2.1243 38.7024 2.1243 37.0367 2.1243H35.8297V16.4152ZM53.7235 2.13033C53.7331 2.26448 53.7533 2.39766 53.7839 2.52864C55.3107 7.04885 56.8497 11.5811 58.3644 16.0953C58.5093 16.5299 58.7929 16.5359 59.143 16.5359H67.4592C67.6333 16.5206 67.8066 16.4965 67.9782 16.4635C67.9703 16.39 67.9562 16.3173 67.936 16.2462C65.4536 11.6677 62.9671 7.09311 60.4767 2.5226C60.4312 2.43073 60.366 2.35008 60.2856 2.28643C60.2053 2.22278 60.1118 2.17771 60.012 2.15447C57.942 2.11826 55.872 2.1243 53.7235 2.1243V2.13033ZM24.5141 16.4695H25.3952C27.8756 16.4695 30.362 16.4695 32.8424 16.4695C33.5244 16.4695 33.7416 16.3126 33.7416 15.6005C33.7416 11.3337 33.7416 7.06697 33.7779 2.80022C33.7779 2.19672 33.5002 2.06997 32.9933 2.06997C31.219 2.06997 29.4387 2.11825 27.6583 2.06997C27.0911 2.06997 26.8557 2.23895 26.7652 2.80624C26.2582 6.01686 25.7151 9.22145 25.184 12.426L24.5141 16.4695ZM13.2649 16.4212C13.6028 16.4212 13.8382 16.4695 14.0675 16.4695C16.6022 16.4695 19.1309 16.4695 21.6596 16.4695C22.2631 16.4695 22.4381 16.2884 22.5286 15.7272C23.1924 11.6898 23.8925 7.65235 24.5745 3.61493C24.6529 3.15024 24.7133 2.67952 24.7797 2.19672C24.6493 2.14706 24.5136 2.11262 24.3753 2.09412C22.4019 2.09412 20.4224 2.09412 18.4489 2.13637C18.2619 2.13637 17.9963 2.44415 17.9179 2.66141C17.4833 3.83823 17.0971 5.03317 16.7109 6.21603C15.5642 9.57753 14.4357 12.933 13.2649 16.4152V16.4212ZM44.7555 2.1243C44.7555 2.4864 44.7555 2.72779 44.8219 2.92091C45.6064 7.18766 46.4031 11.4544 47.1635 15.7332C47.2661 16.3005 47.4532 16.4876 48.0265 16.4816C50.5129 16.4514 52.9993 16.4816 55.4858 16.4816C55.7151 16.4816 55.9504 16.4454 56.2099 16.4272C56.2069 16.3115 56.1928 16.1963 56.1677 16.0833C54.6409 11.5811 53.12 7.08507 51.563 2.58899C51.4931 2.46925 51.396 2.36756 51.2797 2.2921C51.1634 2.21664 51.031 2.16951 50.8931 2.15447C49.4688 2.11826 48.0446 2.15447 46.6203 2.15447L44.7555 2.1243ZM15.8659 2.1243C13.6692 2.1243 11.6415 2.1243 9.57748 2.1243C9.37833 2.1243 9.11882 2.43208 9.00415 2.66141C6.85569 7.03075 4.7193 11.4061 2.59498 15.7875C2.50446 15.9686 2.45014 16.1617 2.35962 16.391C2.6493 16.391 2.84242 16.4272 3.0295 16.4272C5.4435 16.4272 7.90579 16.4272 10.3379 16.4272C10.5602 16.4583 10.7858 16.4003 10.9656 16.2658C11.1453 16.1313 11.2646 15.9312 11.2975 15.7091C12.3234 12.595 13.3856 9.49304 14.4296 6.38501L15.8659 2.1243ZM35.178 38.0869C34.6132 38.1738 34.059 38.3195 33.5244 38.5214C33.0541 38.7526 32.6628 39.1179 32.3997 39.571C32.1366 40.0242 32.0135 40.5451 32.0458 41.0682C32.0458 41.4665 32.1424 42.0217 31.9251 42.245C31.4302 42.7519 31.7501 43.102 31.9251 43.5244C32.1389 43.8714 32.2958 44.2504 32.3898 44.6469C32.4535 45.3078 32.7494 45.9247 33.225 46.388C33.7006 46.8513 34.325 47.1309 34.9873 47.1773C35.6497 47.2236 36.307 47.0336 36.8424 46.641C37.3779 46.2484 37.7568 45.6787 37.9118 45.0332C38.0808 44.3693 38.3403 43.7296 38.5153 43.0778C38.5889 42.8857 38.6177 42.6793 38.5998 42.4743C38.4766 42.1116 38.3798 41.7405 38.3101 41.3639C38.3282 39.2577 37.2782 38.1834 35.1719 38.0869H35.178Z" fill="#0F84A9"/>
<path d="M54.1885 33.2711V34.1763C54.1885 42.3356 54.1885 50.4708 54.1885 58.6482C54.1885 59.3664 53.9712 59.5414 53.2893 59.5233C51.3641 59.4811 49.4329 59.4931 47.5017 59.5233C46.9525 59.5233 46.7896 59.3423 46.8016 58.8112C46.8318 57.3869 46.8016 55.9627 46.8016 54.5384C46.8432 53.661 46.5762 52.7968 46.0471 52.0956C45.5179 51.3945 44.76 50.9008 43.9048 50.7001C42.3538 50.2475 40.7968 49.8009 39.2458 49.3423C39.0841 49.3115 38.9334 49.2384 38.8093 49.1303C38.6851 49.0223 38.5918 48.8832 38.539 48.7273C38.4862 48.5714 38.4758 48.4042 38.5088 48.2429C38.5418 48.0816 38.617 47.932 38.7268 47.8094C39.97 46.4515 40.0485 44.6289 40.7123 43.0538C40.9356 42.5227 40.6158 41.7683 40.5313 41.1166C40.5011 40.8872 40.4045 40.6579 40.3744 40.4225C40.2437 39.2328 39.6789 38.133 38.7882 37.3336C37.8975 36.5341 36.7432 36.0912 35.5464 36.0894C33.5548 36.023 31.7564 36.5118 30.7606 38.3163C29.8674 39.9397 29.0648 41.7804 29.7346 43.6573C30.2356 45.0574 30.5132 46.5963 31.5934 47.7671C31.7138 47.8898 31.7982 48.0431 31.8377 48.2103C31.8771 48.3776 31.87 48.5524 31.8172 48.716C31.7643 48.8795 31.6677 49.0254 31.5379 49.1379C31.408 49.2505 31.2498 49.3253 31.0805 49.3543L26.4275 50.7062C25.5846 50.9086 24.8373 51.3955 24.3118 52.0848C23.7862 52.7742 23.5146 53.6238 23.5427 54.4901C23.5427 55.9385 23.5427 57.3869 23.5427 58.8353C23.5427 59.306 23.4401 59.5233 22.903 59.5173C20.658 59.5173 18.413 59.5173 16.168 59.5173C15.6791 59.5173 15.5645 59.3362 15.5645 58.8776C15.5645 50.501 15.5645 42.1244 15.5645 33.7478C15.5645 33.4219 15.5645 33.2168 16.0171 33.2228C17.906 33.265 19.795 33.2771 21.684 33.2771H54.1583L54.1885 33.2711Z" fill="white"/>
<path d="M46.5117 25.1237C49.9758 29.5051 55.1599 28.6964 57.8394 25.178C58.3647 25.7163 58.9296 26.2146 59.5292 26.6687C60.2754 27.1409 61.0682 27.5352 61.8949 27.8455C62.3113 28.0084 62.4562 28.1774 62.4501 28.6119C62.4501 30.6337 62.4501 32.6614 62.4501 34.6892V67.9179H56.2884V31.2251C55.9625 31.2251 55.6849 31.1829 55.4496 31.1829H14.315C13.8684 31.1829 13.4821 31.1044 13.4882 31.7864C13.4882 41.901 13.4882 52.0157 13.4882 62.1304C13.4882 63.7719 13.4882 65.4134 13.4882 67.0549V67.8938H8.12305V35.0513C8.12305 32.9028 8.12305 30.7604 8.12305 28.6119C8.09195 28.4365 8.12895 28.2557 8.22651 28.1066C8.32407 27.9574 8.47484 27.8511 8.64809 27.8093C10.1704 27.3445 11.5032 26.4031 12.4502 25.1237C13.9649 26.8859 15.6789 28.1412 18.117 28.0929C19.2439 28.1103 20.3569 27.8428 21.3528 27.3153C22.3487 26.7878 23.1953 26.0174 23.8141 25.0754C25.2625 27.0127 27.0911 28.1352 29.487 28.1352C31.8828 28.1352 33.7115 27.0549 35.184 25.0875C36.6264 27.0368 38.467 28.1352 40.8629 28.1352C41.9797 28.1375 43.0798 27.8638 44.0653 27.3384C45.0508 26.813 45.8912 26.0522 46.5117 25.1237Z" fill="white"/>
<path d="M13.4764 21.4605H11.7262C11.3542 22.4474 10.8979 23.4004 10.3623 24.309C9.83281 24.9687 9.1351 25.4734 8.34273 25.7697C7.55037 26.0661 6.69272 26.1431 5.86022 25.9928C4.8338 25.7764 3.91078 25.2191 3.24129 24.4116C2.5718 23.604 2.19523 22.5937 2.17283 21.545C2.13662 20.5854 2.17283 19.6258 2.17283 18.624H68.3165C68.298 20.0171 68.177 21.4069 67.9544 22.7821C67.6802 23.7567 67.0842 24.6098 66.2635 25.2027C65.4427 25.7955 64.4455 26.0931 63.4341 26.0471C62.3994 26.0109 61.4064 25.6303 60.6127 24.9656C59.8189 24.3008 59.2699 23.3901 59.0527 22.3778C58.9924 22.1002 58.9441 21.8165 58.8777 21.4786H56.8982C56.862 21.6777 56.8198 21.8829 56.7956 22.0821C56.6096 23.2491 55.9909 24.3033 55.0626 25.0347C54.1344 25.7661 52.9648 26.1211 51.7866 26.029C50.736 25.937 49.7495 25.4849 48.994 24.7492C48.2385 24.0135 47.7604 23.0393 47.6405 21.9915C47.5862 21.5148 47.3931 21.388 46.9526 21.388C46.512 21.388 46.0473 21.388 45.5404 21.388C45.5134 22.0979 45.3321 22.7934 45.009 23.426C44.6859 24.0587 44.2288 24.6133 43.6695 25.0513C42.8588 25.676 41.8625 26.0117 40.8391 26.0048C38.4251 26.0048 36.8982 24.5142 36.1439 21.4243H34.2368C33.3497 24.6228 31.8771 26.035 29.4752 26.0109C27.0733 25.9867 25.5585 24.5323 24.78 21.388C24.2392 21.358 23.6973 21.358 23.1565 21.388C23.0117 21.388 22.8005 21.6657 22.7703 21.8407C22.3599 24.1581 20.8572 25.7634 18.5458 25.9928C17.3884 26.0931 16.2355 25.7558 15.3148 25.0474C14.3941 24.3389 13.7725 23.311 13.573 22.1666C13.5367 21.9976 13.5367 21.7562 13.4764 21.4605Z" fill="white"/>
<path d="M15.6426 67.9721V61.575H16.4996C22.5708 61.575 28.642 61.5388 34.7132 61.5388C40.9715 61.5388 47.2358 61.569 53.5002 61.5388C54.0433 61.5388 54.2063 61.6957 54.1942 62.2389C54.164 63.8502 54.1519 65.4736 54.1942 67.0669C54.1942 67.773 53.995 67.948 53.307 67.942C41.237 67.942 29.167 67.942 17.097 67.942L15.6426 67.9721Z" fill="white"/>
<path d="M40.1567 56.7773C40.1567 57.5075 40.1567 58.1774 40.1567 58.8413C40.1869 59.3603 40.0602 59.5594 39.4808 59.5474C37.2177 59.5172 34.9606 59.5474 32.6975 59.5474H30.2835V56.7833H28.2678C28.2678 57.4472 28.2316 58.0627 28.2678 58.6662C28.304 59.2697 28.1591 59.6499 27.447 59.5534C27.0655 59.4972 26.6796 59.477 26.2943 59.493C25.727 59.5353 25.5943 59.2396 25.6003 58.7568C25.6003 57.3627 25.6003 55.9626 25.6546 54.5624C25.6083 54.1241 25.7302 53.6845 25.9958 53.3327C26.2613 52.9809 26.6507 52.7431 27.0849 52.6675C29.0523 52.064 31.0137 51.4967 32.9932 50.9837C33.7053 50.7966 34.0433 50.5069 33.9045 49.7767C33.8871 49.6001 33.8871 49.4222 33.9045 49.2456H36.3909C36.4277 49.2896 36.4545 49.3411 36.4693 49.3965C36.578 50.7483 36.578 50.7483 37.8574 51.1165C39.6679 51.6294 41.4241 52.1364 43.2044 52.6614C44.345 52.9933 44.7313 53.5244 44.7433 54.7073C44.7433 56.0289 44.7433 57.3567 44.7916 58.6783C44.7916 59.2396 44.6588 59.5232 43.9769 59.5232C42.1664 59.5232 42.1664 59.5655 42.1664 57.8213C42.1664 56.7954 42.1664 56.7954 41.1525 56.7833L40.1567 56.7773Z" fill="white"/>
<path d="M35.8296 16.4093V2.11841H37.0366C38.7023 2.11841 40.3619 2.11841 42.0275 2.11841C42.4922 2.11841 42.6612 2.31756 42.7336 2.72191C43.494 7.01481 44.2605 11.3057 45.033 15.5946C45.0752 15.848 45.1054 16.1075 45.1537 16.4093H35.8296Z" fill="white"/>
<path d="M53.7236 2.12427C55.8721 2.12427 57.9481 2.12427 60.0121 2.12427C60.1119 2.1475 60.2054 2.19256 60.2857 2.25621C60.3661 2.31986 60.4313 2.40052 60.4768 2.49239C62.9753 7.0629 65.4617 11.6374 67.9361 16.216C67.9563 16.2871 67.9704 16.3598 67.9783 16.4333C67.8067 16.4663 67.6334 16.4904 67.4593 16.5057H59.1431C58.793 16.5057 58.5094 16.5057 58.3646 16.0651C56.8498 11.5389 55.3108 7.01262 53.784 2.49843C53.7546 2.37537 53.7345 2.25031 53.7236 2.12427Z" fill="white"/>
<path d="M24.5142 16.4634L25.184 12.4501C25.7151 9.24555 26.2583 6.04096 26.7652 2.83034C26.8557 2.26305 27.0911 2.082 27.6584 2.09407C29.4689 2.09407 31.219 2.09407 32.9933 2.09407C33.5003 2.09407 33.7839 2.2208 33.7779 2.8243C33.7417 7.09104 33.7175 11.3578 33.7417 15.6246C33.7417 16.3367 33.5244 16.4996 32.8425 16.4936C30.3621 16.4514 27.8757 16.4936 25.3953 16.4936L24.5142 16.4634Z" fill="white"/>
<path d="M13.2651 16.4151C14.4359 12.9329 15.5645 9.57746 16.6991 6.222C17.0974 5.015 17.4836 3.84422 17.9061 2.66739C17.9845 2.45013 18.2501 2.14838 18.4371 2.14235C20.4106 2.1001 22.3901 2.10613 24.3635 2.1001C24.5018 2.1186 24.6375 2.15302 24.7679 2.20268C24.7015 2.68548 24.6411 3.15622 24.5627 3.62091C23.8807 7.65833 23.1807 11.6958 22.5168 15.7332C22.4263 16.2944 22.2332 16.4815 21.6478 16.4755C19.1191 16.4453 16.5904 16.4755 14.0557 16.4755C13.8385 16.4634 13.6031 16.4332 13.2651 16.4151Z" fill="white"/>
<path d="M44.7554 2.11841H46.6202C48.0444 2.11841 49.4687 2.11841 50.893 2.11841C51.0308 2.13344 51.1632 2.18058 51.2796 2.25604C51.3959 2.3315 51.4929 2.43319 51.5629 2.55293C53.1199 7.04901 54.6407 11.5451 56.1676 16.0472C56.1926 16.1602 56.2067 16.2754 56.2098 16.3912C55.9503 16.3912 55.7149 16.4455 55.4856 16.4455C52.9992 16.4455 50.5128 16.4455 48.0263 16.4455C47.453 16.4455 47.2659 16.2645 47.1633 15.6972C46.4029 11.4183 45.6063 7.15159 44.8217 2.88485C44.7855 2.7038 44.7855 2.48051 44.7554 2.11841Z" fill="white"/>
<path d="M15.8662 2.12442L14.4299 6.4153C13.3858 9.52333 12.3237 12.6253 11.2977 15.7394C11.2648 15.9615 11.1455 16.1616 10.9658 16.2961C10.7861 16.4306 10.5605 16.4886 10.3381 16.4576C7.92415 16.4274 5.46789 16.4576 3.02975 16.4576C2.84266 16.4576 2.64954 16.4575 2.35986 16.4213C2.45039 16.1799 2.5047 15.9868 2.59523 15.8178C4.7276 11.4445 6.86398 7.06908 9.0044 2.6917C9.11906 2.46237 9.37858 2.15459 9.57773 2.15459C11.6236 2.10631 13.6695 2.12442 15.8662 2.12442Z" fill="white"/>
<path d="M35.1722 38.0869C37.2785 38.1835 38.3285 39.2577 38.3527 41.3579C38.4223 41.7345 38.5192 42.1056 38.6424 42.4683C38.6603 42.6733 38.6314 42.8796 38.5579 43.0718C38.3527 43.7236 38.0932 44.3633 37.9544 45.0272C37.7993 45.6728 37.4204 46.2424 36.8849 46.635C36.3495 47.0276 35.6922 47.2176 35.0299 47.1713C34.3675 47.1249 33.7431 46.8453 33.2675 46.382C32.7919 45.9187 32.496 45.3018 32.4323 44.6409C32.3383 44.2444 32.1814 43.8654 31.9677 43.5184C31.7745 43.096 31.4547 42.7459 31.9677 42.239C32.1849 42.0157 32.0823 41.4605 32.0883 41.0622C32.056 40.5391 32.1791 40.0182 32.4423 39.565C32.7054 39.1118 33.0967 38.7466 33.5669 38.5154C34.0862 38.3187 34.624 38.1752 35.1722 38.0869Z" fill="white"/>
</g>
<defs>
<clipPath id="clip0">
<rect width="70.2897" height="70" fill="white"/>
</clipPath>
</defs>
</svg>
