<?xml version="1.0" encoding="UTF-8"?>
<svg width="128px" height="23px" viewBox="0 0 128 23" version="1.1" xmlns="http://www.w3.org/2000/svg" xmlns:xlink="http://www.w3.org/1999/xlink">
    <title>DAA59F52-1DE5-4958-947D-0D114CFE8B72</title>
    <g id="user_test_manager" stroke="none" stroke-width="1" fill="none" fill-rule="evenodd">
        <g id="test_manager_todays_schedule" transform="translate(-1659.000000, -488.000000)">
            <g id="action-icons-1" transform="translate(1659.000000, 488.000000)">
                <g id="Trashcan_GRAY-Copy-3" transform="translate(110.000000, 0.000000)" fill="#043B5D" fill-rule="nonzero">
                    <path d="M6.54545455,21 C6.72727273,21 6.72727273,21 6.54545455,21 C6.90909091,21 7,20.7554348 7,20.4293478 L6.09090909,6.4076087 C6.09090909,6.16304348 5.81818182,6 5.45454545,6 C5.18181818,6 5,6.24456522 5,6.57065217 L6.09090909,20.7554348 C6.09090909,20.8369565 6.36363636,21 6.54545455,21 Z" id="Path"></path>
                    <path d="M11.4,21 L11.4,21 C11.72,21 11.8,20.7580645 11.96,20.5967742 L13,6.56451613 C13,6.32258065 12.76,6.16129032 12.6,6 C12.36,6 12.2,6.24193548 12.04,6.40322581 L11,20.4354839 C11,20.8387097 11.24,21 11.4,21 Z" id="Path"></path>
                    <path d="M8.50961894,21 C8.80384758,21 9,20.7554348 9,20.5923913 L9,6.4076087 C9,6.16304348 8.70577137,6 8.50961894,6 C8.31346652,6 8.01923789,6.24456522 8.01923789,6.4076087 L8.01923789,20.5923913 C7.92116168,20.8369565 8.21539031,21 8.50961894,21 Z" id="Path"></path>
                    <path d="M18,3.87368421 C18,3.06666667 17.36,2.42105263 16.56,2.42105263 L11.84,2.42105263 L11.84,1.45263158 C11.84,0.645614035 11.2,0 10.4,0 L7.6,0 C6.8,0 6.16,0.645614035 6.16,1.45263158 L6.16,2.42105263 L1.44,2.42105263 C0.64,2.42105263 0,3.06666667 0,3.87368421 C0,4.51929825 0.56,5.16491228 1.2,5.32631579 L3.04,21.7894737 C3.12,22.5964912 3.68,23 4.48,23 L13.44,23 C14.24,23 14.72,22.4350877 14.88,21.7894737 L16.72,5.32631579 C17.52,5.24561404 18,4.6 18,3.87368421 Z M7.12,1.45263158 C7.12,1.21052632 7.36,1.04912281 7.52,1.04912281 L10.4,1.04912281 C10.64,1.04912281 10.8,1.29122807 10.8,1.45263158 L10.8,2.42105263 L6.96,2.42105263 L6.96,1.45263158 L7.12,1.45263158 Z M13.92,21.6280702 C13.92,21.8701754 13.68,22.0315789 13.52,22.0315789 L4.48,22.0315789 C4.24,22.0315789 4.08,21.9508772 4.08,21.6280702 L2.08,5.32631579 L15.76,5.32631579 L13.92,21.6280702 Z M16.56,4.35789474 L16.32,4.35789474 L1.68,4.35789474 L1.44,4.35789474 C1.12,4.35789474 0.88,4.11578947 0.88,3.95438596 C0.88,3.7122807 1.12,3.55087719 1.28,3.55087719 L6,3.55087719 L11.68,3.55087719 L16.4,3.55087719 C16.64,3.55087719 16.8,3.79298246 16.8,3.95438596 C16.88,4.11578947 16.88,4.35789474 16.56,4.35789474 Z" id="Shape"></path>
                </g>
                <g id="checkmark_icon-copy-3" transform="translate(0.000000, 2.000000)" fill="#25DD83" fill-rule="nonzero">
                    <polygon id="Path" points="21 2.34201389 17.9333333 0 7.8 12.9305556 2.93333333 7.32291667 0 9.82986111 7.96666667 19"></polygon>
                </g>
                <g id="InProcess2_icon-Copy-3" transform="translate(53.000000, 0.000000)" fill="#3ECCCD">
                    <path d="M16.8203139,3.51550967 C16.525099,4.25634182 16.4143934,4.18225861 16.1191784,4.88604915 C16.9679214,5.07125718 19.2189355,4.84900754 19.9938748,4.58971629 C20.0676785,4.03409218 19.4772486,-1.52214892 18.0749775,1.92272056 C16.525099,1.36709645 15.7501597,0.552181086 13.6098512,0.181765013 C5.04861734,-1.33694089 -2.88528474,6.88629594 1.02631349,16.4430306 C2.1333696,19.1100264 4.64269677,21.406606 7.48414078,22.4808126 C8.0745707,22.7030623 9.40303803,23.1846032 10.0303698,22.9253119 C10.8791128,22.5548958 10.6207997,21.5547724 9.84586047,21.221398 C7.89006135,20.4435242 7.18892581,20.5916907 5.6021454,19.2952344 C3.46183693,17.5913205 1.43223407,14.5539087 1.91195838,10.4052486 C2.90830887,1.77455413 13.3146363,0.144723406 16.8203139,3.51550967 L16.8203139,3.51550967 Z" id="Path"></path>
                    <path d="M21.3581389,6.02142812 C21.6085635,5.90959133 21.8902912,6.24510169 21.9842004,6.80428562 C22.0468066,7.36346956 21.9215943,7.86673509 21.6398666,7.97857188 C21.389442,8.09040867 21.1077143,7.75489831 21.013805,7.19571438 C20.9511989,6.69244884 21.1077143,6.13326491 21.3581389,6.02142812 L21.3581389,6.02142812 Z" id="Path"></path>
                    <path d="M21.7187913,9.01916776 C22.2812087,8.91856958 22.8436261,9.22036411 22.9561096,9.7736541 C23.1248348,10.3269441 22.7873844,10.8802341 22.2812087,10.9808322 C21.775033,11.0814304 21.1563739,10.7796359 21.0438904,10.2263459 C20.8751652,9.72335501 21.2126156,9.17006502 21.7187913,9.01916776 L21.7187913,9.01916776 Z" id="Path"></path>
                    <path d="M21.8852108,12.0028065 C22.4361989,11.9621047 22.9412712,12.3691225 22.9871869,12.8982456 C23.0790182,13.4680704 22.6657772,13.9564917 22.1147892,13.9971935 C21.5638011,14.0378953 21.0587288,13.6308775 21.0128131,13.1017544 C20.9209818,12.5726314 21.3342228,12.08421 21.8852108,12.0028065 L21.8852108,12.0028065 Z" id="Path"></path>
                    <path d="M21.8763166,15.002289 C22.4122782,14.9660086 22.9070119,15.365093 22.9894676,15.909299 C23.0719232,16.453505 22.659645,16.9614306 22.1236834,16.997711 C21.5877218,17.0339914 21.0929881,16.634907 21.0105324,16.090701 C20.9280768,15.546495 21.340355,15.0385694 21.8763166,15.002289 L21.8763166,15.002289 Z" id="Path"></path>
                    <path d="M19.0169492,18.0014094 C19.559322,18.0014094 20,18.4786848 20,19.0156195 C20,19.5823841 19.5254237,20 18.9830508,20 C18.440678,20 18,19.5227246 18,18.9857898 C18,18.4190253 18.440678,17.9715797 19.0169492,18.0014094 L19.0169492,18.0014094 Z" id="Path"></path>
                    <path d="M15.0644039,21.0013098 C15.6118367,21.0290512 16.0304619,21.5006549 15.9982599,22.0554828 C15.966058,22.6103107 15.483029,23.0264315 14.9355961,22.9986902 C14.3881633,22.9709488 13.9695381,22.4993451 14.0017401,21.9445172 C14.033942,21.3896893 14.516971,20.9735685 15.0644039,21.0013098 L15.0644039,21.0013098 Z" id="Path"></path>
                    <path d="M11.5,4 L11.5,4 C11.78125,4 12,4.24324324 12,4.55598456 L12,13 L11,13 L11,4.55598456 C11,4.24324324 11.21875,4 11.5,4 L11.5,4 Z" id="Path" stroke="#3ECCCD" stroke-width="0.75"></path>
                    <path d="M18,12.5 L18,12.5 C18,12.78125 17.7247191,13 17.3707865,13 L11,13 L11,12 L17.3707865,12 C17.7247191,12 18,12.21875 18,12.5 L18,12.5 Z" id="Path" stroke="#3ECCCD" stroke-width="0.75"></path>
                </g>
            </g>
        </g>
    </g>
</svg>