<?xml version="1.0" encoding="utf-8"?>
<!-- Generator: Adobe Illustrator 24.0.2, SVG Export Plug-In . SVG Version: 6.00 Build 0)  -->
<svg version="1.1" id="Layer_1" xmlns="http://www.w3.org/2000/svg" xmlns:xlink="http://www.w3.org/1999/xlink" x="0px" y="0px"
	 viewBox="0 0 64 45" style="enable-background:new 0 0 64 45;" xml:space="preserve">
<style type="text/css">
	.st0{fill-rule:evenodd;clip-rule:evenodd;fill:#F0DCC8;}
	.st1{fill-rule:evenodd;clip-rule:evenodd;fill:#3B99C9;}
	.st2{filter:url(#filter-2);}
	.st3{fill-rule:evenodd;clip-rule:evenodd;}
	.st4{fill-rule:evenodd;clip-rule:evenodd;fill:#FFB003;}
	.st5{filter:url(#filter-4);}
	.st6{fill-rule:evenodd;clip-rule:evenodd;fill:#50BE3D;}
	.st7{filter:url(#filter-6);}
	.st8{fill-rule:evenodd;clip-rule:evenodd;fill:#F26D5F;}
	.st9{filter:url(#filter-8);}
</style>
<filter  filterUnits="objectBoundingBox" height="155.8%" id="filter-8" width="121.8%" x="-10.9%" y="-27.9%">
	<feMorphology  in="SourceAlpha" operator="dilate" radius="0.5" result="shadowSpreadOuter1"></feMorphology>
	<feOffset  dx="0" dy="0" in="shadowSpreadOuter1" result="shadowOffsetOuter1"></feOffset>
	<feGaussianBlur  in="shadowOffsetOuter1" result="shadowBlurOuter1" stdDeviation="1.5"></feGaussianBlur>
	<feColorMatrix  in="shadowBlurOuter1" type="matrix" values="0 0 0 0 0   0 0 0 0 0   0 0 0 0 0  0 0 0 0.2 0"></feColorMatrix>
</filter>
<filter  filterUnits="objectBoundingBox" height="200.8%" id="filter-6" width="123.9%" x="-11.9%" y="-50.4%">
	<feMorphology  in="SourceAlpha" operator="dilate" radius="0.5" result="shadowSpreadOuter1"></feMorphology>
	<feOffset  dx="0" dy="0" in="shadowSpreadOuter1" result="shadowOffsetOuter1"></feOffset>
	<feGaussianBlur  in="shadowOffsetOuter1" result="shadowBlurOuter1" stdDeviation="1.5"></feGaussianBlur>
	<feColorMatrix  in="shadowBlurOuter1" type="matrix" values="0 0 0 0 0   0 0 0 0 0   0 0 0 0 0  0 0 0 0.2 0"></feColorMatrix>
</filter>
<filter  filterUnits="objectBoundingBox" height="200.8%" id="filter-4" width="123.9%" x="-11.9%" y="-50.4%">
	<feMorphology  in="SourceAlpha" operator="dilate" radius="0.5" result="shadowSpreadOuter1"></feMorphology>
	<feOffset  dx="0" dy="0" in="shadowSpreadOuter1" result="shadowOffsetOuter1"></feOffset>
	<feGaussianBlur  in="shadowOffsetOuter1" result="shadowBlurOuter1" stdDeviation="1.5"></feGaussianBlur>
	<feColorMatrix  in="shadowBlurOuter1" type="matrix" values="0 0 0 0 0   0 0 0 0 0   0 0 0 0 0  0 0 0 0.3 0"></feColorMatrix>
</filter>
<filter  filterUnits="objectBoundingBox" height="187.5%" id="filter-2" width="123.9%" x="-11.9%" y="-43.7%">
	<feMorphology  in="SourceAlpha" operator="dilate" radius="0.5" result="shadowSpreadOuter1"></feMorphology>
	<feOffset  dx="0" dy="0" in="shadowSpreadOuter1" result="shadowOffsetOuter1"></feOffset>
	<feGaussianBlur  in="shadowOffsetOuter1" result="shadowBlurOuter1" stdDeviation="1.5"></feGaussianBlur>
	<feColorMatrix  in="shadowBlurOuter1" type="matrix" values="0 0 0 0 0   0 0 0 0 0   0 0 0 0 0  0 0 0 0.3 0"></feColorMatrix>
</filter>
<title>E265116B-1043-49C5-9EDC-F1DB337908E0</title>
<g id="scheduling">
	<g id="appointment_information-and-QR-code-Copy" transform="translate(-14.000000, -700.000000)">
		<g id="Icon-Copy" transform="translate(18.000000, 700.000000)">
			<path id="Background" class="st0" d="M4.2,3h46.6C53.1,3,55,4.9,55,7.2v32.2c0,2.3-1.9,4.2-4.2,4.2H4.2c-2.3,0-4.2-1.9-4.2-4.2
				V7.2C0,4.9,1.9,3,4.2,3z"/>
			<path id="Blue" class="st1" d="M5.2,5.4h44.7c1.5,0,2.8,1.3,2.8,2.8v6.3c0,1.5-1.3,2.8-2.8,2.8H5.2c-1.5,0-2.8-1.3-2.8-2.8V8.2
				C2.4,6.6,3.6,5.4,5.2,5.4z"/>
			<g id="Yellow">
				<g class="st2">
					<path id="path-1_2_" class="st3" d="M5.2,9.6h44.7c1.5,0,2.8,1.3,2.8,2.8v8.1c0,1.5-1.3,2.8-2.8,2.8H5.2
						c-1.5,0-2.8-1.3-2.8-2.8v-8.1C2.4,10.8,3.6,9.6,5.2,9.6z"/>
				</g>
				<g>
					<path id="path-1_1_" class="st4" d="M5.2,9.6h44.7c1.5,0,2.8,1.3,2.8,2.8v8.1c0,1.5-1.3,2.8-2.8,2.8H5.2
						c-1.5,0-2.8-1.3-2.8-2.8v-8.1C2.4,10.8,3.6,9.6,5.2,9.6z"/>
				</g>
			</g>
			<g id="Green">
				<g class="st5">
					<path id="path-3_2_" class="st3" d="M5.2,13.8h44.7c1.5,0,2.8,1.3,2.8,2.8v6.3c0,1.5-1.3,2.8-2.8,2.8H5.2
						c-1.5,0-2.8-1.3-2.8-2.8v-6.3C2.4,15,3.6,13.8,5.2,13.8z"/>
				</g>
				<g>
					<path id="path-3_1_" class="st6" d="M5.2,13.8h44.7c1.5,0,2.8,1.3,2.8,2.8v6.3c0,1.5-1.3,2.8-2.8,2.8H5.2
						c-1.5,0-2.8-1.3-2.8-2.8v-6.3C2.4,15,3.6,13.8,5.2,13.8z"/>
				</g>
			</g>
			<g id="Red">
				<g class="st7">
					<path id="path-5_2_" class="st3" d="M5.2,18h44.7c1.5,0,2.8,1.3,2.8,2.8v6.3c0,1.5-1.3,2.8-2.8,2.8H5.2c-1.5,0-2.8-1.3-2.8-2.8
						v-6.3C2.4,19.2,3.6,18,5.2,18z"/>
				</g>
				<g>
					<path id="path-5_1_" class="st8" d="M5.2,18h44.7c1.5,0,2.8,1.3,2.8,2.8v6.3c0,1.5-1.3,2.8-2.8,2.8H5.2c-1.5,0-2.8-1.3-2.8-2.8
						v-6.3C2.4,19.2,3.6,18,5.2,18z"/>
				</g>
			</g>
			<rect id="Left" y="7.6" class="st0" width="2.4" height="19.5"/>
			<rect id="Right" x="52.6" y="7.6" class="st0" width="2.4" height="19.5"/>
			<g id="Front">
				<g class="st9">
					<path id="path-7_2_" class="st3" d="M0,22.1h17.9c3.2,0,4.6,6.9,9.6,6.9s6.7-6.9,10-6.9H55v17.3c0,2.3-1.9,4.2-4.2,4.2H4.2
						c-2.3,0-4.2-1.9-4.2-4.2V22.1z"/>
				</g>
				<g>
					<path id="path-7_1_" class="st0" d="M0,22.1h17.9c3.2,0,4.6,6.9,9.6,6.9s6.7-6.9,10-6.9H55v17.3c0,2.3-1.9,4.2-4.2,4.2H4.2
						c-2.3,0-4.2-1.9-4.2-4.2V22.1z"/>
				</g>
			</g>
		</g>
	</g>
</g>
</svg>
