<?xml version="1.0" encoding="UTF-8"?>
<svg width="71px" height="69px" viewBox="0 0 71 69" version="1.1" xmlns="http://www.w3.org/2000/svg" xmlns:xlink="http://www.w3.org/1999/xlink">
    <title>88987371-6F4E-416E-B4C7-B30E5AA3E89B</title>
    <g id="location_manager" stroke="none" stroke-width="1" fill="none" fill-rule="evenodd">
        <g id="department-manager" transform="translate(-148.000000, -228.000000)">
            <g id="Group-2-Copy-16" transform="translate(148.000000, 228.000000)">
                <circle id="Oval" stroke="#043B5D" stroke-width="6" cx="34.5" cy="39.5" r="24.5"></circle>
                <g id="new-patient-copy-3" transform="translate(48.000000, 24.000000)" fill="#043B5D" fill-rule="nonzero">
                    <ellipse id="Oval" cx="11.385" cy="7.04" rx="6.555" ry="7.04"></ellipse>
                    <path d="M16.3957303,13.376 C15.0432765,14.5608366 13.2917381,15.2740392 11.385,15.2740392 C9.47826193,15.2740392 7.72672347,14.5608366 6.37426972,13.376 C2.73816456,15.3200523 0.177370983,19.2886797 0,23.936 L22.77,23.936 C22.592629,19.2886797 20.0318354,15.3200523 16.3957303,13.376 Z" id="Path"></path>
                </g>
                <g id="new-patient-copy" transform="translate(0.000000, 24.000000)" fill="#043B5D" fill-rule="nonzero">
                    <ellipse id="Oval" cx="11.385" cy="7.04" rx="6.555" ry="7.04"></ellipse>
                    <path d="M16.3957303,13.376 C15.0432765,14.5608366 13.2917381,15.2740392 11.385,15.2740392 C9.47826193,15.2740392 7.72672347,14.5608366 6.37426972,13.376 C2.73816456,15.3200523 0.177370983,19.2886797 0,23.936 L22.77,23.936 C22.592629,19.2886797 20.0318354,15.3200523 16.3957303,13.376 Z" id="Path"></path>
                </g>
                <g id="new-patient-copy-4" transform="translate(23.000000, 45.000000)" fill="#043B5D" fill-rule="nonzero">
                    <ellipse id="Oval" cx="11.385" cy="7.04" rx="6.555" ry="7.04"></ellipse>
                    <path d="M16.3957303,13.376 C15.0432765,14.5608366 13.2917381,15.2740392 11.385,15.2740392 C9.47826193,15.2740392 7.72672347,14.5608366 6.37426972,13.376 C2.73816456,15.3200523 0.177370983,19.2886797 0,23.936 L22.77,23.936 C22.592629,19.2886797 20.0318354,15.3200523 16.3957303,13.376 Z" id="Path"></path>
                </g>
                <g id="new-patient-copy-2" transform="translate(23.000000, 0.000000)" fill="#043B5D" fill-rule="nonzero">
                    <ellipse id="Oval" cx="11.385" cy="7.04" rx="6.555" ry="7.04"></ellipse>
                    <path d="M16.3957303,14.376 C15.0432765,15.5608366 13.2917381,16.2740392 11.385,16.2740392 C9.47826193,16.2740392 7.72672347,15.5608366 6.37426972,14.376 C2.73816456,16.3200523 0.177370983,20.2886797 0,24.936 L22.77,24.936 C22.592629,20.2886797 20.0318354,16.3200523 16.3957303,14.376 Z" id="Path"></path>
                </g>
            </g>
        </g>
    </g>
</svg>