<?xml version="1.0" encoding="utf-8"?>
<!-- Generator: Adobe Illustrator 24.1.3, SVG Export Plug-In . SVG Version: 6.00 Build 0)  -->
<!DOCTYPE svg PUBLIC "-//W3C//DTD SVG 1.1//EN" "http://www.w3.org/Graphics/SVG/1.1/DTD/svg11.dtd" [
	<!ENTITY ns_extend "http://ns.adobe.com/Extensibility/1.0/">
	<!ENTITY ns_ai "http://ns.adobe.com/AdobeIllustrator/10.0/">
	<!ENTITY ns_graphs "http://ns.adobe.com/Graphs/1.0/">
	<!ENTITY ns_vars "http://ns.adobe.com/Variables/1.0/">
	<!ENTITY ns_imrep "http://ns.adobe.com/ImageReplacement/1.0/">
	<!ENTITY ns_sfw "http://ns.adobe.com/SaveForWeb/1.0/">
	<!ENTITY ns_custom "http://ns.adobe.com/GenericCustomNamespace/1.0/">
	<!ENTITY ns_adobe_xpath "http://ns.adobe.com/XPath/1.0/">
]>
<svg version="1.1" id="Layer_1" xmlns:x="&ns_extend;" xmlns:i="&ns_ai;" xmlns:graph="&ns_graphs;"
	 xmlns="http://www.w3.org/2000/svg" xmlns:xlink="http://www.w3.org/1999/xlink" x="0px" y="0px" viewBox="0 0 200 200"
	 style="enable-background:new 0 0 200 200;" xml:space="preserve">
<style type="text/css">
	.st0{fill:#FFFFFF;}
</style>
<metadata>
	<sfw  xmlns="&ns_sfw;">
		<slices></slices>
		<sliceSourceBounds  bottomLeftOrigin="true" height="169.3" width="169.3" x="24.1" y="10.6"></sliceSourceBounds>
	</sfw>
</metadata>
<g>
	<path class="st0" d="M45.2,46.5V25.4c0-2.9,2.4-5.3,5.3-5.3s5.3,2.4,5.3,5.3v21.2c0,2.9-2.4,5.3-5.3,5.3S45.2,49.5,45.2,46.5
		L45.2,46.5z M135.2,51.8c2.9,0,5.3-2.4,5.3-5.3V25.4c0-2.9-2.4-5.3-5.3-5.3c-2.9,0-5.3,2.4-5.3,5.3v21.2
		C129.9,49.5,132.3,51.8,135.2,51.8L135.2,51.8z M193.4,147.1c0,23.4-19,42.3-42.3,42.3c-23.4,0-42.3-19-42.3-42.3
		c0-23.4,19-42.3,42.3-42.3C174.4,104.8,193.4,123.7,193.4,147.1L193.4,147.1z M182.8,147.1c0-17.5-14.2-31.7-31.7-31.7
		c-17.5,0-31.7,14.2-31.7,31.7c0,17.5,14.2,31.7,31.7,31.7C168.6,178.8,182.8,164.6,182.8,147.1L182.8,147.1z M66.4,83.6H45.2v21.2
		h21.2V83.6z M45.2,136.5h21.2v-21.2H45.2V136.5z M77,104.8h21.2V83.6H77V104.8z M77,136.5h21.2v-21.2H77V136.5z M34.6,146V73h116.4
		v21.2h10.6V52.9c0-6.4-5.1-11.6-11.5-11.6h-4.4v5.3c0,5.8-4.7,10.6-10.6,10.6s-10.6-4.8-10.6-10.6v-5.3H61.1v5.3
		c0,5.8-4.7,10.6-10.6,10.6c-5.8,0-10.6-4.8-10.6-10.6v-5.3h-4.4c-6.3,0-11.5,5.2-11.5,11.6V146c0,6.4,5.1,11.6,11.5,11.6h62.6
		v-10.6H35.5C35,147.1,34.6,146.6,34.6,146L34.6,146z M129.9,104.8V83.6h-21.2v21.2H129.9z M166.9,147.1h-15.9v-15.9
		c0-2.9-2.4-5.3-5.3-5.3c-2.9,0-5.3,2.4-5.3,5.3v21.2c0,2.9,2.4,5.3,5.3,5.3h21.2c2.9,0,5.3-2.4,5.3-5.3
		C172.2,149.5,169.9,147.1,166.9,147.1L166.9,147.1z M166.9,147.1"/>
</g>
</svg>
