<?xml version="1.0" encoding="UTF-8"?>
<svg width="167px" height="180px" viewBox="0 0 167 180" version="1.1" xmlns="http://www.w3.org/2000/svg" xmlns:xlink="http://www.w3.org/1999/xlink">
    <title>E75CA144-C218-4F2E-93DC-F7B09E74ADF9</title>
    <defs>
        <path d="M147,60.9423779 L147,145.148869 C147,156.732831 137.707405,166 126.290789,166 L20.7092113,166 C9.20409392,166 0,156.643723 0,145.148869 L0,60.9423779 L0,53.8137861 L147,53.8137861 C147,53.8137861 147,49.4475236 147,60.9423779" id="path-1"></path>
        <filter x="-8.8%" y="-10.8%" width="123.1%" height="129.4%" filterUnits="objectBoundingBox" id="filter-2">
            <feMorphology radius="1" operator="dilate" in="SourceAlpha" result="shadowSpreadOuter1"></feMorphology>
            <feOffset dx="4" dy="4" in="shadowSpreadOuter1" result="shadowOffsetOuter1"></feOffset>
            <feGaussianBlur stdDeviation="4" in="shadowOffsetOuter1" result="shadowBlurOuter1"></feGaussianBlur>
            <feColorMatrix values="0 0 0 0 0.0588235294   0 0 0 0 0.517647059   0 0 0 0 0.662745098  0 0 0 0.149065778 0" type="matrix" in="shadowBlurOuter1"></feColorMatrix>
        </filter>
    </defs>
    <g id="user_test_manager" stroke="none" stroke-width="1" fill="none" fill-rule="evenodd">
        <g id="test_manager_todays_schedule" transform="translate(-149.000000, -201.000000)" fill-rule="nonzero">
            <g id="calendar-icon" transform="translate(155.000000, 201.000000)">
                <g id="Path">
                    <use fill="black" fill-opacity="1" filter="url(#filter-2)" xlink:href="#path-1"></use>
                    <use fill="#0F84A9" xlink:href="#path-1"></use>
                </g>
                <path d="M126.290789,41 L20.7092113,41 C9.20409392,41 0,50.4594595 0,62.0810811 L0,71 L147,71 L147,62.0810811 C147,50.4594595 137.707405,41 126.290789,41" id="Path" fill="#043B5D"></path>
                <path d="M126.290789,19 L20.7092113,19 C9.20409392,19 0,28.2477064 0,39.6091743 L0,67 L147,67 L147,39.6091743 C147,28.2477064 137.707405,19 126.290789,19 M30.6213125,39.7853211 C27.2582781,39.7853211 24.5147502,37.0550459 24.5147502,33.7082569 C24.5147502,30.3614679 27.2582781,27.6311927 30.6213125,27.6311927 C33.9843468,27.6311927 36.7278748,30.3614679 36.7278748,33.7082569 C36.7278748,37.0550459 33.9843468,39.7853211 30.6213125,39.7853211 M116.378688,39.7853211 C113.015653,39.7853211 110.272125,37.0550459 110.272125,33.7082569 C110.272125,30.3614679 113.015653,27.6311927 116.378688,27.6311927 C119.741722,27.6311927 122.48525,30.3614679 122.48525,33.7082569 C122.48525,37.0550459 119.741722,39.7853211 116.378688,39.7853211" id="Shape" fill="#3ECCCD"></path>
                <path d="M30.5,27.4457831 C32.126506,27.4457831 33.5722892,28.0783133 34.746988,29.1626506 C35.9216867,30.3373494 36.4638554,31.7831325 36.4638554,33.4096386 C36.4638554,35.0361446 35.8313253,36.4819277 34.746988,37.6566265 C33.5722892,38.8313253 32.126506,39.373494 30.5,39.373494 C28.873494,39.373494 27.4277108,38.7409639 26.253012,37.6566265 C25.0783133,36.4819277 24.5361446,35.0361446 24.5361446,33.4096386 C24.5361446,31.7831325 25.1686747,30.3373494 26.253012,29.1626506 C27.3373494,28.0783133 28.873494,27.4457831 30.5,27.4457831 M30.5,26 C26.3433735,26 23,29.3433735 23,33.5 C23,37.6566265 26.3433735,41 30.5,41 C34.6566265,41 38,37.6566265 38,33.5 C38,29.3433735 34.5662651,26 30.5,26" id="Shape" fill="#FFFFFF"></path>
                <path d="M116.5,27.4457831 C118.126506,27.4457831 119.572289,28.0783133 120.746988,29.1626506 C121.921687,30.3373494 122.463855,31.7831325 122.463855,33.4096386 C122.463855,35.0361446 121.831325,36.4819277 120.746988,37.6566265 C119.572289,38.8313253 118.126506,39.373494 116.5,39.373494 C114.873494,39.373494 113.427711,38.7409639 112.253012,37.6566265 C111.078313,36.4819277 110.536145,35.0361446 110.536145,33.4096386 C110.536145,31.7831325 111.168675,30.3373494 112.253012,29.1626506 C113.427711,28.0783133 114.873494,27.4457831 116.5,27.4457831 M116.5,26 C112.343373,26 109,29.3433735 109,33.5 C109,37.6566265 112.343373,41 116.5,41 C120.656627,41 124,37.6566265 124,33.5 C124,29.3433735 120.656627,26 116.5,26" id="Shape" fill="#FFFFFF"></path>
                <path d="M30.5,0 L30.5,0 C27.98,0 26,1.95673077 26,4.44711538 L26,32.5528846 C26,35.0432692 27.98,37 30.5,37 C33.02,37 35,35.0432692 35,32.5528846 L35,4.44711538 C34.91,1.95673077 32.93,0 30.5,0" id="Path" fill="#043B5D"></path>
                <path d="M116.5,0 L116.5,0 C113.98,0 112,1.95673077 112,4.44711538 L112,32.5528846 C112,35.0432692 113.98,37 116.5,37 C119.02,37 121,35.0432692 121,32.5528846 L121,4.44711538 C121,1.95673077 119.02,0 116.5,0" id="Path" fill="#043B5D"></path>
            </g>
        </g>
    </g>
</svg>