<?xml version="1.0" encoding="utf-8"?>
<!-- Generator: Adobe Illustrator 24.1.3, SVG Export Plug-In . SVG Version: 6.00 Build 0)  -->
<!DOCTYPE svg PUBLIC "-//W3C//DTD SVG 1.1//EN" "http://www.w3.org/Graphics/SVG/1.1/DTD/svg11.dtd" [
	<!ENTITY ns_extend "http://ns.adobe.com/Extensibility/1.0/">
	<!ENTITY ns_ai "http://ns.adobe.com/AdobeIllustrator/10.0/">
	<!ENTITY ns_graphs "http://ns.adobe.com/Graphs/1.0/">
	<!ENTITY ns_vars "http://ns.adobe.com/Variables/1.0/">
	<!ENTITY ns_imrep "http://ns.adobe.com/ImageReplacement/1.0/">
	<!ENTITY ns_sfw "http://ns.adobe.com/SaveForWeb/1.0/">
	<!ENTITY ns_custom "http://ns.adobe.com/GenericCustomNamespace/1.0/">
	<!ENTITY ns_adobe_xpath "http://ns.adobe.com/XPath/1.0/">
]>
<svg version="1.1" id="Layer_1" xmlns:x="&ns_extend;" xmlns:i="&ns_ai;" xmlns:graph="&ns_graphs;"
	 xmlns="http://www.w3.org/2000/svg" xmlns:xlink="http://www.w3.org/1999/xlink" x="0px" y="0px" viewBox="0 0 200 200"
	 style="enable-background:new 0 0 200 200;" xml:space="preserve">
<style type="text/css">
	.st0{fill:none;stroke:#0F84A9;stroke-width:3.0198;stroke-miterlimit:10;}
	.st1{fill:#0F84A9;}
	.st2{fill:#FFFFFF;}
	.st3{fill:#043B5D;}
</style>
<metadata>
	<sfw  xmlns="&ns_sfw;">
		<slices></slices>
		<sliceSourceBounds  bottomLeftOrigin="true" height="188.4" width="171.5" x="13.2" y="5.6"></sliceSourceBounds>
	</sfw>
</metadata>
<path class="st0" d="M183,75v94.5c0,13-10.6,23.4-23.7,23.4H38.4c-13.2,0-23.7-10.5-23.7-23.4V75v-8H183C183,67,183,62.1,183,75"/>
<path class="st1" d="M160.5,26.8H37.4c-13.4,0-24.1,10.5-24.1,23.4v31.1h171.4V50.2C184.7,37.3,173.8,26.8,160.5,26.8 M49,50.4
	c-3.9,0-7.1-3.1-7.1-6.9c0-3.8,3.2-6.9,7.1-6.9s7.1,3.1,7.1,6.9C56.1,47.3,52.9,50.4,49,50.4 M149,50.4c-3.9,0-7.1-3.1-7.1-6.9
	c0-3.8,3.2-6.9,7.1-6.9c3.9,0,7.1,3.1,7.1,6.9C156.1,47.3,152.9,50.4,149,50.4"/>
<path class="st2" d="M49.8,36.8c1.8,0,3.4,0.7,4.8,1.9c1.3,1.3,1.9,2.9,1.9,4.7s-0.7,3.4-1.9,4.7c-1.3,1.3-2.9,1.9-4.8,1.9
	s-3.4-0.7-4.8-1.9c-1.3-1.3-1.9-2.9-1.9-4.7s0.7-3.4,1.9-4.7C46.2,37.5,47.9,36.8,49.8,36.8 M49.8,35.2c-4.7,0-8.4,3.7-8.4,8.3
	s3.7,8.3,8.4,8.3s8.4-3.7,8.4-8.3S54.3,35.2,49.8,35.2"/>
<path class="st2" d="M147.9,36.8c1.8,0,3.4,0.7,4.8,1.9c1.3,1.3,1.9,2.9,1.9,4.7s-0.7,3.4-1.9,4.7c-1.3,1.3-2.9,1.9-4.8,1.9
	s-3.4-0.7-4.8-1.9c-1.3-1.3-1.9-2.9-1.9-4.7s0.7-3.4,1.9-4.7C144.5,37.5,146.1,36.8,147.9,36.8 M147.9,35.2c-4.7,0-8.4,3.7-8.4,8.3
	s3.7,8.3,8.4,8.3s8.4-3.7,8.4-8.3S152.6,35.2,147.9,35.2"/>
<path class="st3" d="M49.8,6L49.8,6c-2.8,0-5.1,2.2-5.1,5v31.6c0,2.8,2.2,5,5.1,5s5.1-2.2,5.1-5V11C54.7,8.2,52.5,6,49.8,6"/>
<path class="st3" d="M147.9,6L147.9,6c-2.8,0-5.1,2.2-5.1,5v31.6c0,2.8,2.2,5,5.1,5s5.1-2.2,5.1-5V11C153,8.2,150.8,6,147.9,6"/>
</svg>
