<?xml version="1.0" encoding="UTF-8"?>
<svg width="16px" height="9px" viewBox="0 0 16 9" version="1.1" xmlns="http://www.w3.org/2000/svg" xmlns:xlink="http://www.w3.org/1999/xlink">
    <title>collapse_icon_blue copy</title>
    <g id="user_site_manager" stroke="none" stroke-width="1" fill="none" fill-rule="evenodd">
        <g id="site-manager-_locations_listview" transform="translate(-409.000000, -1351.000000)" fill="#0F84A9" fill-rule="nonzero" stroke="#0F84A9" stroke-width="0.85">
            <g id="collapse_icon_blue-copy" transform="translate(417.000000, 1356.000000) rotate(90.000000) translate(-417.000000, -1356.000000) translate(413.000000, 1349.000000)">
                <path d="M6.44225414e-14,13.0342577 C6.44225414e-14,12.85677 0.0883558221,12.7236542 0.176711644,12.6349103 L6.0081959,6.77781403 L0.176711644,0.965089723 C-0.044177911,0.743230016 -0.044177911,0.388254486 0.176711644,0.16639478 C0.397601199,-0.0554649266 0.751024488,-0.0554649266 0.971914043,0.16639478 L7.2009995,6.4228385 C7.42188906,6.64469821 7.42188906,6.99967374 7.2009995,7.22153344 L0.971914043,13.4336052 C0.751024488,13.6554649 0.397601199,13.6554649 0.176711644,13.4336052 C0.0883558221,13.3448613 6.44225414e-14,13.2117455 6.44225414e-14,13.0342577 Z" id="Path"></path>
            </g>
        </g>
    </g>
</svg>