<?xml version="1.0" encoding="UTF-8"?>
<svg width="126px" height="120px" viewBox="0 0 126 120" version="1.1" xmlns="http://www.w3.org/2000/svg" xmlns:xlink="http://www.w3.org/1999/xlink">
    <title>A86827AB-F5D7-43A8-9ADD-4042743DC01C</title>
    <g id="location_manager" stroke="none" stroke-width="1" fill="none" fill-rule="evenodd">
        <g id="department-manager" transform="translate(-743.000000, -371.000000)">
            <g id="Group-2" transform="translate(743.000000, 371.000000)">
                <g id="new-patient-copy" transform="translate(0.000000, 41.538462)" fill="#0F84A9" fill-rule="nonzero">
                    <ellipse id="Oval" cx="20.1046154" cy="12.1846154" rx="11.5753846" ry="12.1846154"></ellipse>
                    <path d="M28.9529953,23.1507692 C26.5647158,25.201448 23.471698,26.4358371 20.1046154,26.4358371 C16.7375328,26.4358371 13.644515,25.201448 11.2562355,23.1507692 C4.83528724,26.5154751 0.313216987,33.3842534 0,41.4276923 L40.2092308,41.4276923 C39.8960138,33.3842534 35.3739435,26.5154751 28.9529953,23.1507692 Z" id="Path"></path>
                </g>
                <g id="new-patient-copy-2" transform="translate(41.538462, 0.000000)" fill="#0F84A9" fill-rule="nonzero">
                    <ellipse id="Oval" cx="20.1046154" cy="12.1846154" rx="11.5753846" ry="12.1846154"></ellipse>
                    <path d="M28.9529953,23.1507692 C26.5647158,25.201448 23.471698,26.4358371 20.1046154,26.4358371 C16.7375328,26.4358371 13.644515,25.201448 11.2562355,23.1507692 C4.83528724,26.5154751 0.313216987,33.3842534 -2.75471953e-14,41.4276923 L40.2092308,41.4276923 C39.8960138,33.3842534 35.3739435,26.5154751 28.9529953,23.1507692 Z" id="Path"></path>
                </g>
                <g id="new-patient-copy-3" transform="translate(84.923077, 41.538462)" fill="#0F84A9" fill-rule="nonzero">
                    <ellipse id="Oval" cx="20.1046154" cy="12.1846154" rx="11.5753846" ry="12.1846154"></ellipse>
                    <path d="M28.9529953,23.1507692 C26.5647158,25.201448 23.471698,26.4358371 20.1046154,26.4358371 C16.7375328,26.4358371 13.644515,25.201448 11.2562355,23.1507692 C4.83528724,26.5154751 0.313216987,33.3842534 0,41.4276923 L40.2092308,41.4276923 C39.8960138,33.3842534 35.3739435,26.5154751 28.9529953,23.1507692 Z" id="Path"></path>
                </g>
                <g id="new-patient-copy-4" transform="translate(40.615385, 78.461538)" fill="#0F84A9" fill-rule="nonzero">
                    <ellipse id="Oval" cx="20.1046154" cy="12.1846154" rx="11.5753846" ry="12.1846154"></ellipse>
                    <path d="M28.9529953,23.1507692 C26.5647158,25.201448 23.471698,26.4358371 20.1046154,26.4358371 C16.7375328,26.4358371 13.644515,25.201448 11.2562355,23.1507692 C4.83528724,26.5154751 0.313216987,33.3842534 0,41.4276923 L40.2092308,41.4276923 C39.8960138,33.3842534 35.3739435,26.5154751 28.9529953,23.1507692 Z" id="Path"></path>
                </g>
                <circle id="Oval" stroke="#0F84A9" stroke-width="6" cx="61.8461538" cy="67.3846154" r="43.3846154"></circle>
            </g>
        </g>
    </g>
</svg>