<?xml version="1.0" encoding="UTF-8"?>
<svg width="53px" height="49px" viewBox="0 0 53 49" version="1.1" xmlns="http://www.w3.org/2000/svg" xmlns:xlink="http://www.w3.org/1999/xlink">
    <title>B3542F32-6DB0-4C5A-AB99-75754CD0C5FB</title>
    <g id="site_manager" stroke="none" stroke-width="1" fill="none" fill-rule="evenodd">
        <g id="department-manager" transform="translate(-167.000000, -245.000000)" fill="#043B5D" fill-rule="nonzero">
            <g id="department_icon-copy" transform="translate(193.500000, 269.500000) scale(-1, 1) translate(-193.500000, -269.500000) translate(167.000000, 245.000000)">
                <path d="M14,43.3643576 C14.3441218,43.7757095 14.7629461,44.1235886 15.2319804,44.3933476 C15.306683,43.9295087 15.5148705,43.5120537 15.8247026,43.1849252 L15.8247026,44.6789747 C16.3439468,44.8840403 16.9085024,45 17.5,45 C18.0927222,45 18.6560532,44.8840403 19.1752974,44.6789747 L19.1752974,43.1849252 C19.4839048,43.5120537 19.693317,43.9307293 19.7680196,44.3933476 C20.2370539,44.1235886 20.6546536,43.7769301 21,43.3655783 C20.4440168,41.9801648 19.0883485,41 17.5,41 C15.9116515,41 14.5559832,41.9801648 14,43.3643576 Z M9,23 C9,21.8960469 8.32796486,21 7.5,21 C6.67203514,21 6,21.8960469 6,23 C6,24.1039531 6.67203514,25 7.5,25 C8.32796486,25 9,24.1039531 9,23 Z M23.2007117,39.5252941 C23.2627125,39.8951222 23.3006722,40.2715308 23.3006722,40.6597845 C23.3006722,44.2843629 20.4739423,47.2324587 16.9993673,47.2324587 C13.5260577,47.2324587 10.6993278,44.2843629 10.6993278,40.6597845 C10.6993278,37.7906556 12.4733096,35.3505799 14.9343614,34.4556223 C14.5446422,33.991034 14.1739027,33.5106523 13.8385923,33 C10.9954132,34.2805791 9,37.2313071 9,40.6597845 C9,45.2596035 12.5884539,49 16.9993673,49 C21.4115461,49 25,45.2596035 25,40.6597845 C25,40.3689233 24.9860815,40.0806943 24.956979,39.7977297 C24.3610123,39.7411368 23.7751681,39.651641 23.2007117,39.5252941 Z M7.50122463,29 C8.09394682,29 8.65727782,28.8840403 9.17652204,28.6789747 L9.17652204,27.1849252 C9.48512946,27.5120537 9.69454164,27.9307293 9.76924423,28.3933476 C10.2382785,28.1235886 10.6558782,27.7769301 11,27.3655783 C10.4440168,25.9801648 9.0883485,25 7.5,25 C5.9116515,25 4.55598321,25.9801648 4,27.3655783 C4.3453464,27.7769301 4.76294612,28.1248093 5.23075577,28.3933476 C5.30545836,27.9295087 5.51487054,27.5120537 5.82347796,27.1849252 L5.82347796,28.6789747 C6.34517145,28.8828197 6.90850245,29 7.50122463,29 Z M37,6 C37,4.89604685 36.3279649,4 35.5,4 C34.6720351,4 34,4.89604685 34,6 C34,7.10395315 34.6720351,8 35.5,8 C36.329063,8 37,7.10541728 37,6 Z M35.8678054,13 C36.2836985,12.9505257 36.6878945,12.8701299 37.0647976,12.7278912 L37.0647976,11.2139765 C37.3923134,11.5454545 37.6145563,11.969697 37.6938359,12.4384663 C38.1916079,12.1651206 38.6347939,11.8138528 39,11.3970315 C38.4112514,9.99319728 36.9712217,9 35.2855551,9 C33.9183067,9 32.7213145,9.66048237 32,10.6561534 C32.486075,10.8614719 32.956554,11.0915275 33.4140364,11.3413729 C33.4491274,11.3017934 33.469922,11.2510823 33.5063127,11.2139765 L33.5063127,11.3957947 C34.3484961,11.8620903 35.1373932,12.39765 35.8678054,13 Z M13.8706122,16 C14.2198687,15.4938373 14.59823,15.0139688 15.0018996,14.5551356 C12.5052217,13.6821693 10.6981989,11.2262942 10.6981989,8.3326212 C10.6981989,4.71191454 13.525152,1.76565325 16.9987358,1.76565325 C20.473585,1.76565325 23.2992726,4.71191454 23.2992726,8.3326212 C23.2992726,8.81117502 23.2473903,9.27526705 23.1537491,9.72489729 C23.7295162,9.60394412 24.3179375,9.52637634 24.9152167,9.47510271 C24.9645682,9.10041085 25,8.72177486 25,8.3326212 C25,3.73771569 21.4112628,0 17,0 C12.5887396,0 9,3.73771569 9,8.3326212 C8.99747154,11.7718981 11.0094928,14.7299918 13.8706122,16 Z M12.2155283,29.5771992 C11.1014251,30.5844576 9.65769042,31.1987377 8.07724816,31.1987377 C4.57012285,31.1987377 1.71587224,28.1930572 1.71587224,24.4993294 C1.71587224,20.8056016 4.57012285,17.8012623 8.07724816,17.8012623 C9.70751843,17.8012623 11.19086,18.4557791 12.3177396,19.5193688 C12.511941,18.9198422 12.7419165,18.3404339 13,17.7744379 C11.6354791,16.6665878 9.93110565,16 8.07724816,16 C3.62339066,16 0,19.8117554 0,24.4993294 C0,29.1869034 3.62339066,33 8.07724816,33 C9.87105651,33 11.525602,32.3736489 12.8671253,31.3288363 C12.6205405,30.7601578 12.398231,30.1794083 12.2155283,29.5771992 Z M19,6 C19,4.89604685 18.3279649,4 17.5,4 C16.6720351,4 16,4.89604685 16,6 C16,7.10395315 16.6720351,8 17.5,8 C18.329063,8 19,7.10541728 19,6 Z M17.0754822,13 C17.8219585,12.3942397 18.6281528,11.8578507 19.486276,11.3933106 L19.486276,11.216166 C19.5226261,11.2533292 19.5433976,11.3016414 19.5771513,11.3412821 C20.0380193,11.096005 20.5118694,10.8693094 21,10.6698668 C20.2807864,9.66522143 19.0812315,9 17.7103116,9 C16.0265208,9 14.5893917,9.99473521 14,11.4007433 C14.3647997,11.81821 14.8074926,12.1712605 15.3047107,12.4437906 C15.3839021,11.9730567 15.6058976,11.5493961 15.933049,11.2174048 L15.933049,12.7336637 C16.2926558,12.86869 16.6795252,12.9479715 17.0754822,13 Z M39.2259391,33 C38.8855674,33.506471 38.5135627,33.9865634 38.1200474,34.4468717 C40.5519968,35.3608936 42.2994069,37.7877339 42.2994069,40.6405902 C42.2994069,44.2729371 39.4726769,47.2286703 35.998102,47.2286703 C32.5247924,47.2286703 29.6980625,44.2729371 29.6980625,40.6405902 C29.6980625,40.2304015 29.7385528,39.8320831 29.8081455,39.4416783 C29.2362198,39.5617014 28.6491103,39.6381997 28.0556742,39.6883192 C28.0215105,40.0009068 28,40.3174512 28,40.6405902 C28,45.2502679 31.5884539,49 35.9993673,49 C40.4115461,49 44,45.2502679 44,40.6405902 C43.9987347,37.2324623 42.0336892,34.2991509 39.2259391,33 Z M44.8812604,16 C43.0474167,16 41.3599723,16.6464184 40,17.7233354 C40.2529882,18.290628 40.4802924,18.8699905 40.6703546,19.470811 C41.7966018,18.4341275 43.2682998,17.8011202 44.8812604,17.8011202 C48.406401,17.8011202 51.2753133,20.8065636 51.2753133,24.5 C51.2753133,28.1934364 48.406401,31.1988798 44.8812604,31.1988798 C43.2682998,31.1988798 41.7966018,30.5645314 40.6703546,29.529189 C40.4802924,30.1300095 40.2529882,30.7107132 40,31.2766646 C41.3599723,32.3535816 43.0487009,33 44.8812604,33 C49.3579964,33 53,29.1872042 53,24.5 C53.0012839,19.814137 49.3579964,16 44.8812604,16 Z M42,28.3655783 C42.3442422,28.7769301 42.7619881,29.1248093 43.2311866,29.3933476 C43.3059153,28.9295087 43.5154008,28.5120537 43.8241162,28.1849252 L43.8241162,29.6789747 C44.3435422,29.8840403 44.9082954,30 45.5,30 C46.0929296,30 46.6576829,29.8840403 47.1758838,29.6789747 L47.1758838,28.1849252 C47.4845992,28.5120537 47.6940847,28.9307293 47.7688134,29.3933476 C48.2380119,29.1235886 48.6557578,28.7769301 49,28.3655783 C48.4438222,26.9801648 47.0876794,26 45.4987749,26 C43.9110956,26 42.5549527,26.9801648 42,28.3655783 Z M47,23 C47,21.8960469 46.3279649,21 45.5,21 C44.6720351,21 44,21.8960469 44,23 C44,24.1039531 44.6720351,25 45.5,25 C46.329063,24.9985359 47,24.1039531 47,23 Z M35.5006124,45 C36.0934383,45 36.6568679,44.8840403 37.176203,44.6789747 L37.176203,43.1849252 C37.4848644,43.5120537 37.6943132,43.9307293 37.7690289,44.3933476 C38.2381452,44.1248093 38.655818,43.7769301 39,43.3655783 C38.4451444,41.9801648 37.088014,41 35.5006124,41 C33.911986,41 32.5560805,41.9801648 32,43.3655783 C32.3454068,43.7769301 32.7630796,44.1248093 33.232196,44.3933476 C33.3069116,43.9295087 33.5151356,43.5120537 33.8250219,43.1849252 L33.8250219,44.6789747 C34.344357,44.8840403 34.9077865,45 35.5006124,45 Z M35.5,37 C34.6720351,37 34,37.8960469 34,39 C34,40.1054173 34.6720351,41 35.5,41 C36.3279649,41 37,40.1054173 37,39 C37,37.8945827 36.3279649,37 35.5,37 Z M29.8321866,9.64698163 C29.7461447,9.21653543 29.7005931,8.77165354 29.7005931,8.31627297 C29.7005931,4.70209974 32.5273231,1.76246719 36.001898,1.76246719 C39.4752076,1.76246719 42.3019375,4.70209974 42.3019375,8.31627297 C42.3019375,11.2257218 40.4684856,13.6968504 37.9403717,14.5498688 C38.3376829,15.0104987 38.7147489,15.492126 39.0576512,16 C41.9552392,14.7493438 44,11.7769029 44,8.31627297 C44,3.72965879 40.4115461,0 36.0006327,0 C31.5884539,0 28,3.72965879 28,8.31627297 C28,8.67322835 28.0291024,9.02362205 28.070858,9.3687664 C28.6706208,9.42650919 29.256465,9.51968504 29.8321866,9.64698163 Z M19,39 C19,37.8960469 18.3279649,37 17.5,37 C16.6720351,37 16,37.8960469 16,39 C16,40.1039531 16.6720351,41 17.5,41 C18.3279649,41 19,40.1039531 19,39 Z M40,24.5 C40,17.0554394 33.9442857,11 26.5,11 C19.0557143,11 13,17.0554394 13,24.5 C13,31.9445606 19.0557143,38 26.5,38 C33.9442857,38 40,31.9445606 40,24.5 Z M26,36 C19.9335171,36 15,30.8411953 15,24.5 C15,18.157488 19.9335171,13 26,13 C32.0664829,13 37,18.1588047 37,24.5 C37,30.8411953 32.0664829,36 26,36 Z M26.0005963,22 C24.346452,22 23,23.3452594 23,24.9994037 C23,26.653548 24.346452,28 26.0005963,28 C27.6547406,28 29,26.653548 29,24.9994037 C29,23.346452 27.6547406,22 26.0005963,22 Z M26.5,27 C25.6730382,27 25,26.1029165 25,24.9993295 C25,23.8970835 25.6730382,23 26.5,23 C27.3269618,23 28,23.8970835 28,24.9993295 C28,26.1029165 27.3269618,27 26.5,27 Z M34.9031311,23.9683444 L34.8754543,23.7717935 C34.8351971,23.4731873 34.562203,23.2400981 34.2640481,23.2123794 C33.7608331,23.1645016 33.4614202,23.1178838 33.2852949,23.0763057 C33.1116858,22.4198761 32.8487559,21.7886453 32.4977635,21.1914329 C32.5921163,21.0326803 32.7720157,20.7668326 33.1167179,20.3573516 C33.3104557,20.1267822 33.319262,19.7916377 33.1368465,19.5522488 C32.648728,18.9096786 32.0712888,18.3313653 31.4196254,17.8362083 C31.1818563,17.6535167 30.8484764,17.6610764 30.6169975,17.8551074 L30.5440313,17.9168445 C30.2144255,18.1952916 29.962818,18.3893227 29.7929829,18.4976776 C29.1954152,18.1474139 28.5638803,17.8840861 27.9084428,17.711474 C27.8669276,17.5313024 27.8166061,17.2188368 27.7688007,16.675802 C27.7423819,16.3771958 27.5134191,16.135287 27.2165222,16.0937089 L27.0592675,16.0722899 C26.3874755,15.9752744 25.6087503,15.9765344 24.9319262,16.0722899 L24.7797037,16.0937089 C24.4828068,16.135287 24.253844,16.3771958 24.2274252,16.6770619 C24.1796198,17.2238766 24.1267822,17.5376021 24.085267,17.7139939 C23.4285714,17.8866059 22.7982947,18.1486738 22.2019849,18.4964177 C22.0321498,18.3868028 21.7830584,18.1952916 21.4572267,17.9206244 L21.3779704,17.8538475 C21.1464915,17.6610764 20.8143696,17.6535167 20.5753425,17.8362083 C19.9312273,18.3263256 19.3525301,18.9046388 18.8568633,19.5535088 C18.6744479,19.7928977 18.680738,20.1280422 18.8744758,20.3586115 C19.2204361,20.7731323 19.4015935,21.03898 19.4959463,21.1989926 C19.1449539,21.7924251 18.879508,22.4236559 18.7071568,23.0788256 C18.5259994,23.1204036 18.2190383,23.1670215 17.7007269,23.2136393 C17.402572,23.2400981 17.1610288,23.4694075 17.1195136,23.7667537 L17.0981269,23.9217266 C17.0490635,24.2593909 17,24.6083948 17,24.9863773 C17,25.3492405 17.0478054,25.684385 17.0930948,26.00693 L17.1207716,26.1997011 C17.1610288,26.4970473 17.4491194,26.7326564 17.7460162,26.7603751 C18.1850713,26.8032132 18.5083869,26.8473111 18.7109309,26.8951889 C18.8832821,27.5503586 19.1474699,28.1815894 19.4984624,28.7788017 C19.4041096,28.9362944 19.2229522,29.1958424 18.8744758,29.6204427 C18.6845122,29.8510121 18.67948,30.1836367 18.8606374,30.4217656 C19.3550461,31.0693757 19.9324853,31.646429 20.5766005,32.1378062 C20.8156276,32.3204977 21.1490075,32.3129381 21.3804864,32.1189071 L21.4509365,32.0596898 C21.7818004,31.7812427 22.0346659,31.5846918 22.204501,31.4763368 C22.8020688,31.8266006 23.4336036,32.0899284 24.0890411,32.2612805 C24.1305563,32.4389323 24.1808778,32.7501379 24.2299413,33.2969525 C24.2563601,33.5968187 24.4853229,33.8374675 24.7822197,33.8803055 L24.9382164,33.9017245 C25.2741124,33.9508623 25.6213307,34 26.001258,34 C26.3786693,34 26.7271457,33.9496023 27.0642997,33.9017245 L27.2190383,33.8803055 C27.5159351,33.8387275 27.744898,33.5968187 27.7713167,33.2982125 C27.8203802,32.7501379 27.8719597,32.4376723 27.913475,32.2600205 C28.5689125,32.0874085 29.1991893,31.8253407 29.795499,31.4775968 C29.9653341,31.5872117 30.2156835,31.7799828 30.5427733,32.05591 L30.6207716,32.121427 C30.8522505,32.314198 31.1856304,32.3230176 31.4246575,32.1390661 C32.0700308,31.646429 32.6474699,31.0668558 33.1418787,30.4192458 C33.3242941,30.1798568 33.3180039,29.8459723 33.1242661,29.614143 C32.7783058,29.1996222 32.5971484,28.9337745 32.5027956,28.7737619 C32.8537881,28.1803294 33.117976,27.5516185 33.2915851,26.893929 C33.4727425,26.8523509 33.7797037,26.805733 34.3005312,26.7591152 C34.5999441,26.7326564 34.8414873,26.5008272 34.8804864,26.202221 L34.9081633,25.9993704 C34.9534526,25.6780852 35,25.3454606 35,24.9851173 C34.9949679,24.624774 34.9484205,24.2908895 34.9031311,23.9683444 Z M33.9618827,25.5609338 C33.3771315,25.6314587 32.943789,25.7281038 32.6474976,25.90964 C32.492173,26.0049792 32.3825322,26.1617011 32.34468,26.3393192 C32.1815239,27.1059505 31.8760958,27.8334014 31.4362271,28.5046935 C31.335723,28.6574973 31.3017865,28.8455636 31.3448597,29.0244878 C31.3918486,29.2269203 31.5171525,29.5599543 32.0209784,30.2207983 C31.7742864,30.5042037 31.509321,30.769325 31.2273873,31.0161619 C30.8070973,30.6792099 30.4024703,30.4023345 30.0370008,30.3200555 C29.8620975,30.278263 29.6780575,30.3122194 29.5266487,30.4101706 C28.8492247,30.8476859 28.1169804,31.1532936 27.3494943,31.3152396 C27.1719805,31.353114 27.016656,31.4615133 26.9213728,31.6156232 C26.7295013,31.9225369 26.6289972,32.421435 26.5624295,32.9647376 C26.1799918,33.0117541 25.8184379,33.0117541 25.4412212,32.9647376 C25.3694325,32.3731124 25.2689284,31.9147008 25.0822778,31.6169292 C24.9856895,31.4628194 24.8316702,31.35442 24.6528511,31.3165456 C23.8866703,31.1559056 23.154426,30.8502979 22.4756968,30.4101706 C22.324288,30.3122194 22.1415532,30.279569 21.9653447,30.3200555 C21.5998751,30.4023345 21.1952481,30.6792099 20.7749581,31.0161619 C20.4930245,30.770631 20.2293643,30.5055098 19.9826723,30.2234103 C20.3089844,29.7976492 20.5778656,29.3784181 20.658791,29.0284058 C20.6992537,28.8507877 20.6666225,28.6653334 20.5674236,28.5125296 C20.1275549,27.8347074 19.8221268,27.1046445 19.660276,26.3432373 C19.6224238,26.1643131 19.5127829,26.0088972 19.3587636,25.9135581 C19.0494197,25.7215737 18.573004,25.6262346 18.0404627,25.5609338 C18.0169682,25.3702555 18,25.1834952 18,25.000653 C18,24.8165048 18.0169682,24.6310505 18.0404627,24.4403722 C18.625214,24.3698474 19.061167,24.2718962 19.3561531,24.089054 C19.5114777,23.9937148 19.6198133,23.8382989 19.6576655,23.6593747 C19.8195163,22.8953555 20.1262497,22.1652926 20.5661184,21.4940005 C20.6666225,21.3411966 20.7005589,21.1531304 20.6574858,20.9742062 C20.6104968,20.7743858 20.485193,20.4400457 19.9800618,19.7778957 C20.2267538,19.4944902 20.4917192,19.230675 20.7736529,18.9851441 C21.1939428,19.3220962 21.5972646,19.5976655 21.9601237,19.6812505 C22.1337217,19.720431 22.3203722,19.6877806 22.4704758,19.5911354 C23.149205,19.1523141 23.8814493,18.8467064 24.6489354,18.6860664 C24.8277544,18.648192 24.983079,18.5384867 25.0796673,18.3830708 C25.2454339,18.1153375 25.3550748,17.7091666 25.4386107,17.0352624 C25.8197432,16.9882459 26.1799918,16.9882459 26.559819,17.0352624 C26.6316077,17.6268876 26.7321118,18.0852992 26.9174571,18.3830708 C27.0140455,18.5371806 27.16937,18.64558 27.3468838,18.6834544 C28.1104541,18.8440944 28.8440037,19.1497021 29.5240382,19.5911354 C29.675447,19.6890866 29.8607923,19.723043 30.0343903,19.6812505 C30.3998598,19.5989715 30.8044869,19.3220962 31.2247768,18.9851441 C31.5080157,19.230675 31.7716759,19.4944902 32.0144521,19.7739776 C31.5067105,20.4361277 31.3840171,20.7717737 31.3396387,20.9742062 C31.3004812,21.1505183 31.3331125,21.3333605 31.4310061,21.4848584 C31.8708748,22.1613746 32.1763029,22.8927434 32.339459,23.6567627 C32.3773112,23.8343809 32.4856468,23.9897968 32.6396661,24.0851359 C32.9516205,24.2797323 33.4306466,24.3750714 33.957967,24.4403722 C33.9814615,24.6310505 33.9997349,24.8151988 33.9997349,24.999347 C34.0023454,25.1834952 33.9853772,25.3689495 33.9618827,25.5609338 Z" id="Shape"></path>
            </g>
        </g>
    </g>
</svg>