<?xml version="1.0" encoding="UTF-8"?>
<svg width="15px" height="20px" viewBox="0 0 15 20" version="1.1" xmlns="http://www.w3.org/2000/svg" xmlns:xlink="http://www.w3.org/1999/xlink">
    <title>5E8CB274-27DC-465D-AFCA-2AA14D03D6D6</title>
    <g id="results-manager" stroke="none" stroke-width="1" fill="none" fill-rule="evenodd">
        <g id="results-manager_wellington-copy" transform="translate(-963.000000, -687.000000)" fill="#FFFFFF" fill-rule="nonzero">
            <g id="document_icon" transform="translate(963.000000, 687.000000)">
                <path d="M1.7020336,0 L9.933687,0 C10.1503095,0 10.3050398,0.0626959248 10.4597701,0.219435737 L14.1423519,3.94984326 C14.2970822,4.10658307 14.3589744,4.26332288 14.3589744,4.48275862 L14.3589744,18.2758621 C14.3589744,18.7460815 14.173298,19.184953 13.8638373,19.4984326 C13.5543767,19.8119122 13.1211317,20 12.6569408,20 L1.7020336,20 C1.23784262,20 0.804597701,19.8119122 0.495137047,19.4984326 C0.185676393,19.184953 0,18.7460815 0,18.2758621 L0,1.72413793 C0,1.2539185 0.185676393,0.815047022 0.495137047,0.501567398 C0.804597701,0.188087774 1.23784262,0 1.7020336,0 L1.7020336,0 Z M13.3996463,5.10971787 L10.8001768,5.10971787 C10.1193634,5.10971787 9.56233422,4.54545455 9.56233422,3.85579937 L9.56233422,0.940438871 L1.7020336,0.940438871 C1.48541114,0.940438871 1.29973475,1.03448276 1.17595049,1.15987461 C1.05216622,1.28526646 0.959328028,1.47335423 0.959328028,1.69278997 L0.959328028,18.2445141 C0.959328028,18.4639498 1.05216622,18.6520376 1.17595049,18.7774295 C1.29973475,18.9028213 1.48541114,18.9968652 1.7020336,18.9968652 L12.6569408,18.9968652 C12.8735632,18.9968652 13.0592396,18.9028213 13.1830239,18.7774295 C13.3068081,18.6520376 13.3996463,18.4639498 13.3996463,18.2445141 L13.3996463,5.10971787 L13.3996463,5.10971787 Z" id="Shape"></path>
                <path d="M3.29846154,7.14285714 C3.06871795,7.14285714 2.87179487,6.97802198 2.87179487,6.78571429 C2.87179487,6.59340659 3.06871795,6.42857143 3.29846154,6.42857143 L8.18871795,6.42857143 C8.41846154,6.42857143 8.61538462,6.59340659 8.61538462,6.78571429 C8.61538462,6.97802198 8.41846154,7.14285714 8.18871795,7.14285714 L3.29846154,7.14285714 L3.29846154,7.14285714 Z" id="Path"></path>
                <path d="M2.57489879,10 C2.34817814,10 2.15384615,9.83516484 2.15384615,9.64285714 C2.15384615,9.45054945 2.34817814,9.28571429 2.57489879,9.28571429 L10.3481781,9.28571429 C10.5748988,9.28571429 10.7692308,9.45054945 10.7692308,9.64285714 C10.7692308,9.83516484 10.5748988,10 10.3481781,10 L2.57489879,10 L2.57489879,10 Z" id="Path"></path>
                <path d="M2.57489879,11.4285714 C2.34817814,11.4285714 2.15384615,11.2637363 2.15384615,11.0714286 C2.15384615,10.8791209 2.34817814,10.7142857 2.57489879,10.7142857 L10.3481781,10.7142857 C10.5748988,10.7142857 10.7692308,10.8791209 10.7692308,11.0714286 C10.7692308,11.2637363 10.5748988,11.4285714 10.3481781,11.4285714 L2.57489879,11.4285714 L2.57489879,11.4285714 Z" id="Path"></path>
                <path d="M2.57489879,14.2857143 C2.34817814,14.2857143 2.15384615,14.1208791 2.15384615,13.9285714 C2.15384615,13.7362637 2.34817814,13.5714286 2.57489879,13.5714286 L10.3481781,13.5714286 C10.5748988,13.5714286 10.7692308,13.7362637 10.7692308,13.9285714 C10.7692308,14.1208791 10.5748988,14.2857143 10.3481781,14.2857143 L2.57489879,14.2857143 L2.57489879,14.2857143 Z" id="Path"></path>
                <path d="M2.57489879,16.4285714 C2.34817814,16.4285714 2.15384615,16.2637363 2.15384615,16.0714286 C2.15384615,15.8791209 2.34817814,15.7142857 2.57489879,15.7142857 L10.3481781,15.7142857 C10.5748988,15.7142857 10.7692308,15.8791209 10.7692308,16.0714286 C10.7692308,16.2637363 10.5748988,16.4285714 10.3481781,16.4285714 L2.57489879,16.4285714 L2.57489879,16.4285714 Z" id="Path"></path>
            </g>
        </g>
    </g>
</svg>