<?xml version="1.0" encoding="utf-8"?>
<!-- Generator: Adobe Illustrator 24.1.3, SVG Export Plug-In . SVG Version: 6.00 Build 0)  -->
<!DOCTYPE svg PUBLIC "-//W3C//DTD SVG 1.1//EN" "http://www.w3.org/Graphics/SVG/1.1/DTD/svg11.dtd" [
	<!ENTITY ns_extend "http://ns.adobe.com/Extensibility/1.0/">
	<!ENTITY ns_ai "http://ns.adobe.com/AdobeIllustrator/10.0/">
	<!ENTITY ns_graphs "http://ns.adobe.com/Graphs/1.0/">
	<!ENTITY ns_vars "http://ns.adobe.com/Variables/1.0/">
	<!ENTITY ns_imrep "http://ns.adobe.com/ImageReplacement/1.0/">
	<!ENTITY ns_sfw "http://ns.adobe.com/SaveForWeb/1.0/">
	<!ENTITY ns_custom "http://ns.adobe.com/GenericCustomNamespace/1.0/">
	<!ENTITY ns_adobe_xpath "http://ns.adobe.com/XPath/1.0/">
]>
<svg version="1.1" id="Layer_1" xmlns:x="&ns_extend;" xmlns:i="&ns_ai;" xmlns:graph="&ns_graphs;"
	 xmlns="http://www.w3.org/2000/svg" xmlns:xlink="http://www.w3.org/1999/xlink" x="0px" y="0px" viewBox="0 0 80 80"
	 style="enable-background:new 0 0 80 80;" xml:space="preserve">
<style type="text/css">
	.st0{fill:#043B5D;}
</style>
<metadata>
	<sfw  xmlns="&ns_sfw;">
		<slices></slices>
		<sliceSourceBounds  bottomLeftOrigin="true" height="63.9" width="46.4" x="14.9" y="8.1"></sliceSourceBounds>
	</sfw>
</metadata>
<g>
	<path class="st0" d="M20.4,8.1H47c0.7,0,1.2,0.2,1.7,0.7l11.9,11.9c0.5,0.5,0.7,1,0.7,1.7v44c0,1.5-0.6,2.9-1.6,3.9
		c-1,1-2.4,1.6-3.9,1.6H20.4c-1.5,0-2.9-0.6-3.9-1.6c-1-1-1.6-2.4-1.6-3.9V13.6c0-1.5,0.6-2.9,1.6-3.9C17.5,8.7,18.9,8.1,20.4,8.1
		L20.4,8.1z M58.2,24.4h-8.4c-2.2,0-4-1.8-4-4v-9.3H20.4c-0.7,0-1.3,0.3-1.7,0.7c-0.4,0.4-0.7,1-0.7,1.7v52.8c0,0.7,0.3,1.3,0.7,1.7
		c0.4,0.4,1,0.7,1.7,0.7h35.4c0.7,0,1.3-0.3,1.7-0.7c0.4-0.4,0.7-1,0.7-1.7V24.4L58.2,24.4z"/>
	<path class="st0" d="M26.1,31.9c-0.7,0-1.3-0.6-1.3-1.3c0-0.7,0.6-1.3,1.3-1.3h14.9c0.7,0,1.3,0.6,1.3,1.3c0,0.7-0.6,1.3-1.3,1.3
		H26.1L26.1,31.9z"/>
	<path class="st0" d="M26.1,39.2c-0.7,0-1.3-0.6-1.3-1.3c0-0.7,0.6-1.3,1.3-1.3h24c0.7,0,1.3,0.6,1.3,1.3c0,0.7-0.6,1.3-1.3,1.3
		H26.1L26.1,39.2z"/>
	<path class="st0" d="M26.1,46.4c-0.7,0-1.3-0.6-1.3-1.3c0-0.7,0.6-1.3,1.3-1.3h24c0.7,0,1.3,0.6,1.3,1.3c0,0.7-0.6,1.3-1.3,1.3
		H26.1L26.1,46.4z"/>
	<path class="st0" d="M26.1,53.7c-0.7,0-1.3-0.6-1.3-1.3c0-0.7,0.6-1.3,1.3-1.3h24c0.7,0,1.3,0.6,1.3,1.3c0,0.7-0.6,1.3-1.3,1.3
		H26.1L26.1,53.7z"/>
	<path class="st0" d="M26.1,60.9c-0.7,0-1.3-0.6-1.3-1.3c0-0.7,0.6-1.3,1.3-1.3h24c0.7,0,1.3,0.6,1.3,1.3c0,0.7-0.6,1.3-1.3,1.3
		H26.1L26.1,60.9z"/>
</g>
</svg>
