<?xml version="1.0" encoding="UTF-8"?>
<svg width="27px" height="27px" viewBox="0 0 27 27" version="1.1" xmlns="http://www.w3.org/2000/svg" xmlns:xlink="http://www.w3.org/1999/xlink">
    <title>edit_icon</title>
    <g id="user_employee_manager" stroke="none" stroke-width="1" fill="none" fill-rule="evenodd">
        <g id="employees_list-view" transform="translate(-1795.000000, -319.000000)" fill="#3ECCCD" fill-rule="nonzero">
            <g id="edit_icon" transform="translate(1795.000000, 319.000000)">
                <path d="M9.87337526,13.3362813 L9.00587659,17.5821207 C8.96021876,17.8560458 9.18850789,18.0386625 9.41679701,17.9930083 L13.6629748,17.1255788 C13.7086326,17.0799246 13.7999482,17.0799246 13.8456061,17.0342704 L22.9315133,7.94908718 C23.0228289,7.85777881 23.0228289,7.76647044 22.9315133,7.67516206 L19.3245451,4.06848128 C19.2332294,3.97717291 19.1419138,3.97717291 19.0505981,4.06848128 L9.96469091,13.1536645 C9.91903309,13.1993187 9.91903309,13.2906271 9.87337526,13.3362813 Z" id="Path"></path>
                <path d="M23.4407767,16.2815534 L21.8563107,16.2815534 C21.576699,16.2815534 21.3436893,16.5145631 21.3436893,16.7941748 L21.3436893,24.2504854 L2.70291262,24.2504854 L2.70291262,5.60970874 L8.80776699,5.60970874 C9.08737864,5.60970874 9.32038835,5.37669903 9.32038835,5.09708738 L9.32038835,3.51262136 C9.32038835,3.23300971 9.08737864,3 8.80776699,3 L1.35145631,3 C0.605825243,3 0,3.60582524 0,4.35145631 L0,25.6485437 C0,26.3941748 0.605825243,27 1.35145631,27 L22.6485437,27 C23.3941748,27 24,26.3941748 24,25.6485437 L24,16.8407767 C24,16.5145631 23.7203883,16.2815534 23.4407767,16.2815534 Z" id="Path"></path>
                <path d="M26.732342,2.81040892 L24.1895911,0.267657993 C23.8327138,-0.0892193309 23.2973978,-0.0892193309 22.9405204,0.267657993 L21.0669145,2.14126394 C20.9776952,2.23048327 20.9776952,2.40892193 21.0669145,2.49814126 L24.5018587,5.9330855 C24.5910781,6.02230483 24.7695167,6.02230483 24.8587361,5.9330855 L26.732342,4.05947955 C27.0892193,3.70260223 27.0892193,3.16728625 26.732342,2.81040892 Z" id="Path"></path>
            </g>
        </g>
    </g>
</svg>