<?xml version="1.0" encoding="utf-8"?>
<!-- Generator: Adobe Illustrator 24.1.3, SVG Export Plug-In . SVG Version: 6.00 Build 0)  -->
<!DOCTYPE svg PUBLIC "-//W3C//DTD SVG 1.1//EN" "http://www.w3.org/Graphics/SVG/1.1/DTD/svg11.dtd" [
	<!ENTITY ns_extend "http://ns.adobe.com/Extensibility/1.0/">
	<!ENTITY ns_ai "http://ns.adobe.com/AdobeIllustrator/10.0/">
	<!ENTITY ns_graphs "http://ns.adobe.com/Graphs/1.0/">
	<!ENTITY ns_vars "http://ns.adobe.com/Variables/1.0/">
	<!ENTITY ns_imrep "http://ns.adobe.com/ImageReplacement/1.0/">
	<!ENTITY ns_sfw "http://ns.adobe.com/SaveForWeb/1.0/">
	<!ENTITY ns_custom "http://ns.adobe.com/GenericCustomNamespace/1.0/">
	<!ENTITY ns_adobe_xpath "http://ns.adobe.com/XPath/1.0/">
]>
<svg version="1.1" id="Layer_1" xmlns:x="&ns_extend;" xmlns:i="&ns_ai;" xmlns:graph="&ns_graphs;"
	 xmlns="http://www.w3.org/2000/svg" xmlns:xlink="http://www.w3.org/1999/xlink" x="0px" y="0px" viewBox="0 0 84.2 96.1"
	 style="enable-background:new 0 0 84.2 96.1;" xml:space="preserve">
<style type="text/css">
	.st0{fill:#0F84A9;}
</style>
<metadata>
	<sfw  xmlns="&ns_sfw;">
		<slices></slices>
		<sliceSourceBounds  bottomLeftOrigin="true" height="35.2" width="62.8" x="10.7" y="26.2"></sliceSourceBounds>
	</sfw>
</metadata>
<g>
	<ellipse class="st0" cx="42.1" cy="52.3" rx="6" ry="6"/>
	<path class="st0" d="M72.5,49.6C64.8,40.4,54,34.7,42.1,34.7s-22.7,5.7-30.4,14.9c-1.3,1.5-1.3,3.8,0,5.4
		c7.8,9.2,18.5,14.9,30.4,14.9S64.8,64.2,72.5,55C73.9,53.4,73.9,51.2,72.5,49.6z M42.1,66.8c-8,0-14.5-6.5-14.5-14.5
		s6.5-14.5,14.5-14.5s14.5,6.5,14.5,14.5S50.1,66.8,42.1,66.8z"/>
</g>
</svg>
