<?xml version="1.0" encoding="UTF-8"?>
<svg width="27px" height="31px" viewBox="0 0 27 31" version="1.1" xmlns="http://www.w3.org/2000/svg" xmlns:xlink="http://www.w3.org/1999/xlink">
    <title>filter_icon</title>
    <g id="reporting" stroke="none" stroke-width="1" fill="none" fill-rule="evenodd">
        <g id="reporting_custom" transform="translate(-175.000000, -494.000000)" fill="#0F84A9" fill-rule="nonzero">
            <g id="filter_icon" transform="translate(175.000000, 494.000000)">
                <rect id="Rectangle" x="9" y="4" width="18" height="2"></rect>
                <rect id="Rectangle" x="1" y="14" width="14" height="2"></rect>
                <rect id="Rectangle" x="23" y="14" width="4" height="2"></rect>
                <rect id="Rectangle" x="13" y="25" width="14" height="2"></rect>
                <rect id="Rectangle" x="1" y="25" width="4" height="2"></rect>
                <path d="M4.99967726,10 C2.23199878,10 0,7.76785714 0,5 C0,2.23214286 2.23199878,0 4.99967726,0 C7.76735574,0 9.99935452,2.23214286 9.99935452,5 C10.0439945,7.76785714 7.76735574,10 4.99967726,10 Z M4.99967726,2.5 C3.61583802,2.5 2.49983863,3.61607143 2.49983863,5 C2.49983863,6.38392857 3.61583802,7.5 4.99967726,7.5 C6.3835165,7.5 7.49951589,6.38392857 7.49951589,5 C7.49951589,3.61607143 6.3835165,2.5 4.99967726,2.5 Z" id="Shape"></path>
                <path d="M18.9996773,20 C16.2319988,20 14,17.7678571 14,15 C14,12.2321429 16.2319988,10 18.9996773,10 C21.7673557,10 23.9993545,12.2321429 23.9993545,15 C24.0439945,17.7678571 21.7673557,20 18.9996773,20 Z M18.9996773,12.5 C17.615838,12.5 16.4998386,13.6160714 16.4998386,15 C16.4998386,16.3839286 17.615838,17.5 18.9996773,17.5 C20.3835165,17.5 21.4995159,16.3839286 21.4995159,15 C21.5441559,13.6160714 20.3835165,12.5 18.9996773,12.5 Z" id="Shape"></path>
                <path d="M9,31 C6.23214286,31 4,28.7678571 4,26 C4,23.2321429 6.23214286,21 9,21 C11.7678571,21 14,23.2321429 14,26 C14,28.7678571 11.7678571,31 9,31 Z M9,23.5 C7.61607143,23.5 6.5,24.6160714 6.5,26 C6.5,27.3839286 7.61607143,28.5 9,28.5 C10.3839286,28.5 11.5,27.3839286 11.5,26 C11.5,24.6160714 10.3839286,23.5 9,23.5 Z" id="Shape"></path>
            </g>
        </g>
    </g>
</svg>