<?xml version="1.0" encoding="UTF-8"?>
<svg width="25px" height="34px" viewBox="0 0 25 34" version="1.1" xmlns="http://www.w3.org/2000/svg" xmlns:xlink="http://www.w3.org/1999/xlink">
    <title>A802E795-EFB3-472B-890D-FBDBE21FA0D6</title>
    <g id="Covid-Screening" stroke="none" stroke-width="1" fill="none" fill-rule="evenodd">
        <g id="COVID_screening-tool_1" transform="translate(-36.000000, -394.000000)" fill="#0F84A9" fill-rule="nonzero">
            <g id="lock_icon" transform="translate(36.000000, 394.000000)">
                <path d="M22.7004717,12.3041958 L21.2264151,12.3041958 L21.2264151,8.7972028 C21.2264151,3.92307692 17.3349057,0 12.5,0 C7.66509434,0 3.83254717,3.92307692 3.83254717,8.7972028 L3.83254717,12.3041958 L2.2995283,12.3041958 C1.00235849,12.3041958 0,13.3146853 0,14.6223776 L0,31.6818182 C0,32.9895105 1.00235849,34 2.2995283,34 L22.7004717,34 C23.9976415,34 25,32.9895105 25,31.6818182 L25,14.6223776 C25,13.3146853 23.9976415,12.3041958 22.7004717,12.3041958 Z M7.42924528,8.85664336 C7.42924528,6.0034965 9.72877358,3.68531469 12.5589623,3.68531469 C15.3891509,3.68531469 17.6886792,6.0034965 17.6886792,8.85664336 L17.6886792,12.3041958 L7.42924528,12.3041958 L7.42924528,8.85664336 Z M14.3278302,23.3601399 L14.3278302,26.034965 C14.3278302,27.0454545 13.5023585,27.8776224 12.5,27.8776224 C11.4976415,27.8776224 10.6721698,27.0454545 10.6721698,26.034965 L10.6721698,23.3006993 C10.1415094,22.7657343 9.78773585,22.0524476 9.78773585,21.2797203 C9.78773585,19.7342657 11.0259434,18.486014 12.5589623,18.486014 C14.0919811,18.486014 15.3301887,19.7342657 15.3301887,21.2797203 C15.2712264,22.1118881 14.9174528,22.8251748 14.3278302,23.3601399 Z" id="Shape"></path>
            </g>
        </g>
    </g>
</svg>