<?xml version="1.0" encoding="UTF-8"?>
<svg width="31px" height="33px" viewBox="0 0 31 33" version="1.1" xmlns="http://www.w3.org/2000/svg" xmlns:xlink="http://www.w3.org/1999/xlink">
    <title>results_icon copy</title>
    <g id="results-manager" stroke="none" stroke-width="1" fill="none" fill-rule="evenodd">
        <g transform="translate(-164.000000, -224.000000)" fill="#043B5D" id="results_icon-copy">
            <g transform="translate(164.000000, 224.000000)">
                <path d="M1.49259259,2.94444444 L5.97037037,2.94444444 C5.97037037,3 5.97037037,3.11111111 5.97037037,3.16666667 L5.97037037,5.22222222 L2.41111111,5.22222222 L2.41111111,30.2222222 L14.7537037,30.2222222 C14.5240741,30.6666667 14.4092593,31.0555556 14.4092593,31.3333333 C14.4092593,31.7222222 14.4666667,32.1111111 14.6388889,32.5 L1.43518519,32.5 C0.631481481,32.5 0,31.8888889 0,31.1111111 L0,4.33333333 C0.0574074074,3.55555556 0.688888889,2.94444444 1.49259259,2.94444444 L1.49259259,2.94444444 Z M21.7,14.5 L24.8574074,14.5 C25.2018519,14.5 25.5462963,14.6666667 25.7759259,14.8888889 C26.0055556,15.1111111 26.1777778,15.4444444 26.1777778,15.7777778 C26.1777778,16.1111111 26.062963,16.4444444 25.8333333,16.6666667 C25.7185185,16.7777778 25.5462963,16.8888889 25.3740741,16.9444444 L25.3740741,23.3333333 C26.4648148,24.7222222 27.7851852,26.4444444 28.9333333,27.9444444 C30.1388889,29.5555556 31,30.8888889 31,31.3333333 L31,31.3333333 C31,31.7777778 30.8277778,32.2222222 30.5407407,32.5 C30.2537037,32.8333333 29.8518519,33 29.3925926,33 L17.2222222,33 C16.762963,33 16.3611111,32.7777778 16.0740741,32.5 C15.787037,32.1666667 15.6148148,31.7777778 15.6148148,31.3333333 L15.6148148,31.3333333 C15.6148148,30.8888889 16.5333333,29.5 17.6814815,27.9444444 C18.7722222,26.4444444 20.15,24.6666667 21.2407407,23.3333333 L21.2407407,16.8888889 C21.0685185,16.8333333 20.8962963,16.7222222 20.7814815,16.6111111 C20.5518519,16.3888889 20.437037,16.0555556 20.437037,15.7222222 C20.437037,15.3888889 20.6092593,15.0555556 20.8388889,14.8333333 C21.0111111,14.6111111 21.3555556,14.5 21.7,14.5 L21.7,14.5 Z M24.8574074,15.3333333 L21.7,15.3333333 C21.5851852,15.3333333 21.4703704,15.3888889 21.412963,15.4444444 C21.3555556,15.5555556 21.2981481,15.6111111 21.2981481,15.7222222 C21.2981481,15.8333333 21.3555556,15.9444444 21.412963,16 C21.4703704,16.0555556 21.5851852,16.1111111 21.7,16.1111111 L22.1592593,16.1111111 L22.1592593,16.5555556 L22.1592593,23.5 L22.0444444,23.7777778 C20.9537037,25.1666667 19.5759259,27 18.4277778,28.5 C17.337037,30 16.5333333,31.1666667 16.5333333,31.3888889 L16.5333333,31.3888889 C16.5333333,31.6111111 16.5907407,31.8333333 16.762963,32 C16.8777778,32.1111111 17.05,32.2222222 17.2222222,32.2222222 L29.3351852,32.2222222 C29.5074074,32.2222222 29.6796296,32.1111111 29.7944444,32 C29.9092593,31.8333333 30.0240741,31.6111111 30.0240741,31.3888889 L30.0240741,31.3888889 C30.0240741,31.1666667 29.2203704,29.9444444 28.1296296,28.5 C27.0388889,27 25.6037037,25.1666667 24.512963,23.7777778 L24.3981481,23.5 L24.3981481,16.5555556 L24.3981481,16.1111111 L24.8574074,16.1111111 C24.9722222,16.1111111 25.0296296,16.0555556 25.1444444,16 C25.2018519,15.9444444 25.2592593,15.8333333 25.2592593,15.7222222 C25.2592593,15.6111111 25.2018519,15.5 25.1444444,15.4444444 C25.0296296,15.3888889 24.9722222,15.3333333 24.8574074,15.3333333 L24.8574074,15.3333333 Z M18.2555556,29.6111111 C19.0018519,28.6111111 19.9777778,27.2777778 20.8962963,26.1111111 L20.8962963,26.1111111 L20.8962963,26.1111111 L25.6611111,26.1111111 L25.6611111,26.1111111 L25.6611111,26.1111111 C26.5796296,27.2777778 27.5555556,28.5555556 28.3018519,29.6111111 C29.0481481,30.6111111 29.5648148,31.3888889 29.5648148,31.5 C29.5648148,31.5555556 29.5648148,31.6111111 29.5648148,31.6666667 C29.5648148,31.7222222 29.5074074,31.7777778 29.5074074,31.7777778 C29.5074074,31.7777778 29.45,31.8333333 29.45,31.8333333 C29.45,31.8333333 29.3925926,31.8888889 29.3925926,31.8888889 C29.3925926,31.8888889 29.3925926,31.8888889 29.3925926,31.8888889 C29.3925926,31.8888889 29.3925926,31.8888889 29.3925926,31.8888889 L17.2222222,31.8888889 C17.2222222,31.8888889 17.2222222,31.8888889 17.2222222,31.8888889 C17.2222222,31.8888889 17.2222222,31.8888889 17.2222222,31.8888889 C17.2222222,31.8888889 17.1648148,31.8888889 17.1648148,31.8333333 C17.1648148,31.8333333 17.1074074,31.7777778 17.1074074,31.7777778 C17.1074074,31.7222222 17.05,31.7222222 17.05,31.6666667 C17.05,31.6111111 17.05,31.5555556 17.05,31.5 C16.9351852,31.3888889 17.5092593,30.6111111 18.2555556,29.6111111 L18.2555556,29.6111111 Z M22.1592593,13.3333333 L22.1592593,5.22222222 L18.6,5.22222222 L18.6,3.16666667 C18.6,3.05555556 18.6,3 18.6,2.94444444 L23.0777778,2.94444444 C23.8814815,2.94444444 24.512963,3.55555556 24.512963,4.33333333 L24.512963,13.3333333 L22.1592593,13.3333333 L22.1592593,13.3333333 Z M4.70740741,15.1111111 L6.60185185,15.1111111 C6.65925926,15.1111111 6.65925926,15.1111111 6.65925926,15.1666667 L6.65925926,17 C6.65925926,17.0555556 6.65925926,17.0555556 6.60185185,17.0555556 L4.70740741,17.0555556 C4.65,17.0555556 4.65,17.0555556 4.65,17 L4.65,15.1666667 C4.65,15.1666667 4.65,15.1111111 4.70740741,15.1111111 L4.70740741,15.1111111 Z M4.70740741,25.5555556 L6.60185185,25.5555556 C6.65925926,25.5555556 6.65925926,25.5555556 6.65925926,25.6111111 L6.65925926,27.4444444 C6.65925926,27.5 6.65925926,27.5 6.60185185,27.5 L4.70740741,27.5 C4.65,27.5 4.65,27.5 4.65,27.4444444 L4.65,25.6111111 C4.65,25.5555556 4.65,25.5555556 4.70740741,25.5555556 L4.70740741,25.5555556 Z M8.20925926,25.9444444 L17.6814815,25.9444444 C17.3944444,26.3333333 17.1074074,26.6666667 16.8777778,27.0555556 L8.20925926,27.0555556 C7.92222222,27.0555556 7.63518519,26.8333333 7.63518519,26.5 L7.63518519,26.5 C7.69259259,26.2222222 7.92222222,25.9444444 8.20925926,25.9444444 L8.20925926,25.9444444 Z M4.70740741,22.0555556 L6.60185185,22.0555556 C6.65925926,22.0555556 6.65925926,22.0555556 6.65925926,22.1111111 L6.65925926,23.9444444 C6.65925926,24 6.65925926,24 6.60185185,24 L4.70740741,24 C4.65,24 4.65,24 4.65,23.9444444 L4.65,22.1111111 C4.65,22.1111111 4.65,22.0555556 4.70740741,22.0555556 L4.70740741,22.0555556 Z M8.20925926,22.5 L19.3462963,22.5 C19.6333333,22.5 19.9203704,22.7222222 19.9203704,23.0555556 L19.9203704,23.0555556 C19.9203704,23.0555556 19.9203704,23.0555556 19.9203704,23.1111111 C19.8055556,23.2777778 19.6907407,23.4444444 19.5185185,23.6111111 C19.4611111,23.6111111 19.4037037,23.6666667 19.3462963,23.6666667 L8.20925926,23.6666667 C7.92222222,23.6666667 7.63518519,23.4444444 7.63518519,23.1111111 L7.63518519,23.1111111 C7.69259259,22.7222222 7.92222222,22.5 8.20925926,22.5 L8.20925926,22.5 Z M4.70740741,18.6111111 L6.60185185,18.6111111 C6.65925926,18.6111111 6.65925926,18.6111111 6.65925926,18.6666667 L6.65925926,20.5 C6.65925926,20.5555556 6.65925926,20.5555556 6.60185185,20.5555556 L4.70740741,20.5555556 C4.65,20.5555556 4.65,20.5555556 4.65,20.5 L4.65,18.6666667 C4.65,18.6111111 4.65,18.6111111 4.70740741,18.6111111 L4.70740741,18.6111111 Z M8.20925926,19 L19.3462963,19 C19.6333333,19 19.9203704,19.2222222 19.9203704,19.5555556 L19.9203704,19.5555556 C19.9203704,19.8333333 19.6907407,20.1111111 19.3462963,20.1111111 L8.20925926,20.1111111 C7.92222222,20.1111111 7.63518519,19.8888889 7.63518519,19.5555556 L7.63518519,19.5555556 C7.69259259,19.2777778 7.92222222,19 8.20925926,19 L8.20925926,19 Z M8.20925926,15.5555556 L19.1740741,15.5555556 C19.1740741,15.6111111 19.1740741,15.6666667 19.1740741,15.7222222 C19.1740741,16.0555556 19.2314815,16.3333333 19.3462963,16.6111111 C19.3462963,16.6111111 19.3462963,16.6111111 19.2888889,16.6111111 L8.20925926,16.6111111 C7.92222222,16.6111111 7.63518519,16.3888889 7.63518519,16.0555556 L7.63518519,16.0555556 C7.69259259,15.7777778 7.92222222,15.5555556 8.20925926,15.5555556 L8.20925926,15.5555556 Z M12.2851852,6.94444444 C14.1796296,6.94444444 15.6722222,8.44444444 15.6722222,10.2222222 C15.6722222,12.0555556 14.1222222,13.5 12.2851852,13.5 C10.3907407,13.5 8.89814815,12 8.89814815,10.2222222 C8.89814815,8.44444444 10.3907407,6.94444444 12.2851852,6.94444444 L12.2851852,6.94444444 Z M11.8259259,7.83333333 L12.7444444,7.83333333 C12.9166667,7.83333333 13.0314815,7.94444444 13.0314815,8.11111111 L13.0314815,9.5 L14.4666667,9.5 C14.6388889,9.5 14.7537037,9.61111111 14.7537037,9.77777778 L14.7537037,10.6666667 C14.7537037,10.8333333 14.6388889,10.9444444 14.4666667,10.9444444 L13.0314815,10.9444444 L13.0314815,12.3333333 C13.0314815,12.5 12.9166667,12.6111111 12.7444444,12.6111111 L11.8259259,12.6111111 C11.6537037,12.6111111 11.5388889,12.5 11.5388889,12.3333333 L11.5388889,10.9444444 L10.1037037,10.9444444 C9.93148148,10.9444444 9.81666667,10.8333333 9.81666667,10.6666667 L9.81666667,9.77777778 C9.81666667,9.61111111 9.93148148,9.5 10.1037037,9.5 L11.5388889,9.5 L11.5388889,8.11111111 C11.4814815,7.94444444 11.6537037,7.83333333 11.8259259,7.83333333 L11.8259259,7.83333333 Z M7.75,2.22222222 L10.2759259,2.22222222 C10.562963,3 11.3666667,3.55555556 12.2851852,3.55555556 C13.2037037,3.55555556 14.0074074,3 14.2944444,2.22222222 L16.8203704,2.22222222 C17.337037,2.22222222 17.7962963,2.66666667 17.7962963,3.16666667 L17.7962963,5.88888889 L6.77407407,5.88888889 L6.77407407,3.16666667 C6.77407407,2.66666667 7.17592593,2.22222222 7.75,2.22222222 L7.75,2.22222222 Z M12.2851852,0 C13.1462963,0 13.8351852,0.666666667 13.8351852,1.5 C13.8351852,2.33333333 13.1462963,3 12.2851852,3 C11.4240741,3 10.7351852,2.33333333 10.7351852,1.5 C10.7351852,0.666666667 11.4240741,0 12.2851852,0 L12.2851852,0 Z M12.2851852,0.944444444 C12.6296296,0.944444444 12.8592593,1.16666667 12.8592593,1.5 C12.8592593,1.83333333 12.6296296,2.05555556 12.2851852,2.05555556 C11.9407407,2.05555556 11.7111111,1.83333333 11.7111111,1.5 C11.7111111,1.16666667 11.9407407,0.944444444 12.2851852,0.944444444 L12.2851852,0.944444444 Z" id="Shape"></path>
            </g>
        </g>
    </g>
</svg>