<?xml version="1.0" encoding="UTF-8"?>
<svg width="21px" height="21px" viewBox="0 0 21 21" version="1.1" xmlns="http://www.w3.org/2000/svg" xmlns:xlink="http://www.w3.org/1999/xlink">
    <title>57E987E3-18DB-481D-92B2-75B8CFF4F70C</title>
    <g id="user_control_center" stroke="none" stroke-width="1" fill="none" fill-rule="evenodd">
        <g id="control_center_account_settings" transform="translate(-175.000000, -231.000000)" fill="#043B5D" fill-rule="nonzero">
            <g id="settings_icon" transform="translate(175.000000, 231.000000)">
                <path d="M20.4735376,8.83286908 C20.1225627,8.71587744 19.5961003,8.54038997 18.9526462,8.42339833 C18.8356546,8.42339833 18.7771588,8.36490251 18.6601671,8.30640669 C18.6601671,8.30640669 18.6016713,8.30640669 18.6016713,8.24791086 C18.4846797,8.13091922 18.367688,8.01392758 18.3091922,7.83844011 C18.1922006,7.42896936 18.0167131,7.07799443 17.8412256,6.66852368 C17.7827298,6.55153203 17.724234,6.37604457 17.7827298,6.2005571 C17.7827298,6.14206128 17.7827298,6.08356546 17.8412256,6.02506964 C17.8412256,5.96657382 17.8997214,5.84958217 17.9582173,5.79108635 C18.2506964,5.26462396 18.5431755,4.79665738 18.718663,4.50417827 C18.8941504,4.21169916 18.8356546,3.80222841 18.6016713,3.56824513 L18.3091922,3.45125348 L17.4902507,2.63231198 L17.3147632,2.45682451 C17.0807799,2.22284123 16.6713092,2.1643454 16.3788301,2.33983287 C16.0278552,2.51532033 15.5598886,2.80779944 15.0334262,3.10027855 C14.9749304,3.15877437 14.8579387,3.21727019 14.7409471,3.21727019 L14.6824513,3.21727019 C14.5069638,3.21727019 14.3314763,3.21727019 14.2144847,3.15877437 C13.8635097,2.98328691 13.454039,2.80779944 13.0445682,2.6908078 C12.8690808,2.63231198 12.7520891,2.51532033 12.6350975,2.39832869 C12.5766017,2.33983287 12.5766017,2.28133705 12.5181058,2.22284123 C12.45961,2.1643454 12.45961,2.04735376 12.4011142,1.98885794 C12.2841226,1.40389972 12.1086351,0.877437326 11.9916435,0.526462396 C11.8746518,0.175487465 11.5821727,0 11.2311978,0 L11.0557103,0 L9.88579387,0 L9.59331476,0 C9.24233983,0 8.94986072,0.233983287 8.83286908,0.526462396 C8.71587744,0.877437326 8.54038997,1.40389972 8.42339833,2.04735376 C8.42339833,2.1643454 8.36490251,2.22284123 8.30640669,2.33983287 C8.30640669,2.33983287 8.30640669,2.39832869 8.24791086,2.39832869 C8.13091922,2.51532033 8.01392758,2.63231198 7.83844011,2.6908078 C7.42896936,2.80779944 7.07799443,2.98328691 6.66852368,3.15877437 C6.55153203,3.21727019 6.37604457,3.27576602 6.2005571,3.21727019 C6.14206128,3.21727019 6.08356546,3.21727019 6.02506964,3.15877437 C5.96657382,3.15877437 5.84958217,3.10027855 5.79108635,3.04178273 C5.26462396,2.74930362 4.79665738,2.45682451 4.50417827,2.28133705 C4.21169916,2.10584958 3.80222841,2.1643454 3.56824513,2.39832869 L3.45125348,2.63231198 L2.63231198,3.45125348 L2.45682451,3.62674095 C2.22284123,3.86072423 2.1643454,4.27019499 2.33983287,4.56267409 C2.51532033,4.91364903 2.80779944,5.3816156 3.10027855,5.90807799 C3.15877437,5.96657382 3.21727019,6.08356546 3.21727019,6.2005571 L3.21727019,6.25905292 C3.21727019,6.43454039 3.21727019,6.61002786 3.15877437,6.7270195 C2.98328691,7.07799443 2.80779944,7.48746518 2.6908078,7.89693593 C2.63231198,8.0724234 2.51532033,8.18941504 2.39832869,8.30640669 C2.33983287,8.36490251 2.28133705,8.36490251 2.22284123,8.42339833 C2.1643454,8.48189415 2.04735376,8.48189415 1.98885794,8.54038997 C1.40389972,8.65738162 0.877437326,8.83286908 0.526462396,8.94986072 C0.175487465,9.06685237 0,9.35933148 0,9.71030641 L0,9.88579387 L0,11.0557103 L0,11.3481894 C0,11.6991643 0.233983287,11.9916435 0.526462396,12.1086351 C0.877437326,12.2256267 1.40389972,12.4011142 2.04735376,12.5181058 C2.1643454,12.5181058 2.22284123,12.5766017 2.33983287,12.6350975 C2.33983287,12.6350975 2.39832869,12.6350975 2.39832869,12.6935933 C2.51532033,12.810585 2.63231198,12.9275766 2.6908078,13.1030641 C2.80779944,13.5125348 2.98328691,13.8635097 3.15877437,14.2729805 C3.21727019,14.3899721 3.27576602,14.5654596 3.21727019,14.7409471 C3.21727019,14.7994429 3.21727019,14.8579387 3.15877437,14.9164345 C3.15877437,14.9749304 3.10027855,15.091922 3.04178273,15.1504178 C2.74930362,15.6768802 2.45682451,16.1448468 2.28133705,16.4373259 C2.10584958,16.729805 2.1643454,17.1392758 2.39832869,17.3732591 L2.57381616,17.5487465 L3.39275766,18.367688 L3.56824513,18.5431755 C3.80222841,18.7771588 4.21169916,18.8356546 4.50417827,18.6601671 C4.8551532,18.4846797 5.32311978,18.1922006 5.84958217,17.8997214 C5.90807799,17.8412256 6.02506964,17.7827298 6.14206128,17.7827298 L6.2005571,17.7827298 C6.37604457,17.7827298 6.55153203,17.7827298 6.66852368,17.8412256 C7.01949861,18.0167131 7.42896936,18.1922006 7.83844011,18.3091922 C8.01392758,18.367688 8.13091922,18.4846797 8.24791086,18.6016713 C8.30640669,18.6601671 8.30640669,18.718663 8.36490251,18.7771588 C8.42339833,18.8356546 8.42339833,18.9526462 8.48189415,19.0111421 C8.59888579,19.5961003 8.77437326,20.1225627 8.8913649,20.4735376 C9.00835655,20.8245125 9.30083565,21 9.65181058,21 L9.88579387,21 L11.0557103,21 L11.3481894,21 C11.6991643,21 11.9916435,20.7660167 12.1086351,20.4735376 C12.2256267,20.1225627 12.4011142,19.5961003 12.5181058,18.9526462 C12.5181058,18.8356546 12.5766017,18.7771588 12.6350975,18.6601671 C12.6350975,18.6601671 12.6350975,18.6016713 12.6935933,18.6016713 C12.810585,18.4846797 12.9275766,18.367688 13.1030641,18.3091922 C13.5125348,18.1922006 13.8635097,18.0167131 14.2729805,17.8412256 C14.3899721,17.7827298 14.5654596,17.724234 14.7409471,17.7827298 C14.7994429,17.7827298 14.8579387,17.7827298 14.9164345,17.8412256 C14.9749304,17.8412256 15.091922,17.8997214 15.1504178,17.9582173 C15.6768802,18.2506964 16.1448468,18.5431755 16.4373259,18.718663 C16.729805,18.8941504 17.1392758,18.8356546 17.3732591,18.6016713 L17.5487465,18.4261838 L18.367688,17.6072423 L18.5431755,17.4317549 C18.7771588,17.1977716 18.8356546,16.7883008 18.6601671,16.4958217 C18.4846797,16.1448468 18.1922006,15.6768802 17.8997214,15.1504178 C17.8412256,15.091922 17.7827298,14.9749304 17.7827298,14.8579387 L17.7827298,14.7994429 C17.7827298,14.6239554 17.7827298,14.448468 17.8412256,14.3314763 C18.0167131,13.9805014 18.1922006,13.5710306 18.3091922,13.1615599 C18.367688,12.9860724 18.4846797,12.8690808 18.6016713,12.7520891 C18.6601671,12.6935933 18.718663,12.6935933 18.7771588,12.6350975 C18.8356546,12.5766017 18.9526462,12.5766017 19.0111421,12.5181058 C19.5961003,12.4011142 20.1225627,12.2256267 20.4735376,12.1086351 C20.8245125,11.9916435 21,11.6991643 21,11.3481894 L21,11.0557103 L21,9.88579387 L21,9.59331476 C21,9.24233983 20.7660167,8.94986072 20.4735376,8.83286908 Z M10.4707521,15.2674095 C7.83844011,15.2674095 5.67409471,13.1030641 5.67409471,10.4707521 C5.67409471,7.83844011 7.83844011,5.67409471 10.4707521,5.67409471 C13.1030641,5.67409471 15.2674095,7.83844011 15.2674095,10.4707521 C15.2674095,13.1030641 13.1030641,15.2674095 10.4707521,15.2674095 Z" id="Shape"></path>
            </g>
        </g>
    </g>
</svg>