<?xml version="1.0" encoding="UTF-8"?>
<svg width="956px" height="1733px" viewBox="0 0 956 1733" version="1.1" xmlns="http://www.w3.org/2000/svg" xmlns:xlink="http://www.w3.org/1999/xlink">
    <title>
        038E0A6D-72AE-430F-A4D1-B589F91F2447
    </title>
    <defs>
        <linearGradient x1="49.998747%" y1="-0.00705917693%" x2="49.998747%" y2="99.9979724%" id="linearGradient-1">
            <stop stop-color="#50E2EA" offset="0%"/>
            <stop stop-color="#FFFFFF" offset="43.65%"/>
            <stop stop-color="#FFFFFF" offset="100%"/>
        </linearGradient>
    </defs>
    <g id="Page-1" stroke="none" stroke-width="1" fill="none" fill-rule="evenodd">
        <g id="logon_screen" transform="translate(-2.000000, -1.000000)">
            <g id="splash_#3_testd" transform="translate(2.000000, 1.000000)">
                <rect id="Rectangle" fill="url(#linearGradient-1)" x="0" y="0" width="956" height="1733"/>
                <path d="M929.657531,465.337851 C929.402815,466.117477 929.148099,467.156979 928.893384,467.936605 C928.383953,469.235982 927.619806,470.535359 926.855659,471.57486 C926.600943,471.834736 926.600943,472.094611 926.346227,472.094611 C926.346227,472.094611 926.346227,472.354487 926.091512,472.354487 C925.836796,472.614362 925.58208,472.874237 925.327365,473.134113 C924.308502,473.913739 923.544355,474.693365 922.270777,475.472991 C921.761345,475.732867 921.50663,475.992742 920.997198,476.252618 C920.487767,476.512493 920.233051,476.772368 919.72362,476.772368 C918.959473,477.032244 918.195326,477.292119 917.685895,477.551995 C917.431179,477.551995 916.921748,477.81187 916.667032,477.81187 C916.157601,477.81187 915.902885,478.071745 915.393454,478.071745 C914.884023,478.331621 914.374591,478.331621 914.119876,478.331621 C913.610444,478.591496 912.846297,478.591496 912.336866,478.591496 C900.874661,480.670499 887.884163,478.071745 887.884163,478.071745 C841.780628,498.082151 801.79027,481.969876 801.79027,481.969876 C780.139439,488.466761 765.111215,479.630998 765.111215,479.630998 C763.328205,480.670499 761.545195,481.710001 759.762186,482.489627 C754.158441,485.348257 748.554697,487.687135 742.950952,489.506263 C685.894645,508.996918 628.838337,484.308755 628.838337,484.308755 C580.697077,505.098787 545.2916,482.229752 545.2916,482.229752 C532.046386,492.624768 508.612545,486.647634 508.612545,486.647634 C460.21657,505.098787 429.395975,478.851372 428.122397,477.81187 C428.122397,477.81187 428.122397,477.81187 428.122397,477.81187 C395.518793,489.246388 381.254716,475.213116 381,462.998972 C381,461.179844 381.254716,459.100841 382.018863,457.541589 C382.273578,456.761963 382.528294,456.242212 382.78301,455.722461 C388.64147,444.547819 405.962135,439.870062 422.263937,444.807694 C452.829816,429.21517 485.43342,444.028068 485.43342,444.028068 C493.839037,413.362771 525.93321,420.639282 525.93321,420.639282 C526.697357,401.928253 543.763306,400.628876 543.763306,400.628876 C524.404916,362.167317 557.008521,348.134046 557.008521,348.134046 C566.178285,317.208873 600.819614,312.790991 617.885563,326.044637 C690.224811,313.830493 703.979456,370.743205 703.979456,370.743205 C748.299981,339.818033 769.441381,376.72034 769.441381,376.72034 C793.129937,378.019717 801.026123,395.171493 801.026123,395.171493 C846.110794,388.154857 857.572999,432.333675 857.572999,432.333675 C876.167242,424.017662 891.959613,439.870062 891.959613,439.870062 C904.695396,432.59355 919.468904,438.050934 926.091512,448.705825 C929.402815,453.383582 930.676393,459.100841 929.657531,465.337851 Z" id="Path" fill="#FFFFFF" fill-rule="nonzero" opacity="0.7"/>
                <path d="M394.274855,343.858746 C393.511206,346.470406 392.747558,349.082067 391.47481,351.432561 C391.47481,351.432561 391.47481,351.432561 391.47481,351.432561 C372.892694,388.518138 297.80058,362.401535 297.80058,362.401535 C297.80058,362.401535 247.399771,392.435629 149.907298,365.535527 C149.907298,365.535527 112.233966,375.19867 88.5608588,376.765667 C64.8877516,378.332663 18.5597356,372.58701 16.0142402,342.814082 C16.0142402,342.29175 16.0142402,341.508252 16.0142402,340.98592 C15.5051411,325.315958 28.7417171,319.570305 40.4509959,317.480977 C40.4509959,317.480977 40.4509959,317.480977 40.4509959,317.480977 C49.6147793,315.91398 57.7603645,316.697478 57.7603645,316.697478 C57.7603645,316.697478 64.6332021,274.649747 113.761263,269.16526 C113.761263,269.16526 131.325181,222.677706 173.325855,241.742826 C173.325855,241.742826 203.8718,183.241634 267.254635,227.63986 C267.254635,227.63986 303.909769,218.237883 309.509859,256.890456 C309.509859,256.890456 347.18319,248.794309 352.274181,293.976033 C352.274181,293.976033 380.783729,295.281864 391.72936,314.085818 C395.802152,321.137301 397.583999,330.800444 394.274855,343.858746 Z" id="Path" fill="#FFFFFF" fill-rule="nonzero" opacity="0.9"/>
                <path d="M892,184.919238 C892.253037,192.924227 866.000293,189.309071 866.000293,189.309071 C866.000293,189.309071 856.569695,196.281158 830.826713,193.957129 C830.826713,193.957129 801.260516,205.577275 756.146577,196.797609 C756.146577,196.797609 743.912288,201.703893 724.541331,200.15454 C724.541331,200.15454 693.445848,207.901304 661.840602,197.830511 C660.566197,197.31406 631,197.830511 631,189.309071 C631,188.534395 631.254881,188.017944 631.509762,187.243267 C631.509762,187.243267 631.509762,187.243267 631.509762,187.243267 C633.293929,182.595209 641.705002,178.721827 652.919767,177.4307 L652.919767,177.4307 C659.801554,176.397798 667.447985,176.397798 675.349296,177.688925 C675.349296,177.688925 680.701797,170.458612 693.190967,173.040867 C693.190967,173.040867 718.169306,155.997986 766.341817,164.261201 C766.341817,164.261201 792.849442,162.970074 801.770278,177.4307 C801.770278,177.4307 830.06207,164.519426 866.255174,175.623121 C866.255174,175.623121 881.802916,173.040867 888.939584,179.496503 C889.959108,180.27118 890.723751,181.562307 891.233513,182.595209 C891.743275,183.628111 892,184.402787 892,184.919238 Z" id="Path" fill="#FFFFFF" fill-rule="nonzero" opacity="0.9"/>
                <path d="M534.861504,97.9408363 C534.861504,98.2015688 534.861504,98.4623013 534.861504,98.9837663 C534.861504,99.5052313 534.606566,99.7659638 534.606566,100.287429 C534.606566,100.287429 534.606566,100.548161 534.606566,100.548161 C534.606566,100.808894 534.351629,101.069626 534.351629,101.591091 C534.351629,101.591091 534.351629,101.591091 534.351629,101.851824 C534.096691,102.112556 534.096691,102.373289 533.841753,102.634021 C533.586815,103.155486 533.331878,103.416219 532.822002,103.937684 C532.567064,104.198416 532.312126,104.459149 532.057189,104.719881 C532.057189,104.719881 531.802251,104.980614 531.802251,104.980614 C531.547313,105.241346 531.292375,105.502079 531.037438,105.762811 C530.7825,106.023544 530.272624,106.284276 530.017686,106.545009 C528.742998,107.587939 527.213371,108.370136 525.683744,108.891601 C524.918931,109.152334 524.409055,109.413066 523.644242,109.673799 C523.644242,109.673799 523.644242,109.673799 523.644242,109.673799 C521.60474,110.455996 519.565238,110.977461 517.525736,111.498926 C516.760922,111.759659 515.996109,111.759659 515.486233,112.020391 C515.231296,112.020391 515.231296,112.020391 514.976358,112.020391 C514.466482,112.020391 513.956607,112.281124 513.191793,112.281124 C509.877602,112.802589 506.308473,113.324054 503.24922,113.584786 C502.739345,113.584786 502.229469,113.584786 501.719594,113.584786 C500.699842,113.584786 499.680091,113.584786 498.915278,113.584786 C498.66034,113.584786 498.150465,113.584786 497.895527,113.584786 C497.640589,113.584786 497.130714,113.584786 496.875776,113.584786 C493.306647,113.584786 491.267145,113.584786 491.267145,113.584786 C491.267145,113.584786 462.969052,133.921921 411.471622,119.581634 C411.471622,119.581634 393.880915,124.274819 379.349462,114.366984 C379.349462,114.366984 379.349462,114.366984 379.349462,114.366984 C378.074773,115.409914 349.77668,138.093641 304.397757,113.845519 C304.397757,113.845519 277.119415,117.756506 272.785473,104.719881 C272.785473,104.459149 272.785473,104.459149 272.530535,104.198416 C271.510784,100.548161 272.020659,96.8979063 273.550286,93.2476513 C277.884228,82.8183514 291.39593,73.9534465 308.476761,76.821504 C313.575516,71.606854 321.988463,67.6958665 330.656347,73.171249 C330.656347,73.171249 343.403236,13.2027745 410.196933,25.7179344 C410.196933,25.7179344 460.419674,18.9388895 462.204239,56.2236366 C462.204239,56.2236366 491.522083,58.5702291 507.328225,75.5178415 C520.839927,76.0393065 536.646069,82.5576189 534.861504,97.9408363 Z" id="Path" fill="#FFFFFF" fill-rule="nonzero" opacity="0.76"/>
            </g>
            <g id="Group" transform="translate(320.000000, 832.000000)" fill-rule="nonzero">
                <path d="M275.92619,78.8828312 C275.161905,78.8828312 274.142857,78.6241989 273.633333,77.8483022 L263.952381,68.0202774 C262.678571,66.7271162 262.678571,64.3994261 263.952381,63.1062649 C265.22619,61.8131038 267.519048,61.8131038 268.792857,63.1062649 L275.92619,70.3479675 L292.740476,53.2782401 C294.014286,51.9850789 296.307143,51.9850789 297.580952,53.2782401 C298.854762,54.5714012 298.854762,56.8990913 297.580952,58.1922525 L278.47381,77.58967 C277.454762,78.6241989 276.690476,78.8828312 275.92619,78.8828312 Z" id="Path" fill="#1283A8"/>
                <path d="M83.5809524,103.970158 C61.9261905,103.970158 44.602381,86.1245337 44.602381,64.3994261 C44.602381,42.4156863 62.1809524,24.8286944 83.5809524,24.8286944 C104.980952,24.8286944 122.559524,42.6743185 122.559524,64.3994261 L122.559524,72.4170253 L61.4166667,72.4170253 C64.7285714,81.7277857 73.6452381,88.1935916 83.3261905,88.1935916 C91.4785714,88.1935916 98.6119048,84.0554758 102.942857,77.0724055 L103.452381,76.0378766 L116.7,84.5727403 L116.190476,85.6072692 C109.311905,97.2457198 96.8285714,103.970158 83.5809524,103.970158 Z M105.490476,56.3818269 C102.178571,47.0710665 93.2619048,40.6052606 83.5809524,40.6052606 C73.6452381,40.6052606 64.9833333,47.0710665 61.6714286,56.3818269 L105.490476,56.3818269 Z" id="Shape" fill="#15BCC5"/>
                <path d="M127.909524,103.452893 L127.909524,87.4176949 L167.397619,87.4176949 C171.728571,87.4176949 175.040476,83.7968436 175.040476,79.6587279 C175.040476,75.2619799 171.47381,71.8997609 167.397619,71.8997609 L150.583333,71.8997609 C137.845238,71.6411286 127.4,61.0372071 127.4,48.1055954 C127.4,34.9153515 137.845238,24.3114299 150.838095,24.3114299 L175.55,24.3114299 L175.55,40.3466284 L151.092857,40.3466284 C146.761905,40.3466284 143.45,43.9674797 143.45,48.1055954 C143.45,52.5023434 147.016667,55.8645624 151.092857,55.8645624 L167.652381,55.8645624 C180.645238,55.8645624 191.090476,66.468484 191.090476,79.6587279 C191.090476,92.8489718 180.645238,103.452893 167.652381,103.452893 L127.909524,103.452893 Z" id="Path" fill="#15BCC5"/>
                <path d="M280.766667,103.970158 C259.111905,103.970158 241.788095,86.1245337 241.788095,64.3994261 C241.788095,42.4156863 259.366667,24.8286944 280.766667,24.8286944 C289.17381,24.8286944 297.32619,27.673649 304.204762,32.8462936 L304.204762,3.36221903 L320,3.36221903 L320,64.3994261 C320,86.3831659 302.421429,103.970158 280.766667,103.970158 Z M280.766667,40.8638929 C267.77381,40.8638929 257.328571,51.4678144 257.328571,64.6580583 C257.328571,77.8483022 267.77381,88.4522238 280.766667,88.4522238 C293.759524,88.4522238 304.204762,77.8483022 304.204762,64.6580583 C304.204762,51.4678144 293.759524,40.8638929 280.766667,40.8638929 Z" id="Shape" fill="#15BCC5"/>
                <path d="M34.1571429,84.0554758 L45.6214286,101.125203 L30.5904762,101.125203 C13.0119048,101.125203 0.528571429,92.3317073 0.528571429,69.5720708 L0.528571429,0.7758967 L17.852381,1.5517934 L17.852381,22.5010043 L32.6285714,22.5010043 L46.3857143,39.5707317 L17.852381,39.5707317 L17.852381,69.5720708 C17.852381,79.4000956 21.9285714,84.0554758 30.5904762,84.0554758 L34.1571429,84.0554758 L34.1571429,84.0554758 Z" id="Path" fill="#15BCC5"/>
                <path d="M231.088095,84.0554758 L242.552381,101.125203 L227.521429,101.125203 C209.942857,101.125203 197.459524,92.3317073 197.459524,69.5720708 L197.459524,2.06905787 L214.783333,1.5517934 L214.783333,22.5010043 L229.559524,22.5010043 L243.316667,39.5707317 L214.783333,39.5707317 L214.783333,69.5720708 C214.783333,79.4000956 218.859524,84.0554758 227.521429,84.0554758 L231.088095,84.0554758 L231.088095,84.0554758 Z" id="Path" fill="#15BCC5"/>
            </g>
        </g>
    </g>
</svg>
