<?xml version="1.0" encoding="UTF-8"?>
<svg width="956px" height="1733px" viewBox="0 0 956 1733" version="1.1" xmlns="http://www.w3.org/2000/svg" xmlns:xlink="http://www.w3.org/1999/xlink">
    <title>
        038E0A6D-72AE-430F-A4D1-B589F91F2447
    </title>
    <defs>
        <linearGradient x1="49.998747%" y1="-0.00705917693%" x2="49.998747%" y2="99.9979724%" id="linearGradient-1">
            <stop stop-color="#50E2EA" offset="0%"/>
            <stop stop-color="#FFFFFF" offset="43.65%"/>
            <stop stop-color="#FFFFFF" offset="100%"/>
        </linearGradient>
    </defs>
    <g id="Page-1" stroke="none" stroke-width="1" fill="none" fill-rule="evenodd">
        <g id="logon_screen" transform="translate(-2.000000, -1.000000)">
            <g id="splash_#3_testd" transform="translate(2.000000, 1.000000)">
                <rect id="Rectangle" fill="url(#linearGradient-1)" x="0" y="0" width="956" height="1733"/>
                <path d="M929.657531,465.337851 C929.402815,466.117477 929.148099,467.156979 928.893384,467.936605 C928.383953,469.235982 927.619806,470.535359 926.855659,471.57486 C926.600943,471.834736 926.600943,472.094611 926.346227,472.094611 C926.346227,472.094611 926.346227,472.354487 926.091512,472.354487 C925.836796,472.614362 925.58208,472.874237 925.327365,473.134113 C924.308502,473.913739 923.544355,474.693365 922.270777,475.472991 C921.761345,475.732867 921.50663,475.992742 920.997198,476.252618 C920.487767,476.512493 920.233051,476.772368 919.72362,476.772368 C918.959473,477.032244 918.195326,477.292119 917.685895,477.551995 C917.431179,477.551995 916.921748,477.81187 916.667032,477.81187 C916.157601,477.81187 915.902885,478.071745 915.393454,478.071745 C914.884023,478.331621 914.374591,478.331621 914.119876,478.331621 C913.610444,478.591496 912.846297,478.591496 912.336866,478.591496 C900.874661,480.670499 887.884163,478.071745 887.884163,478.071745 C841.780628,498.082151 801.79027,481.969876 801.79027,481.969876 C780.139439,488.466761 765.111215,479.630998 765.111215,479.630998 C763.328205,480.670499 761.545195,481.710001 759.762186,482.489627 C754.158441,485.348257 748.554697,487.687135 742.950952,489.506263 C685.894645,508.996918 628.838337,484.308755 628.838337,484.308755 C580.697077,505.098787 545.2916,482.229752 545.2916,482.229752 C532.046386,492.624768 508.612545,486.647634 508.612545,486.647634 C460.21657,505.098787 429.395975,478.851372 428.122397,477.81187 C428.122397,477.81187 428.122397,477.81187 428.122397,477.81187 C395.518793,489.246388 381.254716,475.213116 381,462.998972 C381,461.179844 381.254716,459.100841 382.018863,457.541589 C382.273578,456.761963 382.528294,456.242212 382.78301,455.722461 C388.64147,444.547819 405.962135,439.870062 422.263937,444.807694 C452.829816,429.21517 485.43342,444.028068 485.43342,444.028068 C493.839037,413.362771 525.93321,420.639282 525.93321,420.639282 C526.697357,401.928253 543.763306,400.628876 543.763306,400.628876 C524.404916,362.167317 557.008521,348.134046 557.008521,348.134046 C566.178285,317.208873 600.819614,312.790991 617.885563,326.044637 C690.224811,313.830493 703.979456,370.743205 703.979456,370.743205 C748.299981,339.818033 769.441381,376.72034 769.441381,376.72034 C793.129937,378.019717 801.026123,395.171493 801.026123,395.171493 C846.110794,388.154857 857.572999,432.333675 857.572999,432.333675 C876.167242,424.017662 891.959613,439.870062 891.959613,439.870062 C904.695396,432.59355 919.468904,438.050934 926.091512,448.705825 C929.402815,453.383582 930.676393,459.100841 929.657531,465.337851 Z" id="Path" fill="#FFFFFF" fill-rule="nonzero" opacity="0.7"/>
                <path d="M394.274855,343.858746 C393.511206,346.470406 392.747558,349.082067 391.47481,351.432561 C391.47481,351.432561 391.47481,351.432561 391.47481,351.432561 C372.892694,388.518138 297.80058,362.401535 297.80058,362.401535 C297.80058,362.401535 247.399771,392.435629 149.907298,365.535527 C149.907298,365.535527 112.233966,375.19867 88.5608588,376.765667 C64.8877516,378.332663 18.5597356,372.58701 16.0142402,342.814082 C16.0142402,342.29175 16.0142402,341.508252 16.0142402,340.98592 C15.5051411,325.315958 28.7417171,319.570305 40.4509959,317.480977 C40.4509959,317.480977 40.4509959,317.480977 40.4509959,317.480977 C49.6147793,315.91398 57.7603645,316.697478 57.7603645,316.697478 C57.7603645,316.697478 64.6332021,274.649747 113.761263,269.16526 C113.761263,269.16526 131.325181,222.677706 173.325855,241.742826 C173.325855,241.742826 203.8718,183.241634 267.254635,227.63986 C267.254635,227.63986 303.909769,218.237883 309.509859,256.890456 C309.509859,256.890456 347.18319,248.794309 352.274181,293.976033 C352.274181,293.976033 380.783729,295.281864 391.72936,314.085818 C395.802152,321.137301 397.583999,330.800444 394.274855,343.858746 Z" id="Path" fill="#FFFFFF" fill-rule="nonzero" opacity="0.9"/>
                <path d="M892,184.919238 C892.253037,192.924227 866.000293,189.309071 866.000293,189.309071 C866.000293,189.309071 856.569695,196.281158 830.826713,193.957129 C830.826713,193.957129 801.260516,205.577275 756.146577,196.797609 C756.146577,196.797609 743.912288,201.703893 724.541331,200.15454 C724.541331,200.15454 693.445848,207.901304 661.840602,197.830511 C660.566197,197.31406 631,197.830511 631,189.309071 C631,188.534395 631.254881,188.017944 631.509762,187.243267 C631.509762,187.243267 631.509762,187.243267 631.509762,187.243267 C633.293929,182.595209 641.705002,178.721827 652.919767,177.4307 L652.919767,177.4307 C659.801554,176.397798 667.447985,176.397798 675.349296,177.688925 C675.349296,177.688925 680.701797,170.458612 693.190967,173.040867 C693.190967,173.040867 718.169306,155.997986 766.341817,164.261201 C766.341817,164.261201 792.849442,162.970074 801.770278,177.4307 C801.770278,177.4307 830.06207,164.519426 866.255174,175.623121 C866.255174,175.623121 881.802916,173.040867 888.939584,179.496503 C889.959108,180.27118 890.723751,181.562307 891.233513,182.595209 C891.743275,183.628111 892,184.402787 892,184.919238 Z" id="Path" fill="#FFFFFF" fill-rule="nonzero" opacity="0.9"/>
                <path d="M534.861504,97.9408363 C534.861504,98.2015688 534.861504,98.4623013 534.861504,98.9837663 C534.861504,99.5052313 534.606566,99.7659638 534.606566,100.287429 C534.606566,100.287429 534.606566,100.548161 534.606566,100.548161 C534.606566,100.808894 534.351629,101.069626 534.351629,101.591091 C534.351629,101.591091 534.351629,101.591091 534.351629,101.851824 C534.096691,102.112556 534.096691,102.373289 533.841753,102.634021 C533.586815,103.155486 533.331878,103.416219 532.822002,103.937684 C532.567064,104.198416 532.312126,104.459149 532.057189,104.719881 C532.057189,104.719881 531.802251,104.980614 531.802251,104.980614 C531.547313,105.241346 531.292375,105.502079 531.037438,105.762811 C530.7825,106.023544 530.272624,106.284276 530.017686,106.545009 C528.742998,107.587939 527.213371,108.370136 525.683744,108.891601 C524.918931,109.152334 524.409055,109.413066 523.644242,109.673799 C523.644242,109.673799 523.644242,109.673799 523.644242,109.673799 C521.60474,110.455996 519.565238,110.977461 517.525736,111.498926 C516.760922,111.759659 515.996109,111.759659 515.486233,112.020391 C515.231296,112.020391 515.231296,112.020391 514.976358,112.020391 C514.466482,112.020391 513.956607,112.281124 513.191793,112.281124 C509.877602,112.802589 506.308473,113.324054 503.24922,113.584786 C502.739345,113.584786 502.229469,113.584786 501.719594,113.584786 C500.699842,113.584786 499.680091,113.584786 498.915278,113.584786 C498.66034,113.584786 498.150465,113.584786 497.895527,113.584786 C497.640589,113.584786 497.130714,113.584786 496.875776,113.584786 C493.306647,113.584786 491.267145,113.584786 491.267145,113.584786 C491.267145,113.584786 462.969052,133.921921 411.471622,119.581634 C411.471622,119.581634 393.880915,124.274819 379.349462,114.366984 C379.349462,114.366984 379.349462,114.366984 379.349462,114.366984 C378.074773,115.409914 349.77668,138.093641 304.397757,113.845519 C304.397757,113.845519 277.119415,117.756506 272.785473,104.719881 C272.785473,104.459149 272.785473,104.459149 272.530535,104.198416 C271.510784,100.548161 272.020659,96.8979063 273.550286,93.2476513 C277.884228,82.8183514 291.39593,73.9534465 308.476761,76.821504 C313.575516,71.606854 321.988463,67.6958665 330.656347,73.171249 C330.656347,73.171249 343.403236,13.2027745 410.196933,25.7179344 C410.196933,25.7179344 460.419674,18.9388895 462.204239,56.2236366 C462.204239,56.2236366 491.522083,58.5702291 507.328225,75.5178415 C520.839927,76.0393065 536.646069,82.5576189 534.861504,97.9408363 Z" id="Path" fill="#FFFFFF" fill-rule="nonzero" opacity="0.76"/>
            </g>
            <g id="surface1" transform="translate(220.000000, 832.000000)">
                <path style="stroke:none;fill-rule:nonzero;fill:#043b5d;fill-opacity:1" d="M 377.386719 102.328125 C 356.617188 102.328125 339.925781 85.429688 339.925781 64.8125 C 339.925781 44.199219 356.800781 27.300781 377.386719 27.300781 C 385.546875 27.300781 393.335938 29.898438 399.824219 34.730469 L 399.824219 6.871094 L 414.847656 6.871094 L 414.847656 64.8125 C 414.847656 85.429688 397.972656 102.328125 377.386719 102.328125 Z M 377.386719 42.15625 C 364.960938 42.15625 354.945312 52.1875 354.945312 64.628906 C 354.945312 77.070312 364.960938 87.101562 377.386719 87.101562 C 389.8125 87.101562 399.824219 77.070312 399.824219 64.628906 C 399.824219 52.371094 389.625 42.15625 377.386719 42.15625 Z M 377.386719 42.15625 "/>
                <path style="stroke:none;fill-rule:nonzero;fill:#043b5d;fill-opacity:1" d="M 421.894531 64.628906 L 421.894531 6.6875 L 436.914062 6.6875 L 436.914062 34.542969 C 443.40625 29.714844 451.195312 27.113281 459.355469 27.113281 C 480.125 27.113281 496.816406 44.015625 496.816406 64.628906 C 496.816406 85.242188 479.9375 102.144531 459.355469 102.144531 C 438.769531 102.144531 421.894531 85.429688 421.894531 64.628906 Z M 436.914062 64.628906 C 436.914062 77.070312 446.929688 87.101562 459.355469 87.101562 C 471.777344 87.101562 481.792969 77.070312 481.792969 64.628906 C 481.792969 52.1875 471.777344 42.15625 459.355469 42.15625 C 447.113281 42.15625 436.914062 52.371094 436.914062 64.628906 Z M 436.914062 64.628906 "/>
                <g style="fill:#043b5d;fill-opacity:1">
                    <use xlink:href="#glyph0-1" x="441.75" y="20.019113"/>
                </g>
                <path style="stroke:none;fill-rule:nonzero;fill:#043b5d;fill-opacity:1" d="M 264.632812 78.371094 C 263.890625 78.371094 262.964844 78 262.410156 77.441406 L 253.136719 68.15625 C 251.839844 66.855469 251.839844 64.8125 253.136719 63.515625 C 254.433594 62.214844 256.472656 62.214844 257.773438 63.515625 L 264.632812 70.386719 L 280.769531 54.230469 C 282.066406 52.929688 284.105469 52.929688 285.402344 54.230469 C 286.703125 55.527344 286.703125 57.570312 285.402344 58.871094 L 267.042969 77.257812 C 266.304688 78 265.375 78.371094 264.632812 78.371094 Z M 264.632812 78.371094 "/>
                <path style="stroke:none;fill-rule:nonzero;fill:#15BCC5;fill-opacity:1" d="M 79.742188 102.328125 C 58.972656 102.328125 42.28125 85.429688 42.28125 64.8125 C 42.28125 44.199219 58.972656 27.113281 79.742188 27.113281 C 100.511719 27.113281 117.203125 44.015625 117.203125 64.628906 L 117.203125 72.242188 L 58.601562 72.242188 C 61.753906 81.15625 70.285156 87.101562 79.742188 87.101562 C 87.53125 87.101562 94.578125 83.199219 98.660156 76.699219 L 99.214844 75.769531 L 112.011719 83.941406 L 111.453125 84.871094 C 104.40625 95.828125 92.539062 102.328125 79.742188 102.328125 Z M 100.882812 57.199219 C 97.730469 48.285156 89.199219 42.34375 79.742188 42.34375 C 70.285156 42.34375 61.753906 48.472656 58.601562 57.199219 Z M 100.882812 57.199219 "/>
                <path style="stroke:none;fill-rule:nonzero;fill:#15BCC5;fill-opacity:1" d="M 122.394531 101.769531 L 122.394531 86.730469 L 160.414062 86.730469 C 164.492188 86.730469 167.832031 83.386719 167.832031 79.300781 C 167.832031 75.214844 164.492188 71.871094 160.414062 71.871094 L 144.09375 71.871094 C 131.851562 71.6875 121.839844 61.65625 121.839844 49.214844 C 121.839844 36.769531 132.039062 26.558594 144.464844 26.558594 L 168.015625 26.558594 L 168.015625 41.601562 L 144.464844 41.601562 C 140.382812 41.601562 137.046875 44.941406 137.046875 49.027344 C 137.046875 53.113281 140.382812 56.457031 144.464844 56.457031 L 160.414062 56.457031 C 172.835938 56.457031 183.035156 66.671875 183.035156 79.113281 C 183.035156 91.558594 172.835938 101.769531 160.414062 101.769531 Z M 122.394531 101.769531 "/>
                <path style="stroke:none;fill-rule:nonzero;fill:#15BCC5;fill-opacity:1" d="M 269.457031 102.328125 C 248.683594 102.328125 231.996094 85.429688 231.996094 64.8125 C 231.996094 44.199219 248.871094 27.300781 269.457031 27.300781 C 277.617188 27.300781 285.402344 29.898438 291.894531 34.730469 L 291.894531 6.871094 L 306.917969 6.871094 L 306.917969 64.8125 C 306.917969 85.429688 290.226562 102.328125 269.457031 102.328125 Z M 269.457031 42.15625 C 257.03125 42.15625 247.015625 52.1875 247.015625 64.628906 C 247.015625 77.070312 257.03125 87.101562 269.457031 87.101562 C 281.878906 87.101562 291.894531 77.070312 291.894531 64.628906 C 291.894531 52.371094 281.878906 42.15625 269.457031 42.15625 Z M 269.457031 42.15625 "/>
                <path style="stroke:none;fill-rule:nonzero;fill:#15BCC5;fill-opacity:1" d="M 32.453125 85.984375 L 43.394531 102.144531 L 28.929688 102.144531 C 12.054688 102.144531 0.183594 93.785156 0.183594 72.242188 L 0.183594 7.058594 L 16.691406 7.800781 L 16.691406 27.671875 L 30.96875 27.671875 L 44.136719 43.828125 L 16.691406 43.828125 L 16.691406 72.242188 C 16.691406 81.527344 20.769531 85.984375 28.929688 85.984375 Z M 32.453125 85.984375 "/>
                <path style="stroke:none;fill-rule:nonzero;fill:#15BCC5;fill-opacity:1" d="M 221.609375 85.984375 L 232.550781 102.144531 L 218.085938 102.144531 C 201.210938 102.144531 189.34375 93.785156 189.34375 72.242188 L 189.34375 8.171875 L 205.847656 7.613281 L 205.847656 27.484375 L 220.125 27.484375 L 233.292969 43.644531 L 205.660156 43.644531 L 205.660156 72.058594 C 205.660156 81.34375 209.742188 85.800781 217.902344 85.800781 L 221.609375 85.800781 Z M 221.609375 85.984375 "/>
                <path style="fill:none;stroke-width:3;stroke-linecap:butt;stroke-linejoin:miter;stroke:#0f84a9;stroke-opacity:1;stroke-miterlimit:4" d="M 175.900277 3.600962 L 175.900277 54.798978 " transform="matrix(1.854478,0,0,1.857143,0,0)"/>
            </g>
        </g>
    </g>
</svg>
