<?xml version="1.0" encoding="UTF-8"?>
<svg width="33px" height="33px" viewBox="0 0 33 33" version="1.1" xmlns="http://www.w3.org/2000/svg" xmlns:xlink="http://www.w3.org/1999/xlink">
    <title>4CD288BB-FF99-49A0-851F-7728151411CB</title>
    <g id="Covid-Screening" stroke="none" stroke-width="1" fill="none" fill-rule="evenodd">
        <g id="COVID_screening-tool_1" transform="translate(-32.000000, -394.000000)" fill="#0F84A9" fill-rule="nonzero">
            <g id="stop_icon" transform="translate(32.000000, 394.000000)">
                <path d="M16.5,33 C12.0966641,33 7.94351782,31.3 4.84116755,28.15 C-1.61372252,21.7 -1.61372252,11.25 4.84116755,4.8 C7.94351782,1.7 12.0966641,0 16.5,0 C20.9033359,0 25.0564822,1.7 28.1588324,4.85 C34.6137225,11.3 34.6137225,21.75 28.1588324,28.2 C25.0564822,31.3 20.9033359,33 16.5,33 Z M16.5,4.5 C13.2975739,4.5 10.2452616,5.75 7.99355572,8 C3.28999242,12.7 3.28999242,20.3 7.99355572,25 C10.2452616,27.25 13.2975739,28.5 16.5,28.5 C19.7024261,28.5 22.7547384,27.25 25.0064443,25 C29.7100076,20.3 29.7100076,12.7 25.0064443,8 C22.7547384,5.75 19.7024261,4.5 16.5,4.5 Z" id="Shape"></path>
                <polygon id="Rectangle" transform="translate(16.499750, 16.499950) rotate(-45.000000) translate(-16.499750, -16.499950) " points="2.24988666 14.2499716 30.7496133 14.2499716 30.7496133 18.7499284 2.24988666 18.7499284"></polygon>
            </g>
        </g>
    </g>
</svg>