<?xml version="1.0" encoding="utf-8"?>
<!-- Generator: Adobe Illustrator 24.1.3, SVG Export Plug-In . SVG Version: 6.00 Build 0)  -->
<!DOCTYPE svg PUBLIC "-//W3C//DTD SVG 1.1//EN" "http://www.w3.org/Graphics/SVG/1.1/DTD/svg11.dtd" [
	<!ENTITY ns_extend "http://ns.adobe.com/Extensibility/1.0/">
	<!ENTITY ns_ai "http://ns.adobe.com/AdobeIllustrator/10.0/">
	<!ENTITY ns_graphs "http://ns.adobe.com/Graphs/1.0/">
	<!ENTITY ns_vars "http://ns.adobe.com/Variables/1.0/">
	<!ENTITY ns_imrep "http://ns.adobe.com/ImageReplacement/1.0/">
	<!ENTITY ns_sfw "http://ns.adobe.com/SaveForWeb/1.0/">
	<!ENTITY ns_custom "http://ns.adobe.com/GenericCustomNamespace/1.0/">
	<!ENTITY ns_adobe_xpath "http://ns.adobe.com/XPath/1.0/">
]>
<svg version="1.1" id="Layer_1" xmlns:x="&ns_extend;" xmlns:i="&ns_ai;" xmlns:graph="&ns_graphs;"
	 xmlns="http://www.w3.org/2000/svg" xmlns:xlink="http://www.w3.org/1999/xlink" x="0px" y="0px" viewBox="0 0 80 80"
	 style="enable-background:new 0 0 80 80;" xml:space="preserve">
<style type="text/css">
	.st0{fill:#0F84A9;}
</style>
<metadata>
	<sfw  xmlns="&ns_sfw;">
		<slices></slices>
		<sliceSourceBounds  bottomLeftOrigin="true" height="59.2" width="44.5" x="16.2" y="10.7"></sliceSourceBounds>
	</sfw>
</metadata>
<g id="NewGroup15-0">
	<g>
		<path class="st0" d="M24.4,34h28.2c1.5,0,2.7-1.2,2.7-2.7c0-0.7-0.3-1.4-0.8-1.9c-0.5-0.5-1.2-0.8-1.9-0.8H24.4
			c-1.5,0-2.7,1.2-2.7,2.7c0,0.7,0.3,1.4,0.8,1.9C23,33.7,23.7,34,24.4,34L24.4,34z"/>
		<path class="st0" d="M41.2,50.6h-5.3c-1.5,0-2.7,1.2-2.7,2.7c0,0.7,0.3,1.4,0.8,1.9c0.5,0.5,1.2,0.8,1.9,0.8h5.3
			c1.5,0,2.7-1.2,2.7-2.7c0-0.7-0.3-1.4-0.8-1.9C42.6,50.9,41.9,50.6,41.2,50.6L41.2,50.6z"/>
		<path class="st0" d="M41.2,57.1h-5.3c-1.5,0-2.7,1.2-2.7,2.7c0,0.7,0.3,1.4,0.8,1.9c0.5,0.5,1.2,0.8,1.9,0.8h5.3
			c1.5,0,2.7-1.2,2.7-2.7c0-0.7-0.3-1.4-0.8-1.9C42.6,57.4,41.9,57.1,41.2,57.1L41.2,57.1z"/>
		<path class="st0" d="M24.4,56.1h5.3c0.7,0,1.4-0.3,1.9-0.8c0.5-0.5,0.8-1.2,0.8-1.9c0-1.5-1.2-2.7-2.7-2.7h-5.3
			c-0.7,0-1.4,0.3-1.9,0.8c-0.5,0.5-0.8,1.2-0.8,1.9C21.7,54.9,22.9,56.1,24.4,56.1L24.4,56.1z"/>
		<path class="st0" d="M24.4,62.6h5.3c0.7,0,1.4-0.3,1.9-0.8c0.5-0.5,0.8-1.2,0.8-1.9c0-1.5-1.2-2.7-2.7-2.7h-5.3
			c-0.7,0-1.4,0.3-1.9,0.8c-0.5,0.5-0.8,1.2-0.8,1.9C21.7,61.4,22.9,62.6,24.4,62.6L24.4,62.6z"/>
		<path class="st0" d="M52.6,38.1h-5.3c-1.5,0-2.7,1.2-2.7,2.7c0,0.7,0.3,1.4,0.8,1.9c0.5,0.5,1.2,0.8,1.9,0.8h5.3
			c1.5,0,2.7-1.2,2.7-2.7c0-0.7-0.3-1.4-0.8-1.9C54,38.4,53.3,38.1,52.6,38.1L52.6,38.1z"/>
		<path class="st0" d="M52.6,50.6h-5.3c-1.5,0-2.7,1.2-2.7,2.7c0,0.7,0.3,1.4,0.8,1.9c0.5,0.5,1.2,0.8,1.9,0.8h5.3
			c1.5,0,2.7-1.2,2.7-2.7c0-0.7-0.3-1.4-0.8-1.9C54,50.9,53.3,50.6,52.6,50.6L52.6,50.6z"/>
		<path class="st0" d="M41.2,44.1h-5.3c-1.5,0-2.7,1.2-2.7,2.7c0,0.7,0.3,1.4,0.8,1.9c0.5,0.5,1.2,0.8,1.9,0.8h5.3
			c1.5,0,2.7-1.2,2.7-2.7c0-0.7-0.3-1.4-0.8-1.9C42.6,44.4,41.9,44.1,41.2,44.1L41.2,44.1z"/>
		<path class="st0" d="M52.6,44.1h-5.3c-1.5,0-2.7,1.2-2.7,2.7c0,0.7,0.3,1.4,0.8,1.9c0.5,0.5,1.2,0.8,1.9,0.8h5.3
			c1.5,0,2.7-1.2,2.7-2.7c0-0.7-0.3-1.4-0.8-1.9C54,44.4,53.3,44.1,52.6,44.1L52.6,44.1z"/>
		<path class="st0" d="M52.6,57.1h-5.3c-1.5,0-2.7,1.2-2.7,2.7c0,0.7,0.3,1.4,0.8,1.9c0.5,0.5,1.2,0.8,1.9,0.8h5.3
			c1.5,0,2.7-1.2,2.7-2.7c0-0.7-0.3-1.4-0.8-1.9C54,57.4,53.3,57.1,52.6,57.1L52.6,57.1z"/>
		<path class="st0" d="M18.1,13.3c0-0.8,0.6-1.4,1.4-1.4h25.1v9.5c0,1.7,1.4,3.1,3.1,3.1h11.2V66c0,0.8-0.6,1.4-1.4,1.4h-38
			c-0.8,0-1.4-0.6-1.4-1.4V13.3L18.1,13.3z M46.4,13l11,9.7h-9.8c-0.7,0-1.2-0.5-1.2-1.2V13L46.4,13z M16.2,13.3V66
			c0,1.8,1.5,3.3,3.3,3.3h38c1.8,0,3.3-1.5,3.3-3.3V23.5c0,0,0,0,0,0c0,0,0,0,0-0.1c0,0,0,0,0,0c0,0,0,0,0-0.1c0,0,0,0,0,0
			c0,0,0,0,0-0.1c0,0,0,0,0,0c0,0,0,0,0-0.1c0,0,0,0,0,0c0-0.1-0.1-0.1-0.1-0.2c0,0,0,0,0,0c0,0,0,0-0.1-0.1c0,0,0,0,0,0
			c0,0,0,0,0,0L46.2,10.3c0,0,0,0,0,0c0,0,0,0,0,0c0,0,0,0,0,0c0,0,0,0,0,0c0,0,0,0-0.1,0c0,0,0,0,0,0c0,0,0,0-0.1,0c0,0,0,0,0,0
			c0,0-0.1,0-0.1,0c0,0,0,0,0,0c0,0-0.1,0-0.1,0c0,0,0,0,0,0c0,0,0,0-0.1,0c0,0,0,0,0,0H19.5C17.7,10,16.2,11.5,16.2,13.3L16.2,13.3
			z"/>
	</g>
</g>
</svg>
