<?xml version="1.0" encoding="UTF-8"?>
<svg width="32px" height="28px" viewBox="0 0 32 28" version="1.1" xmlns="http://www.w3.org/2000/svg" xmlns:xlink="http://www.w3.org/1999/xlink">
    <title>telephone_icon–blue</title>
    <g id="user_lab_manager" stroke="none" stroke-width="1" fill="none" fill-rule="evenodd">
        <g id="lab_manager_test_resulted-copy-2" transform="translate(-1388.000000, -1700.000000)" fill="#043B5D">
            <g id="scueduling-copy-5" transform="translate(1366.500000, 378.000000)">
                <g id="Test--group-1-Copy-10" transform="translate(22.500000, 1187.000000)">
                    <g id="telephone_icon–blue" transform="translate(0.000000, 135.500000)">
                        <path d="M1.31126911,12.5353523 C2.12914925,13.1621199 2.43047352,13.1173508 3.37749264,12.6248905 L6.47682793,11.1027406 C8.58609779,9.98351274 8.32781985,10.9236642 8.41391249,8.05844078 C5.3145772,8.72997751 2.86093676,9.89397451 0.579481606,11.4608935 C0.708620577,11.7295082 0.966898518,12.2667376 1.31126911,12.5353523 Z M28.6456846,12.5353523 C27.8278044,13.1621199 27.5264802,13.1173508 26.579461,12.6248905 L23.4801257,11.1027406 C21.3708559,9.98351274 21.6291338,10.9236642 21.5430412,8.05844078 C24.6423765,8.72997751 27.0960169,9.89397451 29.3774721,11.4608935 C29.2483331,11.7295082 28.9900552,12.2667376 28.6456846,12.5353523 Z M21.5,7.20782758 C21.5,7.34213493 21.5,7.47644228 21.5430412,7.61074962 C24.7284691,8.32705547 27.2682022,9.53582159 29.63575,11.1475097 C29.7218427,11.0579715 29.764889,10.9684333 29.764889,10.878895 C33.2516412,-3.62629835 -3.25164119,-3.62629835 0.235111018,10.878895 C0.235111018,10.9236642 0.321203665,11.0579715 0.364249988,11.1475097 C2.68875146,9.53582159 5.22848455,8.32705547 8.45695882,7.61074962 C8.45695882,7.47644228 8.45695882,7.34213493 8.45695882,7.20782758 C8.54305147,5.77521589 8.62914411,5.64090854 9.74834853,5.37229385 C13.4503324,4.38737331 16.5066213,4.38737331 20.2086052,5.37229385 C21.3278096,5.68567766 21.4139022,5.81998501 21.5,7.20782758 Z" id="Shape"></path>
                        <path d="M1.01556536,23.7268481 C1.01556536,25.5598132 1.53441078,27 3.6962667,27 C7.76055582,27 11.4357109,27 15.5,27 C19.5642891,27 23.2394442,27 27.3037333,27 C29.4223521,27 29.9844346,25.5598132 29.9844346,23.7268481 C29.9844346,18.8825834 30.3735687,20.017276 27.2604962,14.9984432 C26.0066198,12.99091 23.4556298,13.3836883 21.6396708,11.9435015 C20.9478769,11.4197972 20.5587428,10.7215248 20.5155057,9.84868426 L20.4290315,8.62670757 C20.4290315,7.7975091 20.0398974,7.49201493 19.3048664,7.31744683 L18.2239385,7.05559468 C17.0565363,6.88102658 17.0132991,7.14287873 17.0132991,7.9720772 L17.0132991,9.63047414 C17.0132991,10.0668944 16.8403507,10.2414625 16.4512166,10.2414625 C16.1053197,10.2414625 15.8026598,10.2414625 15.5,10.2414625 C15.1973402,10.2414625 14.8514432,10.2414625 14.5487834,10.2414625 C14.1596493,10.2414625 13.9867009,10.0668944 13.9867009,9.63047414 L13.9867009,7.9720772 C13.9867009,7.0992367 13.9434637,6.88102658 12.7760615,7.05559468 L11.6951336,7.31744683 C10.9601026,7.49201493 10.5709685,7.75386708 10.5709685,8.62670757 L10.4844943,9.84868426 C10.4412572,10.7215248 10.0521231,11.4197972 9.3603292,11.9435015 C7.54437023,13.3836883 4.99338025,12.99091 3.73950382,14.9984432 C0.626431298,20.017276 1.01556536,18.8825834 1.01556536,23.7268481 Z M15.4567629,13.5146143 C18.3968869,13.5146143 20.7749284,15.9149257 20.7749284,18.8825834 C20.7749284,21.8502411 18.3968869,24.2505524 15.4567629,24.2505524 C12.559876,24.2505524 10.1385973,21.8502411 10.1385973,18.8825834 C10.1385973,15.9149257 12.5166388,13.5146143 15.4567629,13.5146143 Z" id="Shape"></path>
                        <path d="M12,18.5 C12,20.4545455 13.5909091,22 15.5,22 C17.4545455,22 19,20.4090909 19,18.5 C19,16.5454545 17.4090909,15 15.5,15 C13.5909091,15 12,16.5454545 12,18.5 L12,18.5 Z" id="Path"></path>
                    </g>
                </g>
            </g>
        </g>
    </g>
</svg>