<?xml version="1.0" encoding="UTF-8"?>
<svg width="187px" height="42px" viewBox="0 0 187 42" version="1.1" xmlns="http://www.w3.org/2000/svg" xmlns:xlink="http://www.w3.org/1999/xlink">
    <title>C11B9724-6709-42B8-882E-355F1FDA682F</title>
    <g id="Covid-Screening" stroke="none" stroke-width="1" fill="none" fill-rule="evenodd">
        <g id="COVID_screening-tool_1" transform="translate(-90.000000, -29.000000)">
            <g id="Testd|ID_logo" transform="translate(90.000000, 29.000000)">
                <path d="M100.24,27.09 C99.96,27.09 99.61,26.95 99.4,26.74 L95.9,23.24 C95.41,22.75 95.41,21.98 95.9,21.49 C96.39,21 97.16,21 97.65,21.49 L100.24,24.08 L106.33,17.99 C106.82,17.5 107.59,17.5 108.08,17.99 C108.57,18.48 108.57,19.25 108.08,19.74 L101.15,26.67 C100.87,26.95 100.59,27.09 100.24,27.09 Z" id="Path" fill="#043B5D" fill-rule="nonzero"></path>
                <path d="M30.45,36.12 C22.61,36.12 16.31,29.75 16.31,21.98 C16.31,14.21 22.68,7.84 30.45,7.84 C38.22,7.84 44.59,14.21 44.59,21.98 L44.59,24.85 L22.47,24.85 C23.66,28.21 26.88,30.45 30.45,30.45 C33.39,30.45 36.05,28.98 37.59,26.53 L37.8,26.18 L42.63,29.26 L42.42,29.61 C39.83,33.6 35.35,36.12 30.45,36.12 Z M38.43,19.04 C37.24,15.68 34.02,13.44 30.45,13.44 C26.88,13.44 23.66,15.75 22.47,19.04 L38.43,19.04 Z" id="Shape" fill="#FFFFFF" fill-rule="nonzero"></path>
                <path d="M46.62,35.91 L46.62,30.24 L60.97,30.24 C62.51,30.24 63.77,28.98 63.77,27.44 C63.77,25.9 62.51,24.64 60.97,24.64 L54.81,24.64 C50.19,24.57 46.41,20.79 46.41,16.1 C46.41,11.41 50.26,7.56 54.95,7.56 L63.84,7.56 L63.84,13.23 L54.95,13.23 C53.41,13.23 52.15,14.49 52.15,16.03 C52.15,17.57 53.41,18.83 54.95,18.83 L60.97,18.83 C65.66,18.83 69.51,22.68 69.51,27.37 C69.51,32.06 65.66,35.91 60.97,35.91 L46.62,35.91 L46.62,35.91 Z" id="Path" fill="#FFFFFF" fill-rule="nonzero"></path>
                <path d="M102.13,36.12 C94.29,36.12 87.99,29.75 87.99,21.98 C87.99,14.21 94.36,7.84 102.13,7.84 C105.21,7.84 108.15,8.82 110.6,10.64 L110.6,0.14 L116.27,0.14 L116.27,21.98 C116.27,29.75 109.9,36.12 102.13,36.12 Z M102.13,13.44 C97.44,13.44 93.66,17.22 93.66,21.91 C93.66,26.6 97.44,30.38 102.13,30.38 C106.82,30.38 110.6,26.6 110.6,21.91 C110.6,17.22 106.75,13.44 102.13,13.44 Z" id="Shape" fill="#FFFFFF" fill-rule="nonzero"></path>
                <path d="M12.6,29.96 L16.73,36.05 L11.27,36.05 C4.9,36.05 0.42,32.9 0.42,24.78 L0.42,0.14 L6.65,0.42 L6.65,7.91 L12.04,7.91 L17.01,14 L6.65,14 L6.65,24.71 C6.65,28.21 8.19,29.89 11.27,29.89 L12.6,29.89 L12.6,29.96 Z" id="Path" fill="#FFFFFF" fill-rule="nonzero"></path>
                <path d="M84.07,29.96 L88.2,36.05 L82.74,36.05 C76.37,36.05 71.89,32.9 71.89,24.78 L71.89,0.63 L78.12,0.42 L78.12,7.91 L83.51,7.91 L88.48,14 L78.05,14 L78.05,24.71 C78.05,28.21 79.59,29.89 82.67,29.89 L84.07,29.89 L84.07,29.96 Z" id="Path" fill="#FFFFFF" fill-rule="nonzero"></path>
                <line x1="123.55" y1="0.07" x2="123.55" y2="36.05" id="Path" stroke="#043B5D" stroke-width="2.1"></line>
                <path d="M154.21,8.05 L154.21,28.14 C154.21,32.55 153.09,35.84 150.78,38.01 C148.47,40.18 145.11,41.23 140.7,41.23 C138.39,41.23 136.15,40.95 134.05,40.39 C131.95,39.83 130.2,38.99 128.87,37.94 L131.67,32.9 C132.72,33.74 133.98,34.37 135.52,34.93 C137.06,35.42 138.6,35.7 140.21,35.7 C142.66,35.7 144.41,35.14 145.6,34.09 C146.72,32.97 147.35,31.36 147.35,29.12 L147.35,28 C145.53,30.03 143.01,31.01 139.72,31.01 C137.48,31.01 135.45,30.52 133.63,29.54 C131.81,28.56 130.34,27.23 129.29,25.41 C128.24,23.66 127.68,21.63 127.68,19.32 C127.68,17.01 128.24,14.98 129.29,13.23 C130.34,11.48 131.81,10.08 133.63,9.1 C135.45,8.12 137.48,7.63 139.72,7.63 C143.22,7.63 145.88,8.75 147.7,11.06 L147.7,7.98 L154.21,7.98 L154.21,8.05 Z M145.53,23.66 C146.72,22.54 147.28,21.14 147.28,19.39 C147.28,17.64 146.72,16.17 145.53,15.12 C144.34,14 142.8,13.51 140.98,13.51 C139.09,13.51 137.62,14.07 136.43,15.12 C135.24,16.24 134.61,17.64 134.61,19.39 C134.61,21.14 135.24,22.61 136.43,23.66 C137.62,24.78 139.16,25.27 140.98,25.27 C142.87,25.27 144.34,24.71 145.53,23.66 Z" id="Shape" fill="#043B5D" fill-rule="nonzero"></path>
                <path d="M164.29,33.74 C162.12,32.55 160.37,31.01 159.11,28.91 C157.85,26.88 157.22,24.5 157.22,21.91 C157.22,19.32 157.85,16.94 159.11,14.91 C160.37,12.88 162.05,11.27 164.29,10.08 C166.46,8.89 168.98,8.33 171.78,8.33 C174.58,8.33 177.03,8.89 179.2,10.08 C181.37,11.27 183.12,12.81 184.31,14.91 C185.57,16.94 186.2,19.32 186.2,21.91 C186.2,24.5 185.57,26.88 184.31,28.91 C183.05,30.94 181.37,32.55 179.2,33.74 C177.03,34.93 174.51,35.49 171.78,35.49 C169.05,35.49 166.53,34.93 164.29,33.74 Z M176.61,27.23 C177.87,25.9 178.5,24.15 178.5,21.91 C178.5,19.67 177.87,17.92 176.61,16.59 C175.35,15.26 173.74,14.63 171.78,14.63 C169.82,14.63 168.21,15.26 166.95,16.59 C165.69,17.92 165.06,19.67 165.06,21.91 C165.06,24.15 165.69,25.9 166.95,27.23 C168.21,28.56 169.82,29.19 171.78,29.19 C173.74,29.19 175.35,28.56 176.61,27.23 Z" id="Shape" fill="#043B5D" fill-rule="nonzero"></path>
            </g>
        </g>
    </g>
</svg>