<?xml version="1.0" encoding="UTF-8"?>
<svg width="447px" height="140px" viewBox="0 0 447 140" version="1.1" xmlns="http://www.w3.org/2000/svg" xmlns:xlink="http://www.w3.org/1999/xlink">
    <title>B9F92C23-0939-450E-8200-F548C5E1A533</title>
    <g id="Page-1" stroke="none" stroke-width="1" fill="none" fill-rule="evenodd">
        <g id="logon_screen" transform="translate(-291.000000, -786.000000)" fill-rule="nonzero">
            <g id="Testd_logo" transform="translate(291.000000, 786.000000)">
                <path d="M385.224932,105 C384.140921,105 382.785908,104.467652 381.9729,103.669131 L368.422764,90.3604436 C366.525745,88.4972274 366.525745,85.5693161 368.422764,83.7060998 C370.319783,81.8428835 373.300813,81.8428835 375.197832,83.7060998 L385.224932,93.5545287 L408.802168,70.3974122 C410.699187,68.5341959 413.680217,68.5341959 415.577236,70.3974122 C417.474255,72.2606285 417.474255,75.1885397 415.577236,77.051756 L388.747967,103.402957 C387.663957,104.733826 386.579946,105 385.224932,105 Z" id="Path" fill="#0F84A9"></path>
                <path d="M116.5,140 C86.2821782,140 62,115.508642 62,85.6345679 C62,55.7604938 86.5519802,31 116.5,31 C146.44802,31 171,55.491358 171,85.3654321 L171,96.4 L85.7425743,96.4 C90.3292079,109.318519 102.740099,117.930864 116.5,117.930864 C127.831683,117.930864 138.084158,112.279012 144.019802,102.859259 L144.829208,101.51358 L163.445545,113.355556 L162.636139,114.701235 C152.653465,130.580247 135.386139,140 116.5,140 Z M147.257426,74.6 C142.670792,61.6814815 130.259901,53.0691358 116.5,53.0691358 C102.740099,53.0691358 90.3292079,61.9506173 85.7425743,74.6 L147.257426,74.6 Z" id="Shape" fill="#3ECCCD"></path>
                <path d="M178.809091,139 L178.809091,117.2 L234.09697,117.2 C240.030303,117.2 244.884848,112.355556 244.884848,106.434568 C244.884848,100.51358 240.030303,95.6691358 234.09697,95.6691358 L210.363636,95.6691358 C192.563636,95.4 178,80.8666667 178,62.8345679 C178,44.8024691 192.833333,30 210.90303,30 L245.154545,30 L245.154545,51.8 L210.90303,51.8 C204.969697,51.8 200.115152,56.6444444 200.115152,62.5654321 C200.115152,68.4864198 204.969697,73.3308642 210.90303,73.3308642 L234.09697,73.3308642 C252.166667,73.3308642 267,88.1333333 267,106.165432 C267,124.197531 252.166667,139 234.09697,139 L178.809091,139 Z" id="Path" fill="#3ECCCD"></path>
                <path d="M392.5,140 C362.282178,140 338,115.438835 338,85.4796117 C338,55.5203883 362.282178,30.6893204 392.5,30.6893204 C404.371287,30.6893204 415.70297,34.4679612 425.14604,41.4854369 L425.14604,1 L447,1 L447,85.2097087 C447,115.438835 422.44802,140 392.5,140 Z M392.5,52.5514563 C374.423267,52.5514563 359.85396,67.1262136 359.85396,85.2097087 C359.85396,103.293204 374.423267,117.867961 392.5,117.867961 C410.576733,117.867961 425.14604,103.293204 425.14604,85.2097087 C425.14604,67.3961165 410.306931,52.5514563 392.5,52.5514563 Z" id="Shape" fill="#3ECCCD"></path>
                <path d="M46.9873418,114.550781 L62.9198312,138 L41.8565401,138 C17.2827004,138 0,125.871094 0,94.6054688 L0,0 L24.0337553,1.078125 L24.0337553,29.9179688 L44.8270042,29.9179688 L64,53.3671875 L23.7637131,53.3671875 L23.7637131,94.6054688 C23.7637131,108.082031 29.7046414,114.550781 41.5864979,114.550781 L46.9873418,114.550781 L46.9873418,114.550781 Z" id="Path" fill="#3ECCCD"></path>
                <path d="M322.987342,114.537402 L338.919831,138 L317.85654,138 C293.2827,138 276,125.864173 276,94.5807087 L276,1.80905512 L300.033755,1 L300.033755,29.8562992 L320.827004,29.8562992 L340,53.3188976 L299.763713,53.3188976 L299.763713,94.5807087 C299.763713,108.064961 305.704641,114.537402 317.586498,114.537402 L322.987342,114.537402 L322.987342,114.537402 Z" id="Path" fill="#3ECCCD"></path>
            </g>
        </g>
    </g>
</svg>