<?xml version="1.0" encoding="utf-8"?>
<!-- Generator: Adobe Illustrator 24.2.3, SVG Export Plug-In . SVG Version: 6.00 Build 0)  -->
<svg version="1.1" id="Layer_1" xmlns="http://www.w3.org/2000/svg" xmlns:xlink="http://www.w3.org/1999/xlink" x="0px" y="0px"
	 viewBox="0 0 360 216" style="enable-background:new 0 0 360 216;" xml:space="preserve">
<style type="text/css">
	.st0{fill:#043B5D;}
	.st1{font-family:'Montserrat-Medium';}
	.st2{font-size:10px;}
	.st3{fill:#0F84A9;}
	.st4{fill:#FFFFFF;}
</style>
<text transform="matrix(1 0 0 1 308.1222 97.7556)" class="st0 st1 st2">™</text>
<path class="st0" d="M264.5,131.4v-3.2c-0.3,0.3-0.8,0.6-1.4,1c-1.1,0.8-5.7,2.6-10.2,2.6c-5.8,0-10.7-2-14.7-5.9
	c-4-4-5.9-8.9-5.9-14.6s2-10.5,5.9-14.5c4.1-4.1,8.9-6,14.7-6c5.6,0,10.5,1.9,14.5,5.6c4.1,3.7,6.1,8.8,6.1,15.3v19.8h-9V131.4z
	 M252.9,123.2c6.5,0,11.6-5,11.6-11.9c0-6.8-4.9-11.9-11.6-11.9c-6.5,0-11.6,5.1-11.6,11.9C241.3,118.2,246.4,123.2,252.9,123.2z"/>
<path class="st0" d="M305.1,91.3v8.7h-4.6c-8.9,0-14.1,4.2-14.1,11.4s5.2,11.4,14.1,11.4h4.6v8.7h-4.6c-7.3,0-13.1-1.9-17.1-5.7
	c-4.1-3.9-6-8.7-6-14.4s2-10.5,6-14.3c4.1-3.9,9.8-5.7,17.1-5.7L305.1,91.3L305.1,91.3z"/>
<g>
	<path class="st3" d="M188.6,119c-0.4,0-0.9-0.2-1.2-0.5l-5-5c-0.7-0.7-0.7-1.8,0-2.5s1.8-0.7,2.5,0l3.7,3.7l8.7-8.7
		c0.7-0.7,1.8-0.7,2.5,0s0.7,1.8,0,2.5l-9.9,9.9C189.5,118.9,189.1,119,188.6,119z"/>
</g>
<path class="st4" d="M88.9,131.8c-11.2,0-20.2-9.1-20.2-20.2s9.1-20.2,20.2-20.2s20.2,9.1,20.2,20.2v4.1H77.5c1.7,4.8,6.3,8,11.4,8
	c4.2,0,8-2.1,10.2-5.6l0.3-0.5l6.9,4.4l-0.3,0.5C102.3,128.2,95.9,131.8,88.9,131.8z M100.4,107.5c-1.7-4.8-6.3-8-11.4-8
	s-9.7,3.3-11.4,8H100.4z"/>
<path class="st4" d="M112,131.8v-8.1h20.5c2.2,0,4-1.8,4-4s-1.8-4-4-4h-8.8c-6.6-0.1-12-5.5-12-12.2s5.5-12.2,12.2-12.2h12.7v8.1
	h-12.7c-2.2,0-4,1.8-4,4s1.8,4,4,4h8.6c6.7,0,12.2,5.5,12.2,12.2s-5.5,12.2-12.2,12.2H112z"/>
<path class="st4" d="M191.3,131.9c-11.2,0-20.2-9.1-20.2-20.2s9.1-20.2,20.2-20.2c4.4,0,8.6,1.4,12.1,4v-15h8.1v31.2
	C211.5,122.8,202.4,131.9,191.3,131.9z M191.3,99.5c-6.7,0-12.1,5.4-12.1,12.1s5.4,12.1,12.1,12.1c6.7,0,12.1-5.4,12.1-12.1
	C203.4,105,197.9,99.5,191.3,99.5z"/>
<path class="st4" d="M63.4,123.1l5.9,8.7h-7.8c-9.1,0-15.5-4.5-15.5-16.1V80.6l8.9-0.1v11.2h7.7l7.1,8.7H55v15.3
	c0,5,2.2,7.4,6.6,7.4H63.4z"/>
<path class="st4" d="M165.5,122.9l5.9,8.7h-7.8c-9.1,0-15.5-4.5-15.5-16.1v-35l8.9,0.3v10.7h7.7l7.1,8.7H157v15.3
	c0,5,2.2,7.4,6.6,7.4C163.6,122.9,165.5,122.9,165.5,122.9z"/>
<g>
	<rect x="220.4" y="80.6" class="st3" width="3" height="51.2"/>
</g>
</svg>
