<?xml version="1.0" encoding="UTF-8"?>
<svg width="268px" height="56px" viewBox="0 0 268 56" version="1.1" xmlns="http://www.w3.org/2000/svg" xmlns:xlink="http://www.w3.org/1999/xlink">
    <title>Testd|DB_logo</title>
    <g id="Symbols" stroke="none" stroke-width="1" fill="none" fill-rule="evenodd">
        <g id="header" transform="translate(-826.000000, -20.000000)">
            <g id="Testd|DB_logo" transform="translate(826.000000, 20.000000)">
                <path d="M203.5,55.1 C192.3,55.1 183.3,46 183.3,34.9 C183.3,23.8 192.4,14.7 203.5,14.7 C207.9,14.7 212.1,16.1 215.6,18.7 L215.6,3.7 L223.7,3.7 L223.7,34.9 C223.7,46 214.6,55.1 203.5,55.1 Z M203.5,22.7 C196.8,22.7 191.4,28.1 191.4,34.8 C191.4,41.5 196.8,46.9 203.5,46.9 C210.2,46.9 215.6,41.5 215.6,34.8 C215.6,28.2 210.1,22.7 203.5,22.7 Z" id="Shape" fill="#043B5D" fill-rule="nonzero"></path>
                <path d="M227.5,34.8 L227.5,3.6 L235.6,3.6 L235.6,18.6 C239.1,16 243.3,14.6 247.7,14.6 C258.9,14.6 267.9,23.7 267.9,34.8 C267.9,45.9 258.8,55 247.7,55 C236.6,55 227.5,46 227.5,34.8 Z M235.6,34.8 C235.6,41.5 241,46.9 247.7,46.9 C254.4,46.9 259.8,41.5 259.8,34.8 C259.8,28.1 254.4,22.7 247.7,22.7 C241.1,22.7 235.6,28.2 235.6,34.8 Z" id="Shape" fill="#043B5D" fill-rule="nonzero"></path>
                <text id="™" fill="#043B5D" fill-rule="nonzero" font-family="Helvetica" font-size="10" font-weight="normal">
                    <tspan x="238.2077" y="10.779">™</tspan>
                </text>
                <path d="M142.7,42.2 C142.3,42.2 141.8,42 141.5,41.7 L136.5,36.7 C135.8,36 135.8,34.9 136.5,34.2 C137.2,33.5 138.3,33.5 139,34.2 L142.7,37.9 L151.4,29.2 C152.1,28.5 153.2,28.5 153.9,29.2 C154.6,29.9 154.6,31 153.9,31.7 L144,41.6 C143.6,42 143.1,42.2 142.7,42.2 Z" id="Path" fill="#043B5D" fill-rule="nonzero"></path>
                <path d="M43,55.1 C31.8,55.1 22.8,46 22.8,34.9 C22.8,23.8 31.8,14.6 43,14.6 C54.2,14.6 63.2,23.7 63.2,34.8 L63.2,38.9 L31.6,38.9 C33.3,43.7 37.9,46.9 43,46.9 C47.2,46.9 51,44.8 53.2,41.3 L53.5,40.8 L60.4,45.2 L60.1,45.7 C56.3,51.6 49.9,55.1 43,55.1 Z M54.4,30.8 C52.7,26 48.1,22.8 43,22.8 C37.9,22.8 33.3,26.1 31.6,30.8 L54.4,30.8 Z" id="Shape" fill="#FFFFFF" fill-rule="nonzero"></path>
                <path d="M66,54.8 L66,46.7 L86.5,46.7 C88.7,46.7 90.5,44.9 90.5,42.7 C90.5,40.5 88.7,38.7 86.5,38.7 L77.7,38.7 C71.1,38.6 65.7,33.2 65.7,26.5 C65.7,19.8 71.2,14.3 77.9,14.3 L90.6,14.3 L90.6,22.4 L77.9,22.4 C75.7,22.4 73.9,24.2 73.9,26.4 C73.9,28.6 75.7,30.4 77.9,30.4 L86.5,30.4 C93.2,30.4 98.7,35.9 98.7,42.6 C98.7,49.3 93.2,54.8 86.5,54.8 L66,54.8 Z" id="Path" fill="#FFFFFF" fill-rule="nonzero"></path>
                <path d="M145.3,55.1 C134.1,55.1 125.1,46 125.1,34.9 C125.1,23.8 134.2,14.7 145.3,14.7 C149.7,14.7 153.9,16.1 157.4,18.7 L157.4,3.7 L165.5,3.7 L165.5,34.9 C165.5,46 156.5,55.1 145.3,55.1 Z M145.3,22.7 C138.6,22.7 133.2,28.1 133.2,34.8 C133.2,41.5 138.6,46.9 145.3,46.9 C152,46.9 157.4,41.5 157.4,34.8 C157.4,28.2 152,22.7 145.3,22.7 Z" id="Shape" fill="#FFFFFF" fill-rule="nonzero"></path>
                <path d="M17.5,46.3 L23.4,55 L15.6,55 C6.5,55 0.1,50.5 0.1,38.9 L0.1,3.8 L9,4.2 L9,14.9 L16.7,14.9 L23.8,23.6 L9,23.6 L9,38.9 C9,43.9 11.2,46.3 15.6,46.3 L17.5,46.3 L17.5,46.3 Z" id="Path" fill="#FFFFFF" fill-rule="nonzero"></path>
                <path d="M119.5,46.3 L125.4,55 L117.6,55 C108.5,55 102.1,50.5 102.1,38.9 L102.1,4.4 L111,4.1 L111,14.8 L118.7,14.8 L125.8,23.5 L110.9,23.5 L110.9,38.8 C110.9,43.8 113.1,46.2 117.5,46.2 L119.5,46.2 L119.5,46.3 Z" id="Path" fill="#FFFFFF" fill-rule="nonzero"></path>
                <line x1="175.9" y1="3.6" x2="175.9" y2="54.8" id="Path" stroke="#0F84A9" stroke-width="3"></line>
            </g>
        </g>
    </g>
</svg>