<?xml version="1.0" encoding="UTF-8"?>
<svg width="22px" height="27px" viewBox="0 0 22 27" version="1.1" xmlns="http://www.w3.org/2000/svg" xmlns:xlink="http://www.w3.org/1999/xlink">
    <title>A1CA657D-DA18-4E2D-B492-E9F30FB5E646</title>
    <g id="user_employee_manager" stroke="none" stroke-width="1" fill="none" fill-rule="evenodd">
        <g id="employees_list-view" transform="translate(-1846.000000, -318.000000)" fill="#043B5D" fill-rule="nonzero">
            <g id="View-more" transform="translate(1742.000000, 274.000000)">
                <g id="Trashcan_GRAY-Copy-3" transform="translate(104.000000, 44.000000)">
                    <path d="M7.54545455,25 C7.72727273,25 7.72727273,25 7.54545455,25 C7.90909091,25 8,24.7065217 8,24.3152174 L7.09090909,7.48913043 C7.09090909,7.19565217 6.81818182,7 6.45454545,7 C6.18181818,7 6,7.29347826 6,7.68478261 L7.09090909,24.7065217 C7.09090909,24.8043478 7.36363636,25 7.54545455,25 Z" id="Path"></path>
                    <path d="M14.4,25 L14.4,25 C14.72,25 14.8,24.7096774 14.96,24.516129 L16,7.67741935 C16,7.38709677 15.76,7.19354839 15.6,7 C15.36,7 15.2,7.29032258 15.04,7.48387097 L14,24.3225806 C14,24.8064516 14.24,25 14.4,25 Z" id="Path"></path>
                    <path d="M10.5096189,25 C10.8038476,25 11,24.7065217 11,24.5108696 L11,7.48913043 C11,7.19565217 10.7057714,7 10.5096189,7 C10.3134665,7 10.0192379,7.29347826 10.0192379,7.48913043 L10.0192379,24.5108696 C9.92116168,24.8043478 10.2153903,25 10.5096189,25 Z" id="Path"></path>
                    <path d="M22,4.54736842 C22,3.6 21.2177778,2.84210526 20.24,2.84210526 L14.4711111,2.84210526 L14.4711111,1.70526316 C14.4711111,0.757894737 13.6888889,0 12.7111111,0 L9.28888889,0 C8.31111111,0 7.52888889,0.757894737 7.52888889,1.70526316 L7.52888889,2.84210526 L1.76,2.84210526 C0.782222222,2.84210526 0,3.6 0,4.54736842 C0,5.30526316 0.684444444,6.06315789 1.46666667,6.25263158 L3.71555556,25.5789474 C3.81333333,26.5263158 4.49777778,27 5.47555556,27 L16.4266667,27 C17.4044444,27 17.9911111,26.3368421 18.1866667,25.5789474 L20.4355556,6.25263158 C21.4133333,6.15789474 22,5.4 22,4.54736842 Z M8.70222222,1.70526316 C8.70222222,1.42105263 8.99555556,1.23157895 9.19111111,1.23157895 L12.7111111,1.23157895 C13.0044444,1.23157895 13.2,1.51578947 13.2,1.70526316 L13.2,2.84210526 L8.50666667,2.84210526 L8.50666667,1.70526316 L8.70222222,1.70526316 Z M17.0133333,25.3894737 C17.0133333,25.6736842 16.72,25.8631579 16.5244444,25.8631579 L5.47555556,25.8631579 C5.18222222,25.8631579 4.98666667,25.7684211 4.98666667,25.3894737 L2.54222222,6.25263158 L19.2622222,6.25263158 L17.0133333,25.3894737 Z M20.24,5.11578947 L19.9466667,5.11578947 L2.05333333,5.11578947 L1.76,5.11578947 C1.36888889,5.11578947 1.07555556,4.83157895 1.07555556,4.64210526 C1.07555556,4.35789474 1.36888889,4.16842105 1.56444444,4.16842105 L7.33333333,4.16842105 L14.2755556,4.16842105 L20.0444444,4.16842105 C20.3377778,4.16842105 20.5333333,4.45263158 20.5333333,4.64210526 C20.6311111,4.83157895 20.6311111,5.11578947 20.24,5.11578947 Z" id="Shape"></path>
                </g>
            </g>
        </g>
    </g>
</svg>