<?xml version="1.0" encoding="UTF-8"?>
<svg width="55px" height="55px" viewBox="0 0 55 55" version="1.1" xmlns="http://www.w3.org/2000/svg" xmlns:xlink="http://www.w3.org/1999/xlink">
    <title>Upload icon</title>
    <g id="user_employee_manager" stroke="none" stroke-width="1" fill="none" fill-rule="evenodd" fill-opacity="0.5">
        <g id="employees_list-view-_add_employee_popup" transform="translate(-782.000000, -1165.000000)" fill="#0F84A9" fill-rule="nonzero">
            <g id="Group-3" transform="translate(276.000000, 189.000000)">
                <g id="Upload-icon" transform="translate(506.000000, 976.000000)">
                    <path d="M9.2457068,20.9 L17.3509833,20.9 L17.3509833,42.6555556 C17.3509833,43.3888889 17.9558547,44 18.6817003,44 L35.2551761,44 C35.9810218,44 36.5858932,43.3888889 36.5858932,42.6555556 L36.5858932,20.9 L44.6911696,20.9 C45.9009124,20.9 46.3848095,19.4333333 45.6589638,18.7 L27.8757453,0.366666667 C27.3918482,-0.122222222 26.5450283,-0.122222222 26.0611312,0.366666667 L8.39888687,18.5777778 C7.55206694,19.4333333 8.15693832,20.9 9.2457068,20.9 Z" id="Path"></path>
                    <path d="M46.367713,55 L8.38565022,55 C3.69955157,55 0,51.125 0,46.5 L0,40.375 C0,39.625 0.616591928,39 1.35650224,39 L3.57623318,39 C4.3161435,39 4.93273543,39.625 4.93273543,40.375 L4.93273543,46.5 C4.93273543,48.5 6.53587444,50.125 8.50896861,50.125 L46.4910314,50.125 C48.4641256,50.125 50.0672646,48.5 50.0672646,46.5 L50.0672646,40.375 C50.0672646,39.625 50.6838565,39 51.4237668,39 L53.6434978,39 C54.3834081,39 55,39.625 55,40.375 L55,46.5 C54.7533632,51.125 50.9304933,55 46.367713,55 Z" id="Path"></path>
                </g>
            </g>
        </g>
    </g>
</svg>