<?xml version="1.0" encoding="UTF-8"?>
<svg width="36px" height="47px" viewBox="0 0 36 47" version="1.1" xmlns="http://www.w3.org/2000/svg" xmlns:xlink="http://www.w3.org/1999/xlink">
    <title>206E0242-4D95-4704-8069-91371BD2D3B9</title>
    <g id="user_onboarding" stroke="none" stroke-width="1" fill="none" fill-rule="evenodd">
        <g id="user_onboarding-copy-3" transform="translate(-1218.000000, -436.000000)" fill="#043B5D">
            <g id="upload_icon" transform="translate(1218.000000, 436.000000)">
                <path d="M29.8928964,16 L26.0076128,16 C25.2939893,16 24.6596573,16.6262626 24.6596573,17.3308081 C24.6596573,18.0353535 25.2939893,18.6616162 26.0076128,18.6616162 L29.8928964,18.6616162 C31.7958925,18.6616162 33.302431,20.2272727 33.302431,22.0277778 L33.302431,40.9722222 C33.302431,42.8510101 31.716601,44.3383838 29.8928964,44.3383838 L6.10544569,44.3383838 C4.20244963,44.3383838 2.69591108,42.7727273 2.69591108,40.9722222 L2.69591108,22.0277778 C2.69591108,20.1489899 4.20244963,18.6616162 6.10544569,18.6616162 L9.9907293,18.6616162 C10.7043528,18.6616162 11.3386848,18.0353535 11.3386848,17.3308081 C11.3386848,16.6262626 10.7043528,16 9.9907293,16 L6.10544569,16 C2.69591108,16 0,18.739899 0,22.0277778 L0,40.9722222 C0,44.3383838 2.77520258,47 6.10544569,47 L29.8928964,47 C33.302431,47 35.9983421,44.260101 35.9983421,40.9722222 L35.9983421,22.0277778 C36.0776336,18.6616162 33.302431,16 29.8928964,16 L29.8928964,16 Z" id="Path"></path>
                <path d="M11.3301887,10.1274298 L17.1457023,4.45140389 L17.1457023,25.6781857 C17.1457023,26.3779698 17.7830189,27 18.5,27 C19.2169811,27 19.8542977,26.3779698 19.8542977,25.6781857 L19.8542977,4.45140389 L25.6698113,10.1274298 C25.908805,10.3606911 26.3071279,10.5161987 26.6257862,10.5161987 C26.9444444,10.5161987 27.3427673,10.3606911 27.581761,10.1274298 C28.139413,9.58315335 28.139413,8.80561555 27.581761,8.26133909 L19.3763103,0.408207343 C18.8186583,-0.136069114 18.0220126,-0.136069114 17.4643606,0.408207343 L9.41823899,8.26133909 C8.860587,8.80561555 8.860587,9.58315335 9.41823899,10.1274298 C9.97589099,10.6717063 10.7725367,10.6717063 11.3301887,10.1274298 L11.3301887,10.1274298 Z" id="Path"></path>
            </g>
        </g>
    </g>
</svg>