<?xml version="1.0" encoding="UTF-8"?>
<svg width="33px" height="33px" viewBox="0 0 33 33" version="1.1" xmlns="http://www.w3.org/2000/svg" xmlns:xlink="http://www.w3.org/1999/xlink">
    <title>A1AB5945-87E1-4BCE-A699-DC757016FCE1</title>
    <g id="Insurance" stroke="none" stroke-width="1" fill="none" fill-rule="evenodd">
        <g id="Demographic_intake_insurance-card-1-Copy" transform="translate(-202.000000, -305.000000)" fill="#0F84A9" fill-rule="nonzero">
            <g id="insurance_card_front" transform="translate(89.000000, 248.000000)">
                <g id="Upload-icon" transform="translate(113.000000, 57.000000)">
                    <path d="M5.54742408,12.54 L10.41059,12.54 L10.41059,25.5933333 C10.41059,26.0333333 10.7735128,26.4 11.2090202,26.4 L21.1531057,26.4 C21.5886131,26.4 21.9515359,26.0333333 21.9515359,25.5933333 L21.9515359,12.54 L26.8147018,12.54 C27.5405474,12.54 27.8308857,11.66 27.3953783,11.22 L16.7254472,0.22 C16.4351089,-0.0733333333 15.927017,-0.0733333333 15.6366787,0.22 L5.03933212,11.1466667 C4.53124016,11.66 4.89416299,12.54 5.54742408,12.54 Z" id="Path"></path>
                    <path d="M27.8206278,33 L5.03139013,33 C2.21973094,33 0,30.675 0,27.9 L0,24.225 C0,23.775 0.369955157,23.4 0.813901345,23.4 L2.14573991,23.4 C2.5896861,23.4 2.95964126,23.775 2.95964126,24.225 L2.95964126,27.9 C2.95964126,29.1 3.92152466,30.075 5.10538117,30.075 L27.8946188,30.075 C29.0784753,30.075 30.0403587,29.1 30.0403587,27.9 L30.0403587,24.225 C30.0403587,23.775 30.4103139,23.4 30.8542601,23.4 L32.1860987,23.4 C32.6300448,23.4 33,23.775 33,24.225 L33,27.9 C32.8520179,30.675 30.558296,33 27.8206278,33 Z" id="Path"></path>
                </g>
            </g>
        </g>
    </g>
</svg>