<?xml version="1.0" encoding="UTF-8"?>
<svg width="23px" height="29px" viewBox="0 0 23 29" version="1.1" xmlns="http://www.w3.org/2000/svg" xmlns:xlink="http://www.w3.org/1999/xlink">
    <title>requsitioned_icon</title>
    <g id="lab_manager" stroke="none" stroke-width="1" fill="none" fill-rule="evenodd">
        <g id="lab_manager-copy" transform="translate(-1347.000000, -403.000000)" fill="#FF931E" fill-rule="nonzero">
            <g id="status-icons" transform="translate(1345.000000, 344.000000)">
                <g id="requsitioned_icon" transform="translate(2.000000, 59.000000)">
                    <path d="M22.2048,15.7248 L21.8592,15.8544 C21.8592,15.8544 20.9952,16.2 19.6128,17.6256 C18.3168,18.9648 16.3296,21.5136 14.04,26.136 L13.6944,26.8272 L13.3488,26.1792 C13.3488,26.1792 13.2192,25.9632 13.0032,25.6176 C12.312,24.4512 10.584,21.816 8.3808,20.1744 L8.1216,19.9584 L8.2944,19.656 C8.2944,19.6128 9.6336,17.4096 9.8496,16.416 L9.9792,15.8976 L10.4544,16.1568 C10.5408,16.2 12.0096,17.064 13.5648,20.3472 C13.8672,19.5264 14.3856,18.1872 15.0768,16.8048 C15.8544,15.2496 16.632,13.9536 17.4528,12.9168 C18.36,11.7936 19.2672,10.9296 20.2608,10.4112 L20.736,10.152 L20.8224,10.6704 C20.8224,10.7136 21.4272,13.608 22.1184,15.4224 L22.2048,15.7248 Z M19.6128,6.048 L19.6128,9.7632 L17.3664,9.7632 L17.3664,6.048 L2.5488,6.048 L2.5488,26.1792 L12.3984,26.1792 L12.3984,28.4256 L2.5488,28.4256 C1.296,28.4256 0.3024,27.432 0.3024,26.1792 L0.3024,6.048 C0.3024,4.7952 1.296,3.8016 2.5488,3.8016 L4.7088,3.8016 C5.0976,1.8144 7.3008,0.3456 9.936,0.3456 C12.5712,0.3456 14.7744,1.8576 15.1632,3.8016 L17.3232,3.8016 C18.576,3.8016 19.6128,4.7952 19.6128,6.048 Z M8.9424,2.592 C8.9424,3.1536 9.3744,3.5856 9.936,3.5856 C10.4976,3.5856 10.9296,3.1536 10.9296,2.592 C10.9296,2.0304 10.4976,1.5984 9.936,1.5984 C9.3744,1.5984 8.9424,2.0736 8.9424,2.592 Z" id="Shape"></path>
                </g>
            </g>
        </g>
    </g>
</svg>