<?xml version="1.0" encoding="UTF-8"?>
<svg width="130px" height="115px" viewBox="0 0 130 115" version="1.1" xmlns="http://www.w3.org/2000/svg" xmlns:xlink="http://www.w3.org/1999/xlink">
    <title>building_icon</title>
    <g id="user_site_manager" stroke="none" stroke-width="1" fill="none" fill-rule="evenodd">
        <g id="site-manager_locations_icon_view" transform="translate(-739.000000, -386.000000)" fill="#3ECCCD" fill-rule="nonzero">
            <g id="location2" transform="translate(646.000000, 352.000000)">
                <g id="building_icon" transform="translate(93.000000, 34.000000)">
                    <rect id="Rectangle" x="0" y="107" width="130" height="8"></rect>
                    <path d="M13,4 L13,107 L76,107 L76,4 L13,4 Z M39.25,90.5619694 L21.75,90.5619694 L21.75,73.0747029 L39.25,73.0747029 L39.25,90.5619694 Z M39.25,64.3310696 L21.75,64.3310696 L21.75,46.8438031 L39.25,46.8438031 L39.25,64.3310696 Z M39.25,38.1001698 L21.75,38.1001698 L21.75,20.6129032 L39.25,20.6129032 L39.25,38.1001698 Z M67.25,90.5619694 L49.75,90.5619694 L49.75,73.0747029 L67.25,73.0747029 L67.25,90.5619694 Z M67.25,64.3310696 L49.75,64.3310696 L49.75,46.8438031 L67.25,46.8438031 L67.25,64.3310696 Z M67.25,38.1001698 L49.75,38.1001698 L49.75,20.6129032 L67.25,20.6129032 L67.25,38.1001698 Z" id="Shape"></path>
                    <path d="M78,31 L78,45.4018265 L85.9733333,45.4018265 L85.9733333,57.2009132 L78,57.2009132 L78,63.1004566 L85.9733333,63.1004566 L85.9733333,74.8995434 L78,74.8995434 L78,80.7990868 L85.9733333,80.7990868 L85.9733333,92.5981735 L78,92.5981735 L78,107 L117,107 L117,31 L78,31 Z M104.693333,92.4246575 L92.9066667,92.4246575 L92.9066667,80.6255708 L104.693333,80.6255708 L104.693333,92.4246575 Z M104.693333,74.8995434 L92.9066667,74.8995434 L92.9066667,63.1004566 L104.693333,63.1004566 L104.693333,74.8995434 Z M104.693333,57.2009132 L92.9066667,57.2009132 L92.9066667,45.4018265 L104.693333,45.4018265 L104.693333,57.2009132 Z" id="Shape"></path>
                    <rect id="Rectangle" x="27" y="0" width="36" height="5"></rect>
                    <rect id="Rectangle" x="79" y="26" width="26" height="5"></rect>
                </g>
            </g>
        </g>
    </g>
</svg>