<?xml version="1.0" encoding="UTF-8"?>
<svg width="210px" height="244px" viewBox="0 0 210 244" version="1.1" xmlns="http://www.w3.org/2000/svg" xmlns:xlink="http://www.w3.org/1999/xlink">
    <title>30EF0010-4FDF-409B-8039-B0B40997D1AA</title>
    <g id="employee_manager" stroke="none" stroke-width="1" fill="none" fill-rule="evenodd">
        <g id="user_employee_status_all_clear" transform="translate(-218.000000, -1592.000000)" fill-rule="nonzero">
            <g id="badge_art" transform="translate(218.000000, 1592.000000)">
                <path d="M91.4820866,235.922487 C67.1299631,222.821155 46.4555072,204.006459 31.2478546,181.054501 C18.9226982,162.1413 10.1758131,141.257973 5.40478479,119.291078 C-3.24270395,80.9721437 1.03134221,49.4501413 1.23013505,48.0710537 L4.21202773,26.9907146 L21.5070052,26.9907146 C39.4977577,26.8922083 57.3891137,23.6415018 74.2865055,17.1400888 C81.1448586,14.5789261 87.7050225,11.3282196 93.9669971,7.58498183 L105.099396,0 L116.231796,7.58498183 C122.394374,11.3282196 128.954538,14.4804199 135.713495,17.0415826 C152.51149,23.5429956 170.402846,26.7937021 188.492995,26.8922083 L205.787972,26.8922083 L208.769865,48.0710537 C208.968658,49.351635 213.242704,80.8736375 204.595215,119.291078 C199.824187,141.257973 191.077302,162.239806 178.752145,181.054501 C163.544493,204.006459 142.870037,222.821155 118.517913,235.922487 L105,244 L91.4820866,235.922487 Z M39.7959469,65.408155 C39.7959469,66.9842551 39.6965505,68.6588615 39.6965505,70.2349616 C39.6965505,83.8288252 41.1874968,97.3241825 44.1693895,110.622527 C47.9464536,127.959629 54.8048067,144.50868 64.4462597,159.383125 C74.882884,175.144126 88.6989867,188.343964 104.900604,198.096084 C121.10222,188.343964 134.918323,175.144126 145.354947,159.383125 C154.698211,145.198224 161.556564,128.846185 165.631818,110.622527 C168.61371,97.3241825 170.104657,83.8288252 170.104657,70.2349616 C170.104657,68.6588615 170.104657,66.9842551 170.00526,65.408155 C153.107868,63.7335486 136.508666,59.6947921 120.704635,53.5874041 C115.337228,51.5187727 109.969821,49.1546225 104.900604,46.4949536 C99.9307825,49.0561163 94.5633757,51.4202665 89.0965724,53.5874041 C73.2925413,59.6947921 56.6933387,63.7335486 39.7959469,65.408155 L39.7959469,65.408155 Z" id="Shape" fill="#FFFFFF"></path>
                <path d="M93.9834358,235.072765 C70.0375616,222.10894 49.6686645,203.504366 34.7645934,180.842412 C22.6426156,162.138877 13.9982544,141.456133 9.32831208,119.684823 C0.783311327,81.6839917 5.0558117,50.5114345 5.15517218,49.224948 L7.7385445,30.5214137 L22.4438946,30.5214137 C40.8255823,30.4224532 59.1079095,26.9588358 76.197911,20.3284823 C83.2525047,17.6565489 90.0090169,14.3908524 96.4674477,10.4324324 L106.006053,4 L115.445298,10.5313929 C121.804369,14.3908524 128.560881,17.7555094 135.615474,20.3284823 C152.804836,26.9588358 170.987803,30.4224532 189.468851,30.5214137 L204.174201,30.5214137 L206.757574,49.224948 C206.956295,50.5114345 211.228795,81.5850312 202.683794,119.684823 C197.61641,142.346778 189.071409,162.831601 177.247513,180.743451 C162.244081,203.405405 141.875184,222.009979 117.92931,234.874844 L106.006053,242 L93.9834358,235.072765 Z M37.9441286,63.6731809 C37.8447681,66.1471933 37.7454076,68.6212058 37.7454076,71.1941788 C37.7454076,85.0486486 39.2358147,98.9031185 42.3159894,112.460707 C46.0916874,130.273597 53.1462811,147.195842 62.982968,162.435759 C74.0119806,179.061123 88.7173307,193.014553 106.006053,203.108524 C123.294776,193.014553 138.000126,179.061123 148.929778,162.435759 C158.468383,147.987526 165.423617,131.164241 169.696117,112.460707 C172.676931,98.9031185 174.167338,85.0486486 174.266699,71.1941788 C174.266699,68.6212058 174.266699,66.1471933 174.067978,63.6731809 C156.481174,62.1887734 139.291812,58.1313929 122.897334,51.6989605 C117.134426,49.422869 111.470879,46.849896 106.006053,43.9800416 C100.541227,46.849896 94.8776801,49.422869 89.0154121,51.6989605 C72.7202944,58.1313929 55.431572,62.1887734 37.9441286,63.6731809 L37.9441286,63.6731809 Z" id="Shape" fill="#3ECCCD"></path>
                <path d="M94.5645739,231.890317 C71.0103265,219.276778 51.0339395,201.046272 36.3249579,178.874036 C24.3987567,160.544987 15.9510309,140.245073 11.2799354,118.959726 C2.8322095,81.6118252 7.00637993,51.1619537 7.20514995,49.8808912 L9.39162018,33.8183376 L21.5165914,33.8183376 C40.3003584,33.7197943 58.8853553,30.2707798 76.3771171,23.4712939 C83.6322228,20.8106255 90.5891735,17.361611 97.1485842,13.3213368 L105,8 L112.851416,13.3213368 C119.410826,17.361611 126.367777,20.7120823 133.622883,23.3727506 C151.114645,30.0736932 169.699642,33.6212511 188.483409,33.6212511 L200.60838,33.6212511 L202.79485,49.6838046 C202.99362,50.9648672 207.16779,81.4147386 198.720065,118.762639 C194.048969,140.047986 185.601243,160.347901 173.675042,178.676949 C158.966061,200.849186 138.989673,219.079692 115.435426,231.693231 L104.900615,238 L94.5645739,231.890317 Z M34.1384877,61.0162811 C33.9397177,63.7754927 33.8403327,67.2245073 33.8403327,71.2647815 C33.8403327,85.2579263 35.4304929,99.2510711 38.5114282,112.948586 C42.3874436,130.982005 49.5431643,148.227078 59.6804353,163.698372 C71.2090965,181.140531 86.8125431,195.724936 105.099385,206.071979 C123.386227,195.724936 138.989673,181.140531 150.518335,163.698372 C160.556221,148.227078 167.711941,130.982005 171.587957,112.948586 C174.668892,99.2510711 176.159667,85.2579263 176.159667,71.2647815 C176.159667,67.2245073 176.060282,63.7754927 175.861512,61.0162811 C167.711941,60.4250214 159.562371,59.2425021 151.512185,57.5672665 C141.772454,55.4978578 132.231493,52.6401028 122.988687,49.092545 C116.826816,46.7275064 110.764331,43.9682948 105,40.81491 C99.1362844,43.9682948 93.1731838,46.6289632 87.0113132,49.092545 C77.7685072,52.7386461 68.2275462,55.4978578 58.4878152,57.5672665 C50.4376294,59.3410454 42.3874436,60.4250214 34.1384877,61.0162811 Z" id="Shape" fill="#FFFFFF"></path>
                <path d="M196.858068,50.3822715 L195.46789,40.3047091 L189.509984,40.3047091 C169.848894,40.2059095 150.485699,36.5503232 132.115488,29.5355494 C124.37021,26.6703601 117.022126,23.0147738 109.971937,18.66759 L106.099298,16 L102.127361,18.66759 C95.1764706,23.0147738 87.729088,26.6703601 79.98381,29.5355494 C61.712898,36.6491228 42.2504047,40.3047091 22.6886131,40.3047091 L16.5321101,40.3047091 L15.141932,50.3822715 L15.141932,50.3822715 C14.9433351,51.8642659 10.9713977,81.1089566 19.1138694,117.170822 C23.8801943,138.610342 32.0226659,158.073869 43.1440907,174.968606 C57.2444684,196.309326 76.4090664,213.796861 98.9498111,225.850416 L106,230 L113.050189,225.850416 C135.590934,213.698061 154.755532,196.210526 168.855909,174.968606 C180.275229,157.283472 188.417701,137.721145 192.886131,117.170822 C201.028602,81.010157 197.056665,51.6666667 196.858068,50.3822715 Z M179.282245,114.206833 C175.211009,133.077562 167.763627,151.157895 157.237992,167.361034 C144.329196,186.824561 126.852671,202.731302 106.198597,213.796861 L106,213.89566 L105.801403,213.796861 C85.1473287,202.731302 67.6708041,186.824561 54.7620076,167.361034 C44.5342688,151.849492 37.0868861,133.966759 32.717755,114.206833 C29.5402051,99.9796861 27.9514301,85.4561404 27.9514301,70.833795 C27.9514301,65.2022161 28.150027,59.5706371 28.7458176,53.9390582 C38.5763627,53.5438596 48.4069077,52.3582641 58.0388559,50.2834718 C67.3729088,48.3074792 76.6076632,45.5410896 85.445224,42.0831025 C92.4954128,39.3167128 99.4463033,36.056325 106,32.3019391 C112.553697,36.056325 119.504587,39.3167128 126.554776,42.0831025 C135.491635,45.5410896 144.627091,48.3074792 153.961144,50.2834718 C163.593092,52.3582641 173.423637,53.5438596 183.254182,53.9390582 C183.849973,59.5706371 184.04857,65.2022161 184.04857,70.833795 C184.04857,85.4561404 182.459795,99.9796861 179.282245,114.206833 Z" id="Shape" fill="#25DD83"></path>
                <path d="M177.236641,114.088139 C173.167939,133.001088 165.725191,151.121872 155.206107,167.361262 C142.305344,186.868335 124.839695,202.810664 104.198473,213.900979 L104,214 L103.801527,213.900979 C83.259542,202.810664 65.6946565,186.868335 52.7938931,167.361262 C42.5725191,151.815016 35.129771,133.892274 30.7633588,114.088139 C27.5877863,99.8291621 26,85.273123 26,70.6180631 C26,64.9738847 26.1984733,59.3297062 26.7938931,53.6855277 C36.6183206,53.289445 46.4427481,52.101197 56.0687023,50.0217628 C65.3969466,48.0413493 74.6259542,45.2687704 83.4580153,41.8030468 C90.5038168,39.0304679 97.351145,35.7627856 104,32 C110.549618,35.7627856 117.396947,39.0304679 124.541985,41.8030468 C133.473282,45.2687704 142.603053,48.0413493 151.931298,50.0217628 C161.557252,52.101197 171.381679,53.289445 181.206107,53.5865071 C181.801527,59.2306855 182,64.874864 182,70.5190424 C182,85.273123 180.412214,99.8291621 177.236641,114.088139 Z" id="Path" fill="#FFFFFF"></path>
                <polygon id="Path" fill="#25DD83" points="81.3239437 130.117895 62.8873239 111.614737 48 126.456842 81.3239437 160 81.3239437 159.901053 81.3239437 160 160 80.9410526 145.211268 66"></polygon>
            </g>
        </g>
    </g>
</svg>