<?xml version="1.0" encoding="UTF-8"?>
<svg width="35px" height="41px" viewBox="0 0 35 41" version="1.1" xmlns="http://www.w3.org/2000/svg" xmlns:xlink="http://www.w3.org/1999/xlink">
    <title>8050060A-09F1-4C3E-BA14-1FF0741D55CB</title>
    <g id="employee_manager" stroke="none" stroke-width="1" fill="none" fill-rule="evenodd">
        <g id="employees_list-view" transform="translate(-1641.000000, -252.000000)" fill-rule="nonzero">
            <g id="status" transform="translate(1625.000000, 252.000000)">
                <g id="badge_art" transform="translate(16.000000, 0.000000)">
                    <path d="M14.985,38.8314 C11.016,36.6768 7.6464,33.5826 5.1678,29.808 C3.159,26.6976 1.7334,23.2632 0.9558,19.6506 C-0.4536,13.3488 0.243,8.1648 0.2754,7.938 L0.7614,4.4712 L3.5802,4.4712 C6.5124,4.455 9.4284,3.9204 12.1824,2.8512 C13.3002,2.43 14.3694,1.8954 15.39,1.2798 L17.2044,0.0324 L19.0188,1.2798 C20.0232,1.8954 21.0924,2.4138 22.194,2.835 C24.9318,3.9042 27.8478,4.4388 30.7962,4.455 L33.615,4.455 L34.101,7.938 C34.1334,8.1486 34.83,13.3326 33.4206,19.6506 C32.643,23.2632 31.2174,26.7138 29.2086,29.808 C26.73,33.5826 23.3604,36.6768 19.3914,38.8314 L17.1882,40.1598 L14.985,38.8314 Z M6.561,10.7892 C6.561,11.0484 6.5448,11.3238 6.5448,11.583 C6.5448,13.8186 6.7878,16.038 7.2738,18.225 C7.8894,21.0762 9.0072,23.7978 10.5786,26.244 C12.2796,28.836 14.5314,31.0068 17.172,32.6106 C19.8126,31.0068 22.0644,28.836 23.7654,26.244 C25.2882,23.9112 26.406,21.222 27.0702,18.225 C27.5562,16.038 27.7992,13.8186 27.7992,11.583 C27.7992,11.3238 27.7992,11.0484 27.783,10.7892 C25.029,10.5138 22.3236,9.8496 19.7478,8.8452 C18.873,8.505 17.9982,8.1162 17.172,7.6788 C16.362,8.1 15.4872,8.4888 14.5962,8.8452 C12.0204,9.8496 9.315,10.5138 6.561,10.7892 L6.561,10.7892 Z" id="Shape" fill="#FFFFFF"></path>
                    <path d="M15.228,38.4102 C11.3238,36.288 8.0028,33.2424 5.5728,29.5326 C3.5964,26.4708 2.187,23.085 1.4256,19.521 C0.0324,13.3002 0.729,8.1972 0.7452,7.9866 L1.1664,4.9248 L3.564,4.9248 C6.561,4.9086 9.5418,4.3416 12.3282,3.2562 C13.4784,2.8188 14.58,2.2842 15.633,1.6362 L17.1882,0.5832 L18.7272,1.6524 C19.764,2.2842 20.8656,2.835 22.0158,3.2562 C24.8184,4.3416 27.783,4.9086 30.7962,4.9248 L33.1938,4.9248 L33.615,7.9866 C33.6474,8.1972 34.344,13.284 32.9508,19.521 C32.1246,23.2308 30.7314,26.5842 28.8036,29.5164 C26.3574,33.2262 23.0364,36.2718 19.1322,38.3778 L17.1882,39.5442 L15.228,38.4102 Z M6.0912,10.3518 C6.075,10.7568 6.0588,11.1618 6.0588,11.583 C6.0588,13.851 6.3018,16.119 6.804,18.3384 C7.4196,21.2544 8.5698,24.0246 10.1736,26.5194 C11.9718,29.241 14.3694,31.5252 17.1882,33.1776 C20.007,31.5252 22.4046,29.241 24.1866,26.5194 C25.7418,24.1542 26.8758,21.4002 27.5724,18.3384 C28.0584,16.119 28.3014,13.851 28.3176,11.583 C28.3176,11.1618 28.3176,10.7568 28.2852,10.3518 C25.4178,10.1088 22.6152,9.4446 19.9422,8.3916 C19.0026,8.019 18.0792,7.5978 17.1882,7.128 C16.2972,7.5978 15.3738,8.019 14.418,8.3916 C11.7612,9.4446 8.9424,10.1088 6.0912,10.3518 L6.0912,10.3518 Z" id="Shape" fill="#3ECCCD"></path>
                    <path d="M15.471,37.989 C11.6316,35.9154 8.3754,32.9184 5.9778,29.2734 C4.0338,26.2602 2.6568,22.923 1.8954,19.4238 C0.5184,13.284 1.1988,8.2782 1.2312,8.0676 L1.5876,5.427 L3.564,5.427 C6.6258,5.4108 9.6552,4.8438 12.5064,3.726 C13.689,3.2886 14.823,2.7216 15.8922,2.0574 L17.172,1.1826 L18.4518,2.0574 C19.521,2.7216 20.655,3.2724 21.8376,3.7098 C24.6888,4.8114 27.7182,5.3946 30.78,5.3946 L32.7564,5.3946 L33.1128,8.0352 C33.1452,8.2458 33.8256,13.2516 32.4486,19.3914 C31.6872,22.8906 30.3102,26.2278 28.3662,29.241 C25.9686,32.886 22.7124,35.883 18.873,37.9566 L17.1558,38.9934 L15.471,37.989 Z M5.6214,9.8982 C5.589,10.3518 5.5728,10.9188 5.5728,11.583 C5.5728,13.8834 5.832,16.1838 6.3342,18.4356 C6.966,21.4002 8.1324,24.2352 9.7848,26.7786 C11.664,29.646 14.2074,32.0436 17.1882,33.7446 C20.169,32.0436 22.7124,29.646 24.5916,26.7786 C26.2278,24.2352 27.3942,21.4002 28.026,18.4356 C28.5282,16.1838 28.7712,13.8834 28.7712,11.583 C28.7712,10.9188 28.755,10.3518 28.7226,9.8982 C27.3942,9.801 26.0658,9.6066 24.7536,9.3312 C23.166,8.991 21.6108,8.5212 20.1042,7.938 C19.0998,7.5492 18.1116,7.0956 17.172,6.5772 C16.2162,7.0956 15.2442,7.533 14.2398,7.938 C12.7332,8.5374 11.178,8.991 9.5904,9.3312 C8.2782,9.6228 6.966,9.801 5.6214,9.8982 Z" id="Shape" fill="#FFFFFF"></path>
                    <path d="M32.0112,8.2296 L31.7844,6.5772 L30.8124,6.5772 C27.6048,6.561 24.4458,5.9616 21.4488,4.8114 C20.1852,4.3416 18.9864,3.7422 17.8362,3.0294 L17.2044,2.592 L16.5564,3.0294 C15.4224,3.7422 14.2074,4.3416 12.9438,4.8114 C9.963,5.9778 6.7878,6.5772 3.5964,6.5772 L2.592,6.5772 L2.3652,8.2296 L2.3652,8.2296 C2.3328,8.4726 1.6848,13.2678 3.0132,19.1808 C3.7908,22.6962 5.1192,25.8876 6.9336,28.6578 C9.234,32.157 12.3606,35.0244 16.038,37.0008 L17.1882,37.6812 L18.3384,37.0008 C22.0158,35.0082 25.1424,32.1408 27.4428,28.6578 C29.3058,25.758 30.6342,22.5504 31.3632,19.1808 C32.6916,13.2516 32.0436,8.4402 32.0112,8.2296 Z M29.1438,18.6948 C28.4796,21.789 27.2646,24.7536 25.5474,27.4104 C23.4414,30.6018 20.5902,33.21 17.2206,35.0244 L17.1882,35.0406 L17.1558,35.0244 C13.7862,33.21 10.935,30.6018 8.829,27.4104 C7.1604,24.867 5.9454,21.9348 5.2326,18.6948 C4.7142,16.362 4.455,13.9806 4.455,11.583 C4.455,10.6596 4.4874,9.7362 4.5846,8.8128 C6.1884,8.748 7.7922,8.5536 9.3636,8.2134 C10.8864,7.8894 12.393,7.4358 13.8348,6.8688 C14.985,6.4152 16.119,5.8806 17.1882,5.265 C18.2574,5.8806 19.3914,6.4152 20.5416,6.8688 C21.9996,7.4358 23.49,7.8894 25.0128,8.2134 C26.5842,8.5536 28.188,8.748 29.7918,8.8128 C29.889,9.7362 29.9214,10.6596 29.9214,11.583 C29.9214,13.9806 29.6622,16.362 29.1438,18.6948 Z" id="Shape" fill="#25DD83"></path>
                    <path d="M29.0304,18.7434 C28.3662,21.8376 27.1512,24.8022 25.434,27.459 C23.328,30.6504 20.4768,33.2586 17.1072,35.073 L17.0748,35.0892 L17.0424,35.073 C13.689,33.2586 10.8216,30.6504 8.7156,27.459 C7.047,24.9156 5.832,21.9834 5.1192,18.7434 C4.6008,16.4106 4.3416,14.0292 4.3416,11.6316 C4.3416,10.7082 4.374,9.7848 4.4712,8.8614 C6.075,8.7966 7.6788,8.6022 9.2502,8.262 C10.773,7.938 12.2796,7.4844 13.7214,6.9174 C14.8716,6.4638 15.9894,5.9292 17.0748,5.3136 C18.144,5.9292 19.2618,6.4638 20.4282,6.9174 C21.8862,7.4844 23.3766,7.938 24.8994,8.262 C26.4708,8.6022 28.0746,8.7966 29.6784,8.8452 C29.7756,9.7686 29.808,10.692 29.808,11.6154 C29.808,14.0292 29.5488,16.4106 29.0304,18.7434 Z" id="Path" fill="#FFFFFF"></path>
                    <polygon id="Path" fill="#25DD83" points="13.3164 21.3516 10.287 18.3222 7.8408 20.7522 13.3164 26.244 13.3164 26.2278 13.3164 26.244 26.244 13.3002 23.814 10.854"></polygon>
                </g>
            </g>
        </g>
    </g>
</svg>