<?xml version="1.0" encoding="UTF-8"?>
<svg width="27px" height="36px" viewBox="0 0 27 36" version="1.1" xmlns="http://www.w3.org/2000/svg" xmlns:xlink="http://www.w3.org/1999/xlink">
    <title>92EC851A-9B67-4FBC-8A49-0EE045C39189</title>
    <g id="employee_manager" stroke="none" stroke-width="1" fill="none" fill-rule="evenodd">
        <g id="employees_list-view" transform="translate(-1646.000000, -364.000000)" fill="#043B5D" fill-rule="nonzero">
            <g id="hourglass_icon" transform="translate(1646.000000, 364.000000)">
                <path d="M27,2.07293666 L27,1.86564299 C27,0.829174664 26.1584416,0 25.1064935,0 L1.96363636,0 C0.911688312,0 0.0701298701,0.829174664 0.0701298701,1.86564299 L0.0701298701,2.07293666 C0.0701298701,3.10940499 0.911688312,3.93857965 1.96363636,3.93857965 L3.01558442,3.93857965 C2.59480519,6.14971209 2.31428571,10.0882917 6.03116883,13.6122841 C7.5038961,15.0633397 8.62597403,15.8234165 9.3974026,16.3761996 C10.5194805,17.2053743 10.5896104,17.2744722 10.5896104,17.8963532 C10.5896104,18.5182342 10.5194805,18.5873321 9.3974026,19.4165067 C8.6961039,19.9692898 7.57402597,20.7293666 6.03116883,22.1804223 C2.17402597,25.8426104 2.59480519,29.9193858 3.01558442,32.0614203 L1.89350649,32.0614203 C0.841558442,32.0614203 0,32.890595 0,33.9270633 L0,34.134357 C0,35.1708253 0.841558442,36 1.89350649,36 L25.0363636,36 C26.0883117,36 26.9298701,35.1708253 26.9298701,34.134357 L26.9298701,33.9270633 C26.9298701,32.890595 26.0883117,32.0614203 25.0363636,32.0614203 L23.9142857,32.0614203 C24.3350649,29.8502879 24.7558442,25.7735125 20.8987013,22.1804223 C19.425974,20.7293666 18.3038961,19.9692898 17.5324675,19.4165067 C16.4103896,18.5873321 16.3402597,18.5182342 16.3402597,17.8963532 C16.3402597,17.2744722 16.4103896,17.2053743 17.5324675,16.3761996 C18.2337662,15.8234165 19.3558442,15.0633397 20.8987013,13.6122841 C24.6155844,10.0882917 24.3350649,6.14971209 23.9142857,3.93857965 L24.9662338,3.93857965 C26.1584416,3.93857965 27,3.10940499 27,2.07293666 Z M19.7766234,12.3685221 C18.374026,13.681382 17.3220779,14.4414587 16.6207792,14.9942418 C15.4987013,15.8234165 14.7974026,16.3761996 14.7272727,17.8272553 L14.7272727,17.8272553 C14.7272727,17.8272553 14.7272727,17.8963532 14.7272727,17.8963532 C14.7272727,17.8963532 14.7272727,17.9654511 14.7272727,17.9654511 L14.7272727,17.9654511 C14.7974026,19.4856046 15.4987013,19.9692898 16.6207792,20.7984645 C17.3220779,21.3512476 18.374026,22.0422265 19.7766234,23.4241843 C22.7922078,26.2571977 22.7220779,29.3666027 22.161039,32.0614203 L4.90909091,32.0614203 C4.34805195,29.3666027 4.27792208,26.2571977 7.29350649,23.4241843 C8.6961039,22.1113244 9.74805195,21.3512476 10.4493506,20.7984645 C11.5714286,19.9692898 12.2727273,19.4165067 12.3428571,17.9654511 L12.3428571,17.9654511 C12.3428571,17.9654511 12.3428571,17.8963532 12.3428571,17.8963532 C12.3428571,17.8963532 12.3428571,17.8272553 12.3428571,17.8272553 L12.3428571,17.8272553 C12.2727273,16.3071017 11.5714286,15.8234165 10.4493506,14.9942418 C9.74805195,14.4414587 8.6961039,13.7504798 7.29350649,12.3685221 C4.34805195,9.60460653 4.34805195,6.56429942 4.83896104,3.93857965 L22.2311688,3.93857965 C22.7220779,6.63339731 22.7220779,9.60460653 19.7766234,12.3685221 Z M6.94285714,10.7101727 C7.22337662,11.0556622 7.5038961,11.4011516 7.92467532,11.815739 C9.32727273,13.1285988 10.3090909,13.8195777 11.0103896,14.3723608 C11.9922078,15.0633397 12.8337662,15.7543186 13.1844156,17.0671785 L13.2545455,17.9654511 C13.2545455,17.9654511 13.2545455,18.0345489 13.2545455,18.0345489 C13.2545455,18.0345489 13.2545455,18.1036468 13.2545455,18.1036468 L13.1844156,19.0019194 C13.1844156,19.0710173 13.1844156,19.2092131 13.1844156,19.2783109 L12.9038961,22.8714012 C12.9038961,22.8714012 12.9038961,22.940499 12.9038961,22.940499 C12.8337662,23.6314779 12.1324675,24.4606526 11.5714286,24.7370441 C9.60779221,25.5662188 7.64415584,26.2571977 6.1012987,26.8099808 C5.47012987,28.3301344 5.47012987,29.8502879 5.68051948,31.3013436 L21.4597403,31.3013436 C21.6701299,29.8502879 21.7402597,28.3301344 21.038961,26.8099808 C19.4961039,26.2571977 17.5324675,25.428023 15.7090909,24.7370441 C15.1480519,24.5297505 14.4467532,23.7696737 14.3064935,23.0786948 L13.9558442,19.0019194 L13.8857143,18.1036468 C13.8857143,18.1036468 13.8857143,18.0345489 13.8857143,18.0345489 C13.8857143,18.0345489 13.8857143,17.9654511 13.8857143,17.9654511 L13.9558442,17.0671785 C14.2363636,15.7543186 15.1480519,15.1324376 16.1298701,14.3723608 C16.8311688,13.8195777 17.812987,13.1285988 19.2155844,11.815739 C19.5662338,11.4702495 19.9168831,11.1247601 20.1974026,10.7101727 C18.3038961,11.1247601 16.0597403,11.4011516 13.6051948,11.4011516 C11.0805195,11.3320537 8.83636364,11.1247601 6.94285714,10.7101727 Z" id="Shape"></path>
            </g>
        </g>
    </g>
</svg>