<?xml version="1.0" encoding="UTF-8"?>
<svg width="35px" height="35px" viewBox="0 0 35 35" version="1.1" xmlns="http://www.w3.org/2000/svg" xmlns:xlink="http://www.w3.org/1999/xlink">
    <title>pending_turquoise</title>
    <g id="user_employee_manager" stroke="none" stroke-width="1" fill="none" fill-rule="evenodd">
        <g id="employees_list-view" transform="translate(-1599.000000, -369.000000)" fill="#3ECCCD">
            <g id="pending_turquoise" transform="translate(1599.000000, 369.000000)">
                <path d="M25.08,5.72 C24.64,6.82 24.475,6.71 24.035,7.755 C25.3,8.03 28.655,7.7 29.81,7.315 C29.92,6.49 29.04,-1.76 26.95,3.355 C24.64,2.53 23.485,1.32 20.295,0.77 C7.535,-1.485 -4.29,10.725 1.54,24.915 C3.19,28.875 6.93,32.285 11.165,33.88 C12.045,34.21 14.025,34.925 14.96,34.54 C16.225,33.99 15.84,32.505 14.685,32.01 C11.77,30.855 10.725,31.075 8.36,29.15 C5.17,26.62 2.145,22.11 2.86,15.95 C4.345,3.135 19.855,0.715 25.08,5.72 L25.08,5.72 Z" id="Path"></path>
                <path d="M31.13,9.625 C31.57,9.515 32.065,9.845 32.23,10.395 C32.34,10.945 32.12,11.44 31.625,11.55 C31.185,11.66 30.69,11.33 30.525,10.78 C30.415,10.285 30.69,9.735 31.13,9.625 L31.13,9.625 Z" id="Path"></path>
                <path d="M32.395,13.695 C32.945,13.585 33.495,13.915 33.605,14.52 C33.77,15.125 33.44,15.73 32.945,15.84 C32.45,15.95 31.845,15.62 31.735,15.015 C31.57,14.465 31.9,13.86 32.395,13.695 L32.395,13.695 Z" id="Path"></path>
                <path d="M32.78,17.655 C33.44,17.6 34.045,18.15 34.1,18.865 C34.21,19.635 33.715,20.295 33.055,20.35 C32.395,20.405 31.79,19.855 31.735,19.14 C31.625,18.425 32.12,17.765 32.78,17.655 L32.78,17.655 Z" id="Path"></path>
                <path d="M31.735,22.11 C32.45,22.055 33.11,22.66 33.22,23.485 C33.33,24.31 32.78,25.08 32.065,25.135 C31.35,25.19 30.69,24.585 30.58,23.76 C30.47,22.935 31.02,22.165 31.735,22.11 L31.735,22.11 Z" id="Path"></path>
                <path d="M28.93,26.62 C29.81,26.62 30.525,27.5 30.525,28.49 C30.525,29.535 29.755,30.305 28.875,30.305 C27.995,30.305 27.28,29.425 27.28,28.435 C27.28,27.39 27.995,26.565 28.93,26.62 L28.93,26.62 Z" id="Path"></path>
                <path d="M22.33,30.635 C23.265,30.69 23.98,31.625 23.925,32.725 C23.87,33.825 23.045,34.65 22.11,34.595 C21.175,34.54 20.46,33.605 20.515,32.505 C20.57,31.405 21.395,30.58 22.33,30.635 L22.33,30.635 Z" id="Path"></path>
                <path d="M16.335,6.27 L16.335,6.27 C16.83,6.27 17.215,6.655 17.215,7.15 L17.215,20.515 L15.455,20.515 L15.455,7.15 C15.455,6.655 15.84,6.27 16.335,6.27 L16.335,6.27 Z" id="Path"></path>
                <path d="M25.3,19.635 L25.3,19.635 C25.3,20.13 24.915,20.515 24.42,20.515 L15.51,20.515 L15.51,18.755 L24.42,18.755 C24.915,18.755 25.3,19.14 25.3,19.635 L25.3,19.635 Z" id="Path"></path>
            </g>
        </g>
    </g>
</svg>