<?xml version="1.0" encoding="UTF-8"?>
<svg width="25px" height="25px" viewBox="0 0 25 25" version="1.1" xmlns="http://www.w3.org/2000/svg" xmlns:xlink="http://www.w3.org/1999/xlink">
    <title>InProcess2_icon</title>
    <g id="lab_manager" stroke="none" stroke-width="1" fill="none" fill-rule="evenodd">
        <g id="lab_manager-copy" transform="translate(-1345.000000, -463.000000)" fill="#3ECCCD">
            <g id="status-icons" transform="translate(1345.000000, 344.000000)">
                <g id="InProcess2_icon" transform="translate(0.000000, 119.000000)">
                    <path d="M18.24,3.96 C17.92,4.76 17.8,4.68 17.48,5.44 C18.4,5.64 20.84,5.4 21.68,5.12 C21.76,4.52 21.12,-1.48 19.6,2.24 C17.92,1.64 17.08,0.76 14.76,0.36 C5.48,-1.28 -3.12,7.6 1.12,17.92 C2.32,20.8 5.04,23.28 8.12,24.44 C8.76,24.68 10.2,25.2 10.88,24.92 C11.8,24.52 11.52,23.44 10.68,23.08 C8.56,22.24 7.8,22.4 6.08,21 C3.76,19.16 1.56,15.88 2.08,11.4 C3.16,2.08 14.44,0.32 18.24,3.96 L18.24,3.96 Z" id="Path"></path>
                    <path d="M22.64,6.8 C22.96,6.72 23.32,6.96 23.44,7.36 C23.52,7.76 23.36,8.12 23,8.2 C22.68,8.28 22.32,8.04 22.2,7.64 C22.12,7.28 22.32,6.88 22.64,6.8 L22.64,6.8 Z" id="Path"></path>
                    <path d="M23.56,9.76 C23.96,9.68 24.36,9.92 24.44,10.36 C24.56,10.8 24.32,11.24 23.96,11.32 C23.6,11.4 23.16,11.16 23.08,10.72 C22.96,10.32 23.2,9.88 23.56,9.76 L23.56,9.76 Z" id="Path"></path>
                    <path d="M23.84,12.64 C24.32,12.6 24.76,13 24.8,13.52 C24.88,14.08 24.52,14.56 24.04,14.6 C23.56,14.64 23.12,14.24 23.08,13.72 C23,13.2 23.36,12.72 23.84,12.64 L23.84,12.64 Z" id="Path"></path>
                    <path d="M23.08,15.88 C23.6,15.84 24.08,16.28 24.16,16.88 C24.24,17.48 23.84,18.04 23.32,18.08 C22.8,18.12 22.32,17.68 22.24,17.08 C22.16,16.48 22.56,15.92 23.08,15.88 L23.08,15.88 Z" id="Path"></path>
                    <path d="M21.04,19.16 C21.68,19.16 22.2,19.8 22.2,20.52 C22.2,21.28 21.64,21.84 21,21.84 C20.36,21.84 19.84,21.2 19.84,20.48 C19.84,19.72 20.36,19.12 21.04,19.16 L21.04,19.16 Z" id="Path"></path>
                    <path d="M16.24,22.08 C16.92,22.12 17.44,22.8 17.4,23.6 C17.36,24.4 16.76,25 16.08,24.96 C15.4,24.92 14.88,24.24 14.92,23.44 C14.96,22.64 15.56,22.04 16.24,22.08 L16.24,22.08 Z" id="Path"></path>
                    <path d="M11.88,4.36 L11.88,4.36 C12.24,4.36 12.52,4.64 12.52,5 L12.52,14.72 L11.24,14.72 L11.24,5 C11.24,4.64 11.52,4.36 11.88,4.36 L11.88,4.36 Z" id="Path"></path>
                    <path d="M18.4,14.08 L18.4,14.08 C18.4,14.44 18.12,14.72 17.76,14.72 L11.28,14.72 L11.28,13.44 L17.76,13.44 C18.12,13.44 18.4,13.72 18.4,14.08 L18.4,14.08 Z" id="Path"></path>
                </g>
            </g>
        </g>
    </g>
</svg>