<?xml version="1.0" encoding="UTF-8"?>
<svg width="34px" height="40px" viewBox="0 0 34 40" version="1.1" xmlns="http://www.w3.org/2000/svg" xmlns:xlink="http://www.w3.org/1999/xlink">
    <title>red_shield</title>
    <g id="user_employee_manager" stroke="none" stroke-width="1" fill="none" fill-rule="evenodd">
        <g id="employees_list-view" transform="translate(-1602.000000, -1263.000000)" fill-rule="nonzero">
            <g id="red_shield" transform="translate(1602.000000, 1263.000000)">
                <path d="M14.755,38.61 C10.855,36.465 7.54,33.41 5.07,29.705 C3.12,26.65 1.69,23.27 0.91,19.695 C-0.455,13.52 0.195,8.385 0.26,8.19 L0.715,4.745 L3.51,4.745 C6.37,4.745 9.295,4.225 11.96,3.12 C13.065,2.73 14.105,2.21 15.145,1.56 L16.9,0.39 L18.655,1.625 C19.63,2.21 20.67,2.73 21.775,3.185 C24.44,4.225 27.365,4.745 30.225,4.81 L33.02,4.81 L33.475,8.255 C33.475,8.45 34.19,13.585 32.825,19.76 C32.045,23.335 30.68,26.715 28.665,29.77 C26.195,33.475 22.88,36.53 18.98,38.675 L16.835,39.975 L14.755,38.61 Z M6.435,10.985 C6.435,11.245 6.435,11.505 6.435,11.765 C6.435,13.975 6.695,16.185 7.15,18.33 C7.735,21.125 8.84,23.79 10.4,26.26 C12.09,28.795 14.3,30.94 16.9,32.5 C19.5,30.94 21.71,28.795 23.4,26.26 C24.895,23.985 26,21.32 26.65,18.33 C27.105,16.185 27.365,13.975 27.365,11.765 C27.365,11.505 27.365,11.245 27.365,10.985 C24.635,10.725 21.97,10.075 19.435,9.1 C18.59,8.775 17.68,8.385 16.9,7.93 C16.12,8.32 15.21,8.71 14.365,9.1 C11.83,10.075 9.165,10.725 6.435,10.985 L6.435,10.985 Z" id="Shape" fill="#FFFFFF"></path>
                <path d="M14.95,38.155 C11.115,36.075 7.865,33.085 5.46,29.38 C3.51,26.39 2.145,23.01 1.365,19.5 C-1.45439216e-13,13.39 0.65,8.32 0.715,8.125 L1.105,5.135 L3.445,5.135 C6.37,5.135 9.36,4.55 12.09,3.51 C13.195,3.055 14.3,2.535 15.34,1.885 L16.9,0.845 L18.395,1.885 C19.435,2.535 20.475,3.055 21.645,3.445 C24.375,4.485 27.3,5.07 30.29,5.07 L32.63,5.07 L33.02,8.06 C33.02,8.255 33.735,13.26 32.37,19.435 C31.525,23.075 30.16,26.39 28.275,29.25 C25.87,32.89 22.62,35.88 18.72,37.96 L16.9,39.325 L14.95,38.155 Z M5.98,10.53 C5.98,10.92 5.98,11.31 5.98,11.765 C5.98,13.975 6.24,16.25 6.695,18.395 C7.28,21.255 8.45,23.985 10.01,26.455 C11.765,29.12 14.17,31.395 16.9,33.02 C19.695,31.395 22.035,29.12 23.79,26.455 C25.35,24.115 26.455,21.385 27.105,18.395 C27.56,16.185 27.82,13.975 27.82,11.765 C27.82,11.375 27.82,10.92 27.82,10.53 C25.025,10.27 22.23,9.62 19.63,8.58 C18.72,8.19 17.81,7.8 16.9,7.345 C15.99,7.8 15.145,8.255 14.17,8.58 C11.57,9.685 8.775,10.335 5.98,10.53 L5.98,10.53 Z" id="Shape" fill="#DD2525"></path>
                <path d="M15.21,37.765 C11.44,35.75 8.19,32.76 5.85,29.185 C3.965,26.195 2.6,22.945 1.82,19.5 C0.455,13.455 1.105,8.515 1.17,8.32 L1.495,5.72 L3.445,5.72 C6.435,5.72 9.425,5.135 12.22,4.03 C13.39,3.575 14.495,3.055 15.535,2.405 L16.77,1.56 L18.005,2.405 C19.045,3.055 20.15,3.575 21.32,4.03 C24.115,5.135 27.105,5.72 30.095,5.72 L32.045,5.72 L32.37,8.32 C32.37,8.515 33.085,13.455 31.72,19.5 C30.94,22.945 29.64,26.26 27.69,29.185 C25.35,32.76 22.1,35.75 18.33,37.765 L16.9,38.74 L15.21,37.765 Z M5.525,10.075 C5.525,10.53 5.46,11.05 5.46,11.765 C5.46,14.04 5.72,16.315 6.24,18.525 C6.89,21.45 7.995,24.245 9.62,26.715 C11.44,29.51 13.975,31.915 16.9,33.605 C19.825,31.915 22.36,29.575 24.18,26.715 C25.805,24.18 26.91,21.45 27.56,18.525 C28.08,16.315 28.275,14.04 28.275,11.765 C28.275,11.115 28.275,10.53 28.21,10.075 C26.91,10.01 25.61,9.815 24.31,9.49 C22.75,9.165 21.19,8.71 19.76,8.125 C18.785,7.735 17.81,7.28 16.9,6.76 C15.99,7.28 15.015,7.67 14.04,8.125 C12.545,8.71 11.05,9.165 9.49,9.49 C8.125,9.815 6.825,10.01 5.525,10.075 Z" id="Shape" fill="#FFFFFF"></path>
                <path d="M31.525,8.45 L31.33,6.825 L30.355,6.825 C27.17,6.825 24.115,6.24 21.125,5.07 C19.89,4.615 18.72,4.03 17.55,3.315 L16.9,2.86 L16.25,3.315 C15.145,4.03 13.91,4.615 12.675,5.07 C9.75,6.24 6.63,6.825 3.445,6.825 L2.47,6.825 L2.275,8.45 L2.275,8.45 C2.275,8.71 1.625,13.39 2.925,19.24 C3.705,22.685 5.005,25.87 6.76,28.6 C9.035,32.045 12.09,34.84 15.73,36.79 L16.835,37.44 L17.94,36.79 C21.58,34.84 24.635,31.98 26.91,28.6 C28.73,25.74 30.03,22.555 30.745,19.24 C32.175,13.39 31.525,8.645 31.525,8.45 Z M28.665,18.785 C28.015,21.84 26.845,24.765 25.155,27.365 C23.075,30.485 20.28,33.085 16.965,34.84 L16.965,34.84 L16.965,34.84 C13.65,33.085 10.855,30.485 8.775,27.365 C7.15,24.83 5.915,21.97 5.265,18.785 C4.745,16.51 4.485,14.17 4.485,11.765 C4.485,10.855 4.485,9.945 4.615,9.035 C6.175,8.97 7.8,8.775 9.295,8.45 C10.79,8.125 12.285,7.67 13.715,7.15 C14.82,6.695 15.99,6.175 17.03,5.59 C18.07,6.175 19.175,6.695 20.345,7.15 C21.775,7.735 23.27,8.125 24.765,8.45 C26.325,8.775 27.885,8.97 29.445,9.035 C29.51,9.945 29.575,10.855 29.575,11.765 C29.445,14.105 29.185,16.445 28.665,18.785 Z" id="Shape" fill="#DD2525"></path>
                <path d="M28.535,18.85 C27.885,21.905 26.715,24.83 25.025,27.43 C22.945,30.55 20.15,33.085 16.835,34.905 L16.835,34.905 L16.835,34.905 C13.52,33.15 10.725,30.55 8.645,27.43 C7.02,24.895 5.785,22.035 5.135,18.85 C4.615,16.575 4.355,14.235 4.355,11.83 C4.355,10.92 4.355,10.01 4.485,9.1 C6.045,9.035 7.67,8.84 9.165,8.515 C10.66,8.19 12.155,7.735 13.585,7.215 C14.69,6.76 15.795,6.24 16.9,5.655 C17.94,6.24 19.045,6.76 20.215,7.215 C21.645,7.8 23.14,8.19 24.635,8.515 C26.195,8.84 27.755,9.035 29.315,9.1 C29.38,10.01 29.445,10.92 29.445,11.83 C29.315,14.17 29.055,16.51 28.535,18.85 Z" id="Path" fill="#FFFFFF"></path>
                <polygon id="Path" fill="#DD2525" points="19.045 25.61 16.9 22.295 14.82 25.61 10.075 25.61 14.56 19.37 10.205 13.195 14.885 13.195 17.03 16.315 19.11 13.195 23.595 13.195 19.305 19.175 23.855 25.61 19.045 25.61"></polygon>
            </g>
        </g>
    </g>
</svg>