<?xml version="1.0" encoding="UTF-8"?>
<svg width="34px" height="40px" viewBox="0 0 34 40" version="1.1" xmlns="http://www.w3.org/2000/svg" xmlns:xlink="http://www.w3.org/1999/xlink">
    <title>red shield copy 2</title>
    <g id="user_employee_manager" stroke="none" stroke-width="1" fill="none" fill-rule="evenodd">
        <g id="employees_list-view" transform="translate(-1600.000000, -1262.000000)">
            <g id="red-shield-copy-2" transform="translate(1600.000000, 1262.000000)">
                <g id="badge_art" fill-rule="nonzero">
                    <path d="M14.6371338,37.7475979 C10.7407941,35.6513847 7.43288116,32.6410335 4.99965674,28.9687202 C3.02763172,25.942608 1.62813009,22.6012757 0.864765567,19.0865725 C-0.518832632,12.955543 0.165014754,7.91202261 0.196821609,7.69136859 L0.673924436,4.31851433 L3.44112083,4.31851433 C6.31964123,4.30275333 9.18225819,3.78264029 11.8858409,2.74241421 C12.9831774,2.33262818 14.0328036,1.81251514 15.0347195,1.21359709 L16.8159034,0 L18.5970873,1.21359709 C19.5830998,1.81251514 20.632726,2.31686718 21.7141591,2.72665321 C24.4018384,3.76687929 27.2644553,4.28699233 30.1588792,4.30275333 L32.9260756,4.30275333 L33.4031784,7.69136859 C33.4349852,7.89626161 34.1188326,12.939782 32.7352344,19.0865725 C31.9718699,22.6012757 30.5723683,25.958369 28.6003433,28.9687202 C26.1671188,32.6410335 22.8592059,35.6513847 18.9628662,37.7475979 L16.8,39.04 L14.6371338,37.7475979 Z M6.36735151,10.4653048 C6.36735151,10.7174808 6.35144808,10.9854178 6.35144808,11.2375939 C6.35144808,13.412612 6.58999949,15.5718692 7.06710232,17.6996044 C7.67143257,20.4735406 8.76876907,23.1213888 10.3114015,25.5013 C11.9812614,28.0230602 14.1918379,30.1350343 16.7840966,31.6953734 C19.3763553,30.1350343 21.5869317,28.0230602 23.2567916,25.5013 C24.7517138,23.2317158 25.8490503,20.6153896 26.5010908,17.6996044 C26.9781936,15.5718692 27.2167451,13.412612 27.2167451,11.2375939 C27.2167451,10.9854178 27.2167451,10.7174808 27.2008416,10.4653048 C24.4972589,10.1973678 21.8413865,9.55116673 19.3127416,8.57398466 C18.4539565,8.24300363 17.5951714,7.8647396 16.7840966,7.43919257 C15.9889252,7.8489786 15.1301401,8.22724263 14.2554516,8.57398466 C11.7268066,9.55116673 9.0709342,10.1973678 6.36735151,10.4653048 L6.36735151,10.4653048 Z" id="Shape" fill="#FFFFFF"></path>
                    <path d="M15.0373497,37.6116424 C11.2060099,35.5374304 7.94698632,32.5606985 5.56233494,28.9347859 C3.62281849,25.9422204 2.2397207,22.6329813 1.49252993,19.1495717 C0.125329812,13.0694387 0.808929873,8.08182952 0.824827549,7.87599168 L1.23816712,4.8834262 L3.59102314,4.8834262 C6.53209317,4.86759252 9.45726552,4.31341372 12.1916658,3.25255717 C13.3204007,2.82504782 14.4014427,2.30253638 15.4347916,1.66918919 L16.9609685,0.64 L18.4712477,1.68502287 C19.488699,2.30253638 20.5697409,2.8408815 21.6984759,3.25255717 C24.4487738,4.31341372 27.3580485,4.86759252 30.3150162,4.8834262 L32.6678722,4.8834262 L33.0812118,7.87599168 C33.1130071,8.08182952 33.7966072,13.053605 32.4294071,19.1495717 C31.6186256,22.7754844 30.2514255,26.0530561 28.3596021,28.9189522 C25.959053,32.5448649 22.7000295,35.5215967 18.8686896,37.5799751 L16.9609685,38.72 L15.0373497,37.6116424 Z M6.07106057,10.1877089 C6.05516289,10.5835509 6.03926522,10.9793929 6.03926522,11.3910686 C6.03926522,13.6077838 6.27773036,15.824499 6.77055831,17.9937131 C7.37466999,20.8437755 8.50340497,23.5513347 10.0772749,25.9897214 C11.8419169,28.6497796 14.1947729,30.8823285 16.9609685,32.4973638 C19.7271641,30.8823285 22.0800201,28.6497796 23.8287645,25.9897214 C25.3549413,23.6780042 26.4677787,20.9862786 27.1513787,17.9937131 C27.628309,15.824499 27.8667741,13.6077838 27.8826718,11.3910686 C27.8826718,10.9793929 27.8826718,10.5835509 27.8508764,10.1877089 C25.0369878,9.95020374 22.2866899,9.30102287 19.6635734,8.27183368 C18.7415082,7.90765904 17.8353407,7.49598337 16.9609685,7.03680665 C16.0865963,7.49598337 15.1804288,7.90765904 14.2424659,8.27183368 C11.6352471,9.30102287 8.86905152,9.95020374 6.07106057,10.1877089 L6.07106057,10.1877089 Z" id="Shape" fill="#DD2525"></path>
                    <path d="M15.1303318,37.1024507 C11.3616522,35.0842845 8.16543031,32.1674036 5.81199327,28.6198458 C3.90380108,25.6871979 2.55216494,22.4392117 1.80478966,19.0335561 C0.453153521,13.057892 1.12102079,8.1859126 1.15282399,7.98094259 L1.50265923,5.41093402 L3.44265463,5.41093402 C3.80864,5.40901399 4.17415375,5.39914431 4.53893744,5.38132498 C7.16968845,5.25281534 9.76246862,4.71084269 12.2203387,3.75540703 C13.3811556,3.32970009 14.4942678,2.77785775 15.5437735,2.13141388 L16.8,1.28 L18.0562265,2.13141388 C19.1057322,2.77785775 20.2188444,3.31393316 21.3796613,3.7396401 C24.1783432,4.81179092 27.1519427,5.37940017 30.1573454,5.37940017 L32.0973408,5.37940017 L32.447176,7.94940874 C32.4789792,8.15437875 33.1468465,13.0263582 31.7952103,19.0020223 C31.0478351,22.4076778 29.6961989,25.6556641 27.7880067,28.5883119 C25.4345697,32.1358698 22.2383478,35.0527506 18.4696682,37.0709169 L16.7840984,38.08 L15.1303318,37.1024507 Z M5.46215804,9.76260497 C5.43035483,10.2040788 5.41445323,10.7559212 5.41445323,11.402365 C5.41445323,13.6412682 5.66887886,15.8801714 6.16182851,18.0717738 C6.78199097,20.9571208 7.92690629,23.7163325 9.54886966,26.1917395 C11.3934554,28.982485 13.8900069,31.3159897 16.8159016,32.9715167 C19.7417963,31.3159897 22.2383478,28.982485 24.0829335,26.1917395 C25.6889953,23.7163325 26.8339106,20.9571208 27.4540731,18.0717738 C27.9470227,15.8801714 28.1855468,13.6412682 28.1855468,11.402365 C28.1855468,10.7559212 28.1696452,10.2040788 28.137842,9.76260497 C26.8339106,9.66800343 25.5299793,9.47880034 24.2419496,9.21076264 C22.6835926,8.87965724 21.1570388,8.42241645 19.6781899,7.8548072 C18.6922906,7.47640103 17.7222929,7.03492716 16.8,6.5303856 C15.8618055,7.03492716 14.9077094,7.4606341 13.9218101,7.8548072 C12.4429612,8.43818338 10.9164074,8.87965724 9.35805044,9.21076264 C8.0700207,9.49456727 6.78199097,9.66800343 5.46215804,9.76260497 Z" id="Shape" fill="#FFFFFF"></path>
                    <path d="M31.4972909,8.06116343 L31.2748624,6.44875346 L30.3215974,6.44875346 C27.175823,6.43294552 24.0777118,5.84805171 21.1384781,4.7256879 C19.8992337,4.26725762 18.7235402,3.6823638 17.59551,2.9868144 L16.9758877,2.56 L16.3403778,2.9868144 C15.2282353,3.6823638 14.0366541,4.26725762 12.7974096,4.7256879 C9.87406368,5.86385965 6.76006476,6.44875346 3.63017809,6.44875346 L2.64513761,6.44875346 L2.42270912,8.06116343 C2.39093362,8.29828255 1.75542364,12.9774331 3.0582191,18.7473315 C3.82083108,22.1776547 5.12362655,25.291819 6.90305451,27.9949769 C9.15911495,31.4094922 12.2254506,34.2074977 15.8319698,36.1360665 L16.96,36.8 L18.0880302,36.1360665 C21.6945494,34.1916898 24.7608851,31.3936842 27.0169455,27.9949769 C28.8440367,25.1653555 30.1468322,22.0353832 30.8617809,18.7473315 C32.1645764,12.9616251 31.5290664,8.26666667 31.4972909,8.06116343 Z M28.6851592,18.2730933 C28.0337615,21.29241 26.8421802,24.1852632 25.1580788,26.7777655 C23.0926713,29.8919298 20.2964274,32.4370083 16.9917755,34.2074977 L16.96,34.2233056 L16.9282245,34.2074977 C13.6235726,32.4370083 10.8273287,29.8919298 8.76192121,26.7777655 C7.125483,24.2959187 5.93390178,21.4346814 5.2348408,18.2730933 C4.72643281,15.9967498 4.47222882,13.6729825 4.47222882,11.3334072 C4.47222882,10.4323546 4.50400432,9.53130194 4.59933081,8.63024931 C6.17221802,8.56701754 7.74510523,8.37732225 9.28621695,8.04535549 C10.7796654,7.72919668 12.2572261,7.28657433 13.6712358,6.7332964 C14.7992661,6.29067405 15.9114085,5.769012 16.96,5.16831025 C18.0085915,5.769012 19.1207339,6.29067405 20.2487642,6.7332964 C21.6786616,7.28657433 23.1403346,7.72919668 24.6337831,8.04535549 C26.1748948,8.37732225 27.747782,8.56701754 29.3206692,8.63024931 C29.4159957,9.53130194 29.4477712,10.4323546 29.4477712,11.3334072 C29.4477712,13.6729825 29.1935672,15.9967498 28.6851592,18.2730933 Z" id="Shape" fill="#DD2525"></path>
                    <path d="M28.6778626,18.2541023 C28.0268702,21.2801741 26.8360305,24.1794995 25.1529771,26.777802 C23.088855,29.8989336 20.2943511,32.4497062 16.9917557,34.2241567 L16.96,34.24 L16.9282443,34.2241567 C13.6415267,32.4497062 10.831145,29.8989336 8.7670229,26.777802 C7.13160305,24.2904026 5.94076336,21.4227639 5.2421374,18.2541023 C4.7340458,15.9726659 4.48,13.6436997 4.48,11.2988901 C4.48,10.3958215 4.51175573,9.49275299 4.6070229,8.58968444 C6.1789313,8.52631121 7.75083969,8.33619151 9.29099237,8.00348205 C10.7835115,7.68661589 12.2601527,7.24300326 13.6732824,6.68848749 C14.8006107,6.24487486 15.8961832,5.7220457 16.96,5.12 C18.0079389,5.7220457 19.1035115,6.24487486 20.2467176,6.68848749 C21.6757252,7.24300326 23.1364885,7.68661589 24.6290076,8.00348205 C26.1691603,8.33619151 27.7410687,8.52631121 29.3129771,8.57384113 C29.4082443,9.47690968 29.44,10.3799782 29.44,11.2830468 C29.44,13.6436997 29.1859542,15.9726659 28.6778626,18.2541023 Z" id="Path" fill="#FFFFFF"></path>
                </g>
                <text id="X" font-family="Montserrat-Black, Montserrat" font-size="14.4" font-weight="700" fill="#DD2525">
                    <tspan x="11.36" y="23.76">X</tspan>
                </text>
            </g>
        </g>
    </g>
</svg>