<?xml version="1.0" encoding="UTF-8"?>
<svg width="39px" height="45px" viewBox="0 0 39 45" version="1.1" xmlns="http://www.w3.org/2000/svg" xmlns:xlink="http://www.w3.org/1999/xlink">
    <title>AEB0697C-E9BD-4D43-80F9-0727F480B57F</title>
    <g id="user_employee_manager" stroke="none" stroke-width="1" fill="none" fill-rule="evenodd">
        <g id="user_employee_status-Positive-test" transform="translate(-1315.000000, -922.000000)" fill-rule="nonzero">
            <g id="badge_art" transform="translate(1315.000000, 922.000000)">
                <path d="M16.7383022,43.350757 C12.2826408,40.9433872 8.4998752,37.4861869 5.71736012,33.2687646 C3.46224986,29.7934639 1.86184903,25.9561526 0.988903124,21.9197356 C-0.593311333,14.8786314 0.188702709,9.08646346 0.225075455,8.83305612 L0.770666647,4.9595438 L3.93509556,4.9595438 C7.22682909,4.94144328 10.5003762,4.34412596 13.5920597,3.14949132 C14.8469194,2.67887767 16.04722,2.08156036 17.1929615,1.39374041 L19.2298353,0 L21.2667091,1.39374041 C22.3942642,2.08156036 23.5945648,2.66077715 24.8312382,3.1313908 C27.9047353,4.32602543 31.1782824,4.92334275 34.4882023,4.94144328 L37.6526312,4.94144328 L38.1982224,8.83305612 C38.2345952,9.06836294 39.0166092,14.8605309 37.4343947,21.9197356 C36.5614488,25.9561526 34.961048,29.8115644 32.7059378,33.2687646 C29.9234227,37.4861869 26.1406571,40.9433872 21.6849957,43.350757 L19.2116489,44.835 L16.7383022,43.350757 Z M7.2813882,12.0187485 C7.2813882,12.3083569 7.26320183,12.6160658 7.26320183,12.9056742 C7.26320183,15.4035466 7.53599743,17.8833185 8.08158862,20.3268894 C8.7726708,23.5125818 10.0275305,26.5534699 11.7916087,29.2866492 C13.7011779,32.1827331 16.2290838,34.6082035 19.1934626,36.4001554 C22.1578414,34.6082035 24.6857472,32.1827331 26.5953164,29.2866492 C28.3048355,26.6801736 29.5596952,23.6754865 30.3053365,20.3268894 C30.8509277,17.8833185 31.1237233,15.4035466 31.1237233,12.9056742 C31.1237233,12.6160658 31.1237233,12.3083569 31.1055369,12.0187485 C28.0138535,11.7110396 24.9767292,10.968918 22.0850959,9.84668551 C21.1030317,9.46657449 20.1209676,9.03216189 19.1934626,8.54344772 C18.2841439,9.01406136 17.3020798,9.44847396 16.3018292,9.84668551 C13.4101959,10.968918 10.3730716,11.7110396 7.2813882,12.0187485 L7.2813882,12.0187485 Z" id="Shape" fill="#FFFFFF"></path>
                <path d="M17.1959693,43.1946206 C12.8146385,40.8125177 9.08778043,37.3939272 6.36081108,33.2297931 C4.14287602,29.7930187 2.56123379,25.9925644 1.7067834,21.9920863 C0.143320974,15.0094335 0.925052186,9.28147609 0.943231982,9.0450842 L1.41590667,5.60830977 L4.10651642,5.60830977 C7.46977862,5.59012578 10.814861,4.95368607 13.9417859,3.73535863 C15.2325514,3.24439085 16.4687775,2.64431913 17.6504642,1.91695946 L19.3957246,0.735 L21.1228051,1.93514345 C22.2863121,2.64431913 23.5225382,3.26257484 24.8133037,3.73535863 C27.9584083,4.95368607 31.2853109,5.59012578 34.6667529,5.60830977 L37.3573627,5.60830977 L37.8300373,9.0450842 C37.8663969,9.28147609 38.6481281,14.9912495 37.0846657,21.9920863 C36.1574961,26.1562204 34.5940337,29.9203067 32.430638,33.2116091 C29.6854889,37.3757432 25.9586308,40.7943337 21.5773,43.1582526 L19.3957246,44.4675 L17.1959693,43.1946206 Z M6.94256454,11.699947 C6.92438475,12.1545468 6.90620495,12.6091466 6.90620495,13.0819304 C6.90620495,15.6276892 7.17890189,18.173448 7.74247555,20.6646549 C8.43330779,23.9377734 9.72407328,27.047236 11.523873,29.8475707 C13.5418304,32.9024813 16.2324401,35.4664241 19.3957246,37.3211913 C22.559009,35.4664241 25.2496188,32.9024813 27.2493963,29.8475707 C28.9946567,27.1927079 30.2672424,24.1014293 31.0489736,20.6646549 C31.5943674,18.173448 31.8670644,15.6276892 31.8852442,13.0819304 C31.8852442,12.6091466 31.8852442,12.1545468 31.8488846,11.699947 C28.6310607,11.4271871 25.4859561,10.6816435 22.4862898,9.49968399 C21.4318617,9.08145218 20.3956133,8.6086684 19.3957246,8.08133264 C18.3958358,8.6086684 17.3595874,9.08145218 16.2869795,9.49968399 C13.305493,10.6816435 10.1422086,11.4271871 6.94256454,11.699947 L6.94256454,11.699947 Z" id="Shape" fill="#DD2525"></path>
                <path d="M17.302299,42.6098458 C12.9926235,40.292108 9.33758218,36.9422526 6.646308,32.8681041 C4.4641938,29.5001414 2.91852957,25.7700321 2.06386818,21.8588496 C0.51820395,14.9961729 1.28194392,9.401009 1.31831249,9.16561375 L1.71836676,6.21411954 L3.93684953,6.21411954 C4.3553723,6.2119145 4.77335574,6.20057979 5.19050432,6.18011541 C8.19890104,6.03253012 11.1638762,5.4101084 13.9745749,4.31285026 C15.3020277,3.82395244 16.5749276,3.19019602 17.7750904,2.44779563 L19.2116489,1.47 L20.6482075,2.44779563 C21.8483703,3.19019602 23.1212702,3.80584512 24.448723,4.29474293 C27.6491572,5.52604113 31.0496185,6.17790488 34.4864483,6.17790488 L36.7049311,6.17790488 L37.1049854,9.1293991 C37.141354,9.36479434 37.9050939,14.9599582 36.3594297,21.822635 C35.5047683,25.7338175 33.9591041,29.4639267 31.7769899,32.8318895 C29.0857157,36.9060379 25.4306744,40.2558933 21.1209989,42.5736311 L19.1934647,43.7325 L17.302299,42.6098458 Z M6.24625373,11.2117416 C6.20988516,11.7187468 6.19170087,12.3525032 6.19170087,13.0949036 C6.19170087,15.666144 6.48264943,18.2373843 7.04636227,20.7543027 C7.75554938,24.0679434 9.0648179,27.2367256 10.919615,30.0795758 C13.028992,33.2845726 15.8839248,35.9644569 19.2298332,37.8657262 C22.5757417,35.9644569 25.4306744,33.2845726 27.5400515,30.0795758 C29.3766643,27.2367256 30.6859328,24.0679434 31.3951199,20.7543027 C31.9588327,18.2373843 32.231597,15.666144 32.231597,13.0949036 C32.231597,12.3525032 32.2134127,11.7187468 32.1770441,11.2117416 C30.6859328,11.1030977 29.1948214,10.8858098 27.7218943,10.5779852 C25.9398344,10.1977314 24.194143,9.67261889 22.5030045,9.02075514 C21.3755789,8.58617931 20.2663375,8.07917416 19.2116489,7.49973972 C18.1387761,8.07917416 17.047719,8.56807198 15.9202934,9.02075514 C14.2291548,9.69072622 12.4834635,10.1977314 10.7014036,10.5779852 C9.22847647,10.9039171 7.75554938,11.1030977 6.24625373,11.2117416 Z" id="Shape" fill="#FFFFFF"></path>
                <path d="M36.0187437,9.25774238 L35.7643855,7.4059903 L34.6742788,7.4059903 C31.0769268,7.38783587 27.5340802,6.71612188 24.1729179,5.4271572 C22.7557793,4.90067867 21.4113144,4.22896468 20.1213548,3.43016967 L19.4127855,2.94 L18.6860477,3.43016967 C17.4142566,4.22896468 16.0516232,4.90067867 14.6344846,5.4271572 C11.2914908,6.73427632 7.73047565,7.4059903 4.15129209,7.4059903 L3.02484853,7.4059903 L2.7704903,9.25774238 C2.73415341,9.53005886 2.00741563,14.9037708 3.49722808,21.5301385 C4.36931342,25.4696503 5.85912587,29.0460734 7.89399165,32.1504813 C10.4739108,36.0718386 13.9804206,39.2851731 18.1046575,41.5000139 L19.394617,42.2625 L20.6845766,41.5000139 C24.8088135,39.2670187 28.3153233,36.0536842 30.8952424,32.1504813 C32.9846135,28.900838 34.474426,25.3062604 35.292006,21.5301385 C36.7818184,14.8856163 36.0550806,9.49375 36.0187437,9.25774238 Z M32.8029291,20.9855055 C32.0580228,24.4530021 30.6953895,27.7752632 28.7695344,30.75259 C26.4076366,34.3290132 23.2099904,37.2518767 19.4309539,39.2851731 L19.394617,39.3033276 L19.3582801,39.2851731 C15.5792437,37.2518767 12.3815974,34.3290132 10.0196997,30.75259 C8.14834988,27.9023442 6.78571654,24.616392 5.98630498,20.9855055 C5.40491476,18.3712673 5.11421964,15.7025658 5.11421964,13.0157098 C5.11421964,11.9809072 5.15055653,10.9461046 5.2595672,9.91130194 C7.05824321,9.83868421 8.85691921,9.62083102 10.6192583,9.23958795 C12.3270921,8.87649931 14.0167574,8.36817521 15.633749,7.73277008 C16.9237086,7.22444598 18.1954997,6.62534972 19.394617,5.9354813 C20.5937344,6.62534972 21.8655255,7.22444598 23.155485,7.73277008 C24.790645,8.36817521 26.4621419,8.87649931 28.1699757,9.23958795 C29.9323148,9.62083102 31.7309908,9.83868421 33.5296668,9.91130194 C33.6386775,10.9461046 33.6750144,11.9809072 33.6750144,13.0157098 C33.6750144,15.7025658 33.3843193,18.3712673 32.8029291,20.9855055 Z" id="Shape" fill="#DD2525"></path>
                <path d="M32.794585,20.9636956 C32.0501424,24.4389499 30.688357,27.7686439 28.7637003,30.7526319 C26.4032724,34.3370566 23.207616,37.2664595 19.4309313,39.304305 L19.394617,39.3225 L19.3583027,39.304305 C15.5997751,37.2664595 12.3859617,34.3370566 10.0255337,30.7526319 C8.15534847,27.8960092 6.7935631,24.6027054 5.99464902,20.9636956 C5.41362059,18.3436085 5.12310638,15.6689363 5.12310638,12.9760691 C5.12310638,11.9389513 5.15942066,10.9018335 5.26836349,9.86471572 C7.06592017,9.79193553 8.86347686,9.57359494 10.6247193,9.19149891 C12.3314903,8.82759793 14.0201041,8.31813656 15.6360894,7.68130985 C16.9252462,7.17184848 18.1780888,6.57141186 19.394617,5.88 C20.5929881,6.57141186 21.8458307,7.17184848 23.1531446,7.68130985 C24.7872871,8.31813656 26.4577438,8.82759793 28.1645148,9.19149891 C29.9257572,9.57359494 31.7233139,9.79193553 33.5208706,9.84652067 C33.6298134,10.8836385 33.6661277,11.9207563 33.6661277,12.957874 C33.6661277,15.6689363 33.3756134,18.3436085 32.794585,20.9636956 Z" id="Path" fill="#FFFFFF"></path>
            </g>
        </g>
    </g>
</svg>