<?xml version="1.0" encoding="UTF-8"?>
<svg width="31px" height="31px" viewBox="0 0 31 31" version="1.1" xmlns="http://www.w3.org/2000/svg" xmlns:xlink="http://www.w3.org/1999/xlink">
    <title>505B03F6-97AB-4EF4-846E-95A0987958C5</title>
    <g id="employee_manager" stroke="none" stroke-width="1" fill="none" fill-rule="evenodd">
        <g id="employees_list-view" transform="translate(-1644.000000, -312.000000)" fill="#DD2525">
            <g id="redclock" transform="translate(1644.000000, 312.000000)">
                <path d="M28.8454567,10.8878049 L29.7563658,3.47804878 L27.0236384,4.9902439 C24.1390927,1.81463415 19.8881833,0 15.4854557,0 C6.98363688,0 0,6.95609756 0,15.4243902 C0,24.0439024 6.98363688,31 15.6372739,31 C23.2281835,31 29.7563658,25.5560976 30.9709114,18.1463415 C31.1227296,17.3902439 30.667275,16.7853659 29.908184,16.6341463 C29.1490931,16.4829268 28.5418203,16.9365854 28.3900021,17.6926829 C27.3272747,23.8926829 22.013638,28.4292683 15.6372739,28.4292683 C8.50181881,28.4292683 2.73272747,22.6829268 2.73272747,15.5756098 C2.73272747,8.46829268 8.50181881,2.72195122 15.6372739,2.72195122 C19.1290923,2.72195122 22.3172744,4.08292683 24.7463655,6.50243902 L22.1654562,8.01463415 L28.8454567,10.8878049 L28.8454567,10.8878049 Z" id="Path"></path>
                <path d="M14,6.16896334 C14,5.58448167 14.4686309,5 15.2496823,5 C15.8745235,5 16.4993647,5.43836125 16.4993647,6.16896334 L16.4993647,13.9133454 L20.5608322,16.9818742 C21.0294631,17.4202354 21.1856734,18.0047171 20.7170425,18.5891988 C20.2484116,19.02756 19.6235705,19.1736804 18.9987293,18.7353192 L14.4686309,15.3745496 C14.1562103,15.2284292 14,14.7900679 14,14.4978271 L14,6.16896334 L14,6.16896334 Z" id="Path" fill-rule="nonzero"></path>
            </g>
        </g>
    </g>
</svg>