<?xml version="1.0" encoding="UTF-8"?>
<svg width="21px" height="30px" viewBox="0 0 21 30" version="1.1" xmlns="http://www.w3.org/2000/svg" xmlns:xlink="http://www.w3.org/1999/xlink">
    <title>requsitioned2_icon</title>
    <g id="lab_manager" stroke="none" stroke-width="1" fill="none" fill-rule="evenodd">
        <g id="lab_manager-copy" transform="translate(-1349.000000, -344.000000)" fill="#0F84A9" fill-rule="nonzero">
            <g id="status-icons" transform="translate(1345.000000, 344.000000)">
                <g id="requsitioned2_icon" transform="translate(4.000000, 0.000000)">
                    <path d="M1.68421053,27.9176471 L1.68421053,4.9254902 L3.78947368,4.9254902 L3.78947368,3.2 L1.51578947,3.2 C0.673684211,3.2 0,3.89019608 0,4.75294118 L0,28.0470588 C0,28.9098039 0.673684211,29.6 1.51578947,29.6 L11.2,29.6 C10.8631579,29.0823529 10.5684211,28.4784314 10.3578947,27.8745098 L1.68421053,27.8745098 L1.68421053,27.9176471 Z" id="Path"></path>
                    <path d="M19.0222222,19.3263158 C19.6444444,19.4947368 20.2222222,19.7052632 20.8,20 L20.8,5.51578947 C20.8,4.67368421 20.0888889,4 19.2,4 L16.8,4 L16.8,5.68421053 L19.0222222,5.68421053 L19.0222222,19.3263158 Z" id="Path"></path>
                    <path d="M7.57096774,5.6 L14.1129032,5.6 C15.1612903,5.6 16,4.7641791 16,3.71940299 L16,3.00895522 C16,2.71641791 15.7483871,2.46567164 15.4548387,2.46567164 L13.2741935,2.46567164 C13.2741935,1.12835821 12.183871,0 10.8,0 C9.45806452,0 8.32580645,1.08656716 8.32580645,2.46567164 L6.14516129,2.46567164 C5.8516129,2.46567164 5.6,2.71641791 5.6,3.00895522 L5.6,3.71940299 C5.64193548,4.7641791 6.52258065,5.6 7.57096774,5.6 Z M10.8419355,1.46268657 C11.3870968,1.46268657 11.8483871,1.92238806 11.8483871,2.46567164 C11.8483871,3.00895522 11.3870968,3.46865672 10.8419355,3.46865672 C10.2967742,3.46865672 9.83548387,3.00895522 9.83548387,2.46567164 C9.83548387,1.92238806 10.2967742,1.46268657 10.8419355,1.46268657 Z" id="Shape"></path>
                    <path d="M7.71788413,21.6853333 C7.6372796,21.6 7.55667506,21.6 7.47607053,21.6 C7.39546599,21.6 7.31486146,21.6426667 7.23425693,21.6853333 L5.58186398,23.4346667 L4.85642317,22.6666667 C4.77581864,22.5813333 4.69521411,22.5813333 4.61460957,22.5813333 C4.53400504,22.5813333 4.4534005,22.624 4.37279597,22.6666667 L4.0906801,22.9653333 C3.9697733,23.0933333 3.9697733,23.3066667 4.0906801,23.4346667 L5.29974811,24.7146667 C5.38035264,24.8 5.46095718,24.8 5.54156171,24.8 C5.62216625,24.8 5.70277078,24.7573333 5.78337531,24.7146667 L7.91939547,22.4533333 C8,22.368 8,22.2826667 8,22.1973333 C8,22.112 7.95969773,22.0266667 7.91939547,21.9413333 L7.71788413,21.6853333 Z" id="Path"></path>
                    <path d="M7.91939547,17.184 L7.6372796,16.8853333 C7.55667506,16.8 7.47607053,16.8 7.39546599,16.8 C7.31486146,16.8 7.23425693,16.8426667 7.15365239,16.8853333 L5.50125945,18.6346667 L4.77581864,17.8666667 C4.69521411,17.7813333 4.61460957,17.7813333 4.53400504,17.7813333 C4.4534005,17.7813333 4.37279597,17.824 4.29219144,17.8666667 L4.0906801,18.1653333 C3.9697733,18.2933333 3.9697733,18.5066667 4.0906801,18.6346667 L5.29974811,19.9146667 C5.38035264,20 5.46095718,20 5.54156171,20 C5.62216625,20 5.70277078,19.9573333 5.78337531,19.9146667 L7.91939547,17.6533333 C8,17.568 8,17.4826667 8,17.3973333 C8,17.312 7.95969773,17.2266667 7.91939547,17.184 Z" id="Path"></path>
                    <polygon id="Path" points="16.8 14.4 8.8 14.4 8.84301075 15.2 16.8 15.2"></polygon>
                    <path d="M7.94324087,13.184 L7.6622975,12.8853333 C7.62216273,12.8 7.5418932,12.8 7.46162366,12.8 C7.38135413,12.8 7.30108459,12.8426667 7.22081506,12.8853333 L5.57528961,14.6346667 L4.8528638,13.8666667 C4.77259427,13.7813333 4.69232473,13.7813333 4.6120552,13.7813333 C4.53178566,13.7813333 4.45151613,13.824 4.3712466,13.8666667 L4.09030323,14.1653333 C3.96989892,14.2933333 3.96989892,14.5066667 4.09030323,14.6346667 L5.29434624,15.9146667 C5.37461577,16 5.45488531,16 5.53515484,16 C5.61542438,16 5.69569391,15.9573333 5.77596344,15.9146667 L7.9031061,13.6533333 C7.98337564,13.568 7.98337564,13.4826667 7.98337564,13.3973333 C8.0235104,13.312 7.98337564,13.2266667 7.94324087,13.184 Z" id="Path"></path>
                    <polygon id="Path" points="16.8 9.6 8.8 9.6 8.84301075 10.4 16.8 10.4"></polygon>
                    <path d="M4.0906801,9.38947368 C3.9697733,9.51578947 3.9697733,9.72631579 4.0906801,9.85263158 L5.29974811,11.1157895 C5.38035264,11.2 5.46095718,11.2 5.54156171,11.2 C5.62216625,11.2 5.70277078,11.1578947 5.78337531,11.1157895 L7.91939547,8.88421053 C8,8.8 8,8.71578947 8,8.63157895 C8,8.54736842 7.95969773,8.46315789 7.91939547,8.37894737 L7.6372796,8.08421053 C7.55667506,8 7.47607053,8 7.39546599,8 C7.31486146,8 7.23425693,8.04210526 7.15365239,8.08421053 L5.50125945,9.81052632 L4.77581864,9.05263158 C4.69521411,8.96842105 4.61460957,8.96842105 4.53400504,8.96842105 C4.4534005,8.96842105 4.37279597,9.01052632 4.29219144,9.05263158 L4.0906801,9.38947368 Z" id="Path"></path>
                    <path d="M20.5554944,22.6869565 C20.3386034,22.6 20.0349559,22.5130435 19.6879303,22.4695652 C19.6011738,22.4695652 19.6011738,22.426087 19.5144174,22.3826087 C19.5144174,22.3826087 19.4710392,22.3826087 19.4710392,22.3391304 C19.3842828,22.2521739 19.3409046,22.2086957 19.2975264,22.1217391 C19.21077,21.9043478 19.1240135,21.6869565 19.0372571,21.426087 C18.9938789,21.3391304 18.9505007,21.2521739 18.9938789,21.1652174 C18.9938789,21.1217391 18.9938789,21.0782609 19.0372571,21.0782609 C19.0372571,21.0347826 19.0806353,20.9913043 19.1240135,20.9478261 C19.2975264,20.6434783 19.4710392,20.3826087 19.5577956,20.2086957 C19.644552,20.0347826 19.644552,19.8173913 19.4710392,19.6869565 L19.2975264,19.5565217 L18.8203661,19.0782609 L18.7336097,18.9913043 C18.603475,18.8608696 18.3432058,18.8173913 18.2130712,18.9043478 C17.9961801,18.9913043 17.7359109,19.1652174 17.4322634,19.3391304 C17.3888852,19.3826087 17.345507,19.426087 17.2587506,19.426087 L17.2153724,19.426087 C17.128616,19.426087 16.9984813,19.426087 16.9551031,19.3826087 C16.7382121,19.2956522 16.5213211,19.1652174 16.2610518,19.1217391 C16.1742954,19.0782609 16.087539,19.0347826 16.0441608,18.9478261 C16.0007826,18.9043478 16.0007826,18.8608696 15.9574043,18.8608696 C15.9140261,18.8173913 15.9140261,18.773913 15.8706479,18.7304348 C15.7838915,18.3826087 15.6971351,18.0782609 15.6537569,17.9043478 C15.6103787,17.7304348 15.4368659,17.6 15.2199748,17.6 L15.1332184,17.6 L14.4391671,17.6 L14.2656542,17.6 C14.0487632,17.6 13.8752504,17.7304348 13.8318721,17.9043478 C13.7451157,18.1217391 13.6583593,18.426087 13.6149811,18.773913 C13.6149811,18.8608696 13.5716029,18.8608696 13.5282247,18.9478261 C13.5282247,18.9478261 13.5282247,18.9913043 13.4848465,18.9913043 C13.3980901,19.0782609 13.3547119,19.1217391 13.2679554,19.1652174 C13.0510644,19.2521739 12.8341734,19.3391304 12.5739041,19.426087 C12.4871477,19.4695652 12.4003913,19.5130435 12.3136349,19.4695652 C12.2702567,19.4695652 12.2268784,19.4695652 12.2268784,19.426087 C12.1835002,19.426087 12.140122,19.3826087 12.0967438,19.3391304 C11.7930964,19.1652174 11.5328271,18.9913043 11.3593143,18.9043478 C11.1858014,18.8173913 10.9689104,18.8173913 10.8387758,18.9913043 L10.7520194,19.1217391 L10.2748591,19.5565217 L10.1881027,19.6434783 C10.057968,19.773913 10.0145898,20.0347826 10.1013462,20.1652174 C10.1881027,20.3826087 10.3616155,20.6434783 10.5351283,20.9478261 C10.5785065,20.9913043 10.6218847,21.0347826 10.6218847,21.1217391 L10.6218847,21.1652174 C10.6218847,21.2521739 10.6218847,21.3826087 10.5785065,21.426087 C10.4917501,21.6434783 10.3616155,21.8608696 10.3182373,22.1217391 C10.2748591,22.2086957 10.2314809,22.2956522 10.1447245,22.3391304 C10.1013462,22.3826087 10.057968,22.3826087 10.057968,22.426087 C10.0145898,22.4695652 9.97121162,22.4695652 9.92783341,22.5130435 C9.58080775,22.6 9.27716029,22.6869565 9.10364746,22.7304348 C8.88675642,22.8173913 8.8,22.9478261 8.8,23.1652174 L8.8,23.2521739 L8.8,23.9478261 L8.8,24.1217391 C8.8,24.3391304 8.93013462,24.5130435 9.10364746,24.5565217 C9.3205385,24.6434783 9.62418596,24.7304348 9.97121162,24.773913 C10.057968,24.773913 10.057968,24.8173913 10.1447245,24.8608696 C10.1447245,24.8608696 10.1881027,24.8608696 10.1881027,24.9043478 C10.2748591,24.9913043 10.3182373,25.0347826 10.3616155,25.1217391 C10.4483719,25.3391304 10.5351283,25.5565217 10.6218847,25.8173913 C10.665263,25.9043478 10.7086412,25.9913043 10.665263,26.0782609 C10.665263,26.1217391 10.665263,26.1652174 10.6218847,26.1652174 C10.6218847,26.2086957 10.5785065,26.2521739 10.5351283,26.2956522 C10.3616155,26.6 10.1881027,26.8608696 10.1013462,27.0347826 C10.0145898,27.2086957 10.0145898,27.426087 10.1881027,27.5565217 L10.2748591,27.6434783 L10.7520194,28.1217391 L10.8387758,28.2086957 C10.9689104,28.3391304 11.2291797,28.3826087 11.3593143,28.2956522 C11.5762053,28.2086957 11.8364746,28.0347826 12.140122,27.8608696 C12.1835002,27.8173913 12.2268784,27.773913 12.3136349,27.773913 L12.3570131,27.773913 C12.4437695,27.773913 12.5739041,27.773913 12.6172823,27.8173913 C12.8341734,27.9043478 13.0510644,28.0347826 13.3113337,28.0782609 C13.3980901,28.1217391 13.4848465,28.1652174 13.5282247,28.2521739 C13.5716029,28.2956522 13.5716029,28.3391304 13.6149811,28.3391304 C13.6583593,28.3826087 13.6583593,28.426087 13.7017375,28.4695652 C13.7884939,28.8173913 13.8752504,29.1217391 13.9186286,29.2956522 C14.005385,29.5130435 14.1355196,29.6 14.3524106,29.6 L14.4391671,29.6 L15.1332184,29.6 L15.3067312,29.6 C15.5236223,29.6 15.6971351,29.4695652 15.7405133,29.2956522 C15.8272697,29.0782609 15.9140261,28.773913 15.9574043,28.426087 C15.9574043,28.3391304 16.0007826,28.3391304 16.0441608,28.2521739 C16.0441608,28.2521739 16.0441608,28.2086957 16.087539,28.2086957 C16.1742954,28.1217391 16.2176736,28.0782609 16.30443,28.0347826 C16.5213211,27.9478261 16.7382121,27.8608696 16.9984813,27.773913 C17.0418596,27.8173913 17.128616,27.8173913 17.2587506,27.8173913 C17.3021288,27.8173913 17.345507,27.8173913 17.345507,27.8608696 C17.3888852,27.8608696 17.4322634,27.9043478 17.4756416,27.9478261 C17.7792891,28.1217391 18.0395583,28.2956522 18.2130712,28.3826087 C18.386584,28.4695652 18.603475,28.4695652 18.7336097,28.2956522 L18.8203661,28.2086957 L19.2975264,27.7304348 L19.3842828,27.6434783 C19.5144174,27.5130435 19.5577956,27.2521739 19.4710392,27.1217391 C19.3842828,26.9043478 19.21077,26.6434783 19.0372571,26.3391304 C18.9938789,26.2956522 18.9505007,26.2521739 18.9505007,26.1652174 L18.9505007,26.1217391 C18.9505007,26.0347826 18.9505007,25.9043478 18.9938789,25.8608696 C19.0806353,25.6434783 19.21077,25.426087 19.2541482,25.1652174 C19.2975264,25.0782609 19.3409046,24.9913043 19.427661,24.9478261 C19.4710392,24.9043478 19.5144174,24.9043478 19.5144174,24.8608696 C19.5577956,24.8173913 19.6011738,24.8173913 19.644552,24.773913 C19.9915777,24.6869565 20.2952252,24.6 20.468738,24.5565217 C20.685629,24.4695652 20.7723855,24.3391304 20.7723855,24.1217391 L20.7723855,23.9478261 L20.7723855,23.2521739 L20.7723855,23.0782609 C20.8591419,22.9043478 20.7290072,22.7304348 20.5554944,22.6869565 Z M14.7861927,26.3826087 C13.2679554,26.3826087 12.0099874,25.1217391 12.0099874,23.6 C12.0099874,22.0782609 13.2679554,20.8173913 14.7861927,20.8173913 C16.30443,20.8173913 17.5623981,22.0782609 17.5623981,23.6 C17.5623981,25.1217391 16.30443,26.3826087 14.7861927,26.3826087 Z" id="Shape"></path>
                </g>
            </g>
        </g>
    </g>
</svg>