<?xml version="1.0" encoding="UTF-8"?>
<svg width="23px" height="38px" viewBox="0 0 23 38" version="1.1" xmlns="http://www.w3.org/2000/svg" xmlns:xlink="http://www.w3.org/1999/xlink">
    <title>52C71ECE-4624-42F4-87BC-9E446C9A9F67</title>
    <g id="user_test_manager" stroke="none" stroke-width="1" fill="none" fill-rule="evenodd">
        <g id="test_manager" transform="translate(-157.000000, -130.000000)" fill="#043B5D" fill-rule="nonzero">
            <g id="telemedicine_icon" transform="translate(158.000000, 131.000000)">
                <path d="M17.9657795,0 L2.95437262,0 C1.35741445,0 0,1.4529148 0,3.22869955 L0,32.7713004 C0,34.5470852 1.35741445,36 2.95437262,36 L18.0456274,36 C19.6425856,36 21,34.5470852 21,32.7713004 L21,3.22869955 C20.9201521,1.4529148 19.6425856,0 17.9657795,0 Z M12.6159696,34.0627803 L8.30418251,34.0627803 C7.82509506,34.0627803 7.42585551,33.6591928 7.42585551,33.0941704 C7.42585551,32.6098655 7.82509506,32.1255605 8.30418251,32.1255605 L12.6159696,32.1255605 C13.095057,32.1255605 13.4942966,32.529148 13.4942966,33.0941704 C13.4942966,33.5784753 13.095057,34.0627803 12.6159696,34.0627803 Z M19.9619772,30.6726457 L0.958174905,30.6726457 L0.958174905,3.22869955 C0.958174905,2.01793722 1.8365019,1.04932735 2.95437262,1.04932735 L5.11026616,1.04932735 L5.11026616,1.77578475 C5.11026616,2.42152466 5.58935361,2.98654709 6.22813688,2.98654709 L14.7718631,2.98654709 C15.4106464,2.98654709 15.8897338,2.42152466 15.8897338,1.77578475 L15.8897338,1.04932735 L18.0456274,1.04932735 C19.1634981,1.04932735 20.0418251,2.01793722 20.0418251,3.22869955 L20.0418251,30.6726457 L19.9619772,30.6726457 Z" id="Shape" stroke="#FFFFFF" stroke-width="0.5"></path>
                <g id="Group" transform="translate(2.000000, 10.000000)">
                    <polygon id="Path" points="15.094246 3.48095238 13.4077381 3.48095238 13.4077381 1.86190476 11.889881 1.86190476 11.889881 3.48095238 10.203373 3.48095238 10.203373 4.93809524 11.889881 4.93809524 11.889881 6.47619048 13.4077381 6.47619048 13.4077381 4.93809524 15.094246 4.93809524"></polygon>
                    <path d="M12.6488095,8.33809524 C10.2876984,8.33809524 8.34821429,6.47619048 8.34821429,4.20952381 C8.34821429,1.94285714 10.2876984,0.080952381 12.6488095,0.080952381 C15.0099206,0.080952381 16.9494048,1.94285714 16.9494048,4.20952381 C16.9494048,6.47619048 15.0099206,8.33809524 12.6488095,8.33809524 Z M12.6488095,1.05238095 C10.8779762,1.05238095 9.44444444,2.42857143 9.44444444,4.12857143 C9.44444444,5.82857143 10.8779762,7.28571429 12.6488095,7.28571429 C14.4196429,7.28571429 15.8531746,5.90952381 15.8531746,4.20952381 C15.8531746,2.50952381 14.4196429,1.05238095 12.6488095,1.05238095 Z" id="Shape"></path>
                    <path d="M5.05952381,12.6285714 C5.14384921,12.7095238 10.5406746,17.1619048 12.6488095,16.7571429 C15.3472222,16.1904762 15.8531746,14.5714286 15.8531746,14.5714286 C15.8531746,14.5714286 16.4434524,14.0857143 13.8293651,12.1428571 C11.2152778,10.2 10.4563492,13.1952381 10.4563492,13.1952381 C8.85416667,13.3571429 6.83035714,11.4952381 6.57738095,11.1714286 C6.57738095,11.1714286 6.57738095,11.1714286 6.49305556,11.0904762 C6.24007937,10.847619 4.13194444,9.06666667 4.21626984,7.52857143 C4.21626984,7.52857143 7.33630952,6.63809524 5.14384921,4.20952381 C3.03571429,1.78095238 2.5297619,2.34761905 2.5297619,2.34761905 C2.5297619,2.34761905 0.927579365,2.83333333 0.421626984,5.5047619 C0.0843253968,7.52857143 4.97519841,12.547619 5.05952381,12.6285714 Z" id="Path"></path>
                </g>
            </g>
        </g>
    </g>
</svg>