<?xml version="1.0" encoding="UTF-8"?>
<svg width="41px" height="45px" viewBox="0 0 41 45" version="1.1" xmlns="http://www.w3.org/2000/svg" xmlns:xlink="http://www.w3.org/1999/xlink">
    <title>81537FA6-D1DC-45B3-AC92-A2E2F0D48FC0</title>
    <g id="Insurance" stroke="none" stroke-width="1" fill="none" fill-rule="evenodd">
        <g id="Demographic_intake_insurance-card-1-Copy" transform="translate(-141.000000, -293.000000)" fill="#0F84A9" fill-rule="nonzero">
            <g id="insurance_card_front" transform="translate(89.000000, 248.000000)">
                <g id="UploadPhoto" transform="translate(52.000000, 45.000000)">
                    <polygon id="Path" points="30 6.76530612 8.54304636 6.76530612 8.54304636 39 0 7.76020408 28.013245 0"></polygon>
                    <path d="M40.8,45 L10.2,45 L10.2,8.4 L40.8,8.4 L40.8,45 Z M11.7896104,43.6151351 L39.4090909,43.6151351 L39.4090909,9.9827027 L11.7896104,9.9827027 L11.7896104,43.6151351 Z" id="Shape"></path>
                    <path d="M27,23.7 C27,21.555 25.245,19.8 23.1,19.8 C20.955,19.8 19.2,21.555 19.2,23.7 C19.2,25.845 20.955,27.6 23.1,27.6 C25.245,27.6 27,25.845 27,23.7 Z" id="Path"></path>
                    <polygon id="Path" points="37.8 42 37.8 33.2967033 32.3333333 24 24.5238095 37.2527473 19.8380952 31.5164835 13.2 42"></polygon>
                </g>
            </g>
        </g>
    </g>
</svg>