<?xml version="1.0" encoding="UTF-8"?>
<svg width="25px" height="22px" viewBox="0 0 25 22" version="1.1" xmlns="http://www.w3.org/2000/svg" xmlns:xlink="http://www.w3.org/1999/xlink">
    <title>BBB20329-FF62-4E67-98A3-72AE747CDC96</title>
    <g id="user_employee_manager" stroke="none" stroke-width="1" fill="none" fill-rule="evenodd">
        <g id="employees_list-view" transform="translate(-167.000000, -137.000000)" fill="#043B5D" fill-rule="nonzero">
            <g id="employees_icon-copy" transform="translate(167.000000, 137.000000)">
                <circle id="Oval" cx="6.22222222" cy="4.04444444" r="3.57777778"></circle>
                <circle id="Oval" cx="18.5111111" cy="4.04444444" r="3.57777778"></circle>
                <circle id="Oval" cx="12.3925926" cy="8.97037037" r="3.57777778"></circle>
                <path d="M15.0888889,12.1851852 C14.362963,12.8074074 13.4296296,13.1703704 12.3925926,13.1703704 C11.3555556,13.1703704 10.4222222,12.8074074 9.6962963,12.1851852 C7.72592593,13.1703704 6.32592593,15.2444444 6.27407407,17.6814815 C6.27407407,17.6814815 6.27407407,19.7037037 6.27407407,19.7037037 C6.27407407,20.5333333 9.02222222,21.2592593 12.3925926,21.2592593 C15.762963,21.2592593 18.5111111,20.5851852 18.5111111,19.7037037 L18.5111111,17.6814815 C18.4074074,15.2444444 17.0592593,13.2222222 15.0888889,12.1851852 Z" id="Path"></path>
                <path d="M9.22962963,11.7703704 C8.60740741,11.0444444 8.19259259,10.0592593 8.19259259,9.02222222 C8.19259259,8.55555556 8.24444444,8.14074074 8.4,7.72592593 C7.77777778,8.08888889 7.05185185,8.2962963 6.22222222,8.2962963 C5.18518519,8.2962963 4.25185185,7.93333333 3.52592593,7.31111111 C1.55555556,8.2962963 0.207407407,10.3703704 0.103703704,12.7555556 C0.103703704,12.7555556 0.103703704,14.7777778 0.103703704,14.7777778 C0.103703704,15.6074074 2.64444444,16.2296296 5.80740741,16.3333333 C6.22222222,14.4148148 7.46666667,12.7037037 9.22962963,11.7703704 Z" id="Path"></path>
                <path d="M24.6814815,12.7555556 C24.5777778,10.3703704 23.1777778,8.2962963 21.2074074,7.25925926 C20.4814815,7.88148148 19.5481481,8.24444444 18.5111111,8.24444444 C17.7333333,8.24444444 17.0074074,8.03703704 16.3333333,7.67407407 C16.4888889,8.08888889 16.5407407,8.5037037 16.5407407,8.97037037 C16.5407407,10.0074074 16.1259259,10.9925926 15.5037037,11.7185185 C17.2666667,12.7037037 18.5111111,14.362963 18.9259259,16.3333333 C22.0888889,16.2814815 24.6296296,15.6074074 24.6296296,14.7777778 L24.6814815,12.7555556 Z" id="Path"></path>
            </g>
        </g>
    </g>
</svg>