<?xml version="1.0" encoding="UTF-8"?>
<svg width="31px" height="37px" viewBox="0 0 31 37" version="1.1" xmlns="http://www.w3.org/2000/svg" xmlns:xlink="http://www.w3.org/1999/xlink">
    <title>18A8C4ED-A182-4379-9EB8-18C2863E95A0</title>
    <g id="Page-1" stroke="none" stroke-width="1" fill="none" fill-rule="evenodd">
        <g id="profile_details" transform="translate(-173.000000, -29.000000)" fill-rule="nonzero">
            <g id="flavicon-copy-2" transform="translate(173.000000, 29.000000)">
                <path d="M13.64375,27.75 C13.4125,27.75 12.95,27.51875 12.71875,27.2875 L9.25,23.81875 C8.7875,23.35625 8.7875,22.43125 9.25,21.96875 C9.7125,21.50625 10.6375,21.50625 11.1,21.96875 L13.875,24.74375 L19.8875,18.5 C20.35,18.0375 21.275,18.0375 21.7375,18.5 C22.2,18.9625 22.2,19.8875 21.7375,20.35 L14.56875,27.51875 C14.3375,27.51875 13.875,27.75 13.64375,27.75 Z" id="Path" fill="#0F84A9"></path>
                <path d="M15.49375,37 C7.4,37 0.925,30.525 0.925,22.43125 C0.925,14.3375 7.4,7.8625 15.49375,7.8625 C18.73125,7.8625 21.7375,8.7875 24.28125,10.86875 L24.28125,0 L30.0625,0 L30.0625,22.43125 C30.0625,30.29375 23.5875,37 15.49375,37 Z M15.49375,13.64375 C10.6375,13.64375 6.9375,17.575 6.9375,22.43125 C6.9375,27.2875 10.86875,31.21875 15.725,31.21875 C20.58125,31.21875 24.5125,27.2875 24.5125,22.43125 C24.28125,17.575 20.35,13.64375 15.49375,13.64375 Z" id="Shape" fill="#11BDC6"></path>
            </g>
        </g>
    </g>
</svg>