<?xml version="1.0" encoding="UTF-8"?>
<svg width="1024px" height="772px" viewBox="0 0 1024 772" version="1.1" xmlns="http://www.w3.org/2000/svg" xmlns:xlink="http://www.w3.org/1999/xlink">
    <title>splash_tablet</title>
    <defs>
        <linearGradient x1="50%" y1="0%" x2="50%" y2="100%" id="linearGradient-1">
            <stop stop-color="#0F84A9" stop-opacity="0.7" offset="0%"></stop>
            <stop stop-color="#3396B6" stop-opacity="0.7376" offset="7.207701%"></stop>
            <stop stop-color="#89C3D5" stop-opacity="0.8342" offset="25.68%"></stop>
            <stop stop-color="#C9E3EC" stop-opacity="0.913" offset="40.78%"></stop>
            <stop stop-color="#F0F7FA" stop-opacity="0.9702" offset="51.74%"></stop>
            <stop stop-color="#FFFFFF" offset="57.44%"></stop>
            <stop stop-color="#FFFFFF" offset="100%"></stop>
        </linearGradient>
    </defs>
    <g id="Logon" stroke="none" stroke-width="1" fill="none" fill-rule="evenodd">
        <g id="splash_tablet">
            <rect id="Rectangle" fill="url(#linearGradient-1)" x="0" y="0" width="1024" height="772"></rect>
            <path d="M428.796781,287.109539 C428.64693,287.562506 428.497078,288.166463 428.347227,288.694925 C428.047525,289.449871 427.597971,290.280312 427.148417,290.884269 C426.998565,291.035258 426.998565,291.186247 426.848714,291.186247 C426.848714,291.186247 426.848714,291.337236 426.698863,291.337236 C426.549011,291.488226 426.39916,291.639215 426.249309,291.790204 C425.649903,292.243172 425.20035,292.696139 424.376167,293.149107 C424.076465,293.300096 423.926613,293.451085 423.626911,293.602074 C423.327208,293.753064 423.177357,293.904053 422.877654,293.904053 C422.4281,294.055042 421.978546,294.206031 421.678844,294.35702 C421.528992,294.35702 421.22929,294.50801 421.079438,294.50801 C420.779736,294.50801 420.629884,294.658999 420.330182,294.658999 C420.030479,294.809988 419.730776,294.809988 419.580925,294.809988 C419.281223,294.960977 418.831669,294.960977 418.531966,294.960977 C411.638805,296.168891 403.771611,294.658999 403.771611,294.658999 C375.974192,306.587145 351.84813,296.999331 351.84813,296.999331 C338.811066,300.849556 329.745061,295.640429 329.745061,295.640429 C328.696102,296.244385 327.572217,296.848342 326.523258,297.376804 C323.151603,299.11318 319.779948,300.472083 316.408294,301.529007 C281.942491,313.155176 247.551614,298.433729 247.551614,298.433729 C218.480458,310.814843 197.126646,297.225815 197.126646,297.225815 C189.1096,303.416372 175.023577,299.868126 175.023577,299.868126 C145.80257,310.890338 127.221007,295.187461 126.47175,294.583504 L126.47175,294.583504 C106.766302,301.378018 98.1498513,292.998118 98,285.750636 C98,284.693712 98.1498513,283.410304 98.5994053,282.504368 C98.7492566,282.051401 98.8991079,281.749422 99.0489592,281.447444 C102.570465,274.803919 113.060057,272.010619 122.875319,274.954908 C141.30703,265.669073 161.012479,274.501941 161.012479,274.501941 C166.107423,256.232248 185.438243,260.53544 185.438243,260.53544 C185.887797,249.362239 196.227538,248.607293 196.227538,248.607293 C184.539135,225.656935 204.244583,217.352529 204.244583,217.352529 C209.789082,198.931847 230.693341,196.289536 240.958156,204.216469 C284.639815,196.968988 292.881637,230.866063 292.881637,230.866063 C319.630097,212.445381 332.367459,234.414309 332.367459,234.414309 C346.67826,235.169255 351.398576,245.43652 351.398576,245.43652 C378.59659,241.284317 385.489751,267.556438 385.489751,267.556438 C396.728599,262.573794 406.244158,272.010619 406.244158,272.010619 C413.961501,267.707427 422.877654,270.953695 426.848714,277.295241 C428.64693,280.013047 429.396186,283.410304 428.796781,287.109539 Z" id="Path" fill="#FFFFFF" fill-rule="nonzero" opacity="0.7"></path>
            <path d="M646.549738,120.652311 C650.891542,112.599687 660.548313,108.535745 668.932487,114.029592 C668.932487,114.029592 679.262987,102.063542 691.464954,108.385229 C691.464954,108.385229 698.950823,75.1211162 728.520007,80.3891884 C728.520007,80.3891884 733.685257,67.4447825 749.255865,66.4664262 C749.255865,66.4664262 763.104724,38.69616 792.224756,61.9509358 C792.224756,61.9509358 801.282657,19.1290348 848.668211,28.3105321 C859.897015,18.3011949 882.579199,21.6878128 888.567894,44.9425885 C888.567894,44.9425885 909.977481,55.4787328 897.251503,84.4531298 C897.251503,84.4531298 908.480307,85.431486 908.929459,99.5047645 C908.929459,99.5047645 929.964752,94.0109178 935.504295,117.115177 C935.504295,117.115177 956.913882,105.976967 976.901153,117.717243 C987.605946,114.029592 998.984468,117.491468 1002.80226,125.920384 C1002.95198,126.296674 1003.1017,126.672965 1003.32627,127.275031 C1003.85028,128.479161 1004,129.984325 1004,131.41423 C1003.85028,140.595727 994.492946,151.20713 973.08336,142.55244 L973.08336,142.55244 C972.259914,143.305022 952.048067,163.097921 920.30798,149.175159 C920.30798,149.175159 904.961948,153.69065 896.27834,145.8638 C896.27834,145.8638 873.072145,163.097921 841.481776,147.444221 C841.481776,147.444221 804.052429,166.03299 766.623082,151.357646 C762.955006,150.002999 759.28693,148.196803 755.618854,146.089574 C754.421115,145.487509 753.298235,144.734927 752.100496,143.907087 C752.100496,143.907087 742.219148,150.529806 728.070855,145.638025 C728.070855,145.638025 701.870312,157.754591 671.6274,142.702956 C671.6274,142.702956 663.093509,144.659669 655.60764,143.079247 C655.308205,143.079247 654.784194,143.079247 654.4099,142.853473 C654.260183,142.853473 653.88589,142.853473 653.586455,142.627698 C653.28702,142.627698 653.062444,142.401924 652.763009,142.401924 C652.613292,142.401924 652.238998,142.176149 652.089281,142.176149 C651.789846,141.950375 651.265835,141.799858 650.741824,141.574084 C650.44239,141.574084 650.217814,141.348309 649.918379,141.197793 C649.618944,141.047277 649.394368,140.821502 649.094933,140.595727 C648.271488,139.993662 647.747477,139.391597 647.073748,138.864789 C646.924031,138.639015 646.774314,138.488499 646.549738,138.262724 C646.40002,138.262724 646.40002,138.03695 646.40002,138.03695 C646.250303,138.03695 646.250303,137.811175 646.100585,137.660659 C645.576575,136.908077 645.127422,135.929721 644.753129,134.951364 C644.603412,134.349299 644.453694,133.596717 644.229118,132.994652 C643.55539,128.479161 644.378835,124.189446 646.549738,120.652311 Z" id="Path" fill="#FFFFFF" fill-rule="nonzero" opacity="0.7"></path>
            <path d="M253.98651,107.470972 C253.537881,109.049752 253.089252,110.553353 252.266765,111.906593 L252.266765,111.906593 C241.051037,133.783977 195.814266,118.372074 195.814266,118.372074 C195.814266,118.372074 165.457028,136.114558 106.686611,120.251574 C106.686611,120.251574 83.9560682,125.965256 69.749479,126.867416 C55.5428898,127.769576 27.5783404,124.386475 26.0081385,106.794352 C26.0081385,106.493632 26.0081385,106.042552 26.0081385,105.741832 C25.7090524,96.4946898 33.7096053,93.1115891 40.7381284,91.8335289 L40.7381284,91.8335289 C46.271221,90.9313687 51.2061415,91.3824488 51.2061415,91.3824488 C51.2061415,91.3824488 55.3185752,66.5730438 84.928098,63.3403032 C84.928098,63.3403032 95.5456542,35.8995977 120.818429,47.1766 C120.818429,47.1766 139.212223,12.5937931 177.420471,38.8316183 C177.420471,38.8316183 199.47807,33.2682972 202.91756,56.1230218 C202.91756,56.1230218 225.648103,51.3115008 228.713735,78.0004061 C228.713735,78.0004061 245.911185,78.7522063 252.491079,89.8788485 C254.883768,94.0889293 255.930569,99.8026104 253.98651,107.470972 Z" id="Path" fill="#FFFFFF" fill-rule="nonzero" opacity="0.8"></path>
            <path d="M942.98651,335.470972 C942.537881,337.049752 942.089252,338.553353 941.266765,339.906593 L941.266765,339.906593 C930.051037,361.783977 884.814266,346.372074 884.814266,346.372074 C884.814266,346.372074 854.457028,364.114558 795.686611,348.251574 C795.686611,348.251574 772.956068,353.965256 758.749479,354.867416 C744.468118,355.769576 716.57834,352.386475 715.008138,334.794352 C715.008138,334.493632 715.008138,334.042552 715.008138,333.741832 C714.709052,324.49469 722.709605,321.111589 729.738128,319.833529 L729.738128,319.833529 C735.271221,318.931369 740.206141,319.382449 740.206141,319.382449 C740.206141,319.382449 744.318575,294.573044 773.928098,291.340303 C773.928098,291.340303 784.545654,263.899598 809.818429,275.1766 C809.818429,275.1766 828.212223,240.593793 866.420471,266.831618 C866.420471,266.831618 888.47807,261.268297 891.91756,284.123022 C891.91756,284.123022 914.648103,279.311501 917.713735,306.000406 C917.713735,306.000406 934.911185,306.752206 941.491079,317.878848 C943.883768,322.088929 944.930569,327.80261 942.98651,335.470972 Z" id="Path" fill="#FFFFFF" fill-rule="nonzero" opacity="0.6"></path>
            <path d="M663,220.143347 C663.148428,230.724305 645.151441,225.921601 645.151441,225.921601 C645.151441,225.921601 638.654604,235.076756 621.030999,232.075066 C621.030999,232.075066 600.793723,247.383686 569.803061,235.827178 C569.803061,235.827178 561.439316,242.280812 548.146936,240.254671 C548.146936,240.254671 526.864192,250.460418 505.133391,237.177939 C504.237276,236.502559 484,237.177939 484,225.921601 C484,224.871009 484.149353,224.195629 484.373381,223.220079 L484.373381,223.220079 C485.568202,217.066614 491.392953,211.963741 499.084611,210.312811 L499.084611,210.312811 C503.789218,208.962051 509.016558,208.962051 514.467928,210.688022 C514.467928,210.688022 518.127066,201.157656 526.71484,204.534557 C526.71484,204.534557 543.815711,182.096923 576.897309,192.97805 C576.897309,192.97805 595.043648,191.252078 601.167105,210.312811 C601.167105,210.312811 620.582941,193.278219 645.37547,207.911459 C645.37547,207.911459 656.05418,204.534557 660.908139,213.014332 C661.580226,214.064924 662.10296,215.715854 662.476341,217.066614 C662.849723,218.492417 663,219.467966 663,220.143347 Z" id="Path" fill="#FFFFFF" fill-rule="nonzero" opacity="0.8"></path>
            <path d="M490.920502,121.156026 C490.920502,121.307077 490.920502,121.458128 490.920502,121.760231 C490.920502,122.062333 490.770967,122.213385 490.770967,122.515487 L490.770967,122.666539 C490.770967,122.81759 490.621433,122.968641 490.621433,123.270744 C490.621433,123.270744 490.621433,123.270744 490.621433,123.421795 C490.471898,123.572846 490.471898,123.723898 490.322364,123.874949 C490.17283,124.177051 490.023295,124.328103 489.724226,124.630205 C489.574692,124.781257 489.425157,124.932308 489.275623,125.083359 L489.126088,125.23441 C488.976554,125.385462 488.827019,125.536513 488.677485,125.687564 C488.527951,125.838616 488.228882,125.989667 488.079347,126.140718 C487.331675,126.744923 486.359701,127.198077 485.462494,127.50018 C485.013891,127.651231 484.714822,127.802282 484.266219,127.953334 L484.266219,127.953334 C483.069943,128.406488 481.7989,128.70859 480.602624,129.010693 C480.154021,129.161744 479.705418,129.161744 479.406349,129.312795 C479.256814,129.312795 479.256814,129.312795 479.10728,129.312795 C478.808211,129.312795 478.509142,129.463847 478.060539,129.463847 C476.041824,129.765949 473.948341,130.068052 472.079161,130.219103 C471.780092,130.219103 471.481023,130.219103 471.181954,130.219103 C470.583816,130.219103 469.985678,130.219103 469.462308,130.219103 C469.312773,130.219103 469.013704,130.219103 468.86417,130.219103 C468.714635,130.219103 468.415566,130.219103 468.266032,130.219103 C466.097782,130.219103 464.901507,130.219103 464.901507,130.219103 C464.901507,130.219103 447.854579,142.303206 416.900947,133.768808 C416.900947,133.768808 406.284001,136.563257 397.536235,130.672257 L397.536235,130.672257 C396.788563,131.276462 379.741635,144.795553 352.451597,130.370154 C352.451597,130.370154 336.002807,132.711449 333.460721,124.932308 C333.460721,124.781257 333.460721,124.781257 333.311187,124.630205 C332.713049,122.439962 333.012118,120.325243 333.909325,118.135 C336.526177,111.941897 344.675805,106.655102 354.918915,108.392191 C357.984372,105.29564 363.068543,102.954345 368.227482,106.201948 C368.227482,106.201948 375.928506,70.5538428 416.078507,78.0308818 C416.078507,78.0308818 446.284467,74.0280225 447.405976,96.1570368 C447.405976,96.1570368 465.051041,97.5164984 474.546479,107.636935 C482.471805,108.165614 491.967243,112.017422 490.920502,121.156026 Z" id="Path" fill="#FFFFFF" fill-rule="nonzero" opacity="0.76"></path>
        </g>
    </g>
</svg>